; NON-PLATED HOLES START AT T1
; THROUGH (PLATED) HOLES START AT T100
M48
INCH
T100C0.040000
T101C0.038000
T102C0.031496
T103C0.040639
T104C0.035000
%
T100
X025382Y014537
X026382Y014537
X024382Y014537
X030382Y014537
X031382Y014537
X028382Y014537
X027382Y014537
X029382Y014537
T101
X008382Y007537
X008382Y008537
X008382Y006537
T102
X001382Y014537
X018382Y017537
X002382Y012537
X022382Y017537
X003382Y017537
X006382Y013537
X008382Y015537
X005382Y011537
X003382Y011537
T103
X018382Y021537
X004382Y021537
X016382Y020537
X008382Y021537
X021382Y021537
X010382Y021537
X005382Y021537
X014382Y021537
X006382Y020537
X012382Y021537
X004382Y020537
X014382Y020537
X022382Y021537
X011382Y020537
X021382Y020537
X015382Y020537
X012382Y020537
X009382Y021537
X009382Y020537
X019382Y021537
X003382Y021537
X008382Y020537
X020382Y021537
X018382Y020537
X005382Y020537
X007382Y021537
X006382Y021537
X019382Y020537
X003382Y020537
X017382Y020537
X007382Y020537
X011382Y021537
X017382Y021537
X020382Y020537
X015382Y021537
X016382Y021537
X013382Y021537
X022382Y020537
X013382Y020537
X010382Y020537
T104
X020382Y010537
X020382Y014537
T00
M30
