G04 MADE WITH FRITZING*
G04 WWW.FRITZING.ORG*
G04 DOUBLE SIDED*
G04 HOLES PLATED*
G04 CONTOUR ON CENTER OF CONTOUR VECTOR*
%ASAXBY*%
%FSLAX23Y23*%
%MOIN*%
%OFA0B0*%
%SFA1.0B1.0*%
%ADD10R,3.324720X2.607460X3.308720X2.591460*%
%ADD11C,0.008000*%
%ADD12R,0.001000X0.001000*%
%LNSILK0*%
G90*
G70*
G54D11*
X4Y2603D02*
X3321Y2603D01*
X3321Y4D01*
X4Y4D01*
X4Y2603D01*
D02*
G54D12*
X1860Y818D02*
X1876Y818D01*
X1853Y817D02*
X1882Y817D01*
X1848Y816D02*
X1887Y816D01*
X1845Y815D02*
X1890Y815D01*
X1842Y814D02*
X1894Y814D01*
X1839Y813D02*
X1857Y813D01*
X1879Y813D02*
X1896Y813D01*
X1837Y812D02*
X1852Y812D01*
X1884Y812D02*
X1899Y812D01*
X1834Y811D02*
X1848Y811D01*
X1888Y811D02*
X1901Y811D01*
X1833Y810D02*
X1845Y810D01*
X1892Y810D02*
X1903Y810D01*
X1831Y809D02*
X1842Y809D01*
X1894Y809D02*
X1905Y809D01*
X1829Y808D02*
X1839Y808D01*
X1897Y808D02*
X1907Y808D01*
X1827Y807D02*
X1837Y807D01*
X1899Y807D02*
X1909Y807D01*
X1826Y806D02*
X1835Y806D01*
X1901Y806D02*
X1910Y806D01*
X1824Y805D02*
X1833Y805D01*
X1903Y805D02*
X1912Y805D01*
X1823Y804D02*
X1831Y804D01*
X1905Y804D02*
X1913Y804D01*
X1821Y803D02*
X1829Y803D01*
X1907Y803D02*
X1915Y803D01*
X1820Y802D02*
X1828Y802D01*
X1908Y802D02*
X1916Y802D01*
X1819Y801D02*
X1826Y801D01*
X1910Y801D02*
X1917Y801D01*
X1817Y800D02*
X1825Y800D01*
X1911Y800D02*
X1918Y800D01*
X1816Y799D02*
X1823Y799D01*
X1913Y799D02*
X1920Y799D01*
X1815Y798D02*
X1822Y798D01*
X1914Y798D02*
X1921Y798D01*
X1814Y797D02*
X1821Y797D01*
X1915Y797D02*
X1922Y797D01*
X1813Y796D02*
X1820Y796D01*
X1916Y796D02*
X1923Y796D01*
X1812Y795D02*
X1818Y795D01*
X1918Y795D02*
X1924Y795D01*
X1811Y794D02*
X1817Y794D01*
X1919Y794D02*
X1925Y794D01*
X1810Y793D02*
X1816Y793D01*
X1920Y793D02*
X1926Y793D01*
X1809Y792D02*
X1815Y792D01*
X1921Y792D02*
X1927Y792D01*
X1808Y791D02*
X1814Y791D01*
X1922Y791D02*
X1928Y791D01*
X1807Y790D02*
X1813Y790D01*
X1923Y790D02*
X1928Y790D01*
X1807Y789D02*
X1812Y789D01*
X1924Y789D02*
X1929Y789D01*
X1806Y788D02*
X1811Y788D01*
X1924Y788D02*
X1930Y788D01*
X1805Y787D02*
X1811Y787D01*
X1925Y787D02*
X1931Y787D01*
X1805Y786D02*
X1810Y786D01*
X1926Y786D02*
X1932Y786D01*
X1804Y785D02*
X1809Y785D01*
X1927Y785D02*
X1932Y785D01*
X1804Y784D02*
X1809Y784D01*
X1928Y784D02*
X1933Y784D01*
X1804Y783D02*
X1809Y783D01*
X1928Y783D02*
X1934Y783D01*
X1804Y782D02*
X1809Y782D01*
X1929Y782D02*
X1934Y782D01*
X1804Y781D02*
X1809Y781D01*
X1930Y781D02*
X1935Y781D01*
X1804Y780D02*
X1809Y780D01*
X1931Y780D02*
X1936Y780D01*
X1804Y779D02*
X1809Y779D01*
X1931Y779D02*
X1936Y779D01*
X1804Y778D02*
X1809Y778D01*
X1932Y778D02*
X1936Y778D01*
X1804Y777D02*
X1809Y777D01*
X1932Y777D02*
X1936Y777D01*
X1804Y776D02*
X1809Y776D01*
X1933Y776D02*
X1936Y776D01*
X1804Y775D02*
X1809Y775D01*
X1804Y774D02*
X1809Y774D01*
X1804Y773D02*
X1809Y773D01*
X1805Y772D02*
X1806Y772D01*
X1805Y707D02*
X1806Y707D01*
X1804Y706D02*
X1808Y706D01*
X1804Y705D02*
X1809Y705D01*
X1804Y704D02*
X1809Y704D01*
X1804Y703D02*
X1809Y703D01*
X1804Y702D02*
X1809Y702D01*
X1933Y702D02*
X1935Y702D01*
X1804Y701D02*
X1809Y701D01*
X1932Y701D02*
X1936Y701D01*
X1804Y700D02*
X1809Y700D01*
X1931Y700D02*
X1936Y700D01*
X1804Y699D02*
X1809Y699D01*
X1931Y699D02*
X1936Y699D01*
X1804Y698D02*
X1809Y698D01*
X1930Y698D02*
X1935Y698D01*
X1804Y697D02*
X1809Y697D01*
X1929Y697D02*
X1934Y697D01*
X1804Y696D02*
X1809Y696D01*
X1929Y696D02*
X1934Y696D01*
X1804Y695D02*
X1809Y695D01*
X1928Y695D02*
X1933Y695D01*
X1804Y694D02*
X1809Y694D01*
X1927Y694D02*
X1932Y694D01*
X1804Y693D02*
X1810Y693D01*
X1926Y693D02*
X1932Y693D01*
X1805Y692D02*
X1810Y692D01*
X1926Y692D02*
X1931Y692D01*
X1806Y691D02*
X1811Y691D01*
X1925Y691D02*
X1930Y691D01*
X1806Y690D02*
X1812Y690D01*
X1924Y690D02*
X1929Y690D01*
X1807Y689D02*
X1813Y689D01*
X1923Y689D02*
X1929Y689D01*
X1808Y688D02*
X1814Y688D01*
X1922Y688D02*
X1928Y688D01*
X1809Y687D02*
X1815Y687D01*
X1921Y687D02*
X1927Y687D01*
X1810Y686D02*
X1816Y686D01*
X1920Y686D02*
X1926Y686D01*
X1811Y685D02*
X1817Y685D01*
X1919Y685D02*
X1925Y685D01*
X1812Y684D02*
X1818Y684D01*
X1918Y684D02*
X1924Y684D01*
X1813Y683D02*
X1819Y683D01*
X1917Y683D02*
X1923Y683D01*
X1814Y682D02*
X1820Y682D01*
X1915Y682D02*
X1922Y682D01*
X1815Y681D02*
X1822Y681D01*
X1914Y681D02*
X1921Y681D01*
X1816Y680D02*
X1823Y680D01*
X1913Y680D02*
X1920Y680D01*
X1817Y679D02*
X1824Y679D01*
X1912Y679D02*
X1919Y679D01*
X1818Y678D02*
X1826Y678D01*
X1910Y678D02*
X1918Y678D01*
X1820Y677D02*
X1827Y677D01*
X1909Y677D02*
X1916Y677D01*
X1821Y676D02*
X1829Y676D01*
X1907Y676D02*
X1915Y676D01*
X1822Y675D02*
X1830Y675D01*
X1905Y675D02*
X1914Y675D01*
X1824Y674D02*
X1832Y674D01*
X1904Y674D02*
X1912Y674D01*
X1825Y673D02*
X1834Y673D01*
X1902Y673D02*
X1911Y673D01*
X1827Y672D02*
X1836Y672D01*
X1900Y672D02*
X1909Y672D01*
X1828Y671D02*
X1838Y671D01*
X1897Y671D02*
X1908Y671D01*
X1830Y670D02*
X1841Y670D01*
X1895Y670D02*
X1906Y670D01*
X1832Y669D02*
X1843Y669D01*
X1892Y669D02*
X1904Y669D01*
X1834Y668D02*
X1847Y668D01*
X1889Y668D02*
X1902Y668D01*
X1836Y667D02*
X1850Y667D01*
X1885Y667D02*
X1900Y667D01*
X1839Y666D02*
X1855Y666D01*
X1881Y666D02*
X1897Y666D01*
X1841Y665D02*
X1895Y665D01*
X1844Y664D02*
X1892Y664D01*
X1848Y663D02*
X1889Y663D01*
X1852Y662D02*
X1884Y662D01*
X1857Y661D02*
X1879Y661D01*
D02*
G04 End of Silk0*
M02*