G04 MADE WITH FRITZING*
G04 WWW.FRITZING.ORG*
G04 DOUBLE SIDED*
G04 HOLES PLATED*
G04 CONTOUR ON CENTER OF CONTOUR VECTOR*
%ASAXBY*%
%FSLAX23Y23*%
%MOIN*%
%OFA0B0*%
%SFA1.0B1.0*%
%ADD10R,0.001000X0.001000*%
%LNSILK0*%
G90*
G70*
G54D10*
X0Y2644D02*
X3371Y2644D01*
X0Y2643D02*
X3371Y2643D01*
X0Y2642D02*
X3371Y2642D01*
X0Y2641D02*
X3371Y2641D01*
X0Y2640D02*
X3371Y2640D01*
X0Y2639D02*
X3371Y2639D01*
X0Y2638D02*
X3371Y2638D01*
X0Y2637D02*
X3371Y2637D01*
X0Y2636D02*
X7Y2636D01*
X3364Y2636D02*
X3371Y2636D01*
X0Y2635D02*
X7Y2635D01*
X3364Y2635D02*
X3371Y2635D01*
X0Y2634D02*
X7Y2634D01*
X3364Y2634D02*
X3371Y2634D01*
X0Y2633D02*
X7Y2633D01*
X3364Y2633D02*
X3371Y2633D01*
X0Y2632D02*
X7Y2632D01*
X3364Y2632D02*
X3371Y2632D01*
X0Y2631D02*
X7Y2631D01*
X3364Y2631D02*
X3371Y2631D01*
X0Y2630D02*
X7Y2630D01*
X3364Y2630D02*
X3371Y2630D01*
X0Y2629D02*
X7Y2629D01*
X3364Y2629D02*
X3371Y2629D01*
X0Y2628D02*
X7Y2628D01*
X3364Y2628D02*
X3371Y2628D01*
X0Y2627D02*
X7Y2627D01*
X3364Y2627D02*
X3371Y2627D01*
X0Y2626D02*
X7Y2626D01*
X3364Y2626D02*
X3371Y2626D01*
X0Y2625D02*
X7Y2625D01*
X3364Y2625D02*
X3371Y2625D01*
X0Y2624D02*
X7Y2624D01*
X3364Y2624D02*
X3371Y2624D01*
X0Y2623D02*
X7Y2623D01*
X3364Y2623D02*
X3371Y2623D01*
X0Y2622D02*
X7Y2622D01*
X3364Y2622D02*
X3371Y2622D01*
X0Y2621D02*
X7Y2621D01*
X3364Y2621D02*
X3371Y2621D01*
X0Y2620D02*
X7Y2620D01*
X3364Y2620D02*
X3371Y2620D01*
X0Y2619D02*
X7Y2619D01*
X3364Y2619D02*
X3371Y2619D01*
X0Y2618D02*
X7Y2618D01*
X3364Y2618D02*
X3371Y2618D01*
X0Y2617D02*
X7Y2617D01*
X3364Y2617D02*
X3371Y2617D01*
X0Y2616D02*
X7Y2616D01*
X3364Y2616D02*
X3371Y2616D01*
X0Y2615D02*
X7Y2615D01*
X3364Y2615D02*
X3371Y2615D01*
X0Y2614D02*
X7Y2614D01*
X3364Y2614D02*
X3371Y2614D01*
X0Y2613D02*
X7Y2613D01*
X3364Y2613D02*
X3371Y2613D01*
X0Y2612D02*
X7Y2612D01*
X3364Y2612D02*
X3371Y2612D01*
X0Y2611D02*
X7Y2611D01*
X3364Y2611D02*
X3371Y2611D01*
X0Y2610D02*
X7Y2610D01*
X3364Y2610D02*
X3371Y2610D01*
X0Y2609D02*
X7Y2609D01*
X3364Y2609D02*
X3371Y2609D01*
X0Y2608D02*
X7Y2608D01*
X3364Y2608D02*
X3371Y2608D01*
X0Y2607D02*
X7Y2607D01*
X3364Y2607D02*
X3371Y2607D01*
X0Y2606D02*
X7Y2606D01*
X3364Y2606D02*
X3371Y2606D01*
X0Y2605D02*
X7Y2605D01*
X3364Y2605D02*
X3371Y2605D01*
X0Y2604D02*
X7Y2604D01*
X3364Y2604D02*
X3371Y2604D01*
X0Y2603D02*
X7Y2603D01*
X3364Y2603D02*
X3371Y2603D01*
X0Y2602D02*
X7Y2602D01*
X3364Y2602D02*
X3371Y2602D01*
X0Y2601D02*
X7Y2601D01*
X3364Y2601D02*
X3371Y2601D01*
X0Y2600D02*
X7Y2600D01*
X3364Y2600D02*
X3371Y2600D01*
X0Y2599D02*
X7Y2599D01*
X3364Y2599D02*
X3371Y2599D01*
X0Y2598D02*
X7Y2598D01*
X3364Y2598D02*
X3371Y2598D01*
X0Y2597D02*
X7Y2597D01*
X3364Y2597D02*
X3371Y2597D01*
X0Y2596D02*
X7Y2596D01*
X3364Y2596D02*
X3371Y2596D01*
X0Y2595D02*
X7Y2595D01*
X3364Y2595D02*
X3371Y2595D01*
X0Y2594D02*
X7Y2594D01*
X3364Y2594D02*
X3371Y2594D01*
X0Y2593D02*
X7Y2593D01*
X3364Y2593D02*
X3371Y2593D01*
X0Y2592D02*
X7Y2592D01*
X3364Y2592D02*
X3371Y2592D01*
X0Y2591D02*
X7Y2591D01*
X3364Y2591D02*
X3371Y2591D01*
X0Y2590D02*
X7Y2590D01*
X3364Y2590D02*
X3371Y2590D01*
X0Y2589D02*
X7Y2589D01*
X3364Y2589D02*
X3371Y2589D01*
X0Y2588D02*
X7Y2588D01*
X3364Y2588D02*
X3371Y2588D01*
X0Y2587D02*
X7Y2587D01*
X3364Y2587D02*
X3371Y2587D01*
X0Y2586D02*
X7Y2586D01*
X3364Y2586D02*
X3371Y2586D01*
X0Y2585D02*
X7Y2585D01*
X3364Y2585D02*
X3371Y2585D01*
X0Y2584D02*
X7Y2584D01*
X3364Y2584D02*
X3371Y2584D01*
X0Y2583D02*
X7Y2583D01*
X3364Y2583D02*
X3371Y2583D01*
X0Y2582D02*
X7Y2582D01*
X3364Y2582D02*
X3371Y2582D01*
X0Y2581D02*
X7Y2581D01*
X3364Y2581D02*
X3371Y2581D01*
X0Y2580D02*
X7Y2580D01*
X3364Y2580D02*
X3371Y2580D01*
X0Y2579D02*
X7Y2579D01*
X3364Y2579D02*
X3371Y2579D01*
X0Y2578D02*
X7Y2578D01*
X3364Y2578D02*
X3371Y2578D01*
X0Y2577D02*
X7Y2577D01*
X3364Y2577D02*
X3371Y2577D01*
X0Y2576D02*
X7Y2576D01*
X3364Y2576D02*
X3371Y2576D01*
X0Y2575D02*
X7Y2575D01*
X3364Y2575D02*
X3371Y2575D01*
X0Y2574D02*
X7Y2574D01*
X3364Y2574D02*
X3371Y2574D01*
X0Y2573D02*
X7Y2573D01*
X3364Y2573D02*
X3371Y2573D01*
X0Y2572D02*
X7Y2572D01*
X3364Y2572D02*
X3371Y2572D01*
X0Y2571D02*
X7Y2571D01*
X3364Y2571D02*
X3371Y2571D01*
X0Y2570D02*
X7Y2570D01*
X3364Y2570D02*
X3371Y2570D01*
X0Y2569D02*
X7Y2569D01*
X3364Y2569D02*
X3371Y2569D01*
X0Y2568D02*
X7Y2568D01*
X3364Y2568D02*
X3371Y2568D01*
X0Y2567D02*
X7Y2567D01*
X3364Y2567D02*
X3371Y2567D01*
X0Y2566D02*
X7Y2566D01*
X3364Y2566D02*
X3371Y2566D01*
X0Y2565D02*
X7Y2565D01*
X3364Y2565D02*
X3371Y2565D01*
X0Y2564D02*
X7Y2564D01*
X3364Y2564D02*
X3371Y2564D01*
X0Y2563D02*
X7Y2563D01*
X3364Y2563D02*
X3371Y2563D01*
X0Y2562D02*
X7Y2562D01*
X3364Y2562D02*
X3371Y2562D01*
X0Y2561D02*
X7Y2561D01*
X3364Y2561D02*
X3371Y2561D01*
X0Y2560D02*
X7Y2560D01*
X3364Y2560D02*
X3371Y2560D01*
X0Y2559D02*
X7Y2559D01*
X3364Y2559D02*
X3371Y2559D01*
X0Y2558D02*
X7Y2558D01*
X3364Y2558D02*
X3371Y2558D01*
X0Y2557D02*
X7Y2557D01*
X3364Y2557D02*
X3371Y2557D01*
X0Y2556D02*
X7Y2556D01*
X3364Y2556D02*
X3371Y2556D01*
X0Y2555D02*
X7Y2555D01*
X3364Y2555D02*
X3371Y2555D01*
X0Y2554D02*
X7Y2554D01*
X3364Y2554D02*
X3371Y2554D01*
X0Y2553D02*
X7Y2553D01*
X3364Y2553D02*
X3371Y2553D01*
X0Y2552D02*
X7Y2552D01*
X3364Y2552D02*
X3371Y2552D01*
X0Y2551D02*
X7Y2551D01*
X3364Y2551D02*
X3371Y2551D01*
X0Y2550D02*
X7Y2550D01*
X3364Y2550D02*
X3371Y2550D01*
X0Y2549D02*
X7Y2549D01*
X3364Y2549D02*
X3371Y2549D01*
X0Y2548D02*
X7Y2548D01*
X3364Y2548D02*
X3371Y2548D01*
X0Y2547D02*
X7Y2547D01*
X3364Y2547D02*
X3371Y2547D01*
X0Y2546D02*
X7Y2546D01*
X3364Y2546D02*
X3371Y2546D01*
X0Y2545D02*
X7Y2545D01*
X3364Y2545D02*
X3371Y2545D01*
X0Y2544D02*
X7Y2544D01*
X3364Y2544D02*
X3371Y2544D01*
X0Y2543D02*
X7Y2543D01*
X3364Y2543D02*
X3371Y2543D01*
X0Y2542D02*
X7Y2542D01*
X3364Y2542D02*
X3371Y2542D01*
X0Y2541D02*
X7Y2541D01*
X3364Y2541D02*
X3371Y2541D01*
X0Y2540D02*
X7Y2540D01*
X3364Y2540D02*
X3371Y2540D01*
X0Y2539D02*
X7Y2539D01*
X3364Y2539D02*
X3371Y2539D01*
X0Y2538D02*
X7Y2538D01*
X3364Y2538D02*
X3371Y2538D01*
X0Y2537D02*
X7Y2537D01*
X3364Y2537D02*
X3371Y2537D01*
X0Y2536D02*
X7Y2536D01*
X3364Y2536D02*
X3371Y2536D01*
X0Y2535D02*
X7Y2535D01*
X3364Y2535D02*
X3371Y2535D01*
X0Y2534D02*
X7Y2534D01*
X3364Y2534D02*
X3371Y2534D01*
X0Y2533D02*
X7Y2533D01*
X3364Y2533D02*
X3371Y2533D01*
X0Y2532D02*
X7Y2532D01*
X3364Y2532D02*
X3371Y2532D01*
X0Y2531D02*
X7Y2531D01*
X3364Y2531D02*
X3371Y2531D01*
X0Y2530D02*
X7Y2530D01*
X3364Y2530D02*
X3371Y2530D01*
X0Y2529D02*
X7Y2529D01*
X3364Y2529D02*
X3371Y2529D01*
X0Y2528D02*
X7Y2528D01*
X3364Y2528D02*
X3371Y2528D01*
X0Y2527D02*
X7Y2527D01*
X3364Y2527D02*
X3371Y2527D01*
X0Y2526D02*
X7Y2526D01*
X3364Y2526D02*
X3371Y2526D01*
X0Y2525D02*
X7Y2525D01*
X3364Y2525D02*
X3371Y2525D01*
X0Y2524D02*
X7Y2524D01*
X3364Y2524D02*
X3371Y2524D01*
X0Y2523D02*
X7Y2523D01*
X3364Y2523D02*
X3371Y2523D01*
X0Y2522D02*
X7Y2522D01*
X3364Y2522D02*
X3371Y2522D01*
X0Y2521D02*
X7Y2521D01*
X3364Y2521D02*
X3371Y2521D01*
X0Y2520D02*
X7Y2520D01*
X3364Y2520D02*
X3371Y2520D01*
X0Y2519D02*
X7Y2519D01*
X3364Y2519D02*
X3371Y2519D01*
X0Y2518D02*
X7Y2518D01*
X3364Y2518D02*
X3371Y2518D01*
X0Y2517D02*
X7Y2517D01*
X3364Y2517D02*
X3371Y2517D01*
X0Y2516D02*
X7Y2516D01*
X3364Y2516D02*
X3371Y2516D01*
X0Y2515D02*
X7Y2515D01*
X3364Y2515D02*
X3371Y2515D01*
X0Y2514D02*
X7Y2514D01*
X3364Y2514D02*
X3371Y2514D01*
X0Y2513D02*
X7Y2513D01*
X3364Y2513D02*
X3371Y2513D01*
X0Y2512D02*
X7Y2512D01*
X3364Y2512D02*
X3371Y2512D01*
X0Y2511D02*
X7Y2511D01*
X3364Y2511D02*
X3371Y2511D01*
X0Y2510D02*
X7Y2510D01*
X3364Y2510D02*
X3371Y2510D01*
X0Y2509D02*
X7Y2509D01*
X3364Y2509D02*
X3371Y2509D01*
X0Y2508D02*
X7Y2508D01*
X3364Y2508D02*
X3371Y2508D01*
X0Y2507D02*
X7Y2507D01*
X3364Y2507D02*
X3371Y2507D01*
X0Y2506D02*
X7Y2506D01*
X3364Y2506D02*
X3371Y2506D01*
X0Y2505D02*
X7Y2505D01*
X3364Y2505D02*
X3371Y2505D01*
X0Y2504D02*
X7Y2504D01*
X3364Y2504D02*
X3371Y2504D01*
X0Y2503D02*
X7Y2503D01*
X3364Y2503D02*
X3371Y2503D01*
X0Y2502D02*
X7Y2502D01*
X3364Y2502D02*
X3371Y2502D01*
X0Y2501D02*
X7Y2501D01*
X3364Y2501D02*
X3371Y2501D01*
X0Y2500D02*
X7Y2500D01*
X3364Y2500D02*
X3371Y2500D01*
X0Y2499D02*
X7Y2499D01*
X3364Y2499D02*
X3371Y2499D01*
X0Y2498D02*
X7Y2498D01*
X3364Y2498D02*
X3371Y2498D01*
X0Y2497D02*
X7Y2497D01*
X3364Y2497D02*
X3371Y2497D01*
X0Y2496D02*
X7Y2496D01*
X3364Y2496D02*
X3371Y2496D01*
X0Y2495D02*
X7Y2495D01*
X3364Y2495D02*
X3371Y2495D01*
X0Y2494D02*
X7Y2494D01*
X3364Y2494D02*
X3371Y2494D01*
X0Y2493D02*
X7Y2493D01*
X3364Y2493D02*
X3371Y2493D01*
X0Y2492D02*
X7Y2492D01*
X3364Y2492D02*
X3371Y2492D01*
X0Y2491D02*
X7Y2491D01*
X3364Y2491D02*
X3371Y2491D01*
X0Y2490D02*
X7Y2490D01*
X3364Y2490D02*
X3371Y2490D01*
X0Y2489D02*
X7Y2489D01*
X3364Y2489D02*
X3371Y2489D01*
X0Y2488D02*
X7Y2488D01*
X3364Y2488D02*
X3371Y2488D01*
X0Y2487D02*
X7Y2487D01*
X3364Y2487D02*
X3371Y2487D01*
X0Y2486D02*
X7Y2486D01*
X3364Y2486D02*
X3371Y2486D01*
X0Y2485D02*
X7Y2485D01*
X3364Y2485D02*
X3371Y2485D01*
X0Y2484D02*
X7Y2484D01*
X3364Y2484D02*
X3371Y2484D01*
X0Y2483D02*
X7Y2483D01*
X3364Y2483D02*
X3371Y2483D01*
X0Y2482D02*
X7Y2482D01*
X3364Y2482D02*
X3371Y2482D01*
X0Y2481D02*
X7Y2481D01*
X3364Y2481D02*
X3371Y2481D01*
X0Y2480D02*
X7Y2480D01*
X3364Y2480D02*
X3371Y2480D01*
X0Y2479D02*
X7Y2479D01*
X3364Y2479D02*
X3371Y2479D01*
X0Y2478D02*
X7Y2478D01*
X3364Y2478D02*
X3371Y2478D01*
X0Y2477D02*
X7Y2477D01*
X3364Y2477D02*
X3371Y2477D01*
X0Y2476D02*
X7Y2476D01*
X3364Y2476D02*
X3371Y2476D01*
X0Y2475D02*
X7Y2475D01*
X3364Y2475D02*
X3371Y2475D01*
X0Y2474D02*
X7Y2474D01*
X3364Y2474D02*
X3371Y2474D01*
X0Y2473D02*
X7Y2473D01*
X3364Y2473D02*
X3371Y2473D01*
X0Y2472D02*
X7Y2472D01*
X3364Y2472D02*
X3371Y2472D01*
X0Y2471D02*
X7Y2471D01*
X3364Y2471D02*
X3371Y2471D01*
X0Y2470D02*
X7Y2470D01*
X3364Y2470D02*
X3371Y2470D01*
X0Y2469D02*
X7Y2469D01*
X3364Y2469D02*
X3371Y2469D01*
X0Y2468D02*
X7Y2468D01*
X3364Y2468D02*
X3371Y2468D01*
X0Y2467D02*
X7Y2467D01*
X3364Y2467D02*
X3371Y2467D01*
X0Y2466D02*
X7Y2466D01*
X3364Y2466D02*
X3371Y2466D01*
X0Y2465D02*
X7Y2465D01*
X3364Y2465D02*
X3371Y2465D01*
X0Y2464D02*
X7Y2464D01*
X3364Y2464D02*
X3371Y2464D01*
X0Y2463D02*
X7Y2463D01*
X3364Y2463D02*
X3371Y2463D01*
X0Y2462D02*
X7Y2462D01*
X3364Y2462D02*
X3371Y2462D01*
X0Y2461D02*
X7Y2461D01*
X3364Y2461D02*
X3371Y2461D01*
X0Y2460D02*
X7Y2460D01*
X3364Y2460D02*
X3371Y2460D01*
X0Y2459D02*
X7Y2459D01*
X3364Y2459D02*
X3371Y2459D01*
X0Y2458D02*
X7Y2458D01*
X3364Y2458D02*
X3371Y2458D01*
X0Y2457D02*
X7Y2457D01*
X3364Y2457D02*
X3371Y2457D01*
X0Y2456D02*
X7Y2456D01*
X3364Y2456D02*
X3371Y2456D01*
X0Y2455D02*
X7Y2455D01*
X3364Y2455D02*
X3371Y2455D01*
X0Y2454D02*
X7Y2454D01*
X3364Y2454D02*
X3371Y2454D01*
X0Y2453D02*
X7Y2453D01*
X3364Y2453D02*
X3371Y2453D01*
X0Y2452D02*
X7Y2452D01*
X3364Y2452D02*
X3371Y2452D01*
X0Y2451D02*
X7Y2451D01*
X3364Y2451D02*
X3371Y2451D01*
X0Y2450D02*
X7Y2450D01*
X3364Y2450D02*
X3371Y2450D01*
X0Y2449D02*
X7Y2449D01*
X3364Y2449D02*
X3371Y2449D01*
X0Y2448D02*
X7Y2448D01*
X3364Y2448D02*
X3371Y2448D01*
X0Y2447D02*
X7Y2447D01*
X3364Y2447D02*
X3371Y2447D01*
X0Y2446D02*
X7Y2446D01*
X3364Y2446D02*
X3371Y2446D01*
X0Y2445D02*
X7Y2445D01*
X3364Y2445D02*
X3371Y2445D01*
X0Y2444D02*
X7Y2444D01*
X3364Y2444D02*
X3371Y2444D01*
X0Y2443D02*
X7Y2443D01*
X3364Y2443D02*
X3371Y2443D01*
X0Y2442D02*
X7Y2442D01*
X3364Y2442D02*
X3371Y2442D01*
X0Y2441D02*
X7Y2441D01*
X3364Y2441D02*
X3371Y2441D01*
X0Y2440D02*
X7Y2440D01*
X3364Y2440D02*
X3371Y2440D01*
X0Y2439D02*
X7Y2439D01*
X3364Y2439D02*
X3371Y2439D01*
X0Y2438D02*
X7Y2438D01*
X3364Y2438D02*
X3371Y2438D01*
X0Y2437D02*
X7Y2437D01*
X3364Y2437D02*
X3371Y2437D01*
X0Y2436D02*
X7Y2436D01*
X3364Y2436D02*
X3371Y2436D01*
X0Y2435D02*
X7Y2435D01*
X3364Y2435D02*
X3371Y2435D01*
X0Y2434D02*
X7Y2434D01*
X3364Y2434D02*
X3371Y2434D01*
X0Y2433D02*
X7Y2433D01*
X3364Y2433D02*
X3371Y2433D01*
X0Y2432D02*
X7Y2432D01*
X3364Y2432D02*
X3371Y2432D01*
X0Y2431D02*
X7Y2431D01*
X3364Y2431D02*
X3371Y2431D01*
X0Y2430D02*
X7Y2430D01*
X3364Y2430D02*
X3371Y2430D01*
X0Y2429D02*
X7Y2429D01*
X3364Y2429D02*
X3371Y2429D01*
X0Y2428D02*
X7Y2428D01*
X3364Y2428D02*
X3371Y2428D01*
X0Y2427D02*
X7Y2427D01*
X3364Y2427D02*
X3371Y2427D01*
X0Y2426D02*
X7Y2426D01*
X3364Y2426D02*
X3371Y2426D01*
X0Y2425D02*
X7Y2425D01*
X3364Y2425D02*
X3371Y2425D01*
X0Y2424D02*
X7Y2424D01*
X3364Y2424D02*
X3371Y2424D01*
X0Y2423D02*
X7Y2423D01*
X3364Y2423D02*
X3371Y2423D01*
X0Y2422D02*
X7Y2422D01*
X3364Y2422D02*
X3371Y2422D01*
X0Y2421D02*
X7Y2421D01*
X3364Y2421D02*
X3371Y2421D01*
X0Y2420D02*
X7Y2420D01*
X3364Y2420D02*
X3371Y2420D01*
X0Y2419D02*
X7Y2419D01*
X3364Y2419D02*
X3371Y2419D01*
X0Y2418D02*
X7Y2418D01*
X3364Y2418D02*
X3371Y2418D01*
X0Y2417D02*
X7Y2417D01*
X3364Y2417D02*
X3371Y2417D01*
X0Y2416D02*
X7Y2416D01*
X3364Y2416D02*
X3371Y2416D01*
X0Y2415D02*
X7Y2415D01*
X3364Y2415D02*
X3371Y2415D01*
X0Y2414D02*
X7Y2414D01*
X3364Y2414D02*
X3371Y2414D01*
X0Y2413D02*
X7Y2413D01*
X3364Y2413D02*
X3371Y2413D01*
X0Y2412D02*
X7Y2412D01*
X3364Y2412D02*
X3371Y2412D01*
X0Y2411D02*
X7Y2411D01*
X3364Y2411D02*
X3371Y2411D01*
X0Y2410D02*
X7Y2410D01*
X3364Y2410D02*
X3371Y2410D01*
X0Y2409D02*
X7Y2409D01*
X3364Y2409D02*
X3371Y2409D01*
X0Y2408D02*
X7Y2408D01*
X3364Y2408D02*
X3371Y2408D01*
X0Y2407D02*
X7Y2407D01*
X3364Y2407D02*
X3371Y2407D01*
X0Y2406D02*
X7Y2406D01*
X3364Y2406D02*
X3371Y2406D01*
X0Y2405D02*
X7Y2405D01*
X3364Y2405D02*
X3371Y2405D01*
X0Y2404D02*
X7Y2404D01*
X3364Y2404D02*
X3371Y2404D01*
X0Y2403D02*
X7Y2403D01*
X3364Y2403D02*
X3371Y2403D01*
X0Y2402D02*
X7Y2402D01*
X3364Y2402D02*
X3371Y2402D01*
X0Y2401D02*
X7Y2401D01*
X3364Y2401D02*
X3371Y2401D01*
X0Y2400D02*
X7Y2400D01*
X3364Y2400D02*
X3371Y2400D01*
X0Y2399D02*
X7Y2399D01*
X3364Y2399D02*
X3371Y2399D01*
X0Y2398D02*
X7Y2398D01*
X3364Y2398D02*
X3371Y2398D01*
X0Y2397D02*
X7Y2397D01*
X3364Y2397D02*
X3371Y2397D01*
X0Y2396D02*
X7Y2396D01*
X3364Y2396D02*
X3371Y2396D01*
X0Y2395D02*
X7Y2395D01*
X3364Y2395D02*
X3371Y2395D01*
X0Y2394D02*
X7Y2394D01*
X3364Y2394D02*
X3371Y2394D01*
X0Y2393D02*
X7Y2393D01*
X3364Y2393D02*
X3371Y2393D01*
X0Y2392D02*
X7Y2392D01*
X3364Y2392D02*
X3371Y2392D01*
X0Y2391D02*
X7Y2391D01*
X3364Y2391D02*
X3371Y2391D01*
X0Y2390D02*
X7Y2390D01*
X3364Y2390D02*
X3371Y2390D01*
X0Y2389D02*
X7Y2389D01*
X3364Y2389D02*
X3371Y2389D01*
X0Y2388D02*
X7Y2388D01*
X3364Y2388D02*
X3371Y2388D01*
X0Y2387D02*
X7Y2387D01*
X3364Y2387D02*
X3371Y2387D01*
X0Y2386D02*
X7Y2386D01*
X3364Y2386D02*
X3371Y2386D01*
X0Y2385D02*
X7Y2385D01*
X3364Y2385D02*
X3371Y2385D01*
X0Y2384D02*
X7Y2384D01*
X3364Y2384D02*
X3371Y2384D01*
X0Y2383D02*
X7Y2383D01*
X3364Y2383D02*
X3371Y2383D01*
X0Y2382D02*
X7Y2382D01*
X3364Y2382D02*
X3371Y2382D01*
X0Y2381D02*
X7Y2381D01*
X3364Y2381D02*
X3371Y2381D01*
X0Y2380D02*
X7Y2380D01*
X3364Y2380D02*
X3371Y2380D01*
X0Y2379D02*
X7Y2379D01*
X3364Y2379D02*
X3371Y2379D01*
X0Y2378D02*
X7Y2378D01*
X3364Y2378D02*
X3371Y2378D01*
X0Y2377D02*
X7Y2377D01*
X3364Y2377D02*
X3371Y2377D01*
X0Y2376D02*
X7Y2376D01*
X3364Y2376D02*
X3371Y2376D01*
X0Y2375D02*
X7Y2375D01*
X3364Y2375D02*
X3371Y2375D01*
X0Y2374D02*
X7Y2374D01*
X3364Y2374D02*
X3371Y2374D01*
X0Y2373D02*
X7Y2373D01*
X3364Y2373D02*
X3371Y2373D01*
X0Y2372D02*
X7Y2372D01*
X3364Y2372D02*
X3371Y2372D01*
X0Y2371D02*
X7Y2371D01*
X3364Y2371D02*
X3371Y2371D01*
X0Y2370D02*
X7Y2370D01*
X3364Y2370D02*
X3371Y2370D01*
X0Y2369D02*
X7Y2369D01*
X3364Y2369D02*
X3371Y2369D01*
X0Y2368D02*
X7Y2368D01*
X3364Y2368D02*
X3371Y2368D01*
X0Y2367D02*
X7Y2367D01*
X3364Y2367D02*
X3371Y2367D01*
X0Y2366D02*
X7Y2366D01*
X3364Y2366D02*
X3371Y2366D01*
X0Y2365D02*
X7Y2365D01*
X3364Y2365D02*
X3371Y2365D01*
X0Y2364D02*
X7Y2364D01*
X3364Y2364D02*
X3371Y2364D01*
X0Y2363D02*
X7Y2363D01*
X3364Y2363D02*
X3371Y2363D01*
X0Y2362D02*
X7Y2362D01*
X3364Y2362D02*
X3371Y2362D01*
X0Y2361D02*
X7Y2361D01*
X3364Y2361D02*
X3371Y2361D01*
X0Y2360D02*
X7Y2360D01*
X3364Y2360D02*
X3371Y2360D01*
X0Y2359D02*
X7Y2359D01*
X3364Y2359D02*
X3371Y2359D01*
X0Y2358D02*
X7Y2358D01*
X3364Y2358D02*
X3371Y2358D01*
X0Y2357D02*
X7Y2357D01*
X3364Y2357D02*
X3371Y2357D01*
X0Y2356D02*
X7Y2356D01*
X3364Y2356D02*
X3371Y2356D01*
X0Y2355D02*
X7Y2355D01*
X3364Y2355D02*
X3371Y2355D01*
X0Y2354D02*
X7Y2354D01*
X3364Y2354D02*
X3371Y2354D01*
X0Y2353D02*
X7Y2353D01*
X3364Y2353D02*
X3371Y2353D01*
X0Y2352D02*
X7Y2352D01*
X3364Y2352D02*
X3371Y2352D01*
X0Y2351D02*
X7Y2351D01*
X3364Y2351D02*
X3371Y2351D01*
X0Y2350D02*
X7Y2350D01*
X3364Y2350D02*
X3371Y2350D01*
X0Y2349D02*
X7Y2349D01*
X3364Y2349D02*
X3371Y2349D01*
X0Y2348D02*
X7Y2348D01*
X3364Y2348D02*
X3371Y2348D01*
X0Y2347D02*
X7Y2347D01*
X3364Y2347D02*
X3371Y2347D01*
X0Y2346D02*
X7Y2346D01*
X3364Y2346D02*
X3371Y2346D01*
X0Y2345D02*
X7Y2345D01*
X3364Y2345D02*
X3371Y2345D01*
X0Y2344D02*
X7Y2344D01*
X3364Y2344D02*
X3371Y2344D01*
X0Y2343D02*
X7Y2343D01*
X3364Y2343D02*
X3371Y2343D01*
X0Y2342D02*
X7Y2342D01*
X3364Y2342D02*
X3371Y2342D01*
X0Y2341D02*
X7Y2341D01*
X3364Y2341D02*
X3371Y2341D01*
X0Y2340D02*
X7Y2340D01*
X3364Y2340D02*
X3371Y2340D01*
X0Y2339D02*
X7Y2339D01*
X3364Y2339D02*
X3371Y2339D01*
X0Y2338D02*
X7Y2338D01*
X3364Y2338D02*
X3371Y2338D01*
X0Y2337D02*
X7Y2337D01*
X3364Y2337D02*
X3371Y2337D01*
X0Y2336D02*
X7Y2336D01*
X3364Y2336D02*
X3371Y2336D01*
X0Y2335D02*
X7Y2335D01*
X3364Y2335D02*
X3371Y2335D01*
X0Y2334D02*
X7Y2334D01*
X3364Y2334D02*
X3371Y2334D01*
X0Y2333D02*
X7Y2333D01*
X3364Y2333D02*
X3371Y2333D01*
X0Y2332D02*
X7Y2332D01*
X3364Y2332D02*
X3371Y2332D01*
X0Y2331D02*
X7Y2331D01*
X3364Y2331D02*
X3371Y2331D01*
X0Y2330D02*
X7Y2330D01*
X3364Y2330D02*
X3371Y2330D01*
X0Y2329D02*
X7Y2329D01*
X3364Y2329D02*
X3371Y2329D01*
X0Y2328D02*
X7Y2328D01*
X3364Y2328D02*
X3371Y2328D01*
X0Y2327D02*
X7Y2327D01*
X3364Y2327D02*
X3371Y2327D01*
X0Y2326D02*
X7Y2326D01*
X3364Y2326D02*
X3371Y2326D01*
X0Y2325D02*
X7Y2325D01*
X3364Y2325D02*
X3371Y2325D01*
X0Y2324D02*
X7Y2324D01*
X3364Y2324D02*
X3371Y2324D01*
X0Y2323D02*
X7Y2323D01*
X3364Y2323D02*
X3371Y2323D01*
X0Y2322D02*
X7Y2322D01*
X3364Y2322D02*
X3371Y2322D01*
X0Y2321D02*
X7Y2321D01*
X3364Y2321D02*
X3371Y2321D01*
X0Y2320D02*
X7Y2320D01*
X3364Y2320D02*
X3371Y2320D01*
X0Y2319D02*
X7Y2319D01*
X3364Y2319D02*
X3371Y2319D01*
X0Y2318D02*
X7Y2318D01*
X3364Y2318D02*
X3371Y2318D01*
X0Y2317D02*
X7Y2317D01*
X3364Y2317D02*
X3371Y2317D01*
X0Y2316D02*
X7Y2316D01*
X3364Y2316D02*
X3371Y2316D01*
X0Y2315D02*
X7Y2315D01*
X3364Y2315D02*
X3371Y2315D01*
X0Y2314D02*
X7Y2314D01*
X3364Y2314D02*
X3371Y2314D01*
X0Y2313D02*
X7Y2313D01*
X3364Y2313D02*
X3371Y2313D01*
X0Y2312D02*
X7Y2312D01*
X3364Y2312D02*
X3371Y2312D01*
X0Y2311D02*
X7Y2311D01*
X3364Y2311D02*
X3371Y2311D01*
X0Y2310D02*
X7Y2310D01*
X3364Y2310D02*
X3371Y2310D01*
X0Y2309D02*
X7Y2309D01*
X3364Y2309D02*
X3371Y2309D01*
X0Y2308D02*
X7Y2308D01*
X3364Y2308D02*
X3371Y2308D01*
X0Y2307D02*
X7Y2307D01*
X3364Y2307D02*
X3371Y2307D01*
X0Y2306D02*
X7Y2306D01*
X3364Y2306D02*
X3371Y2306D01*
X0Y2305D02*
X7Y2305D01*
X3364Y2305D02*
X3371Y2305D01*
X0Y2304D02*
X7Y2304D01*
X3364Y2304D02*
X3371Y2304D01*
X0Y2303D02*
X7Y2303D01*
X3364Y2303D02*
X3371Y2303D01*
X0Y2302D02*
X7Y2302D01*
X3364Y2302D02*
X3371Y2302D01*
X0Y2301D02*
X7Y2301D01*
X3364Y2301D02*
X3371Y2301D01*
X0Y2300D02*
X7Y2300D01*
X3364Y2300D02*
X3371Y2300D01*
X0Y2299D02*
X7Y2299D01*
X3364Y2299D02*
X3371Y2299D01*
X0Y2298D02*
X7Y2298D01*
X3364Y2298D02*
X3371Y2298D01*
X0Y2297D02*
X7Y2297D01*
X3364Y2297D02*
X3371Y2297D01*
X0Y2296D02*
X7Y2296D01*
X3364Y2296D02*
X3371Y2296D01*
X0Y2295D02*
X7Y2295D01*
X3364Y2295D02*
X3371Y2295D01*
X0Y2294D02*
X7Y2294D01*
X3364Y2294D02*
X3371Y2294D01*
X0Y2293D02*
X7Y2293D01*
X3364Y2293D02*
X3371Y2293D01*
X0Y2292D02*
X7Y2292D01*
X3364Y2292D02*
X3371Y2292D01*
X0Y2291D02*
X7Y2291D01*
X3364Y2291D02*
X3371Y2291D01*
X0Y2290D02*
X7Y2290D01*
X3364Y2290D02*
X3371Y2290D01*
X0Y2289D02*
X7Y2289D01*
X3364Y2289D02*
X3371Y2289D01*
X0Y2288D02*
X7Y2288D01*
X3364Y2288D02*
X3371Y2288D01*
X0Y2287D02*
X7Y2287D01*
X3364Y2287D02*
X3371Y2287D01*
X0Y2286D02*
X7Y2286D01*
X3364Y2286D02*
X3371Y2286D01*
X0Y2285D02*
X7Y2285D01*
X3364Y2285D02*
X3371Y2285D01*
X0Y2284D02*
X7Y2284D01*
X3364Y2284D02*
X3371Y2284D01*
X0Y2283D02*
X7Y2283D01*
X3364Y2283D02*
X3371Y2283D01*
X0Y2282D02*
X7Y2282D01*
X3364Y2282D02*
X3371Y2282D01*
X0Y2281D02*
X7Y2281D01*
X3364Y2281D02*
X3371Y2281D01*
X0Y2280D02*
X7Y2280D01*
X3364Y2280D02*
X3371Y2280D01*
X0Y2279D02*
X7Y2279D01*
X3364Y2279D02*
X3371Y2279D01*
X0Y2278D02*
X7Y2278D01*
X3364Y2278D02*
X3371Y2278D01*
X0Y2277D02*
X7Y2277D01*
X3364Y2277D02*
X3371Y2277D01*
X0Y2276D02*
X7Y2276D01*
X3364Y2276D02*
X3371Y2276D01*
X0Y2275D02*
X7Y2275D01*
X3364Y2275D02*
X3371Y2275D01*
X0Y2274D02*
X7Y2274D01*
X3364Y2274D02*
X3371Y2274D01*
X0Y2273D02*
X7Y2273D01*
X3364Y2273D02*
X3371Y2273D01*
X0Y2272D02*
X7Y2272D01*
X3364Y2272D02*
X3371Y2272D01*
X0Y2271D02*
X7Y2271D01*
X3364Y2271D02*
X3371Y2271D01*
X0Y2270D02*
X7Y2270D01*
X3364Y2270D02*
X3371Y2270D01*
X0Y2269D02*
X7Y2269D01*
X3364Y2269D02*
X3371Y2269D01*
X0Y2268D02*
X7Y2268D01*
X3364Y2268D02*
X3371Y2268D01*
X0Y2267D02*
X7Y2267D01*
X3364Y2267D02*
X3371Y2267D01*
X0Y2266D02*
X7Y2266D01*
X3364Y2266D02*
X3371Y2266D01*
X0Y2265D02*
X7Y2265D01*
X3364Y2265D02*
X3371Y2265D01*
X0Y2264D02*
X7Y2264D01*
X3364Y2264D02*
X3371Y2264D01*
X0Y2263D02*
X7Y2263D01*
X3364Y2263D02*
X3371Y2263D01*
X0Y2262D02*
X7Y2262D01*
X3364Y2262D02*
X3371Y2262D01*
X0Y2261D02*
X7Y2261D01*
X3364Y2261D02*
X3371Y2261D01*
X0Y2260D02*
X7Y2260D01*
X3364Y2260D02*
X3371Y2260D01*
X0Y2259D02*
X7Y2259D01*
X3364Y2259D02*
X3371Y2259D01*
X0Y2258D02*
X7Y2258D01*
X3364Y2258D02*
X3371Y2258D01*
X0Y2257D02*
X7Y2257D01*
X3364Y2257D02*
X3371Y2257D01*
X0Y2256D02*
X7Y2256D01*
X3364Y2256D02*
X3371Y2256D01*
X0Y2255D02*
X7Y2255D01*
X3364Y2255D02*
X3371Y2255D01*
X0Y2254D02*
X7Y2254D01*
X3364Y2254D02*
X3371Y2254D01*
X0Y2253D02*
X7Y2253D01*
X3364Y2253D02*
X3371Y2253D01*
X0Y2252D02*
X7Y2252D01*
X3364Y2252D02*
X3371Y2252D01*
X0Y2251D02*
X7Y2251D01*
X3364Y2251D02*
X3371Y2251D01*
X0Y2250D02*
X7Y2250D01*
X3364Y2250D02*
X3371Y2250D01*
X0Y2249D02*
X7Y2249D01*
X3364Y2249D02*
X3371Y2249D01*
X0Y2248D02*
X7Y2248D01*
X3364Y2248D02*
X3371Y2248D01*
X0Y2247D02*
X7Y2247D01*
X3364Y2247D02*
X3371Y2247D01*
X0Y2246D02*
X7Y2246D01*
X3364Y2246D02*
X3371Y2246D01*
X0Y2245D02*
X7Y2245D01*
X3364Y2245D02*
X3371Y2245D01*
X0Y2244D02*
X7Y2244D01*
X3364Y2244D02*
X3371Y2244D01*
X0Y2243D02*
X7Y2243D01*
X3364Y2243D02*
X3371Y2243D01*
X0Y2242D02*
X7Y2242D01*
X3364Y2242D02*
X3371Y2242D01*
X0Y2241D02*
X7Y2241D01*
X3364Y2241D02*
X3371Y2241D01*
X0Y2240D02*
X7Y2240D01*
X3364Y2240D02*
X3371Y2240D01*
X0Y2239D02*
X7Y2239D01*
X3364Y2239D02*
X3371Y2239D01*
X0Y2238D02*
X7Y2238D01*
X3364Y2238D02*
X3371Y2238D01*
X0Y2237D02*
X7Y2237D01*
X3364Y2237D02*
X3371Y2237D01*
X0Y2236D02*
X7Y2236D01*
X3364Y2236D02*
X3371Y2236D01*
X0Y2235D02*
X7Y2235D01*
X3364Y2235D02*
X3371Y2235D01*
X0Y2234D02*
X7Y2234D01*
X3364Y2234D02*
X3371Y2234D01*
X0Y2233D02*
X7Y2233D01*
X3364Y2233D02*
X3371Y2233D01*
X0Y2232D02*
X7Y2232D01*
X3364Y2232D02*
X3371Y2232D01*
X0Y2231D02*
X7Y2231D01*
X3364Y2231D02*
X3371Y2231D01*
X0Y2230D02*
X7Y2230D01*
X3364Y2230D02*
X3371Y2230D01*
X0Y2229D02*
X7Y2229D01*
X3364Y2229D02*
X3371Y2229D01*
X0Y2228D02*
X7Y2228D01*
X3364Y2228D02*
X3371Y2228D01*
X0Y2227D02*
X7Y2227D01*
X3364Y2227D02*
X3371Y2227D01*
X0Y2226D02*
X7Y2226D01*
X3364Y2226D02*
X3371Y2226D01*
X0Y2225D02*
X7Y2225D01*
X3364Y2225D02*
X3371Y2225D01*
X0Y2224D02*
X7Y2224D01*
X3364Y2224D02*
X3371Y2224D01*
X0Y2223D02*
X7Y2223D01*
X3364Y2223D02*
X3371Y2223D01*
X0Y2222D02*
X7Y2222D01*
X3364Y2222D02*
X3371Y2222D01*
X0Y2221D02*
X7Y2221D01*
X3364Y2221D02*
X3371Y2221D01*
X0Y2220D02*
X7Y2220D01*
X3364Y2220D02*
X3371Y2220D01*
X0Y2219D02*
X7Y2219D01*
X3364Y2219D02*
X3371Y2219D01*
X0Y2218D02*
X7Y2218D01*
X3364Y2218D02*
X3371Y2218D01*
X0Y2217D02*
X7Y2217D01*
X3364Y2217D02*
X3371Y2217D01*
X0Y2216D02*
X7Y2216D01*
X3364Y2216D02*
X3371Y2216D01*
X0Y2215D02*
X7Y2215D01*
X3364Y2215D02*
X3371Y2215D01*
X0Y2214D02*
X7Y2214D01*
X3364Y2214D02*
X3371Y2214D01*
X0Y2213D02*
X7Y2213D01*
X3364Y2213D02*
X3371Y2213D01*
X0Y2212D02*
X7Y2212D01*
X3364Y2212D02*
X3371Y2212D01*
X0Y2211D02*
X7Y2211D01*
X3364Y2211D02*
X3371Y2211D01*
X0Y2210D02*
X7Y2210D01*
X3364Y2210D02*
X3371Y2210D01*
X0Y2209D02*
X7Y2209D01*
X3364Y2209D02*
X3371Y2209D01*
X0Y2208D02*
X7Y2208D01*
X3364Y2208D02*
X3371Y2208D01*
X0Y2207D02*
X7Y2207D01*
X3364Y2207D02*
X3371Y2207D01*
X0Y2206D02*
X7Y2206D01*
X3364Y2206D02*
X3371Y2206D01*
X0Y2205D02*
X7Y2205D01*
X3364Y2205D02*
X3371Y2205D01*
X0Y2204D02*
X7Y2204D01*
X3364Y2204D02*
X3371Y2204D01*
X0Y2203D02*
X7Y2203D01*
X3364Y2203D02*
X3371Y2203D01*
X0Y2202D02*
X7Y2202D01*
X3364Y2202D02*
X3371Y2202D01*
X0Y2201D02*
X7Y2201D01*
X3364Y2201D02*
X3371Y2201D01*
X0Y2200D02*
X7Y2200D01*
X3364Y2200D02*
X3371Y2200D01*
X0Y2199D02*
X7Y2199D01*
X3364Y2199D02*
X3371Y2199D01*
X0Y2198D02*
X7Y2198D01*
X3364Y2198D02*
X3371Y2198D01*
X0Y2197D02*
X7Y2197D01*
X3364Y2197D02*
X3371Y2197D01*
X0Y2196D02*
X7Y2196D01*
X3364Y2196D02*
X3371Y2196D01*
X0Y2195D02*
X7Y2195D01*
X3364Y2195D02*
X3371Y2195D01*
X0Y2194D02*
X7Y2194D01*
X3364Y2194D02*
X3371Y2194D01*
X0Y2193D02*
X7Y2193D01*
X3364Y2193D02*
X3371Y2193D01*
X0Y2192D02*
X7Y2192D01*
X3364Y2192D02*
X3371Y2192D01*
X0Y2191D02*
X7Y2191D01*
X3364Y2191D02*
X3371Y2191D01*
X0Y2190D02*
X7Y2190D01*
X3364Y2190D02*
X3371Y2190D01*
X0Y2189D02*
X7Y2189D01*
X3364Y2189D02*
X3371Y2189D01*
X0Y2188D02*
X7Y2188D01*
X3364Y2188D02*
X3371Y2188D01*
X0Y2187D02*
X7Y2187D01*
X3364Y2187D02*
X3371Y2187D01*
X0Y2186D02*
X7Y2186D01*
X3364Y2186D02*
X3371Y2186D01*
X0Y2185D02*
X7Y2185D01*
X3364Y2185D02*
X3371Y2185D01*
X0Y2184D02*
X7Y2184D01*
X3364Y2184D02*
X3371Y2184D01*
X0Y2183D02*
X7Y2183D01*
X3364Y2183D02*
X3371Y2183D01*
X0Y2182D02*
X7Y2182D01*
X3364Y2182D02*
X3371Y2182D01*
X0Y2181D02*
X7Y2181D01*
X3364Y2181D02*
X3371Y2181D01*
X0Y2180D02*
X7Y2180D01*
X3364Y2180D02*
X3371Y2180D01*
X0Y2179D02*
X7Y2179D01*
X3364Y2179D02*
X3371Y2179D01*
X0Y2178D02*
X7Y2178D01*
X3364Y2178D02*
X3371Y2178D01*
X0Y2177D02*
X7Y2177D01*
X3364Y2177D02*
X3371Y2177D01*
X0Y2176D02*
X7Y2176D01*
X3364Y2176D02*
X3371Y2176D01*
X0Y2175D02*
X7Y2175D01*
X3364Y2175D02*
X3371Y2175D01*
X0Y2174D02*
X7Y2174D01*
X3364Y2174D02*
X3371Y2174D01*
X0Y2173D02*
X7Y2173D01*
X3364Y2173D02*
X3371Y2173D01*
X0Y2172D02*
X7Y2172D01*
X3364Y2172D02*
X3371Y2172D01*
X0Y2171D02*
X7Y2171D01*
X3364Y2171D02*
X3371Y2171D01*
X0Y2170D02*
X7Y2170D01*
X3364Y2170D02*
X3371Y2170D01*
X0Y2169D02*
X7Y2169D01*
X3364Y2169D02*
X3371Y2169D01*
X0Y2168D02*
X7Y2168D01*
X3364Y2168D02*
X3371Y2168D01*
X0Y2167D02*
X7Y2167D01*
X3364Y2167D02*
X3371Y2167D01*
X0Y2166D02*
X7Y2166D01*
X3364Y2166D02*
X3371Y2166D01*
X0Y2165D02*
X7Y2165D01*
X3364Y2165D02*
X3371Y2165D01*
X0Y2164D02*
X7Y2164D01*
X3364Y2164D02*
X3371Y2164D01*
X0Y2163D02*
X7Y2163D01*
X3364Y2163D02*
X3371Y2163D01*
X0Y2162D02*
X7Y2162D01*
X3364Y2162D02*
X3371Y2162D01*
X0Y2161D02*
X7Y2161D01*
X3364Y2161D02*
X3371Y2161D01*
X0Y2160D02*
X7Y2160D01*
X3364Y2160D02*
X3371Y2160D01*
X0Y2159D02*
X7Y2159D01*
X3364Y2159D02*
X3371Y2159D01*
X0Y2158D02*
X7Y2158D01*
X3364Y2158D02*
X3371Y2158D01*
X0Y2157D02*
X7Y2157D01*
X3364Y2157D02*
X3371Y2157D01*
X0Y2156D02*
X7Y2156D01*
X3364Y2156D02*
X3371Y2156D01*
X0Y2155D02*
X7Y2155D01*
X3364Y2155D02*
X3371Y2155D01*
X0Y2154D02*
X7Y2154D01*
X3364Y2154D02*
X3371Y2154D01*
X0Y2153D02*
X7Y2153D01*
X3364Y2153D02*
X3371Y2153D01*
X0Y2152D02*
X7Y2152D01*
X3364Y2152D02*
X3371Y2152D01*
X0Y2151D02*
X7Y2151D01*
X3364Y2151D02*
X3371Y2151D01*
X0Y2150D02*
X7Y2150D01*
X3364Y2150D02*
X3371Y2150D01*
X0Y2149D02*
X7Y2149D01*
X3364Y2149D02*
X3371Y2149D01*
X0Y2148D02*
X7Y2148D01*
X3364Y2148D02*
X3371Y2148D01*
X0Y2147D02*
X7Y2147D01*
X3364Y2147D02*
X3371Y2147D01*
X0Y2146D02*
X7Y2146D01*
X3364Y2146D02*
X3371Y2146D01*
X0Y2145D02*
X7Y2145D01*
X3364Y2145D02*
X3371Y2145D01*
X0Y2144D02*
X7Y2144D01*
X3364Y2144D02*
X3371Y2144D01*
X0Y2143D02*
X7Y2143D01*
X3364Y2143D02*
X3371Y2143D01*
X0Y2142D02*
X7Y2142D01*
X3364Y2142D02*
X3371Y2142D01*
X0Y2141D02*
X7Y2141D01*
X3364Y2141D02*
X3371Y2141D01*
X0Y2140D02*
X7Y2140D01*
X3364Y2140D02*
X3371Y2140D01*
X0Y2139D02*
X7Y2139D01*
X3364Y2139D02*
X3371Y2139D01*
X0Y2138D02*
X7Y2138D01*
X3364Y2138D02*
X3371Y2138D01*
X0Y2137D02*
X7Y2137D01*
X3364Y2137D02*
X3371Y2137D01*
X0Y2136D02*
X7Y2136D01*
X3364Y2136D02*
X3371Y2136D01*
X0Y2135D02*
X7Y2135D01*
X3364Y2135D02*
X3371Y2135D01*
X0Y2134D02*
X7Y2134D01*
X3364Y2134D02*
X3371Y2134D01*
X0Y2133D02*
X7Y2133D01*
X3364Y2133D02*
X3371Y2133D01*
X0Y2132D02*
X7Y2132D01*
X3364Y2132D02*
X3371Y2132D01*
X0Y2131D02*
X7Y2131D01*
X3364Y2131D02*
X3371Y2131D01*
X0Y2130D02*
X7Y2130D01*
X3364Y2130D02*
X3371Y2130D01*
X0Y2129D02*
X7Y2129D01*
X3364Y2129D02*
X3371Y2129D01*
X0Y2128D02*
X7Y2128D01*
X3364Y2128D02*
X3371Y2128D01*
X0Y2127D02*
X7Y2127D01*
X3364Y2127D02*
X3371Y2127D01*
X0Y2126D02*
X7Y2126D01*
X3364Y2126D02*
X3371Y2126D01*
X0Y2125D02*
X7Y2125D01*
X3364Y2125D02*
X3371Y2125D01*
X0Y2124D02*
X7Y2124D01*
X3364Y2124D02*
X3371Y2124D01*
X0Y2123D02*
X7Y2123D01*
X3364Y2123D02*
X3371Y2123D01*
X0Y2122D02*
X7Y2122D01*
X3364Y2122D02*
X3371Y2122D01*
X0Y2121D02*
X7Y2121D01*
X3364Y2121D02*
X3371Y2121D01*
X0Y2120D02*
X7Y2120D01*
X3364Y2120D02*
X3371Y2120D01*
X0Y2119D02*
X7Y2119D01*
X3364Y2119D02*
X3371Y2119D01*
X0Y2118D02*
X7Y2118D01*
X3364Y2118D02*
X3371Y2118D01*
X0Y2117D02*
X7Y2117D01*
X3364Y2117D02*
X3371Y2117D01*
X0Y2116D02*
X7Y2116D01*
X3364Y2116D02*
X3371Y2116D01*
X0Y2115D02*
X7Y2115D01*
X3364Y2115D02*
X3371Y2115D01*
X0Y2114D02*
X7Y2114D01*
X3364Y2114D02*
X3371Y2114D01*
X0Y2113D02*
X7Y2113D01*
X3364Y2113D02*
X3371Y2113D01*
X0Y2112D02*
X7Y2112D01*
X3364Y2112D02*
X3371Y2112D01*
X0Y2111D02*
X7Y2111D01*
X3364Y2111D02*
X3371Y2111D01*
X0Y2110D02*
X7Y2110D01*
X3364Y2110D02*
X3371Y2110D01*
X0Y2109D02*
X7Y2109D01*
X3364Y2109D02*
X3371Y2109D01*
X0Y2108D02*
X7Y2108D01*
X3364Y2108D02*
X3371Y2108D01*
X0Y2107D02*
X7Y2107D01*
X3364Y2107D02*
X3371Y2107D01*
X0Y2106D02*
X7Y2106D01*
X3364Y2106D02*
X3371Y2106D01*
X0Y2105D02*
X7Y2105D01*
X3364Y2105D02*
X3371Y2105D01*
X0Y2104D02*
X7Y2104D01*
X3364Y2104D02*
X3371Y2104D01*
X0Y2103D02*
X7Y2103D01*
X3364Y2103D02*
X3371Y2103D01*
X0Y2102D02*
X7Y2102D01*
X3364Y2102D02*
X3371Y2102D01*
X0Y2101D02*
X7Y2101D01*
X3364Y2101D02*
X3371Y2101D01*
X0Y2100D02*
X7Y2100D01*
X3364Y2100D02*
X3371Y2100D01*
X0Y2099D02*
X7Y2099D01*
X3364Y2099D02*
X3371Y2099D01*
X0Y2098D02*
X7Y2098D01*
X3364Y2098D02*
X3371Y2098D01*
X0Y2097D02*
X7Y2097D01*
X3364Y2097D02*
X3371Y2097D01*
X0Y2096D02*
X7Y2096D01*
X3364Y2096D02*
X3371Y2096D01*
X0Y2095D02*
X7Y2095D01*
X3364Y2095D02*
X3371Y2095D01*
X0Y2094D02*
X7Y2094D01*
X3364Y2094D02*
X3371Y2094D01*
X0Y2093D02*
X7Y2093D01*
X3364Y2093D02*
X3371Y2093D01*
X0Y2092D02*
X7Y2092D01*
X3364Y2092D02*
X3371Y2092D01*
X0Y2091D02*
X7Y2091D01*
X3364Y2091D02*
X3371Y2091D01*
X0Y2090D02*
X7Y2090D01*
X3364Y2090D02*
X3371Y2090D01*
X0Y2089D02*
X7Y2089D01*
X3364Y2089D02*
X3371Y2089D01*
X0Y2088D02*
X7Y2088D01*
X3364Y2088D02*
X3371Y2088D01*
X0Y2087D02*
X7Y2087D01*
X3364Y2087D02*
X3371Y2087D01*
X0Y2086D02*
X7Y2086D01*
X3364Y2086D02*
X3371Y2086D01*
X0Y2085D02*
X7Y2085D01*
X3364Y2085D02*
X3371Y2085D01*
X0Y2084D02*
X7Y2084D01*
X3364Y2084D02*
X3371Y2084D01*
X0Y2083D02*
X7Y2083D01*
X3364Y2083D02*
X3371Y2083D01*
X0Y2082D02*
X7Y2082D01*
X3364Y2082D02*
X3371Y2082D01*
X0Y2081D02*
X7Y2081D01*
X3364Y2081D02*
X3371Y2081D01*
X0Y2080D02*
X7Y2080D01*
X3364Y2080D02*
X3371Y2080D01*
X0Y2079D02*
X7Y2079D01*
X3364Y2079D02*
X3371Y2079D01*
X0Y2078D02*
X7Y2078D01*
X3364Y2078D02*
X3371Y2078D01*
X0Y2077D02*
X7Y2077D01*
X3364Y2077D02*
X3371Y2077D01*
X0Y2076D02*
X7Y2076D01*
X3364Y2076D02*
X3371Y2076D01*
X0Y2075D02*
X7Y2075D01*
X3364Y2075D02*
X3371Y2075D01*
X0Y2074D02*
X7Y2074D01*
X3364Y2074D02*
X3371Y2074D01*
X0Y2073D02*
X7Y2073D01*
X3364Y2073D02*
X3371Y2073D01*
X0Y2072D02*
X7Y2072D01*
X3364Y2072D02*
X3371Y2072D01*
X0Y2071D02*
X7Y2071D01*
X3364Y2071D02*
X3371Y2071D01*
X0Y2070D02*
X7Y2070D01*
X3364Y2070D02*
X3371Y2070D01*
X0Y2069D02*
X7Y2069D01*
X3364Y2069D02*
X3371Y2069D01*
X0Y2068D02*
X7Y2068D01*
X3364Y2068D02*
X3371Y2068D01*
X0Y2067D02*
X7Y2067D01*
X3364Y2067D02*
X3371Y2067D01*
X0Y2066D02*
X7Y2066D01*
X3364Y2066D02*
X3371Y2066D01*
X0Y2065D02*
X7Y2065D01*
X3364Y2065D02*
X3371Y2065D01*
X0Y2064D02*
X7Y2064D01*
X3364Y2064D02*
X3371Y2064D01*
X0Y2063D02*
X7Y2063D01*
X3364Y2063D02*
X3371Y2063D01*
X0Y2062D02*
X7Y2062D01*
X3364Y2062D02*
X3371Y2062D01*
X0Y2061D02*
X7Y2061D01*
X3364Y2061D02*
X3371Y2061D01*
X0Y2060D02*
X7Y2060D01*
X3364Y2060D02*
X3371Y2060D01*
X0Y2059D02*
X7Y2059D01*
X3364Y2059D02*
X3371Y2059D01*
X0Y2058D02*
X7Y2058D01*
X3364Y2058D02*
X3371Y2058D01*
X0Y2057D02*
X7Y2057D01*
X3364Y2057D02*
X3371Y2057D01*
X0Y2056D02*
X7Y2056D01*
X3364Y2056D02*
X3371Y2056D01*
X0Y2055D02*
X7Y2055D01*
X3364Y2055D02*
X3371Y2055D01*
X0Y2054D02*
X7Y2054D01*
X3364Y2054D02*
X3371Y2054D01*
X0Y2053D02*
X7Y2053D01*
X3364Y2053D02*
X3371Y2053D01*
X0Y2052D02*
X7Y2052D01*
X3364Y2052D02*
X3371Y2052D01*
X0Y2051D02*
X7Y2051D01*
X3364Y2051D02*
X3371Y2051D01*
X0Y2050D02*
X7Y2050D01*
X3364Y2050D02*
X3371Y2050D01*
X0Y2049D02*
X7Y2049D01*
X3364Y2049D02*
X3371Y2049D01*
X0Y2048D02*
X7Y2048D01*
X3364Y2048D02*
X3371Y2048D01*
X0Y2047D02*
X7Y2047D01*
X3364Y2047D02*
X3371Y2047D01*
X0Y2046D02*
X7Y2046D01*
X3364Y2046D02*
X3371Y2046D01*
X0Y2045D02*
X7Y2045D01*
X3364Y2045D02*
X3371Y2045D01*
X0Y2044D02*
X7Y2044D01*
X3364Y2044D02*
X3371Y2044D01*
X0Y2043D02*
X7Y2043D01*
X3364Y2043D02*
X3371Y2043D01*
X0Y2042D02*
X7Y2042D01*
X3364Y2042D02*
X3371Y2042D01*
X0Y2041D02*
X7Y2041D01*
X3364Y2041D02*
X3371Y2041D01*
X0Y2040D02*
X7Y2040D01*
X3364Y2040D02*
X3371Y2040D01*
X0Y2039D02*
X7Y2039D01*
X3364Y2039D02*
X3371Y2039D01*
X0Y2038D02*
X7Y2038D01*
X3364Y2038D02*
X3371Y2038D01*
X0Y2037D02*
X7Y2037D01*
X3364Y2037D02*
X3371Y2037D01*
X0Y2036D02*
X7Y2036D01*
X3364Y2036D02*
X3371Y2036D01*
X0Y2035D02*
X7Y2035D01*
X3364Y2035D02*
X3371Y2035D01*
X0Y2034D02*
X7Y2034D01*
X3364Y2034D02*
X3371Y2034D01*
X0Y2033D02*
X7Y2033D01*
X3364Y2033D02*
X3371Y2033D01*
X0Y2032D02*
X7Y2032D01*
X3364Y2032D02*
X3371Y2032D01*
X0Y2031D02*
X7Y2031D01*
X3364Y2031D02*
X3371Y2031D01*
X0Y2030D02*
X7Y2030D01*
X3364Y2030D02*
X3371Y2030D01*
X0Y2029D02*
X7Y2029D01*
X3364Y2029D02*
X3371Y2029D01*
X0Y2028D02*
X7Y2028D01*
X3364Y2028D02*
X3371Y2028D01*
X0Y2027D02*
X7Y2027D01*
X3364Y2027D02*
X3371Y2027D01*
X0Y2026D02*
X7Y2026D01*
X3364Y2026D02*
X3371Y2026D01*
X0Y2025D02*
X7Y2025D01*
X3364Y2025D02*
X3371Y2025D01*
X0Y2024D02*
X7Y2024D01*
X3364Y2024D02*
X3371Y2024D01*
X0Y2023D02*
X7Y2023D01*
X3364Y2023D02*
X3371Y2023D01*
X0Y2022D02*
X7Y2022D01*
X3364Y2022D02*
X3371Y2022D01*
X0Y2021D02*
X7Y2021D01*
X3364Y2021D02*
X3371Y2021D01*
X0Y2020D02*
X7Y2020D01*
X3364Y2020D02*
X3371Y2020D01*
X0Y2019D02*
X7Y2019D01*
X3364Y2019D02*
X3371Y2019D01*
X0Y2018D02*
X7Y2018D01*
X3364Y2018D02*
X3371Y2018D01*
X0Y2017D02*
X7Y2017D01*
X3364Y2017D02*
X3371Y2017D01*
X0Y2016D02*
X7Y2016D01*
X3364Y2016D02*
X3371Y2016D01*
X0Y2015D02*
X7Y2015D01*
X3364Y2015D02*
X3371Y2015D01*
X0Y2014D02*
X7Y2014D01*
X3364Y2014D02*
X3371Y2014D01*
X0Y2013D02*
X7Y2013D01*
X3364Y2013D02*
X3371Y2013D01*
X0Y2012D02*
X7Y2012D01*
X3364Y2012D02*
X3371Y2012D01*
X0Y2011D02*
X7Y2011D01*
X3364Y2011D02*
X3371Y2011D01*
X0Y2010D02*
X7Y2010D01*
X3364Y2010D02*
X3371Y2010D01*
X0Y2009D02*
X7Y2009D01*
X3364Y2009D02*
X3371Y2009D01*
X0Y2008D02*
X7Y2008D01*
X3364Y2008D02*
X3371Y2008D01*
X0Y2007D02*
X7Y2007D01*
X3364Y2007D02*
X3371Y2007D01*
X0Y2006D02*
X7Y2006D01*
X3364Y2006D02*
X3371Y2006D01*
X0Y2005D02*
X7Y2005D01*
X3364Y2005D02*
X3371Y2005D01*
X0Y2004D02*
X7Y2004D01*
X3364Y2004D02*
X3371Y2004D01*
X0Y2003D02*
X7Y2003D01*
X3364Y2003D02*
X3371Y2003D01*
X0Y2002D02*
X7Y2002D01*
X3364Y2002D02*
X3371Y2002D01*
X0Y2001D02*
X7Y2001D01*
X3364Y2001D02*
X3371Y2001D01*
X0Y2000D02*
X7Y2000D01*
X3364Y2000D02*
X3371Y2000D01*
X0Y1999D02*
X7Y1999D01*
X3364Y1999D02*
X3371Y1999D01*
X0Y1998D02*
X7Y1998D01*
X3364Y1998D02*
X3371Y1998D01*
X0Y1997D02*
X7Y1997D01*
X3364Y1997D02*
X3371Y1997D01*
X0Y1996D02*
X7Y1996D01*
X3364Y1996D02*
X3371Y1996D01*
X0Y1995D02*
X7Y1995D01*
X3364Y1995D02*
X3371Y1995D01*
X0Y1994D02*
X7Y1994D01*
X3364Y1994D02*
X3371Y1994D01*
X0Y1993D02*
X7Y1993D01*
X3364Y1993D02*
X3371Y1993D01*
X0Y1992D02*
X7Y1992D01*
X3364Y1992D02*
X3371Y1992D01*
X0Y1991D02*
X7Y1991D01*
X3364Y1991D02*
X3371Y1991D01*
X0Y1990D02*
X7Y1990D01*
X3364Y1990D02*
X3371Y1990D01*
X0Y1989D02*
X7Y1989D01*
X3364Y1989D02*
X3371Y1989D01*
X0Y1988D02*
X7Y1988D01*
X3364Y1988D02*
X3371Y1988D01*
X0Y1987D02*
X7Y1987D01*
X3364Y1987D02*
X3371Y1987D01*
X0Y1986D02*
X7Y1986D01*
X3364Y1986D02*
X3371Y1986D01*
X0Y1985D02*
X7Y1985D01*
X3364Y1985D02*
X3371Y1985D01*
X0Y1984D02*
X7Y1984D01*
X3364Y1984D02*
X3371Y1984D01*
X0Y1983D02*
X7Y1983D01*
X3364Y1983D02*
X3371Y1983D01*
X0Y1982D02*
X7Y1982D01*
X3364Y1982D02*
X3371Y1982D01*
X0Y1981D02*
X7Y1981D01*
X3364Y1981D02*
X3371Y1981D01*
X0Y1980D02*
X7Y1980D01*
X3364Y1980D02*
X3371Y1980D01*
X0Y1979D02*
X7Y1979D01*
X3364Y1979D02*
X3371Y1979D01*
X0Y1978D02*
X7Y1978D01*
X3364Y1978D02*
X3371Y1978D01*
X0Y1977D02*
X7Y1977D01*
X3364Y1977D02*
X3371Y1977D01*
X0Y1976D02*
X7Y1976D01*
X3364Y1976D02*
X3371Y1976D01*
X0Y1975D02*
X7Y1975D01*
X3364Y1975D02*
X3371Y1975D01*
X0Y1974D02*
X7Y1974D01*
X3364Y1974D02*
X3371Y1974D01*
X0Y1973D02*
X7Y1973D01*
X3364Y1973D02*
X3371Y1973D01*
X0Y1972D02*
X7Y1972D01*
X3364Y1972D02*
X3371Y1972D01*
X0Y1971D02*
X7Y1971D01*
X3364Y1971D02*
X3371Y1971D01*
X0Y1970D02*
X7Y1970D01*
X3364Y1970D02*
X3371Y1970D01*
X0Y1969D02*
X7Y1969D01*
X3364Y1969D02*
X3371Y1969D01*
X0Y1968D02*
X7Y1968D01*
X3364Y1968D02*
X3371Y1968D01*
X0Y1967D02*
X7Y1967D01*
X3364Y1967D02*
X3371Y1967D01*
X0Y1966D02*
X7Y1966D01*
X3364Y1966D02*
X3371Y1966D01*
X0Y1965D02*
X7Y1965D01*
X3364Y1965D02*
X3371Y1965D01*
X0Y1964D02*
X7Y1964D01*
X3364Y1964D02*
X3371Y1964D01*
X0Y1963D02*
X7Y1963D01*
X3364Y1963D02*
X3371Y1963D01*
X0Y1962D02*
X7Y1962D01*
X3364Y1962D02*
X3371Y1962D01*
X0Y1961D02*
X7Y1961D01*
X3364Y1961D02*
X3371Y1961D01*
X0Y1960D02*
X7Y1960D01*
X3364Y1960D02*
X3371Y1960D01*
X0Y1959D02*
X7Y1959D01*
X3364Y1959D02*
X3371Y1959D01*
X0Y1958D02*
X7Y1958D01*
X3364Y1958D02*
X3371Y1958D01*
X0Y1957D02*
X7Y1957D01*
X3364Y1957D02*
X3371Y1957D01*
X0Y1956D02*
X7Y1956D01*
X3364Y1956D02*
X3371Y1956D01*
X0Y1955D02*
X7Y1955D01*
X3364Y1955D02*
X3371Y1955D01*
X0Y1954D02*
X7Y1954D01*
X3364Y1954D02*
X3371Y1954D01*
X0Y1953D02*
X7Y1953D01*
X3364Y1953D02*
X3371Y1953D01*
X0Y1952D02*
X7Y1952D01*
X3364Y1952D02*
X3371Y1952D01*
X0Y1951D02*
X7Y1951D01*
X3364Y1951D02*
X3371Y1951D01*
X0Y1950D02*
X7Y1950D01*
X3364Y1950D02*
X3371Y1950D01*
X0Y1949D02*
X7Y1949D01*
X3364Y1949D02*
X3371Y1949D01*
X0Y1948D02*
X7Y1948D01*
X3364Y1948D02*
X3371Y1948D01*
X0Y1947D02*
X7Y1947D01*
X3364Y1947D02*
X3371Y1947D01*
X0Y1946D02*
X7Y1946D01*
X3364Y1946D02*
X3371Y1946D01*
X0Y1945D02*
X7Y1945D01*
X3364Y1945D02*
X3371Y1945D01*
X0Y1944D02*
X7Y1944D01*
X3364Y1944D02*
X3371Y1944D01*
X0Y1943D02*
X7Y1943D01*
X3364Y1943D02*
X3371Y1943D01*
X0Y1942D02*
X7Y1942D01*
X3364Y1942D02*
X3371Y1942D01*
X0Y1941D02*
X7Y1941D01*
X3364Y1941D02*
X3371Y1941D01*
X0Y1940D02*
X7Y1940D01*
X3364Y1940D02*
X3371Y1940D01*
X0Y1939D02*
X7Y1939D01*
X3364Y1939D02*
X3371Y1939D01*
X0Y1938D02*
X7Y1938D01*
X3364Y1938D02*
X3371Y1938D01*
X0Y1937D02*
X7Y1937D01*
X3364Y1937D02*
X3371Y1937D01*
X0Y1936D02*
X7Y1936D01*
X3364Y1936D02*
X3371Y1936D01*
X0Y1935D02*
X7Y1935D01*
X3364Y1935D02*
X3371Y1935D01*
X0Y1934D02*
X7Y1934D01*
X3364Y1934D02*
X3371Y1934D01*
X0Y1933D02*
X7Y1933D01*
X3364Y1933D02*
X3371Y1933D01*
X0Y1932D02*
X7Y1932D01*
X3364Y1932D02*
X3371Y1932D01*
X0Y1931D02*
X7Y1931D01*
X3364Y1931D02*
X3371Y1931D01*
X0Y1930D02*
X7Y1930D01*
X3364Y1930D02*
X3371Y1930D01*
X0Y1929D02*
X7Y1929D01*
X3364Y1929D02*
X3371Y1929D01*
X0Y1928D02*
X7Y1928D01*
X3364Y1928D02*
X3371Y1928D01*
X0Y1927D02*
X7Y1927D01*
X3364Y1927D02*
X3371Y1927D01*
X0Y1926D02*
X7Y1926D01*
X3364Y1926D02*
X3371Y1926D01*
X0Y1925D02*
X7Y1925D01*
X3364Y1925D02*
X3371Y1925D01*
X0Y1924D02*
X7Y1924D01*
X3364Y1924D02*
X3371Y1924D01*
X0Y1923D02*
X7Y1923D01*
X3364Y1923D02*
X3371Y1923D01*
X0Y1922D02*
X7Y1922D01*
X3364Y1922D02*
X3371Y1922D01*
X0Y1921D02*
X7Y1921D01*
X3364Y1921D02*
X3371Y1921D01*
X0Y1920D02*
X7Y1920D01*
X3364Y1920D02*
X3371Y1920D01*
X0Y1919D02*
X7Y1919D01*
X3364Y1919D02*
X3371Y1919D01*
X0Y1918D02*
X7Y1918D01*
X3364Y1918D02*
X3371Y1918D01*
X0Y1917D02*
X7Y1917D01*
X3364Y1917D02*
X3371Y1917D01*
X0Y1916D02*
X7Y1916D01*
X3364Y1916D02*
X3371Y1916D01*
X0Y1915D02*
X7Y1915D01*
X3364Y1915D02*
X3371Y1915D01*
X0Y1914D02*
X7Y1914D01*
X3364Y1914D02*
X3371Y1914D01*
X0Y1913D02*
X7Y1913D01*
X3364Y1913D02*
X3371Y1913D01*
X0Y1912D02*
X7Y1912D01*
X3364Y1912D02*
X3371Y1912D01*
X0Y1911D02*
X7Y1911D01*
X3364Y1911D02*
X3371Y1911D01*
X0Y1910D02*
X7Y1910D01*
X3364Y1910D02*
X3371Y1910D01*
X0Y1909D02*
X7Y1909D01*
X3364Y1909D02*
X3371Y1909D01*
X0Y1908D02*
X7Y1908D01*
X3364Y1908D02*
X3371Y1908D01*
X0Y1907D02*
X7Y1907D01*
X3364Y1907D02*
X3371Y1907D01*
X0Y1906D02*
X7Y1906D01*
X3364Y1906D02*
X3371Y1906D01*
X0Y1905D02*
X7Y1905D01*
X3364Y1905D02*
X3371Y1905D01*
X0Y1904D02*
X7Y1904D01*
X3364Y1904D02*
X3371Y1904D01*
X0Y1903D02*
X7Y1903D01*
X3364Y1903D02*
X3371Y1903D01*
X0Y1902D02*
X7Y1902D01*
X3364Y1902D02*
X3371Y1902D01*
X0Y1901D02*
X7Y1901D01*
X3364Y1901D02*
X3371Y1901D01*
X0Y1900D02*
X7Y1900D01*
X3364Y1900D02*
X3371Y1900D01*
X0Y1899D02*
X7Y1899D01*
X3364Y1899D02*
X3371Y1899D01*
X0Y1898D02*
X7Y1898D01*
X3364Y1898D02*
X3371Y1898D01*
X0Y1897D02*
X7Y1897D01*
X3364Y1897D02*
X3371Y1897D01*
X0Y1896D02*
X7Y1896D01*
X3364Y1896D02*
X3371Y1896D01*
X0Y1895D02*
X7Y1895D01*
X3364Y1895D02*
X3371Y1895D01*
X0Y1894D02*
X7Y1894D01*
X3364Y1894D02*
X3371Y1894D01*
X0Y1893D02*
X7Y1893D01*
X3364Y1893D02*
X3371Y1893D01*
X0Y1892D02*
X7Y1892D01*
X3364Y1892D02*
X3371Y1892D01*
X0Y1891D02*
X7Y1891D01*
X3364Y1891D02*
X3371Y1891D01*
X0Y1890D02*
X7Y1890D01*
X3364Y1890D02*
X3371Y1890D01*
X0Y1889D02*
X7Y1889D01*
X3364Y1889D02*
X3371Y1889D01*
X0Y1888D02*
X7Y1888D01*
X3364Y1888D02*
X3371Y1888D01*
X0Y1887D02*
X7Y1887D01*
X3364Y1887D02*
X3371Y1887D01*
X0Y1886D02*
X7Y1886D01*
X3364Y1886D02*
X3371Y1886D01*
X0Y1885D02*
X7Y1885D01*
X3364Y1885D02*
X3371Y1885D01*
X0Y1884D02*
X7Y1884D01*
X3364Y1884D02*
X3371Y1884D01*
X0Y1883D02*
X7Y1883D01*
X3364Y1883D02*
X3371Y1883D01*
X0Y1882D02*
X7Y1882D01*
X3364Y1882D02*
X3371Y1882D01*
X0Y1881D02*
X7Y1881D01*
X3364Y1881D02*
X3371Y1881D01*
X0Y1880D02*
X7Y1880D01*
X3364Y1880D02*
X3371Y1880D01*
X0Y1879D02*
X7Y1879D01*
X3364Y1879D02*
X3371Y1879D01*
X0Y1878D02*
X7Y1878D01*
X3364Y1878D02*
X3371Y1878D01*
X0Y1877D02*
X7Y1877D01*
X3364Y1877D02*
X3371Y1877D01*
X0Y1876D02*
X7Y1876D01*
X3364Y1876D02*
X3371Y1876D01*
X0Y1875D02*
X7Y1875D01*
X3364Y1875D02*
X3371Y1875D01*
X0Y1874D02*
X7Y1874D01*
X3364Y1874D02*
X3371Y1874D01*
X0Y1873D02*
X7Y1873D01*
X3364Y1873D02*
X3371Y1873D01*
X0Y1872D02*
X7Y1872D01*
X3364Y1872D02*
X3371Y1872D01*
X0Y1871D02*
X7Y1871D01*
X3364Y1871D02*
X3371Y1871D01*
X0Y1870D02*
X7Y1870D01*
X3364Y1870D02*
X3371Y1870D01*
X0Y1869D02*
X7Y1869D01*
X3364Y1869D02*
X3371Y1869D01*
X0Y1868D02*
X7Y1868D01*
X3364Y1868D02*
X3371Y1868D01*
X0Y1867D02*
X7Y1867D01*
X3364Y1867D02*
X3371Y1867D01*
X0Y1866D02*
X7Y1866D01*
X3364Y1866D02*
X3371Y1866D01*
X0Y1865D02*
X7Y1865D01*
X3364Y1865D02*
X3371Y1865D01*
X0Y1864D02*
X7Y1864D01*
X3364Y1864D02*
X3371Y1864D01*
X0Y1863D02*
X7Y1863D01*
X3364Y1863D02*
X3371Y1863D01*
X0Y1862D02*
X7Y1862D01*
X3364Y1862D02*
X3371Y1862D01*
X0Y1861D02*
X7Y1861D01*
X3364Y1861D02*
X3371Y1861D01*
X0Y1860D02*
X7Y1860D01*
X3364Y1860D02*
X3371Y1860D01*
X0Y1859D02*
X7Y1859D01*
X3364Y1859D02*
X3371Y1859D01*
X0Y1858D02*
X7Y1858D01*
X3364Y1858D02*
X3371Y1858D01*
X0Y1857D02*
X7Y1857D01*
X3364Y1857D02*
X3371Y1857D01*
X0Y1856D02*
X7Y1856D01*
X3364Y1856D02*
X3371Y1856D01*
X0Y1855D02*
X7Y1855D01*
X3364Y1855D02*
X3371Y1855D01*
X0Y1854D02*
X7Y1854D01*
X3364Y1854D02*
X3371Y1854D01*
X0Y1853D02*
X7Y1853D01*
X3364Y1853D02*
X3371Y1853D01*
X0Y1852D02*
X7Y1852D01*
X3364Y1852D02*
X3371Y1852D01*
X0Y1851D02*
X7Y1851D01*
X3364Y1851D02*
X3371Y1851D01*
X0Y1850D02*
X7Y1850D01*
X3364Y1850D02*
X3371Y1850D01*
X0Y1849D02*
X7Y1849D01*
X3364Y1849D02*
X3371Y1849D01*
X0Y1848D02*
X7Y1848D01*
X3364Y1848D02*
X3371Y1848D01*
X0Y1847D02*
X7Y1847D01*
X3364Y1847D02*
X3371Y1847D01*
X0Y1846D02*
X7Y1846D01*
X3364Y1846D02*
X3371Y1846D01*
X0Y1845D02*
X7Y1845D01*
X3364Y1845D02*
X3371Y1845D01*
X0Y1844D02*
X7Y1844D01*
X3364Y1844D02*
X3371Y1844D01*
X0Y1843D02*
X7Y1843D01*
X3364Y1843D02*
X3371Y1843D01*
X0Y1842D02*
X7Y1842D01*
X3364Y1842D02*
X3371Y1842D01*
X0Y1841D02*
X7Y1841D01*
X3364Y1841D02*
X3371Y1841D01*
X0Y1840D02*
X7Y1840D01*
X3364Y1840D02*
X3371Y1840D01*
X0Y1839D02*
X7Y1839D01*
X3364Y1839D02*
X3371Y1839D01*
X0Y1838D02*
X7Y1838D01*
X3364Y1838D02*
X3371Y1838D01*
X0Y1837D02*
X7Y1837D01*
X3364Y1837D02*
X3371Y1837D01*
X0Y1836D02*
X7Y1836D01*
X3364Y1836D02*
X3371Y1836D01*
X0Y1835D02*
X7Y1835D01*
X3364Y1835D02*
X3371Y1835D01*
X0Y1834D02*
X7Y1834D01*
X3364Y1834D02*
X3371Y1834D01*
X0Y1833D02*
X7Y1833D01*
X3364Y1833D02*
X3371Y1833D01*
X0Y1832D02*
X7Y1832D01*
X3364Y1832D02*
X3371Y1832D01*
X0Y1831D02*
X7Y1831D01*
X3364Y1831D02*
X3371Y1831D01*
X0Y1830D02*
X7Y1830D01*
X3364Y1830D02*
X3371Y1830D01*
X0Y1829D02*
X7Y1829D01*
X3364Y1829D02*
X3371Y1829D01*
X0Y1828D02*
X7Y1828D01*
X3364Y1828D02*
X3371Y1828D01*
X0Y1827D02*
X7Y1827D01*
X3364Y1827D02*
X3371Y1827D01*
X0Y1826D02*
X7Y1826D01*
X3364Y1826D02*
X3371Y1826D01*
X0Y1825D02*
X7Y1825D01*
X3364Y1825D02*
X3371Y1825D01*
X0Y1824D02*
X7Y1824D01*
X3364Y1824D02*
X3371Y1824D01*
X0Y1823D02*
X7Y1823D01*
X3364Y1823D02*
X3371Y1823D01*
X0Y1822D02*
X7Y1822D01*
X3364Y1822D02*
X3371Y1822D01*
X0Y1821D02*
X7Y1821D01*
X3364Y1821D02*
X3371Y1821D01*
X0Y1820D02*
X7Y1820D01*
X3364Y1820D02*
X3371Y1820D01*
X0Y1819D02*
X7Y1819D01*
X3364Y1819D02*
X3371Y1819D01*
X0Y1818D02*
X7Y1818D01*
X3364Y1818D02*
X3371Y1818D01*
X0Y1817D02*
X7Y1817D01*
X3364Y1817D02*
X3371Y1817D01*
X0Y1816D02*
X7Y1816D01*
X3364Y1816D02*
X3371Y1816D01*
X0Y1815D02*
X7Y1815D01*
X3364Y1815D02*
X3371Y1815D01*
X0Y1814D02*
X7Y1814D01*
X3364Y1814D02*
X3371Y1814D01*
X0Y1813D02*
X7Y1813D01*
X3364Y1813D02*
X3371Y1813D01*
X0Y1812D02*
X7Y1812D01*
X3364Y1812D02*
X3371Y1812D01*
X0Y1811D02*
X7Y1811D01*
X3364Y1811D02*
X3371Y1811D01*
X0Y1810D02*
X7Y1810D01*
X3364Y1810D02*
X3371Y1810D01*
X0Y1809D02*
X7Y1809D01*
X3364Y1809D02*
X3371Y1809D01*
X0Y1808D02*
X7Y1808D01*
X3364Y1808D02*
X3371Y1808D01*
X0Y1807D02*
X7Y1807D01*
X3364Y1807D02*
X3371Y1807D01*
X0Y1806D02*
X7Y1806D01*
X3364Y1806D02*
X3371Y1806D01*
X0Y1805D02*
X7Y1805D01*
X3364Y1805D02*
X3371Y1805D01*
X0Y1804D02*
X7Y1804D01*
X3364Y1804D02*
X3371Y1804D01*
X0Y1803D02*
X7Y1803D01*
X3364Y1803D02*
X3371Y1803D01*
X0Y1802D02*
X7Y1802D01*
X3364Y1802D02*
X3371Y1802D01*
X0Y1801D02*
X7Y1801D01*
X3364Y1801D02*
X3371Y1801D01*
X0Y1800D02*
X7Y1800D01*
X3364Y1800D02*
X3371Y1800D01*
X0Y1799D02*
X7Y1799D01*
X3364Y1799D02*
X3371Y1799D01*
X0Y1798D02*
X7Y1798D01*
X3364Y1798D02*
X3371Y1798D01*
X0Y1797D02*
X7Y1797D01*
X3364Y1797D02*
X3371Y1797D01*
X0Y1796D02*
X7Y1796D01*
X3364Y1796D02*
X3371Y1796D01*
X0Y1795D02*
X7Y1795D01*
X3364Y1795D02*
X3371Y1795D01*
X0Y1794D02*
X7Y1794D01*
X3364Y1794D02*
X3371Y1794D01*
X0Y1793D02*
X7Y1793D01*
X3364Y1793D02*
X3371Y1793D01*
X0Y1792D02*
X7Y1792D01*
X3364Y1792D02*
X3371Y1792D01*
X0Y1791D02*
X7Y1791D01*
X3364Y1791D02*
X3371Y1791D01*
X0Y1790D02*
X7Y1790D01*
X3364Y1790D02*
X3371Y1790D01*
X0Y1789D02*
X7Y1789D01*
X3364Y1789D02*
X3371Y1789D01*
X0Y1788D02*
X7Y1788D01*
X3364Y1788D02*
X3371Y1788D01*
X0Y1787D02*
X7Y1787D01*
X3364Y1787D02*
X3371Y1787D01*
X0Y1786D02*
X7Y1786D01*
X3364Y1786D02*
X3371Y1786D01*
X0Y1785D02*
X7Y1785D01*
X3364Y1785D02*
X3371Y1785D01*
X0Y1784D02*
X7Y1784D01*
X3364Y1784D02*
X3371Y1784D01*
X0Y1783D02*
X7Y1783D01*
X3364Y1783D02*
X3371Y1783D01*
X0Y1782D02*
X7Y1782D01*
X3364Y1782D02*
X3371Y1782D01*
X0Y1781D02*
X7Y1781D01*
X3364Y1781D02*
X3371Y1781D01*
X0Y1780D02*
X7Y1780D01*
X3364Y1780D02*
X3371Y1780D01*
X0Y1779D02*
X7Y1779D01*
X3364Y1779D02*
X3371Y1779D01*
X0Y1778D02*
X7Y1778D01*
X3364Y1778D02*
X3371Y1778D01*
X0Y1777D02*
X7Y1777D01*
X3364Y1777D02*
X3371Y1777D01*
X0Y1776D02*
X7Y1776D01*
X3364Y1776D02*
X3371Y1776D01*
X0Y1775D02*
X7Y1775D01*
X3364Y1775D02*
X3371Y1775D01*
X0Y1774D02*
X7Y1774D01*
X3364Y1774D02*
X3371Y1774D01*
X0Y1773D02*
X7Y1773D01*
X3364Y1773D02*
X3371Y1773D01*
X0Y1772D02*
X7Y1772D01*
X3364Y1772D02*
X3371Y1772D01*
X0Y1771D02*
X7Y1771D01*
X3364Y1771D02*
X3371Y1771D01*
X0Y1770D02*
X7Y1770D01*
X3364Y1770D02*
X3371Y1770D01*
X0Y1769D02*
X7Y1769D01*
X3364Y1769D02*
X3371Y1769D01*
X0Y1768D02*
X7Y1768D01*
X3364Y1768D02*
X3371Y1768D01*
X0Y1767D02*
X7Y1767D01*
X3364Y1767D02*
X3371Y1767D01*
X0Y1766D02*
X7Y1766D01*
X3364Y1766D02*
X3371Y1766D01*
X0Y1765D02*
X7Y1765D01*
X3364Y1765D02*
X3371Y1765D01*
X0Y1764D02*
X7Y1764D01*
X3364Y1764D02*
X3371Y1764D01*
X0Y1763D02*
X7Y1763D01*
X3364Y1763D02*
X3371Y1763D01*
X0Y1762D02*
X7Y1762D01*
X3364Y1762D02*
X3371Y1762D01*
X0Y1761D02*
X7Y1761D01*
X3364Y1761D02*
X3371Y1761D01*
X0Y1760D02*
X7Y1760D01*
X3364Y1760D02*
X3371Y1760D01*
X0Y1759D02*
X7Y1759D01*
X3364Y1759D02*
X3371Y1759D01*
X0Y1758D02*
X7Y1758D01*
X3364Y1758D02*
X3371Y1758D01*
X0Y1757D02*
X7Y1757D01*
X3364Y1757D02*
X3371Y1757D01*
X0Y1756D02*
X7Y1756D01*
X3364Y1756D02*
X3371Y1756D01*
X0Y1755D02*
X7Y1755D01*
X3364Y1755D02*
X3371Y1755D01*
X0Y1754D02*
X7Y1754D01*
X3364Y1754D02*
X3371Y1754D01*
X0Y1753D02*
X7Y1753D01*
X3364Y1753D02*
X3371Y1753D01*
X0Y1752D02*
X7Y1752D01*
X3364Y1752D02*
X3371Y1752D01*
X0Y1751D02*
X7Y1751D01*
X3364Y1751D02*
X3371Y1751D01*
X0Y1750D02*
X7Y1750D01*
X3364Y1750D02*
X3371Y1750D01*
X0Y1749D02*
X7Y1749D01*
X3364Y1749D02*
X3371Y1749D01*
X0Y1748D02*
X7Y1748D01*
X3364Y1748D02*
X3371Y1748D01*
X0Y1747D02*
X7Y1747D01*
X3364Y1747D02*
X3371Y1747D01*
X0Y1746D02*
X7Y1746D01*
X3364Y1746D02*
X3371Y1746D01*
X0Y1745D02*
X7Y1745D01*
X3364Y1745D02*
X3371Y1745D01*
X0Y1744D02*
X7Y1744D01*
X3364Y1744D02*
X3371Y1744D01*
X0Y1743D02*
X7Y1743D01*
X3364Y1743D02*
X3371Y1743D01*
X0Y1742D02*
X7Y1742D01*
X3364Y1742D02*
X3371Y1742D01*
X0Y1741D02*
X7Y1741D01*
X3364Y1741D02*
X3371Y1741D01*
X0Y1740D02*
X7Y1740D01*
X3364Y1740D02*
X3371Y1740D01*
X0Y1739D02*
X7Y1739D01*
X3364Y1739D02*
X3371Y1739D01*
X0Y1738D02*
X7Y1738D01*
X3364Y1738D02*
X3371Y1738D01*
X0Y1737D02*
X7Y1737D01*
X3364Y1737D02*
X3371Y1737D01*
X0Y1736D02*
X7Y1736D01*
X3364Y1736D02*
X3371Y1736D01*
X0Y1735D02*
X7Y1735D01*
X3364Y1735D02*
X3371Y1735D01*
X0Y1734D02*
X7Y1734D01*
X3364Y1734D02*
X3371Y1734D01*
X0Y1733D02*
X7Y1733D01*
X3364Y1733D02*
X3371Y1733D01*
X0Y1732D02*
X7Y1732D01*
X3364Y1732D02*
X3371Y1732D01*
X0Y1731D02*
X7Y1731D01*
X3364Y1731D02*
X3371Y1731D01*
X0Y1730D02*
X7Y1730D01*
X3364Y1730D02*
X3371Y1730D01*
X0Y1729D02*
X7Y1729D01*
X3364Y1729D02*
X3371Y1729D01*
X0Y1728D02*
X7Y1728D01*
X3364Y1728D02*
X3371Y1728D01*
X0Y1727D02*
X7Y1727D01*
X3364Y1727D02*
X3371Y1727D01*
X0Y1726D02*
X7Y1726D01*
X3364Y1726D02*
X3371Y1726D01*
X0Y1725D02*
X7Y1725D01*
X3364Y1725D02*
X3371Y1725D01*
X0Y1724D02*
X7Y1724D01*
X3364Y1724D02*
X3371Y1724D01*
X0Y1723D02*
X7Y1723D01*
X3364Y1723D02*
X3371Y1723D01*
X0Y1722D02*
X7Y1722D01*
X3364Y1722D02*
X3371Y1722D01*
X0Y1721D02*
X7Y1721D01*
X3364Y1721D02*
X3371Y1721D01*
X0Y1720D02*
X7Y1720D01*
X3364Y1720D02*
X3371Y1720D01*
X0Y1719D02*
X7Y1719D01*
X3364Y1719D02*
X3371Y1719D01*
X0Y1718D02*
X7Y1718D01*
X3364Y1718D02*
X3371Y1718D01*
X0Y1717D02*
X7Y1717D01*
X3364Y1717D02*
X3371Y1717D01*
X0Y1716D02*
X7Y1716D01*
X3364Y1716D02*
X3371Y1716D01*
X0Y1715D02*
X7Y1715D01*
X3364Y1715D02*
X3371Y1715D01*
X0Y1714D02*
X7Y1714D01*
X3364Y1714D02*
X3371Y1714D01*
X0Y1713D02*
X7Y1713D01*
X3364Y1713D02*
X3371Y1713D01*
X0Y1712D02*
X7Y1712D01*
X3364Y1712D02*
X3371Y1712D01*
X0Y1711D02*
X7Y1711D01*
X3364Y1711D02*
X3371Y1711D01*
X0Y1710D02*
X7Y1710D01*
X3364Y1710D02*
X3371Y1710D01*
X0Y1709D02*
X7Y1709D01*
X3364Y1709D02*
X3371Y1709D01*
X0Y1708D02*
X7Y1708D01*
X3364Y1708D02*
X3371Y1708D01*
X0Y1707D02*
X7Y1707D01*
X3364Y1707D02*
X3371Y1707D01*
X0Y1706D02*
X7Y1706D01*
X3364Y1706D02*
X3371Y1706D01*
X0Y1705D02*
X7Y1705D01*
X3364Y1705D02*
X3371Y1705D01*
X0Y1704D02*
X7Y1704D01*
X3364Y1704D02*
X3371Y1704D01*
X0Y1703D02*
X7Y1703D01*
X3364Y1703D02*
X3371Y1703D01*
X0Y1702D02*
X7Y1702D01*
X3364Y1702D02*
X3371Y1702D01*
X0Y1701D02*
X7Y1701D01*
X3364Y1701D02*
X3371Y1701D01*
X0Y1700D02*
X7Y1700D01*
X3364Y1700D02*
X3371Y1700D01*
X0Y1699D02*
X7Y1699D01*
X3364Y1699D02*
X3371Y1699D01*
X0Y1698D02*
X7Y1698D01*
X3364Y1698D02*
X3371Y1698D01*
X0Y1697D02*
X7Y1697D01*
X3364Y1697D02*
X3371Y1697D01*
X0Y1696D02*
X7Y1696D01*
X3364Y1696D02*
X3371Y1696D01*
X0Y1695D02*
X7Y1695D01*
X3364Y1695D02*
X3371Y1695D01*
X0Y1694D02*
X7Y1694D01*
X3364Y1694D02*
X3371Y1694D01*
X0Y1693D02*
X7Y1693D01*
X3364Y1693D02*
X3371Y1693D01*
X0Y1692D02*
X7Y1692D01*
X3364Y1692D02*
X3371Y1692D01*
X0Y1691D02*
X7Y1691D01*
X3364Y1691D02*
X3371Y1691D01*
X0Y1690D02*
X7Y1690D01*
X3364Y1690D02*
X3371Y1690D01*
X0Y1689D02*
X7Y1689D01*
X3364Y1689D02*
X3371Y1689D01*
X0Y1688D02*
X7Y1688D01*
X3364Y1688D02*
X3371Y1688D01*
X0Y1687D02*
X7Y1687D01*
X3364Y1687D02*
X3371Y1687D01*
X0Y1686D02*
X7Y1686D01*
X3364Y1686D02*
X3371Y1686D01*
X0Y1685D02*
X7Y1685D01*
X3364Y1685D02*
X3371Y1685D01*
X0Y1684D02*
X7Y1684D01*
X3364Y1684D02*
X3371Y1684D01*
X0Y1683D02*
X7Y1683D01*
X3364Y1683D02*
X3371Y1683D01*
X0Y1682D02*
X7Y1682D01*
X3364Y1682D02*
X3371Y1682D01*
X0Y1681D02*
X7Y1681D01*
X3364Y1681D02*
X3371Y1681D01*
X0Y1680D02*
X7Y1680D01*
X3364Y1680D02*
X3371Y1680D01*
X0Y1679D02*
X7Y1679D01*
X3364Y1679D02*
X3371Y1679D01*
X0Y1678D02*
X7Y1678D01*
X3364Y1678D02*
X3371Y1678D01*
X0Y1677D02*
X7Y1677D01*
X3364Y1677D02*
X3371Y1677D01*
X0Y1676D02*
X7Y1676D01*
X3364Y1676D02*
X3371Y1676D01*
X0Y1675D02*
X7Y1675D01*
X3364Y1675D02*
X3371Y1675D01*
X0Y1674D02*
X7Y1674D01*
X3364Y1674D02*
X3371Y1674D01*
X0Y1673D02*
X7Y1673D01*
X3364Y1673D02*
X3371Y1673D01*
X0Y1672D02*
X7Y1672D01*
X3364Y1672D02*
X3371Y1672D01*
X0Y1671D02*
X7Y1671D01*
X3364Y1671D02*
X3371Y1671D01*
X0Y1670D02*
X7Y1670D01*
X3364Y1670D02*
X3371Y1670D01*
X0Y1669D02*
X7Y1669D01*
X3364Y1669D02*
X3371Y1669D01*
X0Y1668D02*
X7Y1668D01*
X3364Y1668D02*
X3371Y1668D01*
X0Y1667D02*
X7Y1667D01*
X3364Y1667D02*
X3371Y1667D01*
X0Y1666D02*
X7Y1666D01*
X3364Y1666D02*
X3371Y1666D01*
X0Y1665D02*
X7Y1665D01*
X3364Y1665D02*
X3371Y1665D01*
X0Y1664D02*
X7Y1664D01*
X3364Y1664D02*
X3371Y1664D01*
X0Y1663D02*
X7Y1663D01*
X3364Y1663D02*
X3371Y1663D01*
X0Y1662D02*
X7Y1662D01*
X3364Y1662D02*
X3371Y1662D01*
X0Y1661D02*
X7Y1661D01*
X3364Y1661D02*
X3371Y1661D01*
X0Y1660D02*
X7Y1660D01*
X3364Y1660D02*
X3371Y1660D01*
X0Y1659D02*
X7Y1659D01*
X3364Y1659D02*
X3371Y1659D01*
X0Y1658D02*
X7Y1658D01*
X3364Y1658D02*
X3371Y1658D01*
X0Y1657D02*
X7Y1657D01*
X3364Y1657D02*
X3371Y1657D01*
X0Y1656D02*
X7Y1656D01*
X3364Y1656D02*
X3371Y1656D01*
X0Y1655D02*
X7Y1655D01*
X3364Y1655D02*
X3371Y1655D01*
X0Y1654D02*
X7Y1654D01*
X3364Y1654D02*
X3371Y1654D01*
X0Y1653D02*
X7Y1653D01*
X3364Y1653D02*
X3371Y1653D01*
X0Y1652D02*
X7Y1652D01*
X3364Y1652D02*
X3371Y1652D01*
X0Y1651D02*
X7Y1651D01*
X3364Y1651D02*
X3371Y1651D01*
X0Y1650D02*
X7Y1650D01*
X3364Y1650D02*
X3371Y1650D01*
X0Y1649D02*
X7Y1649D01*
X3364Y1649D02*
X3371Y1649D01*
X0Y1648D02*
X7Y1648D01*
X3364Y1648D02*
X3371Y1648D01*
X0Y1647D02*
X7Y1647D01*
X3364Y1647D02*
X3371Y1647D01*
X0Y1646D02*
X7Y1646D01*
X3364Y1646D02*
X3371Y1646D01*
X0Y1645D02*
X7Y1645D01*
X3364Y1645D02*
X3371Y1645D01*
X0Y1644D02*
X7Y1644D01*
X3364Y1644D02*
X3371Y1644D01*
X0Y1643D02*
X7Y1643D01*
X3364Y1643D02*
X3371Y1643D01*
X0Y1642D02*
X7Y1642D01*
X3364Y1642D02*
X3371Y1642D01*
X0Y1641D02*
X7Y1641D01*
X3364Y1641D02*
X3371Y1641D01*
X0Y1640D02*
X7Y1640D01*
X3364Y1640D02*
X3371Y1640D01*
X0Y1639D02*
X7Y1639D01*
X3364Y1639D02*
X3371Y1639D01*
X0Y1638D02*
X7Y1638D01*
X3364Y1638D02*
X3371Y1638D01*
X0Y1637D02*
X7Y1637D01*
X3364Y1637D02*
X3371Y1637D01*
X0Y1636D02*
X7Y1636D01*
X3364Y1636D02*
X3371Y1636D01*
X0Y1635D02*
X7Y1635D01*
X3364Y1635D02*
X3371Y1635D01*
X0Y1634D02*
X7Y1634D01*
X3364Y1634D02*
X3371Y1634D01*
X0Y1633D02*
X7Y1633D01*
X3364Y1633D02*
X3371Y1633D01*
X0Y1632D02*
X7Y1632D01*
X3364Y1632D02*
X3371Y1632D01*
X0Y1631D02*
X7Y1631D01*
X3364Y1631D02*
X3371Y1631D01*
X0Y1630D02*
X7Y1630D01*
X3364Y1630D02*
X3371Y1630D01*
X0Y1629D02*
X7Y1629D01*
X3364Y1629D02*
X3371Y1629D01*
X0Y1628D02*
X7Y1628D01*
X3364Y1628D02*
X3371Y1628D01*
X0Y1627D02*
X7Y1627D01*
X3364Y1627D02*
X3371Y1627D01*
X0Y1626D02*
X7Y1626D01*
X3364Y1626D02*
X3371Y1626D01*
X0Y1625D02*
X7Y1625D01*
X3364Y1625D02*
X3371Y1625D01*
X0Y1624D02*
X7Y1624D01*
X3364Y1624D02*
X3371Y1624D01*
X0Y1623D02*
X7Y1623D01*
X3364Y1623D02*
X3371Y1623D01*
X0Y1622D02*
X7Y1622D01*
X3364Y1622D02*
X3371Y1622D01*
X0Y1621D02*
X7Y1621D01*
X3364Y1621D02*
X3371Y1621D01*
X0Y1620D02*
X7Y1620D01*
X3364Y1620D02*
X3371Y1620D01*
X0Y1619D02*
X7Y1619D01*
X3364Y1619D02*
X3371Y1619D01*
X0Y1618D02*
X7Y1618D01*
X3364Y1618D02*
X3371Y1618D01*
X0Y1617D02*
X7Y1617D01*
X3364Y1617D02*
X3371Y1617D01*
X0Y1616D02*
X7Y1616D01*
X3364Y1616D02*
X3371Y1616D01*
X0Y1615D02*
X7Y1615D01*
X3364Y1615D02*
X3371Y1615D01*
X0Y1614D02*
X7Y1614D01*
X3364Y1614D02*
X3371Y1614D01*
X0Y1613D02*
X7Y1613D01*
X3364Y1613D02*
X3371Y1613D01*
X0Y1612D02*
X7Y1612D01*
X3364Y1612D02*
X3371Y1612D01*
X0Y1611D02*
X7Y1611D01*
X3364Y1611D02*
X3371Y1611D01*
X0Y1610D02*
X7Y1610D01*
X3364Y1610D02*
X3371Y1610D01*
X0Y1609D02*
X7Y1609D01*
X3364Y1609D02*
X3371Y1609D01*
X0Y1608D02*
X7Y1608D01*
X3364Y1608D02*
X3371Y1608D01*
X0Y1607D02*
X7Y1607D01*
X3364Y1607D02*
X3371Y1607D01*
X0Y1606D02*
X7Y1606D01*
X3364Y1606D02*
X3371Y1606D01*
X0Y1605D02*
X7Y1605D01*
X3364Y1605D02*
X3371Y1605D01*
X0Y1604D02*
X7Y1604D01*
X3364Y1604D02*
X3371Y1604D01*
X0Y1603D02*
X7Y1603D01*
X3364Y1603D02*
X3371Y1603D01*
X0Y1602D02*
X7Y1602D01*
X3364Y1602D02*
X3371Y1602D01*
X0Y1601D02*
X7Y1601D01*
X3364Y1601D02*
X3371Y1601D01*
X0Y1600D02*
X7Y1600D01*
X3364Y1600D02*
X3371Y1600D01*
X0Y1599D02*
X7Y1599D01*
X3364Y1599D02*
X3371Y1599D01*
X0Y1598D02*
X7Y1598D01*
X3364Y1598D02*
X3371Y1598D01*
X0Y1597D02*
X7Y1597D01*
X3364Y1597D02*
X3371Y1597D01*
X0Y1596D02*
X7Y1596D01*
X3364Y1596D02*
X3371Y1596D01*
X0Y1595D02*
X7Y1595D01*
X3364Y1595D02*
X3371Y1595D01*
X0Y1594D02*
X7Y1594D01*
X3364Y1594D02*
X3371Y1594D01*
X0Y1593D02*
X7Y1593D01*
X3364Y1593D02*
X3371Y1593D01*
X0Y1592D02*
X7Y1592D01*
X3364Y1592D02*
X3371Y1592D01*
X0Y1591D02*
X7Y1591D01*
X3364Y1591D02*
X3371Y1591D01*
X0Y1590D02*
X7Y1590D01*
X3364Y1590D02*
X3371Y1590D01*
X0Y1589D02*
X7Y1589D01*
X3364Y1589D02*
X3371Y1589D01*
X0Y1588D02*
X7Y1588D01*
X3364Y1588D02*
X3371Y1588D01*
X0Y1587D02*
X7Y1587D01*
X3364Y1587D02*
X3371Y1587D01*
X0Y1586D02*
X7Y1586D01*
X3364Y1586D02*
X3371Y1586D01*
X0Y1585D02*
X7Y1585D01*
X3364Y1585D02*
X3371Y1585D01*
X0Y1584D02*
X7Y1584D01*
X3364Y1584D02*
X3371Y1584D01*
X0Y1583D02*
X7Y1583D01*
X3364Y1583D02*
X3371Y1583D01*
X0Y1582D02*
X7Y1582D01*
X3364Y1582D02*
X3371Y1582D01*
X0Y1581D02*
X7Y1581D01*
X3364Y1581D02*
X3371Y1581D01*
X0Y1580D02*
X7Y1580D01*
X3364Y1580D02*
X3371Y1580D01*
X0Y1579D02*
X7Y1579D01*
X3364Y1579D02*
X3371Y1579D01*
X0Y1578D02*
X7Y1578D01*
X3364Y1578D02*
X3371Y1578D01*
X0Y1577D02*
X7Y1577D01*
X3364Y1577D02*
X3371Y1577D01*
X0Y1576D02*
X7Y1576D01*
X3364Y1576D02*
X3371Y1576D01*
X0Y1575D02*
X7Y1575D01*
X3364Y1575D02*
X3371Y1575D01*
X0Y1574D02*
X7Y1574D01*
X3364Y1574D02*
X3371Y1574D01*
X0Y1573D02*
X7Y1573D01*
X3364Y1573D02*
X3371Y1573D01*
X0Y1572D02*
X7Y1572D01*
X3364Y1572D02*
X3371Y1572D01*
X0Y1571D02*
X7Y1571D01*
X3364Y1571D02*
X3371Y1571D01*
X0Y1570D02*
X7Y1570D01*
X3364Y1570D02*
X3371Y1570D01*
X0Y1569D02*
X7Y1569D01*
X3364Y1569D02*
X3371Y1569D01*
X0Y1568D02*
X7Y1568D01*
X3364Y1568D02*
X3371Y1568D01*
X0Y1567D02*
X7Y1567D01*
X3364Y1567D02*
X3371Y1567D01*
X0Y1566D02*
X7Y1566D01*
X3364Y1566D02*
X3371Y1566D01*
X0Y1565D02*
X7Y1565D01*
X3364Y1565D02*
X3371Y1565D01*
X0Y1564D02*
X7Y1564D01*
X3364Y1564D02*
X3371Y1564D01*
X0Y1563D02*
X7Y1563D01*
X3364Y1563D02*
X3371Y1563D01*
X0Y1562D02*
X7Y1562D01*
X3364Y1562D02*
X3371Y1562D01*
X0Y1561D02*
X7Y1561D01*
X3364Y1561D02*
X3371Y1561D01*
X0Y1560D02*
X7Y1560D01*
X3364Y1560D02*
X3371Y1560D01*
X0Y1559D02*
X7Y1559D01*
X3364Y1559D02*
X3371Y1559D01*
X0Y1558D02*
X7Y1558D01*
X3364Y1558D02*
X3371Y1558D01*
X0Y1557D02*
X7Y1557D01*
X3364Y1557D02*
X3371Y1557D01*
X0Y1556D02*
X7Y1556D01*
X3364Y1556D02*
X3371Y1556D01*
X0Y1555D02*
X7Y1555D01*
X3364Y1555D02*
X3371Y1555D01*
X0Y1554D02*
X7Y1554D01*
X3364Y1554D02*
X3371Y1554D01*
X0Y1553D02*
X7Y1553D01*
X3364Y1553D02*
X3371Y1553D01*
X0Y1552D02*
X7Y1552D01*
X3364Y1552D02*
X3371Y1552D01*
X0Y1551D02*
X7Y1551D01*
X3364Y1551D02*
X3371Y1551D01*
X0Y1550D02*
X7Y1550D01*
X3364Y1550D02*
X3371Y1550D01*
X0Y1549D02*
X7Y1549D01*
X3364Y1549D02*
X3371Y1549D01*
X0Y1548D02*
X7Y1548D01*
X3364Y1548D02*
X3371Y1548D01*
X0Y1547D02*
X7Y1547D01*
X3364Y1547D02*
X3371Y1547D01*
X0Y1546D02*
X7Y1546D01*
X3364Y1546D02*
X3371Y1546D01*
X0Y1545D02*
X7Y1545D01*
X3364Y1545D02*
X3371Y1545D01*
X0Y1544D02*
X7Y1544D01*
X3364Y1544D02*
X3371Y1544D01*
X0Y1543D02*
X7Y1543D01*
X3364Y1543D02*
X3371Y1543D01*
X0Y1542D02*
X7Y1542D01*
X3364Y1542D02*
X3371Y1542D01*
X0Y1541D02*
X7Y1541D01*
X3364Y1541D02*
X3371Y1541D01*
X0Y1540D02*
X7Y1540D01*
X3364Y1540D02*
X3371Y1540D01*
X0Y1539D02*
X7Y1539D01*
X3364Y1539D02*
X3371Y1539D01*
X0Y1538D02*
X7Y1538D01*
X3364Y1538D02*
X3371Y1538D01*
X0Y1537D02*
X7Y1537D01*
X3364Y1537D02*
X3371Y1537D01*
X0Y1536D02*
X7Y1536D01*
X3364Y1536D02*
X3371Y1536D01*
X0Y1535D02*
X7Y1535D01*
X3364Y1535D02*
X3371Y1535D01*
X0Y1534D02*
X7Y1534D01*
X3364Y1534D02*
X3371Y1534D01*
X0Y1533D02*
X7Y1533D01*
X3364Y1533D02*
X3371Y1533D01*
X0Y1532D02*
X7Y1532D01*
X3364Y1532D02*
X3371Y1532D01*
X0Y1531D02*
X7Y1531D01*
X3364Y1531D02*
X3371Y1531D01*
X0Y1530D02*
X7Y1530D01*
X3364Y1530D02*
X3371Y1530D01*
X0Y1529D02*
X7Y1529D01*
X3364Y1529D02*
X3371Y1529D01*
X0Y1528D02*
X7Y1528D01*
X3364Y1528D02*
X3371Y1528D01*
X0Y1527D02*
X7Y1527D01*
X3364Y1527D02*
X3371Y1527D01*
X0Y1526D02*
X7Y1526D01*
X3364Y1526D02*
X3371Y1526D01*
X0Y1525D02*
X7Y1525D01*
X3364Y1525D02*
X3371Y1525D01*
X0Y1524D02*
X7Y1524D01*
X3364Y1524D02*
X3371Y1524D01*
X0Y1523D02*
X7Y1523D01*
X3364Y1523D02*
X3371Y1523D01*
X0Y1522D02*
X7Y1522D01*
X3364Y1522D02*
X3371Y1522D01*
X0Y1521D02*
X7Y1521D01*
X3364Y1521D02*
X3371Y1521D01*
X0Y1520D02*
X7Y1520D01*
X3364Y1520D02*
X3371Y1520D01*
X0Y1519D02*
X7Y1519D01*
X3364Y1519D02*
X3371Y1519D01*
X0Y1518D02*
X7Y1518D01*
X3364Y1518D02*
X3371Y1518D01*
X0Y1517D02*
X7Y1517D01*
X3364Y1517D02*
X3371Y1517D01*
X0Y1516D02*
X7Y1516D01*
X3364Y1516D02*
X3371Y1516D01*
X0Y1515D02*
X7Y1515D01*
X3364Y1515D02*
X3371Y1515D01*
X0Y1514D02*
X7Y1514D01*
X3364Y1514D02*
X3371Y1514D01*
X0Y1513D02*
X7Y1513D01*
X3364Y1513D02*
X3371Y1513D01*
X0Y1512D02*
X7Y1512D01*
X3364Y1512D02*
X3371Y1512D01*
X0Y1511D02*
X7Y1511D01*
X3364Y1511D02*
X3371Y1511D01*
X0Y1510D02*
X7Y1510D01*
X3364Y1510D02*
X3371Y1510D01*
X0Y1509D02*
X7Y1509D01*
X3364Y1509D02*
X3371Y1509D01*
X0Y1508D02*
X7Y1508D01*
X3364Y1508D02*
X3371Y1508D01*
X0Y1507D02*
X7Y1507D01*
X3364Y1507D02*
X3371Y1507D01*
X0Y1506D02*
X7Y1506D01*
X3364Y1506D02*
X3371Y1506D01*
X0Y1505D02*
X7Y1505D01*
X3364Y1505D02*
X3371Y1505D01*
X0Y1504D02*
X7Y1504D01*
X3364Y1504D02*
X3371Y1504D01*
X0Y1503D02*
X7Y1503D01*
X3364Y1503D02*
X3371Y1503D01*
X0Y1502D02*
X7Y1502D01*
X3364Y1502D02*
X3371Y1502D01*
X0Y1501D02*
X7Y1501D01*
X3364Y1501D02*
X3371Y1501D01*
X0Y1500D02*
X7Y1500D01*
X3364Y1500D02*
X3371Y1500D01*
X0Y1499D02*
X7Y1499D01*
X3364Y1499D02*
X3371Y1499D01*
X0Y1498D02*
X7Y1498D01*
X3364Y1498D02*
X3371Y1498D01*
X0Y1497D02*
X7Y1497D01*
X3364Y1497D02*
X3371Y1497D01*
X0Y1496D02*
X7Y1496D01*
X3364Y1496D02*
X3371Y1496D01*
X0Y1495D02*
X7Y1495D01*
X3364Y1495D02*
X3371Y1495D01*
X0Y1494D02*
X7Y1494D01*
X3364Y1494D02*
X3371Y1494D01*
X0Y1493D02*
X7Y1493D01*
X3364Y1493D02*
X3371Y1493D01*
X0Y1492D02*
X7Y1492D01*
X3364Y1492D02*
X3371Y1492D01*
X0Y1491D02*
X7Y1491D01*
X3364Y1491D02*
X3371Y1491D01*
X0Y1490D02*
X7Y1490D01*
X3364Y1490D02*
X3371Y1490D01*
X0Y1489D02*
X7Y1489D01*
X3364Y1489D02*
X3371Y1489D01*
X0Y1488D02*
X7Y1488D01*
X3364Y1488D02*
X3371Y1488D01*
X0Y1487D02*
X7Y1487D01*
X3364Y1487D02*
X3371Y1487D01*
X0Y1486D02*
X7Y1486D01*
X3364Y1486D02*
X3371Y1486D01*
X0Y1485D02*
X7Y1485D01*
X3364Y1485D02*
X3371Y1485D01*
X0Y1484D02*
X7Y1484D01*
X3364Y1484D02*
X3371Y1484D01*
X0Y1483D02*
X7Y1483D01*
X3364Y1483D02*
X3371Y1483D01*
X0Y1482D02*
X7Y1482D01*
X3364Y1482D02*
X3371Y1482D01*
X0Y1481D02*
X7Y1481D01*
X3364Y1481D02*
X3371Y1481D01*
X0Y1480D02*
X7Y1480D01*
X3364Y1480D02*
X3371Y1480D01*
X0Y1479D02*
X7Y1479D01*
X3364Y1479D02*
X3371Y1479D01*
X0Y1478D02*
X7Y1478D01*
X3364Y1478D02*
X3371Y1478D01*
X0Y1477D02*
X7Y1477D01*
X3364Y1477D02*
X3371Y1477D01*
X0Y1476D02*
X7Y1476D01*
X3364Y1476D02*
X3371Y1476D01*
X0Y1475D02*
X7Y1475D01*
X3364Y1475D02*
X3371Y1475D01*
X0Y1474D02*
X7Y1474D01*
X3364Y1474D02*
X3371Y1474D01*
X0Y1473D02*
X7Y1473D01*
X3364Y1473D02*
X3371Y1473D01*
X0Y1472D02*
X7Y1472D01*
X3364Y1472D02*
X3371Y1472D01*
X0Y1471D02*
X7Y1471D01*
X3364Y1471D02*
X3371Y1471D01*
X0Y1470D02*
X7Y1470D01*
X3364Y1470D02*
X3371Y1470D01*
X0Y1469D02*
X7Y1469D01*
X3364Y1469D02*
X3371Y1469D01*
X0Y1468D02*
X7Y1468D01*
X3364Y1468D02*
X3371Y1468D01*
X0Y1467D02*
X7Y1467D01*
X3364Y1467D02*
X3371Y1467D01*
X0Y1466D02*
X7Y1466D01*
X3364Y1466D02*
X3371Y1466D01*
X0Y1465D02*
X7Y1465D01*
X3364Y1465D02*
X3371Y1465D01*
X0Y1464D02*
X7Y1464D01*
X3364Y1464D02*
X3371Y1464D01*
X0Y1463D02*
X7Y1463D01*
X3364Y1463D02*
X3371Y1463D01*
X0Y1462D02*
X7Y1462D01*
X3364Y1462D02*
X3371Y1462D01*
X0Y1461D02*
X7Y1461D01*
X3364Y1461D02*
X3371Y1461D01*
X0Y1460D02*
X7Y1460D01*
X3364Y1460D02*
X3371Y1460D01*
X0Y1459D02*
X7Y1459D01*
X3364Y1459D02*
X3371Y1459D01*
X0Y1458D02*
X7Y1458D01*
X3364Y1458D02*
X3371Y1458D01*
X0Y1457D02*
X7Y1457D01*
X3364Y1457D02*
X3371Y1457D01*
X0Y1456D02*
X7Y1456D01*
X3364Y1456D02*
X3371Y1456D01*
X0Y1455D02*
X7Y1455D01*
X3364Y1455D02*
X3371Y1455D01*
X0Y1454D02*
X7Y1454D01*
X3364Y1454D02*
X3371Y1454D01*
X0Y1453D02*
X7Y1453D01*
X3364Y1453D02*
X3371Y1453D01*
X0Y1452D02*
X7Y1452D01*
X3364Y1452D02*
X3371Y1452D01*
X0Y1451D02*
X7Y1451D01*
X3364Y1451D02*
X3371Y1451D01*
X0Y1450D02*
X7Y1450D01*
X3364Y1450D02*
X3371Y1450D01*
X0Y1449D02*
X7Y1449D01*
X3364Y1449D02*
X3371Y1449D01*
X0Y1448D02*
X7Y1448D01*
X3364Y1448D02*
X3371Y1448D01*
X0Y1447D02*
X7Y1447D01*
X3364Y1447D02*
X3371Y1447D01*
X0Y1446D02*
X7Y1446D01*
X3364Y1446D02*
X3371Y1446D01*
X0Y1445D02*
X7Y1445D01*
X3364Y1445D02*
X3371Y1445D01*
X0Y1444D02*
X7Y1444D01*
X3364Y1444D02*
X3371Y1444D01*
X0Y1443D02*
X7Y1443D01*
X3364Y1443D02*
X3371Y1443D01*
X0Y1442D02*
X7Y1442D01*
X3364Y1442D02*
X3371Y1442D01*
X0Y1441D02*
X7Y1441D01*
X3364Y1441D02*
X3371Y1441D01*
X0Y1440D02*
X7Y1440D01*
X3364Y1440D02*
X3371Y1440D01*
X0Y1439D02*
X7Y1439D01*
X3364Y1439D02*
X3371Y1439D01*
X0Y1438D02*
X7Y1438D01*
X3364Y1438D02*
X3371Y1438D01*
X0Y1437D02*
X7Y1437D01*
X3364Y1437D02*
X3371Y1437D01*
X0Y1436D02*
X7Y1436D01*
X3364Y1436D02*
X3371Y1436D01*
X0Y1435D02*
X7Y1435D01*
X3364Y1435D02*
X3371Y1435D01*
X0Y1434D02*
X7Y1434D01*
X3364Y1434D02*
X3371Y1434D01*
X0Y1433D02*
X7Y1433D01*
X3364Y1433D02*
X3371Y1433D01*
X0Y1432D02*
X7Y1432D01*
X3364Y1432D02*
X3371Y1432D01*
X0Y1431D02*
X7Y1431D01*
X3364Y1431D02*
X3371Y1431D01*
X0Y1430D02*
X7Y1430D01*
X3364Y1430D02*
X3371Y1430D01*
X0Y1429D02*
X7Y1429D01*
X3364Y1429D02*
X3371Y1429D01*
X0Y1428D02*
X7Y1428D01*
X3364Y1428D02*
X3371Y1428D01*
X0Y1427D02*
X7Y1427D01*
X3364Y1427D02*
X3371Y1427D01*
X0Y1426D02*
X7Y1426D01*
X3364Y1426D02*
X3371Y1426D01*
X0Y1425D02*
X7Y1425D01*
X3364Y1425D02*
X3371Y1425D01*
X0Y1424D02*
X7Y1424D01*
X3364Y1424D02*
X3371Y1424D01*
X0Y1423D02*
X7Y1423D01*
X3364Y1423D02*
X3371Y1423D01*
X0Y1422D02*
X7Y1422D01*
X3364Y1422D02*
X3371Y1422D01*
X0Y1421D02*
X7Y1421D01*
X3364Y1421D02*
X3371Y1421D01*
X0Y1420D02*
X7Y1420D01*
X3364Y1420D02*
X3371Y1420D01*
X0Y1419D02*
X7Y1419D01*
X3364Y1419D02*
X3371Y1419D01*
X0Y1418D02*
X7Y1418D01*
X3364Y1418D02*
X3371Y1418D01*
X0Y1417D02*
X7Y1417D01*
X3364Y1417D02*
X3371Y1417D01*
X0Y1416D02*
X7Y1416D01*
X3364Y1416D02*
X3371Y1416D01*
X0Y1415D02*
X7Y1415D01*
X3364Y1415D02*
X3371Y1415D01*
X0Y1414D02*
X7Y1414D01*
X3364Y1414D02*
X3371Y1414D01*
X0Y1413D02*
X7Y1413D01*
X3364Y1413D02*
X3371Y1413D01*
X0Y1412D02*
X7Y1412D01*
X3364Y1412D02*
X3371Y1412D01*
X0Y1411D02*
X7Y1411D01*
X3364Y1411D02*
X3371Y1411D01*
X0Y1410D02*
X7Y1410D01*
X3364Y1410D02*
X3371Y1410D01*
X0Y1409D02*
X7Y1409D01*
X3364Y1409D02*
X3371Y1409D01*
X0Y1408D02*
X7Y1408D01*
X3364Y1408D02*
X3371Y1408D01*
X0Y1407D02*
X7Y1407D01*
X3364Y1407D02*
X3371Y1407D01*
X0Y1406D02*
X7Y1406D01*
X3364Y1406D02*
X3371Y1406D01*
X0Y1405D02*
X7Y1405D01*
X3364Y1405D02*
X3371Y1405D01*
X0Y1404D02*
X7Y1404D01*
X3364Y1404D02*
X3371Y1404D01*
X0Y1403D02*
X7Y1403D01*
X3364Y1403D02*
X3371Y1403D01*
X0Y1402D02*
X7Y1402D01*
X3364Y1402D02*
X3371Y1402D01*
X0Y1401D02*
X7Y1401D01*
X3364Y1401D02*
X3371Y1401D01*
X0Y1400D02*
X7Y1400D01*
X3364Y1400D02*
X3371Y1400D01*
X0Y1399D02*
X7Y1399D01*
X3364Y1399D02*
X3371Y1399D01*
X0Y1398D02*
X7Y1398D01*
X3364Y1398D02*
X3371Y1398D01*
X0Y1397D02*
X7Y1397D01*
X3364Y1397D02*
X3371Y1397D01*
X0Y1396D02*
X7Y1396D01*
X3364Y1396D02*
X3371Y1396D01*
X0Y1395D02*
X7Y1395D01*
X3364Y1395D02*
X3371Y1395D01*
X0Y1394D02*
X7Y1394D01*
X3364Y1394D02*
X3371Y1394D01*
X0Y1393D02*
X7Y1393D01*
X3364Y1393D02*
X3371Y1393D01*
X0Y1392D02*
X7Y1392D01*
X3364Y1392D02*
X3371Y1392D01*
X0Y1391D02*
X7Y1391D01*
X3364Y1391D02*
X3371Y1391D01*
X0Y1390D02*
X7Y1390D01*
X3364Y1390D02*
X3371Y1390D01*
X0Y1389D02*
X7Y1389D01*
X3364Y1389D02*
X3371Y1389D01*
X0Y1388D02*
X7Y1388D01*
X3364Y1388D02*
X3371Y1388D01*
X0Y1387D02*
X7Y1387D01*
X3364Y1387D02*
X3371Y1387D01*
X0Y1386D02*
X7Y1386D01*
X3364Y1386D02*
X3371Y1386D01*
X0Y1385D02*
X7Y1385D01*
X3364Y1385D02*
X3371Y1385D01*
X0Y1384D02*
X7Y1384D01*
X3364Y1384D02*
X3371Y1384D01*
X0Y1383D02*
X7Y1383D01*
X3364Y1383D02*
X3371Y1383D01*
X0Y1382D02*
X7Y1382D01*
X3364Y1382D02*
X3371Y1382D01*
X0Y1381D02*
X7Y1381D01*
X3364Y1381D02*
X3371Y1381D01*
X0Y1380D02*
X7Y1380D01*
X3364Y1380D02*
X3371Y1380D01*
X0Y1379D02*
X7Y1379D01*
X3364Y1379D02*
X3371Y1379D01*
X0Y1378D02*
X7Y1378D01*
X3364Y1378D02*
X3371Y1378D01*
X0Y1377D02*
X7Y1377D01*
X3364Y1377D02*
X3371Y1377D01*
X0Y1376D02*
X7Y1376D01*
X3364Y1376D02*
X3371Y1376D01*
X0Y1375D02*
X7Y1375D01*
X3364Y1375D02*
X3371Y1375D01*
X0Y1374D02*
X7Y1374D01*
X3364Y1374D02*
X3371Y1374D01*
X0Y1373D02*
X7Y1373D01*
X3364Y1373D02*
X3371Y1373D01*
X0Y1372D02*
X7Y1372D01*
X3364Y1372D02*
X3371Y1372D01*
X0Y1371D02*
X7Y1371D01*
X3364Y1371D02*
X3371Y1371D01*
X0Y1370D02*
X7Y1370D01*
X3364Y1370D02*
X3371Y1370D01*
X0Y1369D02*
X7Y1369D01*
X3364Y1369D02*
X3371Y1369D01*
X0Y1368D02*
X7Y1368D01*
X3364Y1368D02*
X3371Y1368D01*
X0Y1367D02*
X7Y1367D01*
X3364Y1367D02*
X3371Y1367D01*
X0Y1366D02*
X7Y1366D01*
X3364Y1366D02*
X3371Y1366D01*
X0Y1365D02*
X7Y1365D01*
X3364Y1365D02*
X3371Y1365D01*
X0Y1364D02*
X7Y1364D01*
X3364Y1364D02*
X3371Y1364D01*
X0Y1363D02*
X7Y1363D01*
X3364Y1363D02*
X3371Y1363D01*
X0Y1362D02*
X7Y1362D01*
X3364Y1362D02*
X3371Y1362D01*
X0Y1361D02*
X7Y1361D01*
X3364Y1361D02*
X3371Y1361D01*
X0Y1360D02*
X7Y1360D01*
X3364Y1360D02*
X3371Y1360D01*
X0Y1359D02*
X7Y1359D01*
X3364Y1359D02*
X3371Y1359D01*
X0Y1358D02*
X7Y1358D01*
X3364Y1358D02*
X3371Y1358D01*
X0Y1357D02*
X7Y1357D01*
X3364Y1357D02*
X3371Y1357D01*
X0Y1356D02*
X7Y1356D01*
X3364Y1356D02*
X3371Y1356D01*
X0Y1355D02*
X7Y1355D01*
X3364Y1355D02*
X3371Y1355D01*
X0Y1354D02*
X7Y1354D01*
X3364Y1354D02*
X3371Y1354D01*
X0Y1353D02*
X7Y1353D01*
X3364Y1353D02*
X3371Y1353D01*
X0Y1352D02*
X7Y1352D01*
X3364Y1352D02*
X3371Y1352D01*
X0Y1351D02*
X7Y1351D01*
X3364Y1351D02*
X3371Y1351D01*
X0Y1350D02*
X7Y1350D01*
X3364Y1350D02*
X3371Y1350D01*
X0Y1349D02*
X7Y1349D01*
X3364Y1349D02*
X3371Y1349D01*
X0Y1348D02*
X7Y1348D01*
X3364Y1348D02*
X3371Y1348D01*
X0Y1347D02*
X7Y1347D01*
X3364Y1347D02*
X3371Y1347D01*
X0Y1346D02*
X7Y1346D01*
X3364Y1346D02*
X3371Y1346D01*
X0Y1345D02*
X7Y1345D01*
X3364Y1345D02*
X3371Y1345D01*
X0Y1344D02*
X7Y1344D01*
X3364Y1344D02*
X3371Y1344D01*
X0Y1343D02*
X7Y1343D01*
X3364Y1343D02*
X3371Y1343D01*
X0Y1342D02*
X7Y1342D01*
X3364Y1342D02*
X3371Y1342D01*
X0Y1341D02*
X7Y1341D01*
X3364Y1341D02*
X3371Y1341D01*
X0Y1340D02*
X7Y1340D01*
X3364Y1340D02*
X3371Y1340D01*
X0Y1339D02*
X7Y1339D01*
X3364Y1339D02*
X3371Y1339D01*
X0Y1338D02*
X7Y1338D01*
X3364Y1338D02*
X3371Y1338D01*
X0Y1337D02*
X7Y1337D01*
X3364Y1337D02*
X3371Y1337D01*
X0Y1336D02*
X7Y1336D01*
X3364Y1336D02*
X3371Y1336D01*
X0Y1335D02*
X7Y1335D01*
X3364Y1335D02*
X3371Y1335D01*
X0Y1334D02*
X7Y1334D01*
X3364Y1334D02*
X3371Y1334D01*
X0Y1333D02*
X7Y1333D01*
X3364Y1333D02*
X3371Y1333D01*
X0Y1332D02*
X7Y1332D01*
X3364Y1332D02*
X3371Y1332D01*
X0Y1331D02*
X7Y1331D01*
X3364Y1331D02*
X3371Y1331D01*
X0Y1330D02*
X7Y1330D01*
X3364Y1330D02*
X3371Y1330D01*
X0Y1329D02*
X7Y1329D01*
X3364Y1329D02*
X3371Y1329D01*
X0Y1328D02*
X7Y1328D01*
X3364Y1328D02*
X3371Y1328D01*
X0Y1327D02*
X7Y1327D01*
X3364Y1327D02*
X3371Y1327D01*
X0Y1326D02*
X7Y1326D01*
X3364Y1326D02*
X3371Y1326D01*
X0Y1325D02*
X7Y1325D01*
X3364Y1325D02*
X3371Y1325D01*
X0Y1324D02*
X7Y1324D01*
X3364Y1324D02*
X3371Y1324D01*
X0Y1323D02*
X7Y1323D01*
X3364Y1323D02*
X3371Y1323D01*
X0Y1322D02*
X7Y1322D01*
X3364Y1322D02*
X3371Y1322D01*
X0Y1321D02*
X7Y1321D01*
X3364Y1321D02*
X3371Y1321D01*
X0Y1320D02*
X7Y1320D01*
X3364Y1320D02*
X3371Y1320D01*
X0Y1319D02*
X7Y1319D01*
X3364Y1319D02*
X3371Y1319D01*
X0Y1318D02*
X7Y1318D01*
X3364Y1318D02*
X3371Y1318D01*
X0Y1317D02*
X7Y1317D01*
X3364Y1317D02*
X3371Y1317D01*
X0Y1316D02*
X7Y1316D01*
X3364Y1316D02*
X3371Y1316D01*
X0Y1315D02*
X7Y1315D01*
X3364Y1315D02*
X3371Y1315D01*
X0Y1314D02*
X7Y1314D01*
X3364Y1314D02*
X3371Y1314D01*
X0Y1313D02*
X7Y1313D01*
X3364Y1313D02*
X3371Y1313D01*
X0Y1312D02*
X7Y1312D01*
X3364Y1312D02*
X3371Y1312D01*
X0Y1311D02*
X7Y1311D01*
X3364Y1311D02*
X3371Y1311D01*
X0Y1310D02*
X7Y1310D01*
X3364Y1310D02*
X3371Y1310D01*
X0Y1309D02*
X7Y1309D01*
X3364Y1309D02*
X3371Y1309D01*
X0Y1308D02*
X7Y1308D01*
X3364Y1308D02*
X3371Y1308D01*
X0Y1307D02*
X7Y1307D01*
X3364Y1307D02*
X3371Y1307D01*
X0Y1306D02*
X7Y1306D01*
X3364Y1306D02*
X3371Y1306D01*
X0Y1305D02*
X7Y1305D01*
X3364Y1305D02*
X3371Y1305D01*
X0Y1304D02*
X7Y1304D01*
X3364Y1304D02*
X3371Y1304D01*
X0Y1303D02*
X7Y1303D01*
X3364Y1303D02*
X3371Y1303D01*
X0Y1302D02*
X7Y1302D01*
X3364Y1302D02*
X3371Y1302D01*
X0Y1301D02*
X7Y1301D01*
X3364Y1301D02*
X3371Y1301D01*
X0Y1300D02*
X7Y1300D01*
X3364Y1300D02*
X3371Y1300D01*
X0Y1299D02*
X7Y1299D01*
X3364Y1299D02*
X3371Y1299D01*
X0Y1298D02*
X7Y1298D01*
X3364Y1298D02*
X3371Y1298D01*
X0Y1297D02*
X7Y1297D01*
X3364Y1297D02*
X3371Y1297D01*
X0Y1296D02*
X7Y1296D01*
X3364Y1296D02*
X3371Y1296D01*
X0Y1295D02*
X7Y1295D01*
X3364Y1295D02*
X3371Y1295D01*
X0Y1294D02*
X7Y1294D01*
X3364Y1294D02*
X3371Y1294D01*
X0Y1293D02*
X7Y1293D01*
X3364Y1293D02*
X3371Y1293D01*
X0Y1292D02*
X7Y1292D01*
X3364Y1292D02*
X3371Y1292D01*
X0Y1291D02*
X7Y1291D01*
X3364Y1291D02*
X3371Y1291D01*
X0Y1290D02*
X7Y1290D01*
X3364Y1290D02*
X3371Y1290D01*
X0Y1289D02*
X7Y1289D01*
X3364Y1289D02*
X3371Y1289D01*
X0Y1288D02*
X7Y1288D01*
X3364Y1288D02*
X3371Y1288D01*
X0Y1287D02*
X7Y1287D01*
X3364Y1287D02*
X3371Y1287D01*
X0Y1286D02*
X7Y1286D01*
X3364Y1286D02*
X3371Y1286D01*
X0Y1285D02*
X7Y1285D01*
X3364Y1285D02*
X3371Y1285D01*
X0Y1284D02*
X7Y1284D01*
X3364Y1284D02*
X3371Y1284D01*
X0Y1283D02*
X7Y1283D01*
X3364Y1283D02*
X3371Y1283D01*
X0Y1282D02*
X7Y1282D01*
X3364Y1282D02*
X3371Y1282D01*
X0Y1281D02*
X7Y1281D01*
X3364Y1281D02*
X3371Y1281D01*
X0Y1280D02*
X7Y1280D01*
X3364Y1280D02*
X3371Y1280D01*
X0Y1279D02*
X7Y1279D01*
X3364Y1279D02*
X3371Y1279D01*
X0Y1278D02*
X7Y1278D01*
X3364Y1278D02*
X3371Y1278D01*
X0Y1277D02*
X7Y1277D01*
X3364Y1277D02*
X3371Y1277D01*
X0Y1276D02*
X7Y1276D01*
X3364Y1276D02*
X3371Y1276D01*
X0Y1275D02*
X7Y1275D01*
X3364Y1275D02*
X3371Y1275D01*
X0Y1274D02*
X7Y1274D01*
X3364Y1274D02*
X3371Y1274D01*
X0Y1273D02*
X7Y1273D01*
X3364Y1273D02*
X3371Y1273D01*
X0Y1272D02*
X7Y1272D01*
X3364Y1272D02*
X3371Y1272D01*
X0Y1271D02*
X7Y1271D01*
X3364Y1271D02*
X3371Y1271D01*
X0Y1270D02*
X7Y1270D01*
X3364Y1270D02*
X3371Y1270D01*
X0Y1269D02*
X7Y1269D01*
X3364Y1269D02*
X3371Y1269D01*
X0Y1268D02*
X7Y1268D01*
X3364Y1268D02*
X3371Y1268D01*
X0Y1267D02*
X7Y1267D01*
X3364Y1267D02*
X3371Y1267D01*
X0Y1266D02*
X7Y1266D01*
X3364Y1266D02*
X3371Y1266D01*
X0Y1265D02*
X7Y1265D01*
X3364Y1265D02*
X3371Y1265D01*
X0Y1264D02*
X7Y1264D01*
X3364Y1264D02*
X3371Y1264D01*
X0Y1263D02*
X7Y1263D01*
X3364Y1263D02*
X3371Y1263D01*
X0Y1262D02*
X7Y1262D01*
X3364Y1262D02*
X3371Y1262D01*
X0Y1261D02*
X7Y1261D01*
X3364Y1261D02*
X3371Y1261D01*
X0Y1260D02*
X7Y1260D01*
X3364Y1260D02*
X3371Y1260D01*
X0Y1259D02*
X7Y1259D01*
X3364Y1259D02*
X3371Y1259D01*
X0Y1258D02*
X7Y1258D01*
X3364Y1258D02*
X3371Y1258D01*
X0Y1257D02*
X7Y1257D01*
X3364Y1257D02*
X3371Y1257D01*
X0Y1256D02*
X7Y1256D01*
X3364Y1256D02*
X3371Y1256D01*
X0Y1255D02*
X7Y1255D01*
X3364Y1255D02*
X3371Y1255D01*
X0Y1254D02*
X7Y1254D01*
X3364Y1254D02*
X3371Y1254D01*
X0Y1253D02*
X7Y1253D01*
X3364Y1253D02*
X3371Y1253D01*
X0Y1252D02*
X7Y1252D01*
X3364Y1252D02*
X3371Y1252D01*
X0Y1251D02*
X7Y1251D01*
X3364Y1251D02*
X3371Y1251D01*
X0Y1250D02*
X7Y1250D01*
X3364Y1250D02*
X3371Y1250D01*
X0Y1249D02*
X7Y1249D01*
X3364Y1249D02*
X3371Y1249D01*
X0Y1248D02*
X7Y1248D01*
X3364Y1248D02*
X3371Y1248D01*
X0Y1247D02*
X7Y1247D01*
X3364Y1247D02*
X3371Y1247D01*
X0Y1246D02*
X7Y1246D01*
X3364Y1246D02*
X3371Y1246D01*
X0Y1245D02*
X7Y1245D01*
X3364Y1245D02*
X3371Y1245D01*
X0Y1244D02*
X7Y1244D01*
X3364Y1244D02*
X3371Y1244D01*
X0Y1243D02*
X7Y1243D01*
X3364Y1243D02*
X3371Y1243D01*
X0Y1242D02*
X7Y1242D01*
X3364Y1242D02*
X3371Y1242D01*
X0Y1241D02*
X7Y1241D01*
X3364Y1241D02*
X3371Y1241D01*
X0Y1240D02*
X7Y1240D01*
X3364Y1240D02*
X3371Y1240D01*
X0Y1239D02*
X7Y1239D01*
X3364Y1239D02*
X3371Y1239D01*
X0Y1238D02*
X7Y1238D01*
X3364Y1238D02*
X3371Y1238D01*
X0Y1237D02*
X7Y1237D01*
X3364Y1237D02*
X3371Y1237D01*
X0Y1236D02*
X7Y1236D01*
X3364Y1236D02*
X3371Y1236D01*
X0Y1235D02*
X7Y1235D01*
X3364Y1235D02*
X3371Y1235D01*
X0Y1234D02*
X7Y1234D01*
X3364Y1234D02*
X3371Y1234D01*
X0Y1233D02*
X7Y1233D01*
X3364Y1233D02*
X3371Y1233D01*
X0Y1232D02*
X7Y1232D01*
X3364Y1232D02*
X3371Y1232D01*
X0Y1231D02*
X7Y1231D01*
X3364Y1231D02*
X3371Y1231D01*
X0Y1230D02*
X7Y1230D01*
X3364Y1230D02*
X3371Y1230D01*
X0Y1229D02*
X7Y1229D01*
X3364Y1229D02*
X3371Y1229D01*
X0Y1228D02*
X7Y1228D01*
X3364Y1228D02*
X3371Y1228D01*
X0Y1227D02*
X7Y1227D01*
X3364Y1227D02*
X3371Y1227D01*
X0Y1226D02*
X7Y1226D01*
X3364Y1226D02*
X3371Y1226D01*
X0Y1225D02*
X7Y1225D01*
X3364Y1225D02*
X3371Y1225D01*
X0Y1224D02*
X7Y1224D01*
X3364Y1224D02*
X3371Y1224D01*
X0Y1223D02*
X7Y1223D01*
X3364Y1223D02*
X3371Y1223D01*
X0Y1222D02*
X7Y1222D01*
X3364Y1222D02*
X3371Y1222D01*
X0Y1221D02*
X7Y1221D01*
X3364Y1221D02*
X3371Y1221D01*
X0Y1220D02*
X7Y1220D01*
X3364Y1220D02*
X3371Y1220D01*
X0Y1219D02*
X7Y1219D01*
X3364Y1219D02*
X3371Y1219D01*
X0Y1218D02*
X7Y1218D01*
X3364Y1218D02*
X3371Y1218D01*
X0Y1217D02*
X7Y1217D01*
X3364Y1217D02*
X3371Y1217D01*
X0Y1216D02*
X7Y1216D01*
X3364Y1216D02*
X3371Y1216D01*
X0Y1215D02*
X7Y1215D01*
X3364Y1215D02*
X3371Y1215D01*
X0Y1214D02*
X7Y1214D01*
X3364Y1214D02*
X3371Y1214D01*
X0Y1213D02*
X7Y1213D01*
X3364Y1213D02*
X3371Y1213D01*
X0Y1212D02*
X7Y1212D01*
X3364Y1212D02*
X3371Y1212D01*
X0Y1211D02*
X7Y1211D01*
X3364Y1211D02*
X3371Y1211D01*
X0Y1210D02*
X7Y1210D01*
X3364Y1210D02*
X3371Y1210D01*
X0Y1209D02*
X7Y1209D01*
X3364Y1209D02*
X3371Y1209D01*
X0Y1208D02*
X7Y1208D01*
X3364Y1208D02*
X3371Y1208D01*
X0Y1207D02*
X7Y1207D01*
X3364Y1207D02*
X3371Y1207D01*
X0Y1206D02*
X7Y1206D01*
X3364Y1206D02*
X3371Y1206D01*
X0Y1205D02*
X7Y1205D01*
X3364Y1205D02*
X3371Y1205D01*
X0Y1204D02*
X7Y1204D01*
X3364Y1204D02*
X3371Y1204D01*
X0Y1203D02*
X7Y1203D01*
X3364Y1203D02*
X3371Y1203D01*
X0Y1202D02*
X7Y1202D01*
X3364Y1202D02*
X3371Y1202D01*
X0Y1201D02*
X7Y1201D01*
X3364Y1201D02*
X3371Y1201D01*
X0Y1200D02*
X7Y1200D01*
X3364Y1200D02*
X3371Y1200D01*
X0Y1199D02*
X7Y1199D01*
X3364Y1199D02*
X3371Y1199D01*
X0Y1198D02*
X7Y1198D01*
X3364Y1198D02*
X3371Y1198D01*
X0Y1197D02*
X7Y1197D01*
X3364Y1197D02*
X3371Y1197D01*
X0Y1196D02*
X7Y1196D01*
X3364Y1196D02*
X3371Y1196D01*
X0Y1195D02*
X7Y1195D01*
X3364Y1195D02*
X3371Y1195D01*
X0Y1194D02*
X7Y1194D01*
X3364Y1194D02*
X3371Y1194D01*
X0Y1193D02*
X7Y1193D01*
X3364Y1193D02*
X3371Y1193D01*
X0Y1192D02*
X7Y1192D01*
X3364Y1192D02*
X3371Y1192D01*
X0Y1191D02*
X7Y1191D01*
X3364Y1191D02*
X3371Y1191D01*
X0Y1190D02*
X7Y1190D01*
X3364Y1190D02*
X3371Y1190D01*
X0Y1189D02*
X7Y1189D01*
X3364Y1189D02*
X3371Y1189D01*
X0Y1188D02*
X7Y1188D01*
X3364Y1188D02*
X3371Y1188D01*
X0Y1187D02*
X7Y1187D01*
X3364Y1187D02*
X3371Y1187D01*
X0Y1186D02*
X7Y1186D01*
X3364Y1186D02*
X3371Y1186D01*
X0Y1185D02*
X7Y1185D01*
X3364Y1185D02*
X3371Y1185D01*
X0Y1184D02*
X7Y1184D01*
X3364Y1184D02*
X3371Y1184D01*
X0Y1183D02*
X7Y1183D01*
X3364Y1183D02*
X3371Y1183D01*
X0Y1182D02*
X7Y1182D01*
X3364Y1182D02*
X3371Y1182D01*
X0Y1181D02*
X7Y1181D01*
X3364Y1181D02*
X3371Y1181D01*
X0Y1180D02*
X7Y1180D01*
X3364Y1180D02*
X3371Y1180D01*
X0Y1179D02*
X7Y1179D01*
X3364Y1179D02*
X3371Y1179D01*
X0Y1178D02*
X7Y1178D01*
X3364Y1178D02*
X3371Y1178D01*
X0Y1177D02*
X7Y1177D01*
X3364Y1177D02*
X3371Y1177D01*
X0Y1176D02*
X7Y1176D01*
X3364Y1176D02*
X3371Y1176D01*
X0Y1175D02*
X7Y1175D01*
X3364Y1175D02*
X3371Y1175D01*
X0Y1174D02*
X7Y1174D01*
X3364Y1174D02*
X3371Y1174D01*
X0Y1173D02*
X7Y1173D01*
X3364Y1173D02*
X3371Y1173D01*
X0Y1172D02*
X7Y1172D01*
X3364Y1172D02*
X3371Y1172D01*
X0Y1171D02*
X7Y1171D01*
X3364Y1171D02*
X3371Y1171D01*
X0Y1170D02*
X7Y1170D01*
X3364Y1170D02*
X3371Y1170D01*
X0Y1169D02*
X7Y1169D01*
X3364Y1169D02*
X3371Y1169D01*
X0Y1168D02*
X7Y1168D01*
X3364Y1168D02*
X3371Y1168D01*
X0Y1167D02*
X7Y1167D01*
X3364Y1167D02*
X3371Y1167D01*
X0Y1166D02*
X7Y1166D01*
X3364Y1166D02*
X3371Y1166D01*
X0Y1165D02*
X7Y1165D01*
X3364Y1165D02*
X3371Y1165D01*
X0Y1164D02*
X7Y1164D01*
X3364Y1164D02*
X3371Y1164D01*
X0Y1163D02*
X7Y1163D01*
X3364Y1163D02*
X3371Y1163D01*
X0Y1162D02*
X7Y1162D01*
X3364Y1162D02*
X3371Y1162D01*
X0Y1161D02*
X7Y1161D01*
X3364Y1161D02*
X3371Y1161D01*
X0Y1160D02*
X7Y1160D01*
X3364Y1160D02*
X3371Y1160D01*
X0Y1159D02*
X7Y1159D01*
X3364Y1159D02*
X3371Y1159D01*
X0Y1158D02*
X7Y1158D01*
X3364Y1158D02*
X3371Y1158D01*
X0Y1157D02*
X7Y1157D01*
X3364Y1157D02*
X3371Y1157D01*
X0Y1156D02*
X7Y1156D01*
X3364Y1156D02*
X3371Y1156D01*
X0Y1155D02*
X7Y1155D01*
X3364Y1155D02*
X3371Y1155D01*
X0Y1154D02*
X7Y1154D01*
X3364Y1154D02*
X3371Y1154D01*
X0Y1153D02*
X7Y1153D01*
X3364Y1153D02*
X3371Y1153D01*
X0Y1152D02*
X7Y1152D01*
X3364Y1152D02*
X3371Y1152D01*
X0Y1151D02*
X7Y1151D01*
X3364Y1151D02*
X3371Y1151D01*
X0Y1150D02*
X7Y1150D01*
X3364Y1150D02*
X3371Y1150D01*
X0Y1149D02*
X7Y1149D01*
X3364Y1149D02*
X3371Y1149D01*
X0Y1148D02*
X7Y1148D01*
X3364Y1148D02*
X3371Y1148D01*
X0Y1147D02*
X7Y1147D01*
X3364Y1147D02*
X3371Y1147D01*
X0Y1146D02*
X7Y1146D01*
X3364Y1146D02*
X3371Y1146D01*
X0Y1145D02*
X7Y1145D01*
X3364Y1145D02*
X3371Y1145D01*
X0Y1144D02*
X7Y1144D01*
X3364Y1144D02*
X3371Y1144D01*
X0Y1143D02*
X7Y1143D01*
X3364Y1143D02*
X3371Y1143D01*
X0Y1142D02*
X7Y1142D01*
X3364Y1142D02*
X3371Y1142D01*
X0Y1141D02*
X7Y1141D01*
X3364Y1141D02*
X3371Y1141D01*
X0Y1140D02*
X7Y1140D01*
X3364Y1140D02*
X3371Y1140D01*
X0Y1139D02*
X7Y1139D01*
X3364Y1139D02*
X3371Y1139D01*
X0Y1138D02*
X7Y1138D01*
X3364Y1138D02*
X3371Y1138D01*
X0Y1137D02*
X7Y1137D01*
X3364Y1137D02*
X3371Y1137D01*
X0Y1136D02*
X7Y1136D01*
X3364Y1136D02*
X3371Y1136D01*
X0Y1135D02*
X7Y1135D01*
X3364Y1135D02*
X3371Y1135D01*
X0Y1134D02*
X7Y1134D01*
X3364Y1134D02*
X3371Y1134D01*
X0Y1133D02*
X7Y1133D01*
X3364Y1133D02*
X3371Y1133D01*
X0Y1132D02*
X7Y1132D01*
X3364Y1132D02*
X3371Y1132D01*
X0Y1131D02*
X7Y1131D01*
X3364Y1131D02*
X3371Y1131D01*
X0Y1130D02*
X7Y1130D01*
X3364Y1130D02*
X3371Y1130D01*
X0Y1129D02*
X7Y1129D01*
X3364Y1129D02*
X3371Y1129D01*
X0Y1128D02*
X7Y1128D01*
X3364Y1128D02*
X3371Y1128D01*
X0Y1127D02*
X7Y1127D01*
X3364Y1127D02*
X3371Y1127D01*
X0Y1126D02*
X7Y1126D01*
X3364Y1126D02*
X3371Y1126D01*
X0Y1125D02*
X7Y1125D01*
X3364Y1125D02*
X3371Y1125D01*
X0Y1124D02*
X7Y1124D01*
X3364Y1124D02*
X3371Y1124D01*
X0Y1123D02*
X7Y1123D01*
X3364Y1123D02*
X3371Y1123D01*
X0Y1122D02*
X7Y1122D01*
X3364Y1122D02*
X3371Y1122D01*
X0Y1121D02*
X7Y1121D01*
X3364Y1121D02*
X3371Y1121D01*
X0Y1120D02*
X7Y1120D01*
X3364Y1120D02*
X3371Y1120D01*
X0Y1119D02*
X7Y1119D01*
X3364Y1119D02*
X3371Y1119D01*
X0Y1118D02*
X7Y1118D01*
X3364Y1118D02*
X3371Y1118D01*
X0Y1117D02*
X7Y1117D01*
X3364Y1117D02*
X3371Y1117D01*
X0Y1116D02*
X7Y1116D01*
X3364Y1116D02*
X3371Y1116D01*
X0Y1115D02*
X7Y1115D01*
X3364Y1115D02*
X3371Y1115D01*
X0Y1114D02*
X7Y1114D01*
X3364Y1114D02*
X3371Y1114D01*
X0Y1113D02*
X7Y1113D01*
X3364Y1113D02*
X3371Y1113D01*
X0Y1112D02*
X7Y1112D01*
X3364Y1112D02*
X3371Y1112D01*
X0Y1111D02*
X7Y1111D01*
X3364Y1111D02*
X3371Y1111D01*
X0Y1110D02*
X7Y1110D01*
X3364Y1110D02*
X3371Y1110D01*
X0Y1109D02*
X7Y1109D01*
X3364Y1109D02*
X3371Y1109D01*
X0Y1108D02*
X7Y1108D01*
X3364Y1108D02*
X3371Y1108D01*
X0Y1107D02*
X7Y1107D01*
X3364Y1107D02*
X3371Y1107D01*
X0Y1106D02*
X7Y1106D01*
X3364Y1106D02*
X3371Y1106D01*
X0Y1105D02*
X7Y1105D01*
X3364Y1105D02*
X3371Y1105D01*
X0Y1104D02*
X7Y1104D01*
X3364Y1104D02*
X3371Y1104D01*
X0Y1103D02*
X7Y1103D01*
X3364Y1103D02*
X3371Y1103D01*
X0Y1102D02*
X7Y1102D01*
X3364Y1102D02*
X3371Y1102D01*
X0Y1101D02*
X7Y1101D01*
X3364Y1101D02*
X3371Y1101D01*
X0Y1100D02*
X7Y1100D01*
X3364Y1100D02*
X3371Y1100D01*
X0Y1099D02*
X7Y1099D01*
X3364Y1099D02*
X3371Y1099D01*
X0Y1098D02*
X7Y1098D01*
X3364Y1098D02*
X3371Y1098D01*
X0Y1097D02*
X7Y1097D01*
X3364Y1097D02*
X3371Y1097D01*
X0Y1096D02*
X7Y1096D01*
X3364Y1096D02*
X3371Y1096D01*
X0Y1095D02*
X7Y1095D01*
X3364Y1095D02*
X3371Y1095D01*
X0Y1094D02*
X7Y1094D01*
X3364Y1094D02*
X3371Y1094D01*
X0Y1093D02*
X7Y1093D01*
X3364Y1093D02*
X3371Y1093D01*
X0Y1092D02*
X7Y1092D01*
X3364Y1092D02*
X3371Y1092D01*
X0Y1091D02*
X7Y1091D01*
X3364Y1091D02*
X3371Y1091D01*
X0Y1090D02*
X7Y1090D01*
X3364Y1090D02*
X3371Y1090D01*
X0Y1089D02*
X7Y1089D01*
X3364Y1089D02*
X3371Y1089D01*
X0Y1088D02*
X7Y1088D01*
X3364Y1088D02*
X3371Y1088D01*
X0Y1087D02*
X7Y1087D01*
X3364Y1087D02*
X3371Y1087D01*
X0Y1086D02*
X7Y1086D01*
X3364Y1086D02*
X3371Y1086D01*
X0Y1085D02*
X7Y1085D01*
X3364Y1085D02*
X3371Y1085D01*
X0Y1084D02*
X7Y1084D01*
X3364Y1084D02*
X3371Y1084D01*
X0Y1083D02*
X7Y1083D01*
X3364Y1083D02*
X3371Y1083D01*
X0Y1082D02*
X7Y1082D01*
X3364Y1082D02*
X3371Y1082D01*
X0Y1081D02*
X7Y1081D01*
X3364Y1081D02*
X3371Y1081D01*
X0Y1080D02*
X7Y1080D01*
X3364Y1080D02*
X3371Y1080D01*
X0Y1079D02*
X7Y1079D01*
X3364Y1079D02*
X3371Y1079D01*
X0Y1078D02*
X7Y1078D01*
X3364Y1078D02*
X3371Y1078D01*
X0Y1077D02*
X7Y1077D01*
X3364Y1077D02*
X3371Y1077D01*
X0Y1076D02*
X7Y1076D01*
X3364Y1076D02*
X3371Y1076D01*
X0Y1075D02*
X7Y1075D01*
X3364Y1075D02*
X3371Y1075D01*
X0Y1074D02*
X7Y1074D01*
X3364Y1074D02*
X3371Y1074D01*
X0Y1073D02*
X7Y1073D01*
X3364Y1073D02*
X3371Y1073D01*
X0Y1072D02*
X7Y1072D01*
X3364Y1072D02*
X3371Y1072D01*
X0Y1071D02*
X7Y1071D01*
X3364Y1071D02*
X3371Y1071D01*
X0Y1070D02*
X7Y1070D01*
X3364Y1070D02*
X3371Y1070D01*
X0Y1069D02*
X7Y1069D01*
X3364Y1069D02*
X3371Y1069D01*
X0Y1068D02*
X7Y1068D01*
X3364Y1068D02*
X3371Y1068D01*
X0Y1067D02*
X7Y1067D01*
X3364Y1067D02*
X3371Y1067D01*
X0Y1066D02*
X7Y1066D01*
X3364Y1066D02*
X3371Y1066D01*
X0Y1065D02*
X7Y1065D01*
X3364Y1065D02*
X3371Y1065D01*
X0Y1064D02*
X7Y1064D01*
X3364Y1064D02*
X3371Y1064D01*
X0Y1063D02*
X7Y1063D01*
X3364Y1063D02*
X3371Y1063D01*
X0Y1062D02*
X7Y1062D01*
X3364Y1062D02*
X3371Y1062D01*
X0Y1061D02*
X7Y1061D01*
X3364Y1061D02*
X3371Y1061D01*
X0Y1060D02*
X7Y1060D01*
X3364Y1060D02*
X3371Y1060D01*
X0Y1059D02*
X7Y1059D01*
X3364Y1059D02*
X3371Y1059D01*
X0Y1058D02*
X7Y1058D01*
X3364Y1058D02*
X3371Y1058D01*
X0Y1057D02*
X7Y1057D01*
X3364Y1057D02*
X3371Y1057D01*
X0Y1056D02*
X7Y1056D01*
X3364Y1056D02*
X3371Y1056D01*
X0Y1055D02*
X7Y1055D01*
X3364Y1055D02*
X3371Y1055D01*
X0Y1054D02*
X7Y1054D01*
X3364Y1054D02*
X3371Y1054D01*
X0Y1053D02*
X7Y1053D01*
X3364Y1053D02*
X3371Y1053D01*
X0Y1052D02*
X7Y1052D01*
X3364Y1052D02*
X3371Y1052D01*
X0Y1051D02*
X7Y1051D01*
X3364Y1051D02*
X3371Y1051D01*
X0Y1050D02*
X7Y1050D01*
X3364Y1050D02*
X3371Y1050D01*
X0Y1049D02*
X7Y1049D01*
X3364Y1049D02*
X3371Y1049D01*
X0Y1048D02*
X7Y1048D01*
X3364Y1048D02*
X3371Y1048D01*
X0Y1047D02*
X7Y1047D01*
X3364Y1047D02*
X3371Y1047D01*
X0Y1046D02*
X7Y1046D01*
X3364Y1046D02*
X3371Y1046D01*
X0Y1045D02*
X7Y1045D01*
X3364Y1045D02*
X3371Y1045D01*
X0Y1044D02*
X7Y1044D01*
X3364Y1044D02*
X3371Y1044D01*
X0Y1043D02*
X7Y1043D01*
X3364Y1043D02*
X3371Y1043D01*
X0Y1042D02*
X7Y1042D01*
X3364Y1042D02*
X3371Y1042D01*
X0Y1041D02*
X7Y1041D01*
X3364Y1041D02*
X3371Y1041D01*
X0Y1040D02*
X7Y1040D01*
X3364Y1040D02*
X3371Y1040D01*
X0Y1039D02*
X7Y1039D01*
X3364Y1039D02*
X3371Y1039D01*
X0Y1038D02*
X7Y1038D01*
X3364Y1038D02*
X3371Y1038D01*
X0Y1037D02*
X7Y1037D01*
X3364Y1037D02*
X3371Y1037D01*
X0Y1036D02*
X7Y1036D01*
X3364Y1036D02*
X3371Y1036D01*
X0Y1035D02*
X7Y1035D01*
X3364Y1035D02*
X3371Y1035D01*
X0Y1034D02*
X7Y1034D01*
X3364Y1034D02*
X3371Y1034D01*
X0Y1033D02*
X7Y1033D01*
X3364Y1033D02*
X3371Y1033D01*
X0Y1032D02*
X7Y1032D01*
X3364Y1032D02*
X3371Y1032D01*
X0Y1031D02*
X7Y1031D01*
X3364Y1031D02*
X3371Y1031D01*
X0Y1030D02*
X7Y1030D01*
X3364Y1030D02*
X3371Y1030D01*
X0Y1029D02*
X7Y1029D01*
X3364Y1029D02*
X3371Y1029D01*
X0Y1028D02*
X7Y1028D01*
X3364Y1028D02*
X3371Y1028D01*
X0Y1027D02*
X7Y1027D01*
X3364Y1027D02*
X3371Y1027D01*
X0Y1026D02*
X7Y1026D01*
X3364Y1026D02*
X3371Y1026D01*
X0Y1025D02*
X7Y1025D01*
X3364Y1025D02*
X3371Y1025D01*
X0Y1024D02*
X7Y1024D01*
X3364Y1024D02*
X3371Y1024D01*
X0Y1023D02*
X7Y1023D01*
X3364Y1023D02*
X3371Y1023D01*
X0Y1022D02*
X7Y1022D01*
X3364Y1022D02*
X3371Y1022D01*
X0Y1021D02*
X7Y1021D01*
X3364Y1021D02*
X3371Y1021D01*
X0Y1020D02*
X7Y1020D01*
X3364Y1020D02*
X3371Y1020D01*
X0Y1019D02*
X7Y1019D01*
X3364Y1019D02*
X3371Y1019D01*
X0Y1018D02*
X7Y1018D01*
X3364Y1018D02*
X3371Y1018D01*
X0Y1017D02*
X7Y1017D01*
X3364Y1017D02*
X3371Y1017D01*
X0Y1016D02*
X7Y1016D01*
X3364Y1016D02*
X3371Y1016D01*
X0Y1015D02*
X7Y1015D01*
X3364Y1015D02*
X3371Y1015D01*
X0Y1014D02*
X7Y1014D01*
X3364Y1014D02*
X3371Y1014D01*
X0Y1013D02*
X7Y1013D01*
X3364Y1013D02*
X3371Y1013D01*
X0Y1012D02*
X7Y1012D01*
X3364Y1012D02*
X3371Y1012D01*
X0Y1011D02*
X7Y1011D01*
X3364Y1011D02*
X3371Y1011D01*
X0Y1010D02*
X7Y1010D01*
X3364Y1010D02*
X3371Y1010D01*
X0Y1009D02*
X7Y1009D01*
X3364Y1009D02*
X3371Y1009D01*
X0Y1008D02*
X7Y1008D01*
X3364Y1008D02*
X3371Y1008D01*
X0Y1007D02*
X7Y1007D01*
X3364Y1007D02*
X3371Y1007D01*
X0Y1006D02*
X7Y1006D01*
X3364Y1006D02*
X3371Y1006D01*
X0Y1005D02*
X7Y1005D01*
X3364Y1005D02*
X3371Y1005D01*
X0Y1004D02*
X7Y1004D01*
X3364Y1004D02*
X3371Y1004D01*
X0Y1003D02*
X7Y1003D01*
X3364Y1003D02*
X3371Y1003D01*
X0Y1002D02*
X7Y1002D01*
X3364Y1002D02*
X3371Y1002D01*
X0Y1001D02*
X7Y1001D01*
X3364Y1001D02*
X3371Y1001D01*
X0Y1000D02*
X7Y1000D01*
X3364Y1000D02*
X3371Y1000D01*
X0Y999D02*
X7Y999D01*
X3364Y999D02*
X3371Y999D01*
X0Y998D02*
X7Y998D01*
X3364Y998D02*
X3371Y998D01*
X0Y997D02*
X7Y997D01*
X3364Y997D02*
X3371Y997D01*
X0Y996D02*
X7Y996D01*
X3364Y996D02*
X3371Y996D01*
X0Y995D02*
X7Y995D01*
X3364Y995D02*
X3371Y995D01*
X0Y994D02*
X7Y994D01*
X3364Y994D02*
X3371Y994D01*
X0Y993D02*
X7Y993D01*
X3364Y993D02*
X3371Y993D01*
X0Y992D02*
X7Y992D01*
X3364Y992D02*
X3371Y992D01*
X0Y991D02*
X7Y991D01*
X3364Y991D02*
X3371Y991D01*
X0Y990D02*
X7Y990D01*
X3364Y990D02*
X3371Y990D01*
X0Y989D02*
X7Y989D01*
X3364Y989D02*
X3371Y989D01*
X0Y988D02*
X7Y988D01*
X3364Y988D02*
X3371Y988D01*
X0Y987D02*
X7Y987D01*
X3364Y987D02*
X3371Y987D01*
X0Y986D02*
X7Y986D01*
X3364Y986D02*
X3371Y986D01*
X0Y985D02*
X7Y985D01*
X3364Y985D02*
X3371Y985D01*
X0Y984D02*
X7Y984D01*
X3364Y984D02*
X3371Y984D01*
X0Y983D02*
X7Y983D01*
X3364Y983D02*
X3371Y983D01*
X0Y982D02*
X7Y982D01*
X3364Y982D02*
X3371Y982D01*
X0Y981D02*
X7Y981D01*
X3364Y981D02*
X3371Y981D01*
X0Y980D02*
X7Y980D01*
X3364Y980D02*
X3371Y980D01*
X0Y979D02*
X7Y979D01*
X3364Y979D02*
X3371Y979D01*
X0Y978D02*
X7Y978D01*
X3364Y978D02*
X3371Y978D01*
X0Y977D02*
X7Y977D01*
X3364Y977D02*
X3371Y977D01*
X0Y976D02*
X7Y976D01*
X3364Y976D02*
X3371Y976D01*
X0Y975D02*
X7Y975D01*
X3364Y975D02*
X3371Y975D01*
X0Y974D02*
X7Y974D01*
X3364Y974D02*
X3371Y974D01*
X0Y973D02*
X7Y973D01*
X3364Y973D02*
X3371Y973D01*
X0Y972D02*
X7Y972D01*
X3364Y972D02*
X3371Y972D01*
X0Y971D02*
X7Y971D01*
X3364Y971D02*
X3371Y971D01*
X0Y970D02*
X7Y970D01*
X3364Y970D02*
X3371Y970D01*
X0Y969D02*
X7Y969D01*
X3364Y969D02*
X3371Y969D01*
X0Y968D02*
X7Y968D01*
X3364Y968D02*
X3371Y968D01*
X0Y967D02*
X7Y967D01*
X3364Y967D02*
X3371Y967D01*
X0Y966D02*
X7Y966D01*
X3364Y966D02*
X3371Y966D01*
X0Y965D02*
X7Y965D01*
X3364Y965D02*
X3371Y965D01*
X0Y964D02*
X7Y964D01*
X3364Y964D02*
X3371Y964D01*
X0Y963D02*
X7Y963D01*
X3364Y963D02*
X3371Y963D01*
X0Y962D02*
X7Y962D01*
X3364Y962D02*
X3371Y962D01*
X0Y961D02*
X7Y961D01*
X3364Y961D02*
X3371Y961D01*
X0Y960D02*
X7Y960D01*
X3364Y960D02*
X3371Y960D01*
X0Y959D02*
X7Y959D01*
X3364Y959D02*
X3371Y959D01*
X0Y958D02*
X7Y958D01*
X3364Y958D02*
X3371Y958D01*
X0Y957D02*
X7Y957D01*
X3364Y957D02*
X3371Y957D01*
X0Y956D02*
X7Y956D01*
X3364Y956D02*
X3371Y956D01*
X0Y955D02*
X7Y955D01*
X3364Y955D02*
X3371Y955D01*
X0Y954D02*
X7Y954D01*
X3364Y954D02*
X3371Y954D01*
X0Y953D02*
X7Y953D01*
X3364Y953D02*
X3371Y953D01*
X0Y952D02*
X7Y952D01*
X3364Y952D02*
X3371Y952D01*
X0Y951D02*
X7Y951D01*
X3364Y951D02*
X3371Y951D01*
X0Y950D02*
X7Y950D01*
X3364Y950D02*
X3371Y950D01*
X0Y949D02*
X7Y949D01*
X3364Y949D02*
X3371Y949D01*
X0Y948D02*
X7Y948D01*
X3364Y948D02*
X3371Y948D01*
X0Y947D02*
X7Y947D01*
X3364Y947D02*
X3371Y947D01*
X0Y946D02*
X7Y946D01*
X3364Y946D02*
X3371Y946D01*
X0Y945D02*
X7Y945D01*
X3364Y945D02*
X3371Y945D01*
X0Y944D02*
X7Y944D01*
X3364Y944D02*
X3371Y944D01*
X0Y943D02*
X7Y943D01*
X3364Y943D02*
X3371Y943D01*
X0Y942D02*
X7Y942D01*
X3364Y942D02*
X3371Y942D01*
X0Y941D02*
X7Y941D01*
X3364Y941D02*
X3371Y941D01*
X0Y940D02*
X7Y940D01*
X3364Y940D02*
X3371Y940D01*
X0Y939D02*
X7Y939D01*
X3364Y939D02*
X3371Y939D01*
X0Y938D02*
X7Y938D01*
X3364Y938D02*
X3371Y938D01*
X0Y937D02*
X7Y937D01*
X3364Y937D02*
X3371Y937D01*
X0Y936D02*
X7Y936D01*
X3364Y936D02*
X3371Y936D01*
X0Y935D02*
X7Y935D01*
X3364Y935D02*
X3371Y935D01*
X0Y934D02*
X7Y934D01*
X3364Y934D02*
X3371Y934D01*
X0Y933D02*
X7Y933D01*
X3364Y933D02*
X3371Y933D01*
X0Y932D02*
X7Y932D01*
X3364Y932D02*
X3371Y932D01*
X0Y931D02*
X7Y931D01*
X3364Y931D02*
X3371Y931D01*
X0Y930D02*
X7Y930D01*
X3364Y930D02*
X3371Y930D01*
X0Y929D02*
X7Y929D01*
X3364Y929D02*
X3371Y929D01*
X0Y928D02*
X7Y928D01*
X3364Y928D02*
X3371Y928D01*
X0Y927D02*
X7Y927D01*
X3364Y927D02*
X3371Y927D01*
X0Y926D02*
X7Y926D01*
X3364Y926D02*
X3371Y926D01*
X0Y925D02*
X7Y925D01*
X3364Y925D02*
X3371Y925D01*
X0Y924D02*
X7Y924D01*
X3364Y924D02*
X3371Y924D01*
X0Y923D02*
X7Y923D01*
X3364Y923D02*
X3371Y923D01*
X0Y922D02*
X7Y922D01*
X3364Y922D02*
X3371Y922D01*
X0Y921D02*
X7Y921D01*
X3364Y921D02*
X3371Y921D01*
X0Y920D02*
X7Y920D01*
X3364Y920D02*
X3371Y920D01*
X0Y919D02*
X7Y919D01*
X3364Y919D02*
X3371Y919D01*
X0Y918D02*
X7Y918D01*
X3364Y918D02*
X3371Y918D01*
X0Y917D02*
X7Y917D01*
X3364Y917D02*
X3371Y917D01*
X0Y916D02*
X7Y916D01*
X3364Y916D02*
X3371Y916D01*
X0Y915D02*
X7Y915D01*
X3364Y915D02*
X3371Y915D01*
X0Y914D02*
X7Y914D01*
X3364Y914D02*
X3371Y914D01*
X0Y913D02*
X7Y913D01*
X3364Y913D02*
X3371Y913D01*
X0Y912D02*
X7Y912D01*
X3364Y912D02*
X3371Y912D01*
X0Y911D02*
X7Y911D01*
X3364Y911D02*
X3371Y911D01*
X0Y910D02*
X7Y910D01*
X3364Y910D02*
X3371Y910D01*
X0Y909D02*
X7Y909D01*
X3364Y909D02*
X3371Y909D01*
X0Y908D02*
X7Y908D01*
X3364Y908D02*
X3371Y908D01*
X0Y907D02*
X7Y907D01*
X3364Y907D02*
X3371Y907D01*
X0Y906D02*
X7Y906D01*
X3364Y906D02*
X3371Y906D01*
X0Y905D02*
X7Y905D01*
X3364Y905D02*
X3371Y905D01*
X0Y904D02*
X7Y904D01*
X3364Y904D02*
X3371Y904D01*
X0Y903D02*
X7Y903D01*
X3364Y903D02*
X3371Y903D01*
X0Y902D02*
X7Y902D01*
X3364Y902D02*
X3371Y902D01*
X0Y901D02*
X7Y901D01*
X3364Y901D02*
X3371Y901D01*
X0Y900D02*
X7Y900D01*
X3364Y900D02*
X3371Y900D01*
X0Y899D02*
X7Y899D01*
X3364Y899D02*
X3371Y899D01*
X0Y898D02*
X7Y898D01*
X3364Y898D02*
X3371Y898D01*
X0Y897D02*
X7Y897D01*
X3364Y897D02*
X3371Y897D01*
X0Y896D02*
X7Y896D01*
X3364Y896D02*
X3371Y896D01*
X0Y895D02*
X7Y895D01*
X3364Y895D02*
X3371Y895D01*
X0Y894D02*
X7Y894D01*
X3364Y894D02*
X3371Y894D01*
X0Y893D02*
X7Y893D01*
X3364Y893D02*
X3371Y893D01*
X0Y892D02*
X7Y892D01*
X3364Y892D02*
X3371Y892D01*
X0Y891D02*
X7Y891D01*
X3364Y891D02*
X3371Y891D01*
X0Y890D02*
X7Y890D01*
X3364Y890D02*
X3371Y890D01*
X0Y889D02*
X7Y889D01*
X3364Y889D02*
X3371Y889D01*
X0Y888D02*
X7Y888D01*
X3364Y888D02*
X3371Y888D01*
X0Y887D02*
X7Y887D01*
X3364Y887D02*
X3371Y887D01*
X0Y886D02*
X7Y886D01*
X3364Y886D02*
X3371Y886D01*
X0Y885D02*
X7Y885D01*
X3364Y885D02*
X3371Y885D01*
X0Y884D02*
X7Y884D01*
X3364Y884D02*
X3371Y884D01*
X0Y883D02*
X7Y883D01*
X3364Y883D02*
X3371Y883D01*
X0Y882D02*
X7Y882D01*
X3364Y882D02*
X3371Y882D01*
X0Y881D02*
X7Y881D01*
X3364Y881D02*
X3371Y881D01*
X0Y880D02*
X7Y880D01*
X3364Y880D02*
X3371Y880D01*
X0Y879D02*
X7Y879D01*
X3364Y879D02*
X3371Y879D01*
X0Y878D02*
X7Y878D01*
X3364Y878D02*
X3371Y878D01*
X0Y877D02*
X7Y877D01*
X3364Y877D02*
X3371Y877D01*
X0Y876D02*
X7Y876D01*
X3364Y876D02*
X3371Y876D01*
X0Y875D02*
X7Y875D01*
X3364Y875D02*
X3371Y875D01*
X0Y874D02*
X7Y874D01*
X3364Y874D02*
X3371Y874D01*
X0Y873D02*
X7Y873D01*
X3364Y873D02*
X3371Y873D01*
X0Y872D02*
X7Y872D01*
X3364Y872D02*
X3371Y872D01*
X0Y871D02*
X7Y871D01*
X3364Y871D02*
X3371Y871D01*
X0Y870D02*
X7Y870D01*
X3364Y870D02*
X3371Y870D01*
X0Y869D02*
X7Y869D01*
X3364Y869D02*
X3371Y869D01*
X0Y868D02*
X7Y868D01*
X3364Y868D02*
X3371Y868D01*
X0Y867D02*
X7Y867D01*
X3364Y867D02*
X3371Y867D01*
X0Y866D02*
X7Y866D01*
X3364Y866D02*
X3371Y866D01*
X0Y865D02*
X7Y865D01*
X3364Y865D02*
X3371Y865D01*
X0Y864D02*
X7Y864D01*
X3364Y864D02*
X3371Y864D01*
X0Y863D02*
X7Y863D01*
X3364Y863D02*
X3371Y863D01*
X0Y862D02*
X7Y862D01*
X3364Y862D02*
X3371Y862D01*
X0Y861D02*
X7Y861D01*
X3364Y861D02*
X3371Y861D01*
X0Y860D02*
X7Y860D01*
X3364Y860D02*
X3371Y860D01*
X0Y859D02*
X7Y859D01*
X3364Y859D02*
X3371Y859D01*
X0Y858D02*
X7Y858D01*
X3364Y858D02*
X3371Y858D01*
X0Y857D02*
X7Y857D01*
X3364Y857D02*
X3371Y857D01*
X0Y856D02*
X7Y856D01*
X3364Y856D02*
X3371Y856D01*
X0Y855D02*
X7Y855D01*
X3364Y855D02*
X3371Y855D01*
X0Y854D02*
X7Y854D01*
X3364Y854D02*
X3371Y854D01*
X0Y853D02*
X7Y853D01*
X3364Y853D02*
X3371Y853D01*
X0Y852D02*
X7Y852D01*
X3364Y852D02*
X3371Y852D01*
X0Y851D02*
X7Y851D01*
X3364Y851D02*
X3371Y851D01*
X0Y850D02*
X7Y850D01*
X3364Y850D02*
X3371Y850D01*
X0Y849D02*
X7Y849D01*
X3364Y849D02*
X3371Y849D01*
X0Y848D02*
X7Y848D01*
X3364Y848D02*
X3371Y848D01*
X0Y847D02*
X7Y847D01*
X3364Y847D02*
X3371Y847D01*
X0Y846D02*
X7Y846D01*
X3364Y846D02*
X3371Y846D01*
X0Y845D02*
X7Y845D01*
X3364Y845D02*
X3371Y845D01*
X0Y844D02*
X7Y844D01*
X3364Y844D02*
X3371Y844D01*
X0Y843D02*
X7Y843D01*
X3364Y843D02*
X3371Y843D01*
X0Y842D02*
X7Y842D01*
X3364Y842D02*
X3371Y842D01*
X0Y841D02*
X7Y841D01*
X3364Y841D02*
X3371Y841D01*
X0Y840D02*
X7Y840D01*
X3364Y840D02*
X3371Y840D01*
X0Y839D02*
X7Y839D01*
X3364Y839D02*
X3371Y839D01*
X0Y838D02*
X7Y838D01*
X3364Y838D02*
X3371Y838D01*
X0Y837D02*
X7Y837D01*
X3364Y837D02*
X3371Y837D01*
X0Y836D02*
X7Y836D01*
X3364Y836D02*
X3371Y836D01*
X0Y835D02*
X7Y835D01*
X3364Y835D02*
X3371Y835D01*
X0Y834D02*
X7Y834D01*
X3364Y834D02*
X3371Y834D01*
X0Y833D02*
X7Y833D01*
X3364Y833D02*
X3371Y833D01*
X0Y832D02*
X7Y832D01*
X3364Y832D02*
X3371Y832D01*
X0Y831D02*
X7Y831D01*
X3364Y831D02*
X3371Y831D01*
X0Y830D02*
X7Y830D01*
X3364Y830D02*
X3371Y830D01*
X0Y829D02*
X7Y829D01*
X3364Y829D02*
X3371Y829D01*
X0Y828D02*
X7Y828D01*
X3364Y828D02*
X3371Y828D01*
X0Y827D02*
X7Y827D01*
X3364Y827D02*
X3371Y827D01*
X0Y826D02*
X7Y826D01*
X3364Y826D02*
X3371Y826D01*
X0Y825D02*
X7Y825D01*
X3364Y825D02*
X3371Y825D01*
X0Y824D02*
X7Y824D01*
X3364Y824D02*
X3371Y824D01*
X0Y823D02*
X7Y823D01*
X3364Y823D02*
X3371Y823D01*
X0Y822D02*
X7Y822D01*
X3364Y822D02*
X3371Y822D01*
X0Y821D02*
X7Y821D01*
X3364Y821D02*
X3371Y821D01*
X0Y820D02*
X7Y820D01*
X3364Y820D02*
X3371Y820D01*
X0Y819D02*
X7Y819D01*
X3364Y819D02*
X3371Y819D01*
X0Y818D02*
X7Y818D01*
X3364Y818D02*
X3371Y818D01*
X0Y817D02*
X7Y817D01*
X3364Y817D02*
X3371Y817D01*
X0Y816D02*
X7Y816D01*
X3364Y816D02*
X3371Y816D01*
X0Y815D02*
X7Y815D01*
X3364Y815D02*
X3371Y815D01*
X0Y814D02*
X7Y814D01*
X3364Y814D02*
X3371Y814D01*
X0Y813D02*
X7Y813D01*
X3364Y813D02*
X3371Y813D01*
X0Y812D02*
X7Y812D01*
X3364Y812D02*
X3371Y812D01*
X0Y811D02*
X7Y811D01*
X3364Y811D02*
X3371Y811D01*
X0Y810D02*
X7Y810D01*
X3364Y810D02*
X3371Y810D01*
X0Y809D02*
X7Y809D01*
X3364Y809D02*
X3371Y809D01*
X0Y808D02*
X7Y808D01*
X3364Y808D02*
X3371Y808D01*
X0Y807D02*
X7Y807D01*
X3364Y807D02*
X3371Y807D01*
X0Y806D02*
X7Y806D01*
X3364Y806D02*
X3371Y806D01*
X0Y805D02*
X7Y805D01*
X3364Y805D02*
X3371Y805D01*
X0Y804D02*
X7Y804D01*
X3364Y804D02*
X3371Y804D01*
X0Y803D02*
X7Y803D01*
X3364Y803D02*
X3371Y803D01*
X0Y802D02*
X7Y802D01*
X3364Y802D02*
X3371Y802D01*
X0Y801D02*
X7Y801D01*
X3364Y801D02*
X3371Y801D01*
X0Y800D02*
X7Y800D01*
X3364Y800D02*
X3371Y800D01*
X0Y799D02*
X7Y799D01*
X1977Y799D02*
X2176Y799D01*
X3364Y799D02*
X3371Y799D01*
X0Y798D02*
X7Y798D01*
X1976Y798D02*
X2176Y798D01*
X3364Y798D02*
X3371Y798D01*
X0Y797D02*
X7Y797D01*
X1976Y797D02*
X2176Y797D01*
X3364Y797D02*
X3371Y797D01*
X0Y796D02*
X7Y796D01*
X1976Y796D02*
X1978Y796D01*
X2052Y796D02*
X2100Y796D01*
X2174Y796D02*
X2176Y796D01*
X3364Y796D02*
X3371Y796D01*
X0Y795D02*
X7Y795D01*
X1976Y795D02*
X1978Y795D01*
X2174Y795D02*
X2176Y795D01*
X3364Y795D02*
X3371Y795D01*
X0Y794D02*
X7Y794D01*
X1976Y794D02*
X1978Y794D01*
X2174Y794D02*
X2176Y794D01*
X3364Y794D02*
X3371Y794D01*
X0Y793D02*
X7Y793D01*
X1976Y793D02*
X1978Y793D01*
X2174Y793D02*
X2176Y793D01*
X3364Y793D02*
X3371Y793D01*
X0Y792D02*
X7Y792D01*
X1976Y792D02*
X1978Y792D01*
X2174Y792D02*
X2176Y792D01*
X3364Y792D02*
X3371Y792D01*
X0Y791D02*
X7Y791D01*
X1976Y791D02*
X1978Y791D01*
X2098Y791D02*
X2100Y791D01*
X2174Y791D02*
X2176Y791D01*
X3364Y791D02*
X3371Y791D01*
X0Y790D02*
X7Y790D01*
X1976Y790D02*
X1978Y790D01*
X2098Y790D02*
X2100Y790D01*
X2174Y790D02*
X2176Y790D01*
X3364Y790D02*
X3371Y790D01*
X0Y789D02*
X7Y789D01*
X1976Y789D02*
X1978Y789D01*
X2098Y789D02*
X2100Y789D01*
X2174Y789D02*
X2176Y789D01*
X3364Y789D02*
X3371Y789D01*
X0Y788D02*
X7Y788D01*
X1976Y788D02*
X1978Y788D01*
X2098Y788D02*
X2100Y788D01*
X2174Y788D02*
X2176Y788D01*
X3364Y788D02*
X3371Y788D01*
X0Y787D02*
X7Y787D01*
X1976Y787D02*
X1978Y787D01*
X2098Y787D02*
X2100Y787D01*
X2174Y787D02*
X2176Y787D01*
X3364Y787D02*
X3371Y787D01*
X0Y786D02*
X7Y786D01*
X1976Y786D02*
X1978Y786D01*
X2098Y786D02*
X2100Y786D01*
X2174Y786D02*
X2176Y786D01*
X3364Y786D02*
X3371Y786D01*
X0Y785D02*
X7Y785D01*
X1976Y785D02*
X1978Y785D01*
X2098Y785D02*
X2100Y785D01*
X2174Y785D02*
X2176Y785D01*
X3364Y785D02*
X3371Y785D01*
X0Y784D02*
X7Y784D01*
X1976Y784D02*
X1978Y784D01*
X2098Y784D02*
X2100Y784D01*
X2174Y784D02*
X2176Y784D01*
X3364Y784D02*
X3371Y784D01*
X0Y783D02*
X7Y783D01*
X1976Y783D02*
X1978Y783D01*
X2098Y783D02*
X2100Y783D01*
X2174Y783D02*
X2176Y783D01*
X3364Y783D02*
X3371Y783D01*
X0Y782D02*
X7Y782D01*
X1976Y782D02*
X1978Y782D01*
X2098Y782D02*
X2100Y782D01*
X2174Y782D02*
X2176Y782D01*
X3364Y782D02*
X3371Y782D01*
X0Y781D02*
X7Y781D01*
X1976Y781D02*
X1978Y781D01*
X2098Y781D02*
X2100Y781D01*
X2174Y781D02*
X2176Y781D01*
X3364Y781D02*
X3371Y781D01*
X0Y780D02*
X7Y780D01*
X1976Y780D02*
X1978Y780D01*
X2098Y780D02*
X2100Y780D01*
X2174Y780D02*
X2176Y780D01*
X3364Y780D02*
X3371Y780D01*
X0Y779D02*
X7Y779D01*
X1976Y779D02*
X1978Y779D01*
X2098Y779D02*
X2100Y779D01*
X2174Y779D02*
X2176Y779D01*
X3364Y779D02*
X3371Y779D01*
X0Y778D02*
X7Y778D01*
X1976Y778D02*
X1978Y778D01*
X2098Y778D02*
X2100Y778D01*
X2174Y778D02*
X2176Y778D01*
X3364Y778D02*
X3371Y778D01*
X0Y777D02*
X7Y777D01*
X1976Y777D02*
X1978Y777D01*
X2098Y777D02*
X2100Y777D01*
X2174Y777D02*
X2176Y777D01*
X3364Y777D02*
X3371Y777D01*
X0Y776D02*
X7Y776D01*
X1976Y776D02*
X1978Y776D01*
X2098Y776D02*
X2100Y776D01*
X2174Y776D02*
X2176Y776D01*
X3364Y776D02*
X3371Y776D01*
X0Y775D02*
X7Y775D01*
X1976Y775D02*
X1978Y775D01*
X2098Y775D02*
X2100Y775D01*
X2174Y775D02*
X2176Y775D01*
X3364Y775D02*
X3371Y775D01*
X0Y774D02*
X7Y774D01*
X1976Y774D02*
X1978Y774D01*
X2098Y774D02*
X2100Y774D01*
X2174Y774D02*
X2176Y774D01*
X3364Y774D02*
X3371Y774D01*
X0Y773D02*
X7Y773D01*
X1976Y773D02*
X1978Y773D01*
X2098Y773D02*
X2100Y773D01*
X2174Y773D02*
X2176Y773D01*
X3364Y773D02*
X3371Y773D01*
X0Y772D02*
X7Y772D01*
X1976Y772D02*
X1978Y772D01*
X2098Y772D02*
X2100Y772D01*
X2174Y772D02*
X2176Y772D01*
X3364Y772D02*
X3371Y772D01*
X0Y771D02*
X7Y771D01*
X1976Y771D02*
X1978Y771D01*
X2098Y771D02*
X2100Y771D01*
X2174Y771D02*
X2176Y771D01*
X3364Y771D02*
X3371Y771D01*
X0Y770D02*
X7Y770D01*
X1976Y770D02*
X1978Y770D01*
X2098Y770D02*
X2100Y770D01*
X2174Y770D02*
X2176Y770D01*
X3364Y770D02*
X3371Y770D01*
X0Y769D02*
X7Y769D01*
X1976Y769D02*
X1978Y769D01*
X2098Y769D02*
X2100Y769D01*
X2174Y769D02*
X2176Y769D01*
X3364Y769D02*
X3371Y769D01*
X0Y768D02*
X7Y768D01*
X1976Y768D02*
X1978Y768D01*
X2098Y768D02*
X2100Y768D01*
X2174Y768D02*
X2176Y768D01*
X3364Y768D02*
X3371Y768D01*
X0Y767D02*
X7Y767D01*
X1976Y767D02*
X1978Y767D01*
X2098Y767D02*
X2100Y767D01*
X2174Y767D02*
X2176Y767D01*
X3364Y767D02*
X3371Y767D01*
X0Y766D02*
X7Y766D01*
X1976Y766D02*
X1978Y766D01*
X2098Y766D02*
X2100Y766D01*
X2174Y766D02*
X2176Y766D01*
X3364Y766D02*
X3371Y766D01*
X0Y765D02*
X7Y765D01*
X1976Y765D02*
X1978Y765D01*
X2098Y765D02*
X2100Y765D01*
X2174Y765D02*
X2176Y765D01*
X3364Y765D02*
X3371Y765D01*
X0Y764D02*
X7Y764D01*
X1976Y764D02*
X1978Y764D01*
X2098Y764D02*
X2100Y764D01*
X2174Y764D02*
X2176Y764D01*
X3364Y764D02*
X3371Y764D01*
X0Y763D02*
X7Y763D01*
X1976Y763D02*
X1978Y763D01*
X2098Y763D02*
X2100Y763D01*
X2174Y763D02*
X2176Y763D01*
X3364Y763D02*
X3371Y763D01*
X0Y762D02*
X7Y762D01*
X1976Y762D02*
X1978Y762D01*
X2098Y762D02*
X2100Y762D01*
X2174Y762D02*
X2176Y762D01*
X3364Y762D02*
X3371Y762D01*
X0Y761D02*
X7Y761D01*
X1976Y761D02*
X1978Y761D01*
X2098Y761D02*
X2100Y761D01*
X2174Y761D02*
X2176Y761D01*
X3364Y761D02*
X3371Y761D01*
X0Y760D02*
X7Y760D01*
X1976Y760D02*
X1978Y760D01*
X2098Y760D02*
X2100Y760D01*
X2174Y760D02*
X2176Y760D01*
X3364Y760D02*
X3371Y760D01*
X0Y759D02*
X7Y759D01*
X1976Y759D02*
X1978Y759D01*
X2098Y759D02*
X2100Y759D01*
X2174Y759D02*
X2176Y759D01*
X3364Y759D02*
X3371Y759D01*
X0Y758D02*
X7Y758D01*
X1976Y758D02*
X1978Y758D01*
X2098Y758D02*
X2100Y758D01*
X2174Y758D02*
X2176Y758D01*
X3364Y758D02*
X3371Y758D01*
X0Y757D02*
X7Y757D01*
X1976Y757D02*
X1978Y757D01*
X2098Y757D02*
X2100Y757D01*
X2174Y757D02*
X2176Y757D01*
X3364Y757D02*
X3371Y757D01*
X0Y756D02*
X7Y756D01*
X1976Y756D02*
X1978Y756D01*
X2098Y756D02*
X2100Y756D01*
X2174Y756D02*
X2176Y756D01*
X3364Y756D02*
X3371Y756D01*
X0Y755D02*
X7Y755D01*
X1976Y755D02*
X1978Y755D01*
X2098Y755D02*
X2100Y755D01*
X2174Y755D02*
X2176Y755D01*
X3364Y755D02*
X3371Y755D01*
X0Y754D02*
X7Y754D01*
X1976Y754D02*
X1978Y754D01*
X2098Y754D02*
X2100Y754D01*
X2174Y754D02*
X2176Y754D01*
X3364Y754D02*
X3371Y754D01*
X0Y753D02*
X7Y753D01*
X1976Y753D02*
X1978Y753D01*
X2098Y753D02*
X2100Y753D01*
X2174Y753D02*
X2176Y753D01*
X3364Y753D02*
X3371Y753D01*
X0Y752D02*
X7Y752D01*
X1976Y752D02*
X1978Y752D01*
X2098Y752D02*
X2100Y752D01*
X2174Y752D02*
X2176Y752D01*
X3364Y752D02*
X3371Y752D01*
X0Y751D02*
X7Y751D01*
X1976Y751D02*
X1978Y751D01*
X2098Y751D02*
X2100Y751D01*
X2174Y751D02*
X2176Y751D01*
X3364Y751D02*
X3371Y751D01*
X0Y750D02*
X7Y750D01*
X1976Y750D02*
X1978Y750D01*
X2098Y750D02*
X2100Y750D01*
X2174Y750D02*
X2176Y750D01*
X3364Y750D02*
X3371Y750D01*
X0Y749D02*
X7Y749D01*
X1976Y749D02*
X1978Y749D01*
X2098Y749D02*
X2100Y749D01*
X2174Y749D02*
X2176Y749D01*
X3364Y749D02*
X3371Y749D01*
X0Y748D02*
X7Y748D01*
X1976Y748D02*
X1978Y748D01*
X2098Y748D02*
X2100Y748D01*
X2174Y748D02*
X2176Y748D01*
X3364Y748D02*
X3371Y748D01*
X0Y747D02*
X7Y747D01*
X1976Y747D02*
X1978Y747D01*
X2098Y747D02*
X2100Y747D01*
X2174Y747D02*
X2176Y747D01*
X3364Y747D02*
X3371Y747D01*
X0Y746D02*
X7Y746D01*
X1976Y746D02*
X1978Y746D01*
X2098Y746D02*
X2100Y746D01*
X2174Y746D02*
X2176Y746D01*
X3364Y746D02*
X3371Y746D01*
X0Y745D02*
X7Y745D01*
X1976Y745D02*
X1978Y745D01*
X2098Y745D02*
X2100Y745D01*
X2174Y745D02*
X2176Y745D01*
X3364Y745D02*
X3371Y745D01*
X0Y744D02*
X7Y744D01*
X1976Y744D02*
X1978Y744D01*
X2098Y744D02*
X2100Y744D01*
X2174Y744D02*
X2176Y744D01*
X3364Y744D02*
X3371Y744D01*
X0Y743D02*
X7Y743D01*
X1976Y743D02*
X1978Y743D01*
X2098Y743D02*
X2100Y743D01*
X2174Y743D02*
X2176Y743D01*
X3364Y743D02*
X3371Y743D01*
X0Y742D02*
X7Y742D01*
X1976Y742D02*
X1978Y742D01*
X2098Y742D02*
X2100Y742D01*
X2174Y742D02*
X2176Y742D01*
X3364Y742D02*
X3371Y742D01*
X0Y741D02*
X7Y741D01*
X1976Y741D02*
X1978Y741D01*
X2098Y741D02*
X2100Y741D01*
X2174Y741D02*
X2176Y741D01*
X3364Y741D02*
X3371Y741D01*
X0Y740D02*
X7Y740D01*
X1976Y740D02*
X1978Y740D01*
X2098Y740D02*
X2100Y740D01*
X2174Y740D02*
X2176Y740D01*
X3364Y740D02*
X3371Y740D01*
X0Y739D02*
X7Y739D01*
X1976Y739D02*
X1978Y739D01*
X2098Y739D02*
X2100Y739D01*
X2174Y739D02*
X2176Y739D01*
X3364Y739D02*
X3371Y739D01*
X0Y738D02*
X7Y738D01*
X1976Y738D02*
X1978Y738D01*
X2098Y738D02*
X2100Y738D01*
X2174Y738D02*
X2176Y738D01*
X3364Y738D02*
X3371Y738D01*
X0Y737D02*
X7Y737D01*
X1976Y737D02*
X1978Y737D01*
X2098Y737D02*
X2100Y737D01*
X2174Y737D02*
X2176Y737D01*
X3364Y737D02*
X3371Y737D01*
X0Y736D02*
X7Y736D01*
X1976Y736D02*
X1978Y736D01*
X2098Y736D02*
X2100Y736D01*
X2174Y736D02*
X2176Y736D01*
X3364Y736D02*
X3371Y736D01*
X0Y735D02*
X7Y735D01*
X1976Y735D02*
X1978Y735D01*
X2098Y735D02*
X2100Y735D01*
X2174Y735D02*
X2176Y735D01*
X3364Y735D02*
X3371Y735D01*
X0Y734D02*
X7Y734D01*
X1976Y734D02*
X1978Y734D01*
X2098Y734D02*
X2100Y734D01*
X2174Y734D02*
X2176Y734D01*
X3364Y734D02*
X3371Y734D01*
X0Y733D02*
X7Y733D01*
X1976Y733D02*
X1978Y733D01*
X2098Y733D02*
X2100Y733D01*
X2174Y733D02*
X2176Y733D01*
X3364Y733D02*
X3371Y733D01*
X0Y732D02*
X7Y732D01*
X1976Y732D02*
X1978Y732D01*
X2098Y732D02*
X2100Y732D01*
X2174Y732D02*
X2176Y732D01*
X3364Y732D02*
X3371Y732D01*
X0Y731D02*
X7Y731D01*
X1976Y731D02*
X1978Y731D01*
X2098Y731D02*
X2100Y731D01*
X2174Y731D02*
X2176Y731D01*
X3364Y731D02*
X3371Y731D01*
X0Y730D02*
X7Y730D01*
X1976Y730D02*
X1978Y730D01*
X2098Y730D02*
X2100Y730D01*
X2174Y730D02*
X2176Y730D01*
X3364Y730D02*
X3371Y730D01*
X0Y729D02*
X7Y729D01*
X1976Y729D02*
X1978Y729D01*
X2098Y729D02*
X2100Y729D01*
X2174Y729D02*
X2176Y729D01*
X3364Y729D02*
X3371Y729D01*
X0Y728D02*
X7Y728D01*
X1976Y728D02*
X1978Y728D01*
X2098Y728D02*
X2100Y728D01*
X2174Y728D02*
X2176Y728D01*
X3364Y728D02*
X3371Y728D01*
X0Y727D02*
X7Y727D01*
X1976Y727D02*
X1978Y727D01*
X2098Y727D02*
X2100Y727D01*
X2174Y727D02*
X2176Y727D01*
X3364Y727D02*
X3371Y727D01*
X0Y726D02*
X7Y726D01*
X1976Y726D02*
X1978Y726D01*
X2098Y726D02*
X2100Y726D01*
X2174Y726D02*
X2176Y726D01*
X3364Y726D02*
X3371Y726D01*
X0Y725D02*
X7Y725D01*
X1976Y725D02*
X1978Y725D01*
X2098Y725D02*
X2100Y725D01*
X2174Y725D02*
X2176Y725D01*
X3364Y725D02*
X3371Y725D01*
X0Y724D02*
X7Y724D01*
X1976Y724D02*
X1978Y724D01*
X2098Y724D02*
X2100Y724D01*
X2174Y724D02*
X2176Y724D01*
X3364Y724D02*
X3371Y724D01*
X0Y723D02*
X7Y723D01*
X1976Y723D02*
X1978Y723D01*
X2098Y723D02*
X2100Y723D01*
X2174Y723D02*
X2176Y723D01*
X3364Y723D02*
X3371Y723D01*
X0Y722D02*
X7Y722D01*
X1976Y722D02*
X1978Y722D01*
X2098Y722D02*
X2100Y722D01*
X2174Y722D02*
X2176Y722D01*
X3364Y722D02*
X3371Y722D01*
X0Y721D02*
X7Y721D01*
X1976Y721D02*
X1978Y721D01*
X2098Y721D02*
X2100Y721D01*
X2174Y721D02*
X2176Y721D01*
X3364Y721D02*
X3371Y721D01*
X0Y720D02*
X7Y720D01*
X1976Y720D02*
X1978Y720D01*
X2098Y720D02*
X2100Y720D01*
X2174Y720D02*
X2176Y720D01*
X3364Y720D02*
X3371Y720D01*
X0Y719D02*
X7Y719D01*
X1976Y719D02*
X1978Y719D01*
X2098Y719D02*
X2100Y719D01*
X2174Y719D02*
X2176Y719D01*
X3364Y719D02*
X3371Y719D01*
X0Y718D02*
X7Y718D01*
X1976Y718D02*
X1978Y718D01*
X2098Y718D02*
X2100Y718D01*
X2174Y718D02*
X2176Y718D01*
X3364Y718D02*
X3371Y718D01*
X0Y717D02*
X7Y717D01*
X1976Y717D02*
X1978Y717D01*
X2099Y717D02*
X2100Y717D01*
X2174Y717D02*
X2176Y717D01*
X3364Y717D02*
X3371Y717D01*
X0Y716D02*
X7Y716D01*
X1976Y716D02*
X1978Y716D01*
X2174Y716D02*
X2176Y716D01*
X3364Y716D02*
X3371Y716D01*
X0Y715D02*
X7Y715D01*
X1976Y715D02*
X1978Y715D01*
X2174Y715D02*
X2176Y715D01*
X3364Y715D02*
X3371Y715D01*
X0Y714D02*
X7Y714D01*
X1976Y714D02*
X1978Y714D01*
X2174Y714D02*
X2176Y714D01*
X3364Y714D02*
X3371Y714D01*
X0Y713D02*
X7Y713D01*
X1976Y713D02*
X1978Y713D01*
X2174Y713D02*
X2176Y713D01*
X3364Y713D02*
X3371Y713D01*
X0Y712D02*
X7Y712D01*
X1976Y712D02*
X1978Y712D01*
X2052Y712D02*
X2100Y712D01*
X2174Y712D02*
X2176Y712D01*
X3364Y712D02*
X3371Y712D01*
X0Y711D02*
X7Y711D01*
X1976Y711D02*
X2176Y711D01*
X3364Y711D02*
X3371Y711D01*
X0Y710D02*
X7Y710D01*
X1976Y710D02*
X2176Y710D01*
X3364Y710D02*
X3371Y710D01*
X0Y709D02*
X7Y709D01*
X1977Y709D02*
X2176Y709D01*
X3364Y709D02*
X3371Y709D01*
X0Y708D02*
X7Y708D01*
X3364Y708D02*
X3371Y708D01*
X0Y707D02*
X7Y707D01*
X3364Y707D02*
X3371Y707D01*
X0Y706D02*
X7Y706D01*
X3364Y706D02*
X3371Y706D01*
X0Y705D02*
X7Y705D01*
X3364Y705D02*
X3371Y705D01*
X0Y704D02*
X7Y704D01*
X3364Y704D02*
X3371Y704D01*
X0Y703D02*
X7Y703D01*
X3364Y703D02*
X3371Y703D01*
X0Y702D02*
X7Y702D01*
X3364Y702D02*
X3371Y702D01*
X0Y701D02*
X7Y701D01*
X3364Y701D02*
X3371Y701D01*
X0Y700D02*
X7Y700D01*
X3364Y700D02*
X3371Y700D01*
X0Y699D02*
X7Y699D01*
X3364Y699D02*
X3371Y699D01*
X0Y698D02*
X7Y698D01*
X3364Y698D02*
X3371Y698D01*
X0Y697D02*
X7Y697D01*
X3364Y697D02*
X3371Y697D01*
X0Y696D02*
X7Y696D01*
X3364Y696D02*
X3371Y696D01*
X0Y695D02*
X7Y695D01*
X3364Y695D02*
X3371Y695D01*
X0Y694D02*
X7Y694D01*
X3364Y694D02*
X3371Y694D01*
X0Y693D02*
X7Y693D01*
X3364Y693D02*
X3371Y693D01*
X0Y692D02*
X7Y692D01*
X3364Y692D02*
X3371Y692D01*
X0Y691D02*
X7Y691D01*
X3364Y691D02*
X3371Y691D01*
X0Y690D02*
X7Y690D01*
X3364Y690D02*
X3371Y690D01*
X0Y689D02*
X7Y689D01*
X3364Y689D02*
X3371Y689D01*
X0Y688D02*
X7Y688D01*
X3364Y688D02*
X3371Y688D01*
X0Y687D02*
X7Y687D01*
X3364Y687D02*
X3371Y687D01*
X0Y686D02*
X7Y686D01*
X3364Y686D02*
X3371Y686D01*
X0Y685D02*
X7Y685D01*
X3364Y685D02*
X3371Y685D01*
X0Y684D02*
X7Y684D01*
X3364Y684D02*
X3371Y684D01*
X0Y683D02*
X7Y683D01*
X3364Y683D02*
X3371Y683D01*
X0Y682D02*
X7Y682D01*
X3364Y682D02*
X3371Y682D01*
X0Y681D02*
X7Y681D01*
X3364Y681D02*
X3371Y681D01*
X0Y680D02*
X7Y680D01*
X3364Y680D02*
X3371Y680D01*
X0Y679D02*
X7Y679D01*
X3364Y679D02*
X3371Y679D01*
X0Y678D02*
X7Y678D01*
X3364Y678D02*
X3371Y678D01*
X0Y677D02*
X7Y677D01*
X3364Y677D02*
X3371Y677D01*
X0Y676D02*
X7Y676D01*
X3364Y676D02*
X3371Y676D01*
X0Y675D02*
X7Y675D01*
X3364Y675D02*
X3371Y675D01*
X0Y674D02*
X7Y674D01*
X3364Y674D02*
X3371Y674D01*
X0Y673D02*
X7Y673D01*
X3364Y673D02*
X3371Y673D01*
X0Y672D02*
X7Y672D01*
X3364Y672D02*
X3371Y672D01*
X0Y671D02*
X7Y671D01*
X3364Y671D02*
X3371Y671D01*
X0Y670D02*
X7Y670D01*
X3364Y670D02*
X3371Y670D01*
X0Y669D02*
X7Y669D01*
X3364Y669D02*
X3371Y669D01*
X0Y668D02*
X7Y668D01*
X3364Y668D02*
X3371Y668D01*
X0Y667D02*
X7Y667D01*
X3364Y667D02*
X3371Y667D01*
X0Y666D02*
X7Y666D01*
X3364Y666D02*
X3371Y666D01*
X0Y665D02*
X7Y665D01*
X3364Y665D02*
X3371Y665D01*
X0Y664D02*
X7Y664D01*
X3364Y664D02*
X3371Y664D01*
X0Y663D02*
X7Y663D01*
X3364Y663D02*
X3371Y663D01*
X0Y662D02*
X7Y662D01*
X3364Y662D02*
X3371Y662D01*
X0Y661D02*
X7Y661D01*
X3364Y661D02*
X3371Y661D01*
X0Y660D02*
X7Y660D01*
X3364Y660D02*
X3371Y660D01*
X0Y659D02*
X7Y659D01*
X3364Y659D02*
X3371Y659D01*
X0Y658D02*
X7Y658D01*
X3364Y658D02*
X3371Y658D01*
X0Y657D02*
X7Y657D01*
X3364Y657D02*
X3371Y657D01*
X0Y656D02*
X7Y656D01*
X3364Y656D02*
X3371Y656D01*
X0Y655D02*
X7Y655D01*
X3364Y655D02*
X3371Y655D01*
X0Y654D02*
X7Y654D01*
X3364Y654D02*
X3371Y654D01*
X0Y653D02*
X7Y653D01*
X3364Y653D02*
X3371Y653D01*
X0Y652D02*
X7Y652D01*
X3364Y652D02*
X3371Y652D01*
X0Y651D02*
X7Y651D01*
X3364Y651D02*
X3371Y651D01*
X0Y650D02*
X7Y650D01*
X3364Y650D02*
X3371Y650D01*
X0Y649D02*
X7Y649D01*
X3364Y649D02*
X3371Y649D01*
X0Y648D02*
X7Y648D01*
X3364Y648D02*
X3371Y648D01*
X0Y647D02*
X7Y647D01*
X3364Y647D02*
X3371Y647D01*
X0Y646D02*
X7Y646D01*
X3364Y646D02*
X3371Y646D01*
X0Y645D02*
X7Y645D01*
X3364Y645D02*
X3371Y645D01*
X0Y644D02*
X7Y644D01*
X3364Y644D02*
X3371Y644D01*
X0Y643D02*
X7Y643D01*
X3364Y643D02*
X3371Y643D01*
X0Y642D02*
X7Y642D01*
X3364Y642D02*
X3371Y642D01*
X0Y641D02*
X7Y641D01*
X3364Y641D02*
X3371Y641D01*
X0Y640D02*
X7Y640D01*
X3364Y640D02*
X3371Y640D01*
X0Y639D02*
X7Y639D01*
X3364Y639D02*
X3371Y639D01*
X0Y638D02*
X7Y638D01*
X3364Y638D02*
X3371Y638D01*
X0Y637D02*
X7Y637D01*
X3364Y637D02*
X3371Y637D01*
X0Y636D02*
X7Y636D01*
X3364Y636D02*
X3371Y636D01*
X0Y635D02*
X7Y635D01*
X3364Y635D02*
X3371Y635D01*
X0Y634D02*
X7Y634D01*
X3364Y634D02*
X3371Y634D01*
X0Y633D02*
X7Y633D01*
X3364Y633D02*
X3371Y633D01*
X0Y632D02*
X7Y632D01*
X3364Y632D02*
X3371Y632D01*
X0Y631D02*
X7Y631D01*
X3364Y631D02*
X3371Y631D01*
X0Y630D02*
X7Y630D01*
X3364Y630D02*
X3371Y630D01*
X0Y629D02*
X7Y629D01*
X3364Y629D02*
X3371Y629D01*
X0Y628D02*
X7Y628D01*
X3364Y628D02*
X3371Y628D01*
X0Y627D02*
X7Y627D01*
X3364Y627D02*
X3371Y627D01*
X0Y626D02*
X7Y626D01*
X3364Y626D02*
X3371Y626D01*
X0Y625D02*
X7Y625D01*
X3364Y625D02*
X3371Y625D01*
X0Y624D02*
X7Y624D01*
X3364Y624D02*
X3371Y624D01*
X0Y623D02*
X7Y623D01*
X3364Y623D02*
X3371Y623D01*
X0Y622D02*
X7Y622D01*
X3364Y622D02*
X3371Y622D01*
X0Y621D02*
X7Y621D01*
X3364Y621D02*
X3371Y621D01*
X0Y620D02*
X7Y620D01*
X3364Y620D02*
X3371Y620D01*
X0Y619D02*
X7Y619D01*
X3364Y619D02*
X3371Y619D01*
X0Y618D02*
X7Y618D01*
X3364Y618D02*
X3371Y618D01*
X0Y617D02*
X7Y617D01*
X3364Y617D02*
X3371Y617D01*
X0Y616D02*
X7Y616D01*
X3364Y616D02*
X3371Y616D01*
X0Y615D02*
X7Y615D01*
X3364Y615D02*
X3371Y615D01*
X0Y614D02*
X7Y614D01*
X3364Y614D02*
X3371Y614D01*
X0Y613D02*
X7Y613D01*
X3364Y613D02*
X3371Y613D01*
X0Y612D02*
X7Y612D01*
X3364Y612D02*
X3371Y612D01*
X0Y611D02*
X7Y611D01*
X3364Y611D02*
X3371Y611D01*
X0Y610D02*
X7Y610D01*
X3364Y610D02*
X3371Y610D01*
X0Y609D02*
X7Y609D01*
X3364Y609D02*
X3371Y609D01*
X0Y608D02*
X7Y608D01*
X3364Y608D02*
X3371Y608D01*
X0Y607D02*
X7Y607D01*
X3364Y607D02*
X3371Y607D01*
X0Y606D02*
X7Y606D01*
X3364Y606D02*
X3371Y606D01*
X0Y605D02*
X7Y605D01*
X3364Y605D02*
X3371Y605D01*
X0Y604D02*
X7Y604D01*
X3364Y604D02*
X3371Y604D01*
X0Y603D02*
X7Y603D01*
X3364Y603D02*
X3371Y603D01*
X0Y602D02*
X7Y602D01*
X3364Y602D02*
X3371Y602D01*
X0Y601D02*
X7Y601D01*
X3364Y601D02*
X3371Y601D01*
X0Y600D02*
X7Y600D01*
X3364Y600D02*
X3371Y600D01*
X0Y599D02*
X7Y599D01*
X3364Y599D02*
X3371Y599D01*
X0Y598D02*
X7Y598D01*
X3364Y598D02*
X3371Y598D01*
X0Y597D02*
X7Y597D01*
X3364Y597D02*
X3371Y597D01*
X0Y596D02*
X7Y596D01*
X3364Y596D02*
X3371Y596D01*
X0Y595D02*
X7Y595D01*
X3364Y595D02*
X3371Y595D01*
X0Y594D02*
X7Y594D01*
X3364Y594D02*
X3371Y594D01*
X0Y593D02*
X7Y593D01*
X3364Y593D02*
X3371Y593D01*
X0Y592D02*
X7Y592D01*
X3364Y592D02*
X3371Y592D01*
X0Y591D02*
X7Y591D01*
X3364Y591D02*
X3371Y591D01*
X0Y590D02*
X7Y590D01*
X3364Y590D02*
X3371Y590D01*
X0Y589D02*
X7Y589D01*
X3364Y589D02*
X3371Y589D01*
X0Y588D02*
X7Y588D01*
X3364Y588D02*
X3371Y588D01*
X0Y587D02*
X7Y587D01*
X3364Y587D02*
X3371Y587D01*
X0Y586D02*
X7Y586D01*
X3364Y586D02*
X3371Y586D01*
X0Y585D02*
X7Y585D01*
X3364Y585D02*
X3371Y585D01*
X0Y584D02*
X7Y584D01*
X3364Y584D02*
X3371Y584D01*
X0Y583D02*
X7Y583D01*
X3364Y583D02*
X3371Y583D01*
X0Y582D02*
X7Y582D01*
X3364Y582D02*
X3371Y582D01*
X0Y581D02*
X7Y581D01*
X3364Y581D02*
X3371Y581D01*
X0Y580D02*
X7Y580D01*
X3364Y580D02*
X3371Y580D01*
X0Y579D02*
X7Y579D01*
X3364Y579D02*
X3371Y579D01*
X0Y578D02*
X7Y578D01*
X3364Y578D02*
X3371Y578D01*
X0Y577D02*
X7Y577D01*
X3364Y577D02*
X3371Y577D01*
X0Y576D02*
X7Y576D01*
X3364Y576D02*
X3371Y576D01*
X0Y575D02*
X7Y575D01*
X3364Y575D02*
X3371Y575D01*
X0Y574D02*
X7Y574D01*
X3364Y574D02*
X3371Y574D01*
X0Y573D02*
X7Y573D01*
X3364Y573D02*
X3371Y573D01*
X0Y572D02*
X7Y572D01*
X3364Y572D02*
X3371Y572D01*
X0Y571D02*
X7Y571D01*
X3364Y571D02*
X3371Y571D01*
X0Y570D02*
X7Y570D01*
X3364Y570D02*
X3371Y570D01*
X0Y569D02*
X7Y569D01*
X3364Y569D02*
X3371Y569D01*
X0Y568D02*
X7Y568D01*
X3364Y568D02*
X3371Y568D01*
X0Y567D02*
X7Y567D01*
X3364Y567D02*
X3371Y567D01*
X0Y566D02*
X7Y566D01*
X3364Y566D02*
X3371Y566D01*
X0Y565D02*
X7Y565D01*
X3364Y565D02*
X3371Y565D01*
X0Y564D02*
X7Y564D01*
X3364Y564D02*
X3371Y564D01*
X0Y563D02*
X7Y563D01*
X3364Y563D02*
X3371Y563D01*
X0Y562D02*
X7Y562D01*
X3364Y562D02*
X3371Y562D01*
X0Y561D02*
X7Y561D01*
X3364Y561D02*
X3371Y561D01*
X0Y560D02*
X7Y560D01*
X3364Y560D02*
X3371Y560D01*
X0Y559D02*
X7Y559D01*
X3364Y559D02*
X3371Y559D01*
X0Y558D02*
X7Y558D01*
X3364Y558D02*
X3371Y558D01*
X0Y557D02*
X7Y557D01*
X3364Y557D02*
X3371Y557D01*
X0Y556D02*
X7Y556D01*
X3364Y556D02*
X3371Y556D01*
X0Y555D02*
X7Y555D01*
X3364Y555D02*
X3371Y555D01*
X0Y554D02*
X7Y554D01*
X3364Y554D02*
X3371Y554D01*
X0Y553D02*
X7Y553D01*
X3364Y553D02*
X3371Y553D01*
X0Y552D02*
X7Y552D01*
X3364Y552D02*
X3371Y552D01*
X0Y551D02*
X7Y551D01*
X3364Y551D02*
X3371Y551D01*
X0Y550D02*
X7Y550D01*
X3364Y550D02*
X3371Y550D01*
X0Y549D02*
X7Y549D01*
X3364Y549D02*
X3371Y549D01*
X0Y548D02*
X7Y548D01*
X3364Y548D02*
X3371Y548D01*
X0Y547D02*
X7Y547D01*
X3364Y547D02*
X3371Y547D01*
X0Y546D02*
X7Y546D01*
X3364Y546D02*
X3371Y546D01*
X0Y545D02*
X7Y545D01*
X3364Y545D02*
X3371Y545D01*
X0Y544D02*
X7Y544D01*
X3364Y544D02*
X3371Y544D01*
X0Y543D02*
X7Y543D01*
X3364Y543D02*
X3371Y543D01*
X0Y542D02*
X7Y542D01*
X3364Y542D02*
X3371Y542D01*
X0Y541D02*
X7Y541D01*
X3364Y541D02*
X3371Y541D01*
X0Y540D02*
X7Y540D01*
X3364Y540D02*
X3371Y540D01*
X0Y539D02*
X7Y539D01*
X3364Y539D02*
X3371Y539D01*
X0Y538D02*
X7Y538D01*
X3364Y538D02*
X3371Y538D01*
X0Y537D02*
X7Y537D01*
X3364Y537D02*
X3371Y537D01*
X0Y536D02*
X7Y536D01*
X3364Y536D02*
X3371Y536D01*
X0Y535D02*
X7Y535D01*
X3364Y535D02*
X3371Y535D01*
X0Y534D02*
X7Y534D01*
X3364Y534D02*
X3371Y534D01*
X0Y533D02*
X7Y533D01*
X3364Y533D02*
X3371Y533D01*
X0Y532D02*
X7Y532D01*
X3364Y532D02*
X3371Y532D01*
X0Y531D02*
X7Y531D01*
X3364Y531D02*
X3371Y531D01*
X0Y530D02*
X7Y530D01*
X3364Y530D02*
X3371Y530D01*
X0Y529D02*
X7Y529D01*
X3364Y529D02*
X3371Y529D01*
X0Y528D02*
X7Y528D01*
X3364Y528D02*
X3371Y528D01*
X0Y527D02*
X7Y527D01*
X3364Y527D02*
X3371Y527D01*
X0Y526D02*
X7Y526D01*
X3364Y526D02*
X3371Y526D01*
X0Y525D02*
X7Y525D01*
X3364Y525D02*
X3371Y525D01*
X0Y524D02*
X7Y524D01*
X3364Y524D02*
X3371Y524D01*
X0Y523D02*
X7Y523D01*
X3364Y523D02*
X3371Y523D01*
X0Y522D02*
X7Y522D01*
X3364Y522D02*
X3371Y522D01*
X0Y521D02*
X7Y521D01*
X3364Y521D02*
X3371Y521D01*
X0Y520D02*
X7Y520D01*
X3364Y520D02*
X3371Y520D01*
X0Y519D02*
X7Y519D01*
X3364Y519D02*
X3371Y519D01*
X0Y518D02*
X7Y518D01*
X3364Y518D02*
X3371Y518D01*
X0Y517D02*
X7Y517D01*
X3364Y517D02*
X3371Y517D01*
X0Y516D02*
X7Y516D01*
X3364Y516D02*
X3371Y516D01*
X0Y515D02*
X7Y515D01*
X3364Y515D02*
X3371Y515D01*
X0Y514D02*
X7Y514D01*
X3364Y514D02*
X3371Y514D01*
X0Y513D02*
X7Y513D01*
X3364Y513D02*
X3371Y513D01*
X0Y512D02*
X7Y512D01*
X3364Y512D02*
X3371Y512D01*
X0Y511D02*
X7Y511D01*
X3364Y511D02*
X3371Y511D01*
X0Y510D02*
X7Y510D01*
X3364Y510D02*
X3371Y510D01*
X0Y509D02*
X7Y509D01*
X3364Y509D02*
X3371Y509D01*
X0Y508D02*
X7Y508D01*
X3364Y508D02*
X3371Y508D01*
X0Y507D02*
X7Y507D01*
X3364Y507D02*
X3371Y507D01*
X0Y506D02*
X7Y506D01*
X3364Y506D02*
X3371Y506D01*
X0Y505D02*
X7Y505D01*
X3364Y505D02*
X3371Y505D01*
X0Y504D02*
X7Y504D01*
X3364Y504D02*
X3371Y504D01*
X0Y503D02*
X7Y503D01*
X3364Y503D02*
X3371Y503D01*
X0Y502D02*
X7Y502D01*
X3364Y502D02*
X3371Y502D01*
X0Y501D02*
X7Y501D01*
X3364Y501D02*
X3371Y501D01*
X0Y500D02*
X7Y500D01*
X3364Y500D02*
X3371Y500D01*
X0Y499D02*
X7Y499D01*
X3364Y499D02*
X3371Y499D01*
X0Y498D02*
X7Y498D01*
X3364Y498D02*
X3371Y498D01*
X0Y497D02*
X7Y497D01*
X3364Y497D02*
X3371Y497D01*
X0Y496D02*
X7Y496D01*
X3364Y496D02*
X3371Y496D01*
X0Y495D02*
X7Y495D01*
X3364Y495D02*
X3371Y495D01*
X0Y494D02*
X7Y494D01*
X3364Y494D02*
X3371Y494D01*
X0Y493D02*
X7Y493D01*
X3364Y493D02*
X3371Y493D01*
X0Y492D02*
X7Y492D01*
X3364Y492D02*
X3371Y492D01*
X0Y491D02*
X7Y491D01*
X3364Y491D02*
X3371Y491D01*
X0Y490D02*
X7Y490D01*
X3364Y490D02*
X3371Y490D01*
X0Y489D02*
X7Y489D01*
X3364Y489D02*
X3371Y489D01*
X0Y488D02*
X7Y488D01*
X3364Y488D02*
X3371Y488D01*
X0Y487D02*
X7Y487D01*
X3364Y487D02*
X3371Y487D01*
X0Y486D02*
X7Y486D01*
X3364Y486D02*
X3371Y486D01*
X0Y485D02*
X7Y485D01*
X3364Y485D02*
X3371Y485D01*
X0Y484D02*
X7Y484D01*
X3364Y484D02*
X3371Y484D01*
X0Y483D02*
X7Y483D01*
X3364Y483D02*
X3371Y483D01*
X0Y482D02*
X7Y482D01*
X3364Y482D02*
X3371Y482D01*
X0Y481D02*
X7Y481D01*
X3364Y481D02*
X3371Y481D01*
X0Y480D02*
X7Y480D01*
X3364Y480D02*
X3371Y480D01*
X0Y479D02*
X7Y479D01*
X3364Y479D02*
X3371Y479D01*
X0Y478D02*
X7Y478D01*
X3364Y478D02*
X3371Y478D01*
X0Y477D02*
X7Y477D01*
X3364Y477D02*
X3371Y477D01*
X0Y476D02*
X7Y476D01*
X3364Y476D02*
X3371Y476D01*
X0Y475D02*
X7Y475D01*
X3364Y475D02*
X3371Y475D01*
X0Y474D02*
X7Y474D01*
X3364Y474D02*
X3371Y474D01*
X0Y473D02*
X7Y473D01*
X3364Y473D02*
X3371Y473D01*
X0Y472D02*
X7Y472D01*
X3364Y472D02*
X3371Y472D01*
X0Y471D02*
X7Y471D01*
X3364Y471D02*
X3371Y471D01*
X0Y470D02*
X7Y470D01*
X3364Y470D02*
X3371Y470D01*
X0Y469D02*
X7Y469D01*
X3364Y469D02*
X3371Y469D01*
X0Y468D02*
X7Y468D01*
X3364Y468D02*
X3371Y468D01*
X0Y467D02*
X7Y467D01*
X3364Y467D02*
X3371Y467D01*
X0Y466D02*
X7Y466D01*
X3364Y466D02*
X3371Y466D01*
X0Y465D02*
X7Y465D01*
X3364Y465D02*
X3371Y465D01*
X0Y464D02*
X7Y464D01*
X3364Y464D02*
X3371Y464D01*
X0Y463D02*
X7Y463D01*
X3364Y463D02*
X3371Y463D01*
X0Y462D02*
X7Y462D01*
X3364Y462D02*
X3371Y462D01*
X0Y461D02*
X7Y461D01*
X3364Y461D02*
X3371Y461D01*
X0Y460D02*
X7Y460D01*
X3364Y460D02*
X3371Y460D01*
X0Y459D02*
X7Y459D01*
X3364Y459D02*
X3371Y459D01*
X0Y458D02*
X7Y458D01*
X3364Y458D02*
X3371Y458D01*
X0Y457D02*
X7Y457D01*
X3364Y457D02*
X3371Y457D01*
X0Y456D02*
X7Y456D01*
X3364Y456D02*
X3371Y456D01*
X0Y455D02*
X7Y455D01*
X3364Y455D02*
X3371Y455D01*
X0Y454D02*
X7Y454D01*
X3364Y454D02*
X3371Y454D01*
X0Y453D02*
X7Y453D01*
X3364Y453D02*
X3371Y453D01*
X0Y452D02*
X7Y452D01*
X3364Y452D02*
X3371Y452D01*
X0Y451D02*
X7Y451D01*
X3364Y451D02*
X3371Y451D01*
X0Y450D02*
X7Y450D01*
X3364Y450D02*
X3371Y450D01*
X0Y449D02*
X7Y449D01*
X3364Y449D02*
X3371Y449D01*
X0Y448D02*
X7Y448D01*
X3364Y448D02*
X3371Y448D01*
X0Y447D02*
X7Y447D01*
X3364Y447D02*
X3371Y447D01*
X0Y446D02*
X7Y446D01*
X3364Y446D02*
X3371Y446D01*
X0Y445D02*
X7Y445D01*
X3364Y445D02*
X3371Y445D01*
X0Y444D02*
X7Y444D01*
X3364Y444D02*
X3371Y444D01*
X0Y443D02*
X7Y443D01*
X3364Y443D02*
X3371Y443D01*
X0Y442D02*
X7Y442D01*
X3364Y442D02*
X3371Y442D01*
X0Y441D02*
X7Y441D01*
X3364Y441D02*
X3371Y441D01*
X0Y440D02*
X7Y440D01*
X3364Y440D02*
X3371Y440D01*
X0Y439D02*
X7Y439D01*
X3364Y439D02*
X3371Y439D01*
X0Y438D02*
X7Y438D01*
X3364Y438D02*
X3371Y438D01*
X0Y437D02*
X7Y437D01*
X3364Y437D02*
X3371Y437D01*
X0Y436D02*
X7Y436D01*
X3364Y436D02*
X3371Y436D01*
X0Y435D02*
X7Y435D01*
X3364Y435D02*
X3371Y435D01*
X0Y434D02*
X7Y434D01*
X3364Y434D02*
X3371Y434D01*
X0Y433D02*
X7Y433D01*
X3364Y433D02*
X3371Y433D01*
X0Y432D02*
X7Y432D01*
X3364Y432D02*
X3371Y432D01*
X0Y431D02*
X7Y431D01*
X3364Y431D02*
X3371Y431D01*
X0Y430D02*
X7Y430D01*
X3364Y430D02*
X3371Y430D01*
X0Y429D02*
X7Y429D01*
X3364Y429D02*
X3371Y429D01*
X0Y428D02*
X7Y428D01*
X3364Y428D02*
X3371Y428D01*
X0Y427D02*
X7Y427D01*
X3364Y427D02*
X3371Y427D01*
X0Y426D02*
X7Y426D01*
X3364Y426D02*
X3371Y426D01*
X0Y425D02*
X7Y425D01*
X3364Y425D02*
X3371Y425D01*
X0Y424D02*
X7Y424D01*
X3364Y424D02*
X3371Y424D01*
X0Y423D02*
X7Y423D01*
X3364Y423D02*
X3371Y423D01*
X0Y422D02*
X7Y422D01*
X3364Y422D02*
X3371Y422D01*
X0Y421D02*
X7Y421D01*
X3364Y421D02*
X3371Y421D01*
X0Y420D02*
X7Y420D01*
X3364Y420D02*
X3371Y420D01*
X0Y419D02*
X7Y419D01*
X3364Y419D02*
X3371Y419D01*
X0Y418D02*
X7Y418D01*
X3364Y418D02*
X3371Y418D01*
X0Y417D02*
X7Y417D01*
X3364Y417D02*
X3371Y417D01*
X0Y416D02*
X7Y416D01*
X3364Y416D02*
X3371Y416D01*
X0Y415D02*
X7Y415D01*
X3364Y415D02*
X3371Y415D01*
X0Y414D02*
X7Y414D01*
X3364Y414D02*
X3371Y414D01*
X0Y413D02*
X7Y413D01*
X3364Y413D02*
X3371Y413D01*
X0Y412D02*
X7Y412D01*
X3364Y412D02*
X3371Y412D01*
X0Y411D02*
X7Y411D01*
X3364Y411D02*
X3371Y411D01*
X0Y410D02*
X7Y410D01*
X3364Y410D02*
X3371Y410D01*
X0Y409D02*
X7Y409D01*
X3364Y409D02*
X3371Y409D01*
X0Y408D02*
X7Y408D01*
X3364Y408D02*
X3371Y408D01*
X0Y407D02*
X7Y407D01*
X3364Y407D02*
X3371Y407D01*
X0Y406D02*
X7Y406D01*
X3364Y406D02*
X3371Y406D01*
X0Y405D02*
X7Y405D01*
X3364Y405D02*
X3371Y405D01*
X0Y404D02*
X7Y404D01*
X3364Y404D02*
X3371Y404D01*
X0Y403D02*
X7Y403D01*
X3364Y403D02*
X3371Y403D01*
X0Y402D02*
X7Y402D01*
X3364Y402D02*
X3371Y402D01*
X0Y401D02*
X7Y401D01*
X3364Y401D02*
X3371Y401D01*
X0Y400D02*
X7Y400D01*
X3364Y400D02*
X3371Y400D01*
X0Y399D02*
X7Y399D01*
X3364Y399D02*
X3371Y399D01*
X0Y398D02*
X7Y398D01*
X3364Y398D02*
X3371Y398D01*
X0Y397D02*
X7Y397D01*
X3364Y397D02*
X3371Y397D01*
X0Y396D02*
X7Y396D01*
X3364Y396D02*
X3371Y396D01*
X0Y395D02*
X7Y395D01*
X3364Y395D02*
X3371Y395D01*
X0Y394D02*
X7Y394D01*
X3364Y394D02*
X3371Y394D01*
X0Y393D02*
X7Y393D01*
X3364Y393D02*
X3371Y393D01*
X0Y392D02*
X7Y392D01*
X3364Y392D02*
X3371Y392D01*
X0Y391D02*
X7Y391D01*
X3364Y391D02*
X3371Y391D01*
X0Y390D02*
X7Y390D01*
X3364Y390D02*
X3371Y390D01*
X0Y389D02*
X7Y389D01*
X3364Y389D02*
X3371Y389D01*
X0Y388D02*
X7Y388D01*
X3364Y388D02*
X3371Y388D01*
X0Y387D02*
X7Y387D01*
X3364Y387D02*
X3371Y387D01*
X0Y386D02*
X7Y386D01*
X3364Y386D02*
X3371Y386D01*
X0Y385D02*
X7Y385D01*
X3364Y385D02*
X3371Y385D01*
X0Y384D02*
X7Y384D01*
X3364Y384D02*
X3371Y384D01*
X0Y383D02*
X7Y383D01*
X3364Y383D02*
X3371Y383D01*
X0Y382D02*
X7Y382D01*
X3364Y382D02*
X3371Y382D01*
X0Y381D02*
X7Y381D01*
X3364Y381D02*
X3371Y381D01*
X0Y380D02*
X7Y380D01*
X3364Y380D02*
X3371Y380D01*
X0Y379D02*
X7Y379D01*
X3364Y379D02*
X3371Y379D01*
X0Y378D02*
X7Y378D01*
X3364Y378D02*
X3371Y378D01*
X0Y377D02*
X7Y377D01*
X3364Y377D02*
X3371Y377D01*
X0Y376D02*
X7Y376D01*
X3364Y376D02*
X3371Y376D01*
X0Y375D02*
X7Y375D01*
X3364Y375D02*
X3371Y375D01*
X0Y374D02*
X7Y374D01*
X3364Y374D02*
X3371Y374D01*
X0Y373D02*
X7Y373D01*
X3364Y373D02*
X3371Y373D01*
X0Y372D02*
X7Y372D01*
X3364Y372D02*
X3371Y372D01*
X0Y371D02*
X7Y371D01*
X3364Y371D02*
X3371Y371D01*
X0Y370D02*
X7Y370D01*
X3364Y370D02*
X3371Y370D01*
X0Y369D02*
X7Y369D01*
X3364Y369D02*
X3371Y369D01*
X0Y368D02*
X7Y368D01*
X3364Y368D02*
X3371Y368D01*
X0Y367D02*
X7Y367D01*
X3364Y367D02*
X3371Y367D01*
X0Y366D02*
X7Y366D01*
X3364Y366D02*
X3371Y366D01*
X0Y365D02*
X7Y365D01*
X3364Y365D02*
X3371Y365D01*
X0Y364D02*
X7Y364D01*
X3364Y364D02*
X3371Y364D01*
X0Y363D02*
X7Y363D01*
X3364Y363D02*
X3371Y363D01*
X0Y362D02*
X7Y362D01*
X3364Y362D02*
X3371Y362D01*
X0Y361D02*
X7Y361D01*
X3364Y361D02*
X3371Y361D01*
X0Y360D02*
X7Y360D01*
X3364Y360D02*
X3371Y360D01*
X0Y359D02*
X7Y359D01*
X3364Y359D02*
X3371Y359D01*
X0Y358D02*
X7Y358D01*
X3364Y358D02*
X3371Y358D01*
X0Y357D02*
X7Y357D01*
X3364Y357D02*
X3371Y357D01*
X0Y356D02*
X7Y356D01*
X3364Y356D02*
X3371Y356D01*
X0Y355D02*
X7Y355D01*
X3364Y355D02*
X3371Y355D01*
X0Y354D02*
X7Y354D01*
X3364Y354D02*
X3371Y354D01*
X0Y353D02*
X7Y353D01*
X3364Y353D02*
X3371Y353D01*
X0Y352D02*
X7Y352D01*
X3364Y352D02*
X3371Y352D01*
X0Y351D02*
X7Y351D01*
X3364Y351D02*
X3371Y351D01*
X0Y350D02*
X7Y350D01*
X3364Y350D02*
X3371Y350D01*
X0Y349D02*
X7Y349D01*
X3364Y349D02*
X3371Y349D01*
X0Y348D02*
X7Y348D01*
X3364Y348D02*
X3371Y348D01*
X0Y347D02*
X7Y347D01*
X3364Y347D02*
X3371Y347D01*
X0Y346D02*
X7Y346D01*
X3364Y346D02*
X3371Y346D01*
X0Y345D02*
X7Y345D01*
X3364Y345D02*
X3371Y345D01*
X0Y344D02*
X7Y344D01*
X3364Y344D02*
X3371Y344D01*
X0Y343D02*
X7Y343D01*
X3364Y343D02*
X3371Y343D01*
X0Y342D02*
X7Y342D01*
X3364Y342D02*
X3371Y342D01*
X0Y341D02*
X7Y341D01*
X3364Y341D02*
X3371Y341D01*
X0Y340D02*
X7Y340D01*
X3364Y340D02*
X3371Y340D01*
X0Y339D02*
X7Y339D01*
X3364Y339D02*
X3371Y339D01*
X0Y338D02*
X7Y338D01*
X3364Y338D02*
X3371Y338D01*
X0Y337D02*
X7Y337D01*
X3364Y337D02*
X3371Y337D01*
X0Y336D02*
X7Y336D01*
X3364Y336D02*
X3371Y336D01*
X0Y335D02*
X7Y335D01*
X3364Y335D02*
X3371Y335D01*
X0Y334D02*
X7Y334D01*
X3364Y334D02*
X3371Y334D01*
X0Y333D02*
X7Y333D01*
X3364Y333D02*
X3371Y333D01*
X0Y332D02*
X7Y332D01*
X3364Y332D02*
X3371Y332D01*
X0Y331D02*
X7Y331D01*
X3364Y331D02*
X3371Y331D01*
X0Y330D02*
X7Y330D01*
X3364Y330D02*
X3371Y330D01*
X0Y329D02*
X7Y329D01*
X3364Y329D02*
X3371Y329D01*
X0Y328D02*
X7Y328D01*
X3364Y328D02*
X3371Y328D01*
X0Y327D02*
X7Y327D01*
X3364Y327D02*
X3371Y327D01*
X0Y326D02*
X7Y326D01*
X3364Y326D02*
X3371Y326D01*
X0Y325D02*
X7Y325D01*
X3364Y325D02*
X3371Y325D01*
X0Y324D02*
X7Y324D01*
X3364Y324D02*
X3371Y324D01*
X0Y323D02*
X7Y323D01*
X3364Y323D02*
X3371Y323D01*
X0Y322D02*
X7Y322D01*
X3364Y322D02*
X3371Y322D01*
X0Y321D02*
X7Y321D01*
X3364Y321D02*
X3371Y321D01*
X0Y320D02*
X7Y320D01*
X3364Y320D02*
X3371Y320D01*
X0Y319D02*
X7Y319D01*
X3364Y319D02*
X3371Y319D01*
X0Y318D02*
X7Y318D01*
X3364Y318D02*
X3371Y318D01*
X0Y317D02*
X7Y317D01*
X3364Y317D02*
X3371Y317D01*
X0Y316D02*
X7Y316D01*
X3364Y316D02*
X3371Y316D01*
X0Y315D02*
X7Y315D01*
X3364Y315D02*
X3371Y315D01*
X0Y314D02*
X7Y314D01*
X3364Y314D02*
X3371Y314D01*
X0Y313D02*
X7Y313D01*
X3364Y313D02*
X3371Y313D01*
X0Y312D02*
X7Y312D01*
X3364Y312D02*
X3371Y312D01*
X0Y311D02*
X7Y311D01*
X3364Y311D02*
X3371Y311D01*
X0Y310D02*
X7Y310D01*
X3364Y310D02*
X3371Y310D01*
X0Y309D02*
X7Y309D01*
X3364Y309D02*
X3371Y309D01*
X0Y308D02*
X7Y308D01*
X3364Y308D02*
X3371Y308D01*
X0Y307D02*
X7Y307D01*
X3364Y307D02*
X3371Y307D01*
X0Y306D02*
X7Y306D01*
X3364Y306D02*
X3371Y306D01*
X0Y305D02*
X7Y305D01*
X3364Y305D02*
X3371Y305D01*
X0Y304D02*
X7Y304D01*
X3364Y304D02*
X3371Y304D01*
X0Y303D02*
X7Y303D01*
X3364Y303D02*
X3371Y303D01*
X0Y302D02*
X7Y302D01*
X3364Y302D02*
X3371Y302D01*
X0Y301D02*
X7Y301D01*
X3364Y301D02*
X3371Y301D01*
X0Y300D02*
X7Y300D01*
X3364Y300D02*
X3371Y300D01*
X0Y299D02*
X7Y299D01*
X3364Y299D02*
X3371Y299D01*
X0Y298D02*
X7Y298D01*
X3364Y298D02*
X3371Y298D01*
X0Y297D02*
X7Y297D01*
X3364Y297D02*
X3371Y297D01*
X0Y296D02*
X7Y296D01*
X3364Y296D02*
X3371Y296D01*
X0Y295D02*
X7Y295D01*
X3364Y295D02*
X3371Y295D01*
X0Y294D02*
X7Y294D01*
X3364Y294D02*
X3371Y294D01*
X0Y293D02*
X7Y293D01*
X3364Y293D02*
X3371Y293D01*
X0Y292D02*
X7Y292D01*
X3364Y292D02*
X3371Y292D01*
X0Y291D02*
X7Y291D01*
X3364Y291D02*
X3371Y291D01*
X0Y290D02*
X7Y290D01*
X3364Y290D02*
X3371Y290D01*
X0Y289D02*
X7Y289D01*
X3364Y289D02*
X3371Y289D01*
X0Y288D02*
X7Y288D01*
X3364Y288D02*
X3371Y288D01*
X0Y287D02*
X7Y287D01*
X3364Y287D02*
X3371Y287D01*
X0Y286D02*
X7Y286D01*
X3364Y286D02*
X3371Y286D01*
X0Y285D02*
X7Y285D01*
X3364Y285D02*
X3371Y285D01*
X0Y284D02*
X7Y284D01*
X3364Y284D02*
X3371Y284D01*
X0Y283D02*
X7Y283D01*
X3364Y283D02*
X3371Y283D01*
X0Y282D02*
X7Y282D01*
X3364Y282D02*
X3371Y282D01*
X0Y281D02*
X7Y281D01*
X3364Y281D02*
X3371Y281D01*
X0Y280D02*
X7Y280D01*
X3364Y280D02*
X3371Y280D01*
X0Y279D02*
X7Y279D01*
X3364Y279D02*
X3371Y279D01*
X0Y278D02*
X7Y278D01*
X3364Y278D02*
X3371Y278D01*
X0Y277D02*
X7Y277D01*
X3364Y277D02*
X3371Y277D01*
X0Y276D02*
X7Y276D01*
X3364Y276D02*
X3371Y276D01*
X0Y275D02*
X7Y275D01*
X3364Y275D02*
X3371Y275D01*
X0Y274D02*
X7Y274D01*
X3364Y274D02*
X3371Y274D01*
X0Y273D02*
X7Y273D01*
X3364Y273D02*
X3371Y273D01*
X0Y272D02*
X7Y272D01*
X3364Y272D02*
X3371Y272D01*
X0Y271D02*
X7Y271D01*
X3364Y271D02*
X3371Y271D01*
X0Y270D02*
X7Y270D01*
X3364Y270D02*
X3371Y270D01*
X0Y269D02*
X7Y269D01*
X3364Y269D02*
X3371Y269D01*
X0Y268D02*
X7Y268D01*
X3364Y268D02*
X3371Y268D01*
X0Y267D02*
X7Y267D01*
X3364Y267D02*
X3371Y267D01*
X0Y266D02*
X7Y266D01*
X3364Y266D02*
X3371Y266D01*
X0Y265D02*
X7Y265D01*
X3364Y265D02*
X3371Y265D01*
X0Y264D02*
X7Y264D01*
X3364Y264D02*
X3371Y264D01*
X0Y263D02*
X7Y263D01*
X3364Y263D02*
X3371Y263D01*
X0Y262D02*
X7Y262D01*
X3364Y262D02*
X3371Y262D01*
X0Y261D02*
X7Y261D01*
X3364Y261D02*
X3371Y261D01*
X0Y260D02*
X7Y260D01*
X3364Y260D02*
X3371Y260D01*
X0Y259D02*
X7Y259D01*
X3364Y259D02*
X3371Y259D01*
X0Y258D02*
X7Y258D01*
X3364Y258D02*
X3371Y258D01*
X0Y257D02*
X7Y257D01*
X3364Y257D02*
X3371Y257D01*
X0Y256D02*
X7Y256D01*
X3364Y256D02*
X3371Y256D01*
X0Y255D02*
X7Y255D01*
X3364Y255D02*
X3371Y255D01*
X0Y254D02*
X7Y254D01*
X3364Y254D02*
X3371Y254D01*
X0Y253D02*
X7Y253D01*
X3364Y253D02*
X3371Y253D01*
X0Y252D02*
X7Y252D01*
X3364Y252D02*
X3371Y252D01*
X0Y251D02*
X7Y251D01*
X3364Y251D02*
X3371Y251D01*
X0Y250D02*
X7Y250D01*
X3364Y250D02*
X3371Y250D01*
X0Y249D02*
X7Y249D01*
X3364Y249D02*
X3371Y249D01*
X0Y248D02*
X7Y248D01*
X3364Y248D02*
X3371Y248D01*
X0Y247D02*
X7Y247D01*
X3364Y247D02*
X3371Y247D01*
X0Y246D02*
X7Y246D01*
X3364Y246D02*
X3371Y246D01*
X0Y245D02*
X7Y245D01*
X3364Y245D02*
X3371Y245D01*
X0Y244D02*
X7Y244D01*
X3364Y244D02*
X3371Y244D01*
X0Y243D02*
X7Y243D01*
X3364Y243D02*
X3371Y243D01*
X0Y242D02*
X7Y242D01*
X3364Y242D02*
X3371Y242D01*
X0Y241D02*
X7Y241D01*
X3364Y241D02*
X3371Y241D01*
X0Y240D02*
X7Y240D01*
X3364Y240D02*
X3371Y240D01*
X0Y239D02*
X7Y239D01*
X3364Y239D02*
X3371Y239D01*
X0Y238D02*
X7Y238D01*
X3364Y238D02*
X3371Y238D01*
X0Y237D02*
X7Y237D01*
X3364Y237D02*
X3371Y237D01*
X0Y236D02*
X7Y236D01*
X3364Y236D02*
X3371Y236D01*
X0Y235D02*
X7Y235D01*
X3364Y235D02*
X3371Y235D01*
X0Y234D02*
X7Y234D01*
X3364Y234D02*
X3371Y234D01*
X0Y233D02*
X7Y233D01*
X3364Y233D02*
X3371Y233D01*
X0Y232D02*
X7Y232D01*
X3364Y232D02*
X3371Y232D01*
X0Y231D02*
X7Y231D01*
X3364Y231D02*
X3371Y231D01*
X0Y230D02*
X7Y230D01*
X3364Y230D02*
X3371Y230D01*
X0Y229D02*
X7Y229D01*
X3364Y229D02*
X3371Y229D01*
X0Y228D02*
X7Y228D01*
X3364Y228D02*
X3371Y228D01*
X0Y227D02*
X7Y227D01*
X3364Y227D02*
X3371Y227D01*
X0Y226D02*
X7Y226D01*
X3364Y226D02*
X3371Y226D01*
X0Y225D02*
X7Y225D01*
X3364Y225D02*
X3371Y225D01*
X0Y224D02*
X7Y224D01*
X3364Y224D02*
X3371Y224D01*
X0Y223D02*
X7Y223D01*
X3364Y223D02*
X3371Y223D01*
X0Y222D02*
X7Y222D01*
X3364Y222D02*
X3371Y222D01*
X0Y221D02*
X7Y221D01*
X3364Y221D02*
X3371Y221D01*
X0Y220D02*
X7Y220D01*
X3364Y220D02*
X3371Y220D01*
X0Y219D02*
X7Y219D01*
X3364Y219D02*
X3371Y219D01*
X0Y218D02*
X7Y218D01*
X3364Y218D02*
X3371Y218D01*
X0Y217D02*
X7Y217D01*
X3364Y217D02*
X3371Y217D01*
X0Y216D02*
X7Y216D01*
X3364Y216D02*
X3371Y216D01*
X0Y215D02*
X7Y215D01*
X3364Y215D02*
X3371Y215D01*
X0Y214D02*
X7Y214D01*
X3364Y214D02*
X3371Y214D01*
X0Y213D02*
X7Y213D01*
X3364Y213D02*
X3371Y213D01*
X0Y212D02*
X7Y212D01*
X3364Y212D02*
X3371Y212D01*
X0Y211D02*
X7Y211D01*
X3364Y211D02*
X3371Y211D01*
X0Y210D02*
X7Y210D01*
X3364Y210D02*
X3371Y210D01*
X0Y209D02*
X7Y209D01*
X3364Y209D02*
X3371Y209D01*
X0Y208D02*
X7Y208D01*
X3364Y208D02*
X3371Y208D01*
X0Y207D02*
X7Y207D01*
X3364Y207D02*
X3371Y207D01*
X0Y206D02*
X7Y206D01*
X3364Y206D02*
X3371Y206D01*
X0Y205D02*
X7Y205D01*
X3364Y205D02*
X3371Y205D01*
X0Y204D02*
X7Y204D01*
X3364Y204D02*
X3371Y204D01*
X0Y203D02*
X7Y203D01*
X3364Y203D02*
X3371Y203D01*
X0Y202D02*
X7Y202D01*
X3364Y202D02*
X3371Y202D01*
X0Y201D02*
X7Y201D01*
X3364Y201D02*
X3371Y201D01*
X0Y200D02*
X7Y200D01*
X3364Y200D02*
X3371Y200D01*
X0Y199D02*
X7Y199D01*
X3364Y199D02*
X3371Y199D01*
X0Y198D02*
X7Y198D01*
X3364Y198D02*
X3371Y198D01*
X0Y197D02*
X7Y197D01*
X3364Y197D02*
X3371Y197D01*
X0Y196D02*
X7Y196D01*
X3364Y196D02*
X3371Y196D01*
X0Y195D02*
X7Y195D01*
X3364Y195D02*
X3371Y195D01*
X0Y194D02*
X7Y194D01*
X3364Y194D02*
X3371Y194D01*
X0Y193D02*
X7Y193D01*
X3364Y193D02*
X3371Y193D01*
X0Y192D02*
X7Y192D01*
X3364Y192D02*
X3371Y192D01*
X0Y191D02*
X7Y191D01*
X3364Y191D02*
X3371Y191D01*
X0Y190D02*
X7Y190D01*
X3364Y190D02*
X3371Y190D01*
X0Y189D02*
X7Y189D01*
X3364Y189D02*
X3371Y189D01*
X0Y188D02*
X7Y188D01*
X3364Y188D02*
X3371Y188D01*
X0Y187D02*
X7Y187D01*
X3364Y187D02*
X3371Y187D01*
X0Y186D02*
X7Y186D01*
X3364Y186D02*
X3371Y186D01*
X0Y185D02*
X7Y185D01*
X3364Y185D02*
X3371Y185D01*
X0Y184D02*
X7Y184D01*
X3364Y184D02*
X3371Y184D01*
X0Y183D02*
X7Y183D01*
X3364Y183D02*
X3371Y183D01*
X0Y182D02*
X7Y182D01*
X3364Y182D02*
X3371Y182D01*
X0Y181D02*
X7Y181D01*
X3364Y181D02*
X3371Y181D01*
X0Y180D02*
X7Y180D01*
X3364Y180D02*
X3371Y180D01*
X0Y179D02*
X7Y179D01*
X3364Y179D02*
X3371Y179D01*
X0Y178D02*
X7Y178D01*
X3364Y178D02*
X3371Y178D01*
X0Y177D02*
X7Y177D01*
X3364Y177D02*
X3371Y177D01*
X0Y176D02*
X7Y176D01*
X3364Y176D02*
X3371Y176D01*
X0Y175D02*
X7Y175D01*
X3364Y175D02*
X3371Y175D01*
X0Y174D02*
X7Y174D01*
X3364Y174D02*
X3371Y174D01*
X0Y173D02*
X7Y173D01*
X3364Y173D02*
X3371Y173D01*
X0Y172D02*
X7Y172D01*
X3364Y172D02*
X3371Y172D01*
X0Y171D02*
X7Y171D01*
X3364Y171D02*
X3371Y171D01*
X0Y170D02*
X7Y170D01*
X3364Y170D02*
X3371Y170D01*
X0Y169D02*
X7Y169D01*
X3364Y169D02*
X3371Y169D01*
X0Y168D02*
X7Y168D01*
X3364Y168D02*
X3371Y168D01*
X0Y167D02*
X7Y167D01*
X3364Y167D02*
X3371Y167D01*
X0Y166D02*
X7Y166D01*
X3364Y166D02*
X3371Y166D01*
X0Y165D02*
X7Y165D01*
X3364Y165D02*
X3371Y165D01*
X0Y164D02*
X7Y164D01*
X3364Y164D02*
X3371Y164D01*
X0Y163D02*
X7Y163D01*
X3364Y163D02*
X3371Y163D01*
X0Y162D02*
X7Y162D01*
X3364Y162D02*
X3371Y162D01*
X0Y161D02*
X7Y161D01*
X3364Y161D02*
X3371Y161D01*
X0Y160D02*
X7Y160D01*
X3364Y160D02*
X3371Y160D01*
X0Y159D02*
X7Y159D01*
X3364Y159D02*
X3371Y159D01*
X0Y158D02*
X7Y158D01*
X3364Y158D02*
X3371Y158D01*
X0Y157D02*
X7Y157D01*
X3364Y157D02*
X3371Y157D01*
X0Y156D02*
X7Y156D01*
X3364Y156D02*
X3371Y156D01*
X0Y155D02*
X7Y155D01*
X3364Y155D02*
X3371Y155D01*
X0Y154D02*
X7Y154D01*
X3364Y154D02*
X3371Y154D01*
X0Y153D02*
X7Y153D01*
X3364Y153D02*
X3371Y153D01*
X0Y152D02*
X7Y152D01*
X3364Y152D02*
X3371Y152D01*
X0Y151D02*
X7Y151D01*
X3364Y151D02*
X3371Y151D01*
X0Y150D02*
X7Y150D01*
X3364Y150D02*
X3371Y150D01*
X0Y149D02*
X7Y149D01*
X3364Y149D02*
X3371Y149D01*
X0Y148D02*
X7Y148D01*
X3364Y148D02*
X3371Y148D01*
X0Y147D02*
X7Y147D01*
X3364Y147D02*
X3371Y147D01*
X0Y146D02*
X7Y146D01*
X3364Y146D02*
X3371Y146D01*
X0Y145D02*
X7Y145D01*
X3364Y145D02*
X3371Y145D01*
X0Y144D02*
X7Y144D01*
X3364Y144D02*
X3371Y144D01*
X0Y143D02*
X7Y143D01*
X3364Y143D02*
X3371Y143D01*
X0Y142D02*
X7Y142D01*
X3364Y142D02*
X3371Y142D01*
X0Y141D02*
X7Y141D01*
X3364Y141D02*
X3371Y141D01*
X0Y140D02*
X7Y140D01*
X3364Y140D02*
X3371Y140D01*
X0Y139D02*
X7Y139D01*
X3364Y139D02*
X3371Y139D01*
X0Y138D02*
X7Y138D01*
X3364Y138D02*
X3371Y138D01*
X0Y137D02*
X7Y137D01*
X3364Y137D02*
X3371Y137D01*
X0Y136D02*
X7Y136D01*
X3364Y136D02*
X3371Y136D01*
X0Y135D02*
X7Y135D01*
X3364Y135D02*
X3371Y135D01*
X0Y134D02*
X7Y134D01*
X3364Y134D02*
X3371Y134D01*
X0Y133D02*
X7Y133D01*
X3364Y133D02*
X3371Y133D01*
X0Y132D02*
X7Y132D01*
X3364Y132D02*
X3371Y132D01*
X0Y131D02*
X7Y131D01*
X3364Y131D02*
X3371Y131D01*
X0Y130D02*
X7Y130D01*
X3364Y130D02*
X3371Y130D01*
X0Y129D02*
X7Y129D01*
X3364Y129D02*
X3371Y129D01*
X0Y128D02*
X7Y128D01*
X3364Y128D02*
X3371Y128D01*
X0Y127D02*
X7Y127D01*
X3364Y127D02*
X3371Y127D01*
X0Y126D02*
X7Y126D01*
X3364Y126D02*
X3371Y126D01*
X0Y125D02*
X7Y125D01*
X3364Y125D02*
X3371Y125D01*
X0Y124D02*
X7Y124D01*
X3364Y124D02*
X3371Y124D01*
X0Y123D02*
X7Y123D01*
X3364Y123D02*
X3371Y123D01*
X0Y122D02*
X7Y122D01*
X3364Y122D02*
X3371Y122D01*
X0Y121D02*
X7Y121D01*
X3364Y121D02*
X3371Y121D01*
X0Y120D02*
X7Y120D01*
X3364Y120D02*
X3371Y120D01*
X0Y119D02*
X7Y119D01*
X3364Y119D02*
X3371Y119D01*
X0Y118D02*
X7Y118D01*
X3364Y118D02*
X3371Y118D01*
X0Y117D02*
X7Y117D01*
X3364Y117D02*
X3371Y117D01*
X0Y116D02*
X7Y116D01*
X3364Y116D02*
X3371Y116D01*
X0Y115D02*
X7Y115D01*
X3364Y115D02*
X3371Y115D01*
X0Y114D02*
X7Y114D01*
X3364Y114D02*
X3371Y114D01*
X0Y113D02*
X7Y113D01*
X3364Y113D02*
X3371Y113D01*
X0Y112D02*
X7Y112D01*
X3364Y112D02*
X3371Y112D01*
X0Y111D02*
X7Y111D01*
X3364Y111D02*
X3371Y111D01*
X0Y110D02*
X7Y110D01*
X3364Y110D02*
X3371Y110D01*
X0Y109D02*
X7Y109D01*
X3364Y109D02*
X3371Y109D01*
X0Y108D02*
X7Y108D01*
X3364Y108D02*
X3371Y108D01*
X0Y107D02*
X7Y107D01*
X3364Y107D02*
X3371Y107D01*
X0Y106D02*
X7Y106D01*
X3364Y106D02*
X3371Y106D01*
X0Y105D02*
X7Y105D01*
X3364Y105D02*
X3371Y105D01*
X0Y104D02*
X7Y104D01*
X3364Y104D02*
X3371Y104D01*
X0Y103D02*
X7Y103D01*
X3364Y103D02*
X3371Y103D01*
X0Y102D02*
X7Y102D01*
X3364Y102D02*
X3371Y102D01*
X0Y101D02*
X7Y101D01*
X3364Y101D02*
X3371Y101D01*
X0Y100D02*
X7Y100D01*
X3364Y100D02*
X3371Y100D01*
X0Y99D02*
X7Y99D01*
X3364Y99D02*
X3371Y99D01*
X0Y98D02*
X7Y98D01*
X3364Y98D02*
X3371Y98D01*
X0Y97D02*
X7Y97D01*
X3364Y97D02*
X3371Y97D01*
X0Y96D02*
X7Y96D01*
X3364Y96D02*
X3371Y96D01*
X0Y95D02*
X7Y95D01*
X3364Y95D02*
X3371Y95D01*
X0Y94D02*
X7Y94D01*
X3364Y94D02*
X3371Y94D01*
X0Y93D02*
X7Y93D01*
X3364Y93D02*
X3371Y93D01*
X0Y92D02*
X7Y92D01*
X3364Y92D02*
X3371Y92D01*
X0Y91D02*
X7Y91D01*
X3364Y91D02*
X3371Y91D01*
X0Y90D02*
X7Y90D01*
X3364Y90D02*
X3371Y90D01*
X0Y89D02*
X7Y89D01*
X3364Y89D02*
X3371Y89D01*
X0Y88D02*
X7Y88D01*
X3364Y88D02*
X3371Y88D01*
X0Y87D02*
X7Y87D01*
X3364Y87D02*
X3371Y87D01*
X0Y86D02*
X7Y86D01*
X3364Y86D02*
X3371Y86D01*
X0Y85D02*
X7Y85D01*
X3364Y85D02*
X3371Y85D01*
X0Y84D02*
X7Y84D01*
X3364Y84D02*
X3371Y84D01*
X0Y83D02*
X7Y83D01*
X3364Y83D02*
X3371Y83D01*
X0Y82D02*
X7Y82D01*
X3364Y82D02*
X3371Y82D01*
X0Y81D02*
X7Y81D01*
X3364Y81D02*
X3371Y81D01*
X0Y80D02*
X7Y80D01*
X3364Y80D02*
X3371Y80D01*
X0Y79D02*
X7Y79D01*
X3364Y79D02*
X3371Y79D01*
X0Y78D02*
X7Y78D01*
X3364Y78D02*
X3371Y78D01*
X0Y77D02*
X7Y77D01*
X3364Y77D02*
X3371Y77D01*
X0Y76D02*
X7Y76D01*
X3364Y76D02*
X3371Y76D01*
X0Y75D02*
X7Y75D01*
X3364Y75D02*
X3371Y75D01*
X0Y74D02*
X7Y74D01*
X3364Y74D02*
X3371Y74D01*
X0Y73D02*
X7Y73D01*
X3364Y73D02*
X3371Y73D01*
X0Y72D02*
X7Y72D01*
X3364Y72D02*
X3371Y72D01*
X0Y71D02*
X7Y71D01*
X3364Y71D02*
X3371Y71D01*
X0Y70D02*
X7Y70D01*
X3364Y70D02*
X3371Y70D01*
X0Y69D02*
X7Y69D01*
X3364Y69D02*
X3371Y69D01*
X0Y68D02*
X7Y68D01*
X3364Y68D02*
X3371Y68D01*
X0Y67D02*
X7Y67D01*
X3364Y67D02*
X3371Y67D01*
X0Y66D02*
X7Y66D01*
X3364Y66D02*
X3371Y66D01*
X0Y65D02*
X7Y65D01*
X3364Y65D02*
X3371Y65D01*
X0Y64D02*
X7Y64D01*
X3364Y64D02*
X3371Y64D01*
X0Y63D02*
X7Y63D01*
X3364Y63D02*
X3371Y63D01*
X0Y62D02*
X7Y62D01*
X3364Y62D02*
X3371Y62D01*
X0Y61D02*
X7Y61D01*
X3364Y61D02*
X3371Y61D01*
X0Y60D02*
X7Y60D01*
X3364Y60D02*
X3371Y60D01*
X0Y59D02*
X7Y59D01*
X3364Y59D02*
X3371Y59D01*
X0Y58D02*
X7Y58D01*
X3364Y58D02*
X3371Y58D01*
X0Y57D02*
X7Y57D01*
X3364Y57D02*
X3371Y57D01*
X0Y56D02*
X7Y56D01*
X3364Y56D02*
X3371Y56D01*
X0Y55D02*
X7Y55D01*
X3364Y55D02*
X3371Y55D01*
X0Y54D02*
X7Y54D01*
X3364Y54D02*
X3371Y54D01*
X0Y53D02*
X7Y53D01*
X3364Y53D02*
X3371Y53D01*
X0Y52D02*
X7Y52D01*
X3364Y52D02*
X3371Y52D01*
X0Y51D02*
X7Y51D01*
X3364Y51D02*
X3371Y51D01*
X0Y50D02*
X7Y50D01*
X3364Y50D02*
X3371Y50D01*
X0Y49D02*
X7Y49D01*
X3364Y49D02*
X3371Y49D01*
X0Y48D02*
X7Y48D01*
X3364Y48D02*
X3371Y48D01*
X0Y47D02*
X7Y47D01*
X3364Y47D02*
X3371Y47D01*
X0Y46D02*
X7Y46D01*
X3364Y46D02*
X3371Y46D01*
X0Y45D02*
X7Y45D01*
X3364Y45D02*
X3371Y45D01*
X0Y44D02*
X7Y44D01*
X3364Y44D02*
X3371Y44D01*
X0Y43D02*
X7Y43D01*
X3364Y43D02*
X3371Y43D01*
X0Y42D02*
X7Y42D01*
X3364Y42D02*
X3371Y42D01*
X0Y41D02*
X7Y41D01*
X3364Y41D02*
X3371Y41D01*
X0Y40D02*
X7Y40D01*
X3364Y40D02*
X3371Y40D01*
X0Y39D02*
X7Y39D01*
X3364Y39D02*
X3371Y39D01*
X0Y38D02*
X7Y38D01*
X3364Y38D02*
X3371Y38D01*
X0Y37D02*
X7Y37D01*
X3364Y37D02*
X3371Y37D01*
X0Y36D02*
X7Y36D01*
X3364Y36D02*
X3371Y36D01*
X0Y35D02*
X7Y35D01*
X3364Y35D02*
X3371Y35D01*
X0Y34D02*
X7Y34D01*
X3364Y34D02*
X3371Y34D01*
X0Y33D02*
X7Y33D01*
X3364Y33D02*
X3371Y33D01*
X0Y32D02*
X7Y32D01*
X3364Y32D02*
X3371Y32D01*
X0Y31D02*
X7Y31D01*
X3364Y31D02*
X3371Y31D01*
X0Y30D02*
X7Y30D01*
X3364Y30D02*
X3371Y30D01*
X0Y29D02*
X7Y29D01*
X3364Y29D02*
X3371Y29D01*
X0Y28D02*
X7Y28D01*
X3364Y28D02*
X3371Y28D01*
X0Y27D02*
X7Y27D01*
X3364Y27D02*
X3371Y27D01*
X0Y26D02*
X7Y26D01*
X3364Y26D02*
X3371Y26D01*
X0Y25D02*
X7Y25D01*
X3364Y25D02*
X3371Y25D01*
X0Y24D02*
X7Y24D01*
X3364Y24D02*
X3371Y24D01*
X0Y23D02*
X7Y23D01*
X3364Y23D02*
X3371Y23D01*
X0Y22D02*
X7Y22D01*
X3364Y22D02*
X3371Y22D01*
X0Y21D02*
X7Y21D01*
X3364Y21D02*
X3371Y21D01*
X0Y20D02*
X7Y20D01*
X3364Y20D02*
X3371Y20D01*
X0Y19D02*
X7Y19D01*
X3364Y19D02*
X3371Y19D01*
X0Y18D02*
X7Y18D01*
X3364Y18D02*
X3371Y18D01*
X0Y17D02*
X7Y17D01*
X3364Y17D02*
X3371Y17D01*
X0Y16D02*
X7Y16D01*
X3364Y16D02*
X3371Y16D01*
X0Y15D02*
X7Y15D01*
X3364Y15D02*
X3371Y15D01*
X0Y14D02*
X7Y14D01*
X3364Y14D02*
X3371Y14D01*
X0Y13D02*
X7Y13D01*
X3364Y13D02*
X3371Y13D01*
X0Y12D02*
X7Y12D01*
X3364Y12D02*
X3371Y12D01*
X0Y11D02*
X7Y11D01*
X3364Y11D02*
X3371Y11D01*
X0Y10D02*
X7Y10D01*
X3364Y10D02*
X3371Y10D01*
X0Y9D02*
X7Y9D01*
X3364Y9D02*
X3371Y9D01*
X0Y8D02*
X3371Y8D01*
X0Y7D02*
X3371Y7D01*
X0Y6D02*
X3371Y6D01*
X0Y5D02*
X3371Y5D01*
X0Y4D02*
X3371Y4D01*
X0Y3D02*
X3371Y3D01*
X0Y2D02*
X3371Y2D01*
X0Y1D02*
X3371Y1D01*
D02*
G04 End of Silk0*
M02*