G04 MADE WITH FRITZING*
G04 WWW.FRITZING.ORG*
G04 DOUBLE SIDED*
G04 HOLES PLATED*
G04 CONTOUR ON CENTER OF CONTOUR VECTOR*
%ASAXBY*%
%FSLAX23Y23*%
%MOIN*%
%OFA0B0*%
%SFA1.0B1.0*%
%ADD10C,0.075000*%
%ADD11C,0.098425*%
%ADD12C,0.062992*%
%ADD13C,0.075361*%
%ADD14C,0.078000*%
%ADD15C,0.074000*%
%ADD16R,0.062992X0.062992*%
%ADD17R,0.078000X0.078000*%
%ADD18R,0.074000X0.074000*%
%ADD19C,0.024000*%
%ADD20R,0.001000X0.001000*%
%LNCOPPER0*%
G90*
G70*
G54D10*
X2023Y1039D03*
X2023Y1439D03*
G54D11*
X123Y1439D03*
X223Y1239D03*
X623Y1339D03*
X323Y1139D03*
X523Y1139D03*
X323Y1739D03*
X1823Y1739D03*
X2223Y1739D03*
X823Y1539D03*
G54D12*
X1922Y739D03*
X1823Y739D03*
X1922Y739D03*
X1823Y739D03*
G54D13*
X324Y2039D03*
X423Y2039D03*
X524Y2039D03*
X623Y2039D03*
X724Y2039D03*
X824Y2039D03*
X923Y2039D03*
X1024Y2039D03*
X1123Y2039D03*
X1224Y2039D03*
X1324Y2039D03*
X1424Y2039D03*
X1524Y2039D03*
X1623Y2039D03*
X1724Y2039D03*
X1824Y2039D03*
X1924Y2039D03*
X2024Y2039D03*
X2123Y2039D03*
X2224Y2039D03*
X2224Y2139D03*
X2123Y2139D03*
X2024Y2139D03*
X1924Y2139D03*
X1824Y2139D03*
X1724Y2139D03*
X1623Y2139D03*
X1524Y2139D03*
X1424Y2139D03*
X1324Y2139D03*
X1224Y2139D03*
X1123Y2139D03*
X1024Y2139D03*
X923Y2139D03*
X824Y2139D03*
X724Y2139D03*
X623Y2139D03*
X524Y2139D03*
X423Y2139D03*
X324Y2139D03*
G54D14*
X823Y839D03*
X823Y739D03*
X823Y639D03*
G54D15*
X3123Y1439D03*
X3023Y1439D03*
X2923Y1439D03*
X2823Y1439D03*
X2723Y1439D03*
X2623Y1439D03*
X2523Y1439D03*
X2423Y1439D03*
G54D16*
X1922Y739D03*
X1922Y739D03*
G54D17*
X823Y839D03*
G54D18*
X3123Y1439D03*
G54D19*
X1222Y1438D02*
X1222Y639D01*
D02*
X1222Y639D02*
X854Y639D01*
D02*
X152Y1439D02*
X1222Y1438D01*
D02*
X1023Y1238D02*
X1023Y838D01*
D02*
X1023Y838D02*
X854Y839D01*
D02*
X252Y1239D02*
X1023Y1238D01*
D02*
X1124Y1340D02*
X1124Y740D01*
D02*
X1124Y740D02*
X854Y739D01*
D02*
X652Y1339D02*
X1124Y1340D01*
D02*
X2022Y1626D02*
X2023Y1468D01*
D02*
X325Y1638D02*
X2022Y1626D01*
D02*
X325Y1438D02*
X325Y1638D01*
D02*
X152Y1439D02*
X325Y1438D01*
D02*
X2022Y738D02*
X1949Y739D01*
D02*
X2023Y1010D02*
X2022Y738D01*
D02*
X1822Y1540D02*
X852Y1539D01*
D02*
X1823Y766D02*
X1822Y1540D01*
D02*
X2022Y1939D02*
X3123Y1939D01*
D02*
X3123Y1939D02*
X3123Y1470D01*
D02*
X2022Y1626D02*
X2022Y1939D01*
D02*
X3025Y1740D02*
X3024Y1470D01*
D02*
X2252Y1739D02*
X3025Y1740D01*
D02*
X1795Y1739D02*
X352Y1739D01*
D02*
X2425Y439D02*
X2424Y1408D01*
D02*
X525Y439D02*
X2425Y439D01*
D02*
X524Y1110D02*
X525Y439D01*
D02*
X2523Y341D02*
X2523Y1408D01*
D02*
X325Y341D02*
X2523Y341D01*
D02*
X324Y1110D02*
X325Y341D01*
G54D20*
X794Y2571D02*
X827Y2571D01*
X932Y2571D02*
X936Y2571D01*
X972Y2571D02*
X976Y2571D01*
X1073Y2571D02*
X1122Y2571D01*
X1238Y2571D02*
X1246Y2571D01*
X1361Y2571D02*
X1374Y2571D01*
X1398Y2571D02*
X1410Y2571D01*
X792Y2570D02*
X829Y2570D01*
X931Y2570D02*
X937Y2570D01*
X970Y2570D02*
X977Y2570D01*
X1073Y2570D02*
X1122Y2570D01*
X1236Y2570D02*
X1248Y2570D01*
X1361Y2570D02*
X1374Y2570D01*
X1397Y2570D02*
X1410Y2570D01*
X791Y2569D02*
X830Y2569D01*
X930Y2569D02*
X938Y2569D01*
X970Y2569D02*
X978Y2569D01*
X1073Y2569D02*
X1122Y2569D01*
X1234Y2569D02*
X1249Y2569D01*
X1361Y2569D02*
X1375Y2569D01*
X1396Y2569D02*
X1410Y2569D01*
X790Y2568D02*
X831Y2568D01*
X930Y2568D02*
X938Y2568D01*
X969Y2568D02*
X978Y2568D01*
X1073Y2568D02*
X1122Y2568D01*
X1233Y2568D02*
X1250Y2568D01*
X1361Y2568D02*
X1376Y2568D01*
X1396Y2568D02*
X1410Y2568D01*
X789Y2567D02*
X832Y2567D01*
X929Y2567D02*
X938Y2567D01*
X969Y2567D02*
X978Y2567D01*
X1073Y2567D02*
X1122Y2567D01*
X1232Y2567D02*
X1251Y2567D01*
X1361Y2567D02*
X1376Y2567D01*
X1395Y2567D02*
X1410Y2567D01*
X788Y2566D02*
X833Y2566D01*
X929Y2566D02*
X939Y2566D01*
X969Y2566D02*
X978Y2566D01*
X1073Y2566D02*
X1122Y2566D01*
X1231Y2566D02*
X1252Y2566D01*
X1361Y2566D02*
X1377Y2566D01*
X1394Y2566D02*
X1410Y2566D01*
X787Y2565D02*
X833Y2565D01*
X929Y2565D02*
X939Y2565D01*
X969Y2565D02*
X978Y2565D01*
X1073Y2565D02*
X1122Y2565D01*
X1231Y2565D02*
X1253Y2565D01*
X1361Y2565D02*
X1378Y2565D01*
X1394Y2565D02*
X1410Y2565D01*
X787Y2564D02*
X834Y2564D01*
X929Y2564D02*
X939Y2564D01*
X969Y2564D02*
X978Y2564D01*
X1073Y2564D02*
X1122Y2564D01*
X1230Y2564D02*
X1253Y2564D01*
X1361Y2564D02*
X1378Y2564D01*
X1393Y2564D02*
X1410Y2564D01*
X786Y2563D02*
X834Y2563D01*
X929Y2563D02*
X939Y2563D01*
X969Y2563D02*
X978Y2563D01*
X1073Y2563D02*
X1122Y2563D01*
X1230Y2563D02*
X1254Y2563D01*
X1361Y2563D02*
X1379Y2563D01*
X1392Y2563D02*
X1410Y2563D01*
X786Y2562D02*
X834Y2562D01*
X929Y2562D02*
X939Y2562D01*
X969Y2562D02*
X978Y2562D01*
X1073Y2562D02*
X1122Y2562D01*
X1229Y2562D02*
X1254Y2562D01*
X1361Y2562D02*
X1380Y2562D01*
X1392Y2562D02*
X1410Y2562D01*
X786Y2561D02*
X796Y2561D01*
X825Y2561D02*
X834Y2561D01*
X929Y2561D02*
X939Y2561D01*
X969Y2561D02*
X978Y2561D01*
X1073Y2561D02*
X1082Y2561D01*
X1093Y2561D02*
X1102Y2561D01*
X1113Y2561D02*
X1122Y2561D01*
X1229Y2561D02*
X1239Y2561D01*
X1244Y2561D02*
X1255Y2561D01*
X1361Y2561D02*
X1381Y2561D01*
X1391Y2561D02*
X1410Y2561D01*
X786Y2560D02*
X795Y2560D01*
X825Y2560D02*
X834Y2560D01*
X929Y2560D02*
X939Y2560D01*
X969Y2560D02*
X978Y2560D01*
X1073Y2560D02*
X1082Y2560D01*
X1093Y2560D02*
X1102Y2560D01*
X1113Y2560D02*
X1122Y2560D01*
X1228Y2560D02*
X1239Y2560D01*
X1245Y2560D02*
X1255Y2560D01*
X1361Y2560D02*
X1381Y2560D01*
X1390Y2560D02*
X1410Y2560D01*
X785Y2559D02*
X795Y2559D01*
X824Y2559D02*
X834Y2559D01*
X929Y2559D02*
X939Y2559D01*
X969Y2559D02*
X978Y2559D01*
X1073Y2559D02*
X1082Y2559D01*
X1093Y2559D02*
X1102Y2559D01*
X1113Y2559D02*
X1122Y2559D01*
X1228Y2559D02*
X1238Y2559D01*
X1245Y2559D02*
X1256Y2559D01*
X1361Y2559D02*
X1382Y2559D01*
X1389Y2559D02*
X1410Y2559D01*
X786Y2558D02*
X794Y2558D01*
X824Y2558D02*
X834Y2558D01*
X929Y2558D02*
X939Y2558D01*
X969Y2558D02*
X978Y2558D01*
X1073Y2558D02*
X1082Y2558D01*
X1093Y2558D02*
X1102Y2558D01*
X1113Y2558D02*
X1122Y2558D01*
X1227Y2558D02*
X1238Y2558D01*
X1246Y2558D02*
X1256Y2558D01*
X1361Y2558D02*
X1383Y2558D01*
X1389Y2558D02*
X1410Y2558D01*
X786Y2557D02*
X794Y2557D01*
X823Y2557D02*
X834Y2557D01*
X929Y2557D02*
X939Y2557D01*
X969Y2557D02*
X978Y2557D01*
X1074Y2557D02*
X1082Y2557D01*
X1093Y2557D02*
X1102Y2557D01*
X1113Y2557D02*
X1122Y2557D01*
X1227Y2557D02*
X1237Y2557D01*
X1246Y2557D02*
X1257Y2557D01*
X1361Y2557D02*
X1370Y2557D01*
X1372Y2557D02*
X1383Y2557D01*
X1388Y2557D02*
X1399Y2557D01*
X1401Y2557D02*
X1410Y2557D01*
X786Y2556D02*
X794Y2556D01*
X822Y2556D02*
X833Y2556D01*
X929Y2556D02*
X939Y2556D01*
X969Y2556D02*
X978Y2556D01*
X1074Y2556D02*
X1082Y2556D01*
X1093Y2556D02*
X1102Y2556D01*
X1114Y2556D02*
X1122Y2556D01*
X1226Y2556D02*
X1237Y2556D01*
X1247Y2556D02*
X1257Y2556D01*
X1361Y2556D02*
X1370Y2556D01*
X1373Y2556D02*
X1384Y2556D01*
X1387Y2556D02*
X1399Y2556D01*
X1401Y2556D02*
X1410Y2556D01*
X787Y2555D02*
X793Y2555D01*
X821Y2555D02*
X833Y2555D01*
X929Y2555D02*
X939Y2555D01*
X969Y2555D02*
X978Y2555D01*
X1075Y2555D02*
X1081Y2555D01*
X1093Y2555D02*
X1102Y2555D01*
X1114Y2555D02*
X1121Y2555D01*
X1226Y2555D02*
X1236Y2555D01*
X1247Y2555D02*
X1258Y2555D01*
X1361Y2555D02*
X1370Y2555D01*
X1373Y2555D02*
X1385Y2555D01*
X1387Y2555D02*
X1398Y2555D01*
X1401Y2555D02*
X1410Y2555D01*
X788Y2554D02*
X792Y2554D01*
X820Y2554D02*
X832Y2554D01*
X929Y2554D02*
X939Y2554D01*
X969Y2554D02*
X978Y2554D01*
X1076Y2554D02*
X1080Y2554D01*
X1093Y2554D02*
X1102Y2554D01*
X1116Y2554D02*
X1120Y2554D01*
X1225Y2554D02*
X1236Y2554D01*
X1248Y2554D02*
X1258Y2554D01*
X1361Y2554D02*
X1370Y2554D01*
X1374Y2554D02*
X1397Y2554D01*
X1401Y2554D02*
X1410Y2554D01*
X820Y2553D02*
X832Y2553D01*
X929Y2553D02*
X939Y2553D01*
X969Y2553D02*
X978Y2553D01*
X1093Y2553D02*
X1102Y2553D01*
X1225Y2553D02*
X1235Y2553D01*
X1248Y2553D02*
X1259Y2553D01*
X1361Y2553D02*
X1370Y2553D01*
X1375Y2553D02*
X1397Y2553D01*
X1401Y2553D02*
X1410Y2553D01*
X819Y2552D02*
X831Y2552D01*
X929Y2552D02*
X939Y2552D01*
X969Y2552D02*
X978Y2552D01*
X1093Y2552D02*
X1102Y2552D01*
X1224Y2552D02*
X1235Y2552D01*
X1249Y2552D02*
X1259Y2552D01*
X1361Y2552D02*
X1370Y2552D01*
X1376Y2552D02*
X1396Y2552D01*
X1401Y2552D02*
X1410Y2552D01*
X818Y2551D02*
X830Y2551D01*
X929Y2551D02*
X939Y2551D01*
X969Y2551D02*
X978Y2551D01*
X1093Y2551D02*
X1102Y2551D01*
X1224Y2551D02*
X1234Y2551D01*
X1249Y2551D02*
X1260Y2551D01*
X1361Y2551D02*
X1370Y2551D01*
X1376Y2551D02*
X1395Y2551D01*
X1401Y2551D02*
X1410Y2551D01*
X817Y2550D02*
X829Y2550D01*
X929Y2550D02*
X939Y2550D01*
X969Y2550D02*
X978Y2550D01*
X1093Y2550D02*
X1102Y2550D01*
X1223Y2550D02*
X1234Y2550D01*
X1250Y2550D02*
X1260Y2550D01*
X1361Y2550D02*
X1370Y2550D01*
X1377Y2550D02*
X1395Y2550D01*
X1401Y2550D02*
X1410Y2550D01*
X816Y2549D02*
X828Y2549D01*
X929Y2549D02*
X939Y2549D01*
X969Y2549D02*
X978Y2549D01*
X1093Y2549D02*
X1102Y2549D01*
X1223Y2549D02*
X1233Y2549D01*
X1251Y2549D02*
X1261Y2549D01*
X1361Y2549D02*
X1370Y2549D01*
X1378Y2549D02*
X1394Y2549D01*
X1401Y2549D02*
X1410Y2549D01*
X816Y2548D02*
X828Y2548D01*
X929Y2548D02*
X939Y2548D01*
X969Y2548D02*
X978Y2548D01*
X1093Y2548D02*
X1102Y2548D01*
X1222Y2548D02*
X1233Y2548D01*
X1251Y2548D02*
X1261Y2548D01*
X1361Y2548D02*
X1370Y2548D01*
X1378Y2548D02*
X1393Y2548D01*
X1401Y2548D02*
X1410Y2548D01*
X815Y2547D02*
X827Y2547D01*
X929Y2547D02*
X939Y2547D01*
X969Y2547D02*
X978Y2547D01*
X1093Y2547D02*
X1102Y2547D01*
X1222Y2547D02*
X1232Y2547D01*
X1252Y2547D02*
X1262Y2547D01*
X1361Y2547D02*
X1370Y2547D01*
X1379Y2547D02*
X1392Y2547D01*
X1401Y2547D02*
X1410Y2547D01*
X814Y2546D02*
X826Y2546D01*
X929Y2546D02*
X939Y2546D01*
X969Y2546D02*
X978Y2546D01*
X1093Y2546D02*
X1102Y2546D01*
X1221Y2546D02*
X1232Y2546D01*
X1252Y2546D02*
X1262Y2546D01*
X1361Y2546D02*
X1370Y2546D01*
X1380Y2546D02*
X1392Y2546D01*
X1401Y2546D02*
X1410Y2546D01*
X813Y2545D02*
X825Y2545D01*
X929Y2545D02*
X939Y2545D01*
X969Y2545D02*
X978Y2545D01*
X1093Y2545D02*
X1102Y2545D01*
X1221Y2545D02*
X1231Y2545D01*
X1253Y2545D02*
X1263Y2545D01*
X1361Y2545D02*
X1370Y2545D01*
X1380Y2545D02*
X1391Y2545D01*
X1401Y2545D02*
X1410Y2545D01*
X813Y2544D02*
X825Y2544D01*
X929Y2544D02*
X939Y2544D01*
X969Y2544D02*
X978Y2544D01*
X1093Y2544D02*
X1102Y2544D01*
X1220Y2544D02*
X1231Y2544D01*
X1253Y2544D02*
X1263Y2544D01*
X1361Y2544D02*
X1370Y2544D01*
X1381Y2544D02*
X1390Y2544D01*
X1401Y2544D02*
X1410Y2544D01*
X812Y2543D02*
X824Y2543D01*
X929Y2543D02*
X939Y2543D01*
X969Y2543D02*
X978Y2543D01*
X1093Y2543D02*
X1102Y2543D01*
X1220Y2543D02*
X1230Y2543D01*
X1254Y2543D02*
X1264Y2543D01*
X1361Y2543D02*
X1370Y2543D01*
X1381Y2543D02*
X1390Y2543D01*
X1401Y2543D02*
X1410Y2543D01*
X811Y2542D02*
X823Y2542D01*
X929Y2542D02*
X939Y2542D01*
X969Y2542D02*
X978Y2542D01*
X1093Y2542D02*
X1102Y2542D01*
X1219Y2542D02*
X1230Y2542D01*
X1254Y2542D02*
X1264Y2542D01*
X1361Y2542D02*
X1370Y2542D01*
X1381Y2542D02*
X1390Y2542D01*
X1401Y2542D02*
X1410Y2542D01*
X810Y2541D02*
X822Y2541D01*
X929Y2541D02*
X939Y2541D01*
X969Y2541D02*
X978Y2541D01*
X1093Y2541D02*
X1102Y2541D01*
X1219Y2541D02*
X1229Y2541D01*
X1255Y2541D02*
X1265Y2541D01*
X1361Y2541D02*
X1370Y2541D01*
X1381Y2541D02*
X1390Y2541D01*
X1401Y2541D02*
X1410Y2541D01*
X809Y2540D02*
X821Y2540D01*
X929Y2540D02*
X939Y2540D01*
X969Y2540D02*
X978Y2540D01*
X1093Y2540D02*
X1102Y2540D01*
X1219Y2540D02*
X1228Y2540D01*
X1255Y2540D02*
X1265Y2540D01*
X1361Y2540D02*
X1370Y2540D01*
X1381Y2540D02*
X1390Y2540D01*
X1401Y2540D02*
X1410Y2540D01*
X809Y2539D02*
X821Y2539D01*
X929Y2539D02*
X939Y2539D01*
X969Y2539D02*
X978Y2539D01*
X1093Y2539D02*
X1102Y2539D01*
X1218Y2539D02*
X1228Y2539D01*
X1256Y2539D02*
X1265Y2539D01*
X1361Y2539D02*
X1370Y2539D01*
X1382Y2539D02*
X1390Y2539D01*
X1401Y2539D02*
X1410Y2539D01*
X808Y2538D02*
X820Y2538D01*
X929Y2538D02*
X939Y2538D01*
X969Y2538D02*
X978Y2538D01*
X1093Y2538D02*
X1102Y2538D01*
X1218Y2538D02*
X1228Y2538D01*
X1256Y2538D02*
X1266Y2538D01*
X1361Y2538D02*
X1370Y2538D01*
X1383Y2538D02*
X1389Y2538D01*
X1401Y2538D02*
X1410Y2538D01*
X807Y2537D02*
X819Y2537D01*
X929Y2537D02*
X939Y2537D01*
X969Y2537D02*
X978Y2537D01*
X1093Y2537D02*
X1102Y2537D01*
X1218Y2537D02*
X1227Y2537D01*
X1256Y2537D02*
X1266Y2537D01*
X1361Y2537D02*
X1370Y2537D01*
X1384Y2537D02*
X1388Y2537D01*
X1401Y2537D02*
X1410Y2537D01*
X806Y2536D02*
X818Y2536D01*
X929Y2536D02*
X939Y2536D01*
X969Y2536D02*
X978Y2536D01*
X1093Y2536D02*
X1102Y2536D01*
X1218Y2536D02*
X1227Y2536D01*
X1257Y2536D02*
X1266Y2536D01*
X1361Y2536D02*
X1370Y2536D01*
X1401Y2536D02*
X1410Y2536D01*
X806Y2535D02*
X818Y2535D01*
X929Y2535D02*
X939Y2535D01*
X969Y2535D02*
X978Y2535D01*
X1093Y2535D02*
X1102Y2535D01*
X1217Y2535D02*
X1227Y2535D01*
X1257Y2535D02*
X1266Y2535D01*
X1361Y2535D02*
X1370Y2535D01*
X1401Y2535D02*
X1410Y2535D01*
X805Y2534D02*
X817Y2534D01*
X929Y2534D02*
X939Y2534D01*
X969Y2534D02*
X978Y2534D01*
X1093Y2534D02*
X1102Y2534D01*
X1217Y2534D02*
X1227Y2534D01*
X1257Y2534D02*
X1266Y2534D01*
X1361Y2534D02*
X1370Y2534D01*
X1401Y2534D02*
X1410Y2534D01*
X804Y2533D02*
X816Y2533D01*
X929Y2533D02*
X939Y2533D01*
X969Y2533D02*
X978Y2533D01*
X1093Y2533D02*
X1102Y2533D01*
X1217Y2533D02*
X1226Y2533D01*
X1257Y2533D02*
X1266Y2533D01*
X1361Y2533D02*
X1370Y2533D01*
X1401Y2533D02*
X1410Y2533D01*
X803Y2532D02*
X815Y2532D01*
X929Y2532D02*
X939Y2532D01*
X969Y2532D02*
X978Y2532D01*
X1093Y2532D02*
X1102Y2532D01*
X1217Y2532D02*
X1227Y2532D01*
X1257Y2532D02*
X1266Y2532D01*
X1361Y2532D02*
X1370Y2532D01*
X1401Y2532D02*
X1410Y2532D01*
X802Y2531D02*
X814Y2531D01*
X929Y2531D02*
X939Y2531D01*
X969Y2531D02*
X978Y2531D01*
X1093Y2531D02*
X1102Y2531D01*
X1217Y2531D02*
X1227Y2531D01*
X1257Y2531D02*
X1266Y2531D01*
X1361Y2531D02*
X1370Y2531D01*
X1401Y2531D02*
X1410Y2531D01*
X802Y2530D02*
X814Y2530D01*
X929Y2530D02*
X939Y2530D01*
X969Y2530D02*
X978Y2530D01*
X1093Y2530D02*
X1102Y2530D01*
X1218Y2530D02*
X1227Y2530D01*
X1257Y2530D02*
X1266Y2530D01*
X1361Y2530D02*
X1370Y2530D01*
X1401Y2530D02*
X1410Y2530D01*
X801Y2529D02*
X813Y2529D01*
X929Y2529D02*
X939Y2529D01*
X969Y2529D02*
X978Y2529D01*
X1093Y2529D02*
X1102Y2529D01*
X1218Y2529D02*
X1227Y2529D01*
X1256Y2529D02*
X1266Y2529D01*
X1361Y2529D02*
X1370Y2529D01*
X1401Y2529D02*
X1410Y2529D01*
X800Y2528D02*
X812Y2528D01*
X929Y2528D02*
X939Y2528D01*
X969Y2528D02*
X978Y2528D01*
X1093Y2528D02*
X1102Y2528D01*
X1218Y2528D02*
X1228Y2528D01*
X1256Y2528D02*
X1266Y2528D01*
X1361Y2528D02*
X1370Y2528D01*
X1401Y2528D02*
X1410Y2528D01*
X799Y2527D02*
X811Y2527D01*
X929Y2527D02*
X939Y2527D01*
X969Y2527D02*
X978Y2527D01*
X1093Y2527D02*
X1102Y2527D01*
X1218Y2527D02*
X1228Y2527D01*
X1256Y2527D02*
X1265Y2527D01*
X1361Y2527D02*
X1370Y2527D01*
X1401Y2527D02*
X1410Y2527D01*
X799Y2526D02*
X811Y2526D01*
X929Y2526D02*
X939Y2526D01*
X969Y2526D02*
X978Y2526D01*
X1093Y2526D02*
X1102Y2526D01*
X1218Y2526D02*
X1228Y2526D01*
X1255Y2526D02*
X1265Y2526D01*
X1361Y2526D02*
X1370Y2526D01*
X1401Y2526D02*
X1410Y2526D01*
X798Y2525D02*
X810Y2525D01*
X929Y2525D02*
X939Y2525D01*
X969Y2525D02*
X978Y2525D01*
X1093Y2525D02*
X1102Y2525D01*
X1219Y2525D02*
X1229Y2525D01*
X1255Y2525D02*
X1265Y2525D01*
X1361Y2525D02*
X1370Y2525D01*
X1401Y2525D02*
X1410Y2525D01*
X797Y2524D02*
X809Y2524D01*
X929Y2524D02*
X939Y2524D01*
X969Y2524D02*
X978Y2524D01*
X1093Y2524D02*
X1102Y2524D01*
X1219Y2524D02*
X1229Y2524D01*
X1254Y2524D02*
X1264Y2524D01*
X1361Y2524D02*
X1370Y2524D01*
X1401Y2524D02*
X1410Y2524D01*
X796Y2523D02*
X808Y2523D01*
X929Y2523D02*
X939Y2523D01*
X969Y2523D02*
X978Y2523D01*
X1093Y2523D02*
X1102Y2523D01*
X1220Y2523D02*
X1230Y2523D01*
X1254Y2523D02*
X1264Y2523D01*
X1361Y2523D02*
X1370Y2523D01*
X1401Y2523D02*
X1410Y2523D01*
X795Y2522D02*
X807Y2522D01*
X929Y2522D02*
X939Y2522D01*
X969Y2522D02*
X978Y2522D01*
X1093Y2522D02*
X1102Y2522D01*
X1220Y2522D02*
X1230Y2522D01*
X1253Y2522D02*
X1263Y2522D01*
X1361Y2522D02*
X1370Y2522D01*
X1401Y2522D02*
X1410Y2522D01*
X795Y2521D02*
X807Y2521D01*
X929Y2521D02*
X939Y2521D01*
X969Y2521D02*
X978Y2521D01*
X1093Y2521D02*
X1102Y2521D01*
X1221Y2521D02*
X1231Y2521D01*
X1253Y2521D02*
X1263Y2521D01*
X1361Y2521D02*
X1370Y2521D01*
X1401Y2521D02*
X1410Y2521D01*
X794Y2520D02*
X806Y2520D01*
X929Y2520D02*
X939Y2520D01*
X969Y2520D02*
X978Y2520D01*
X1093Y2520D02*
X1102Y2520D01*
X1221Y2520D02*
X1231Y2520D01*
X1252Y2520D02*
X1262Y2520D01*
X1361Y2520D02*
X1370Y2520D01*
X1401Y2520D02*
X1410Y2520D01*
X793Y2519D02*
X805Y2519D01*
X929Y2519D02*
X939Y2519D01*
X969Y2519D02*
X978Y2519D01*
X1093Y2519D02*
X1102Y2519D01*
X1222Y2519D02*
X1232Y2519D01*
X1252Y2519D02*
X1262Y2519D01*
X1361Y2519D02*
X1370Y2519D01*
X1401Y2519D02*
X1410Y2519D01*
X792Y2518D02*
X804Y2518D01*
X929Y2518D02*
X939Y2518D01*
X969Y2518D02*
X978Y2518D01*
X1093Y2518D02*
X1102Y2518D01*
X1222Y2518D02*
X1232Y2518D01*
X1251Y2518D02*
X1261Y2518D01*
X1361Y2518D02*
X1370Y2518D01*
X1401Y2518D02*
X1410Y2518D01*
X792Y2517D02*
X804Y2517D01*
X929Y2517D02*
X939Y2517D01*
X969Y2517D02*
X978Y2517D01*
X1093Y2517D02*
X1102Y2517D01*
X1223Y2517D02*
X1233Y2517D01*
X1251Y2517D02*
X1261Y2517D01*
X1361Y2517D02*
X1370Y2517D01*
X1401Y2517D02*
X1410Y2517D01*
X791Y2516D02*
X803Y2516D01*
X929Y2516D02*
X939Y2516D01*
X969Y2516D02*
X978Y2516D01*
X1093Y2516D02*
X1102Y2516D01*
X1223Y2516D02*
X1233Y2516D01*
X1250Y2516D02*
X1260Y2516D01*
X1361Y2516D02*
X1370Y2516D01*
X1401Y2516D02*
X1410Y2516D01*
X790Y2515D02*
X802Y2515D01*
X929Y2515D02*
X939Y2515D01*
X969Y2515D02*
X978Y2515D01*
X1093Y2515D02*
X1102Y2515D01*
X1224Y2515D02*
X1234Y2515D01*
X1250Y2515D02*
X1260Y2515D01*
X1361Y2515D02*
X1370Y2515D01*
X1401Y2515D02*
X1410Y2515D01*
X789Y2514D02*
X801Y2514D01*
X929Y2514D02*
X939Y2514D01*
X969Y2514D02*
X978Y2514D01*
X1093Y2514D02*
X1102Y2514D01*
X1224Y2514D02*
X1234Y2514D01*
X1249Y2514D02*
X1259Y2514D01*
X1361Y2514D02*
X1370Y2514D01*
X1401Y2514D02*
X1410Y2514D01*
X788Y2513D02*
X801Y2513D01*
X929Y2513D02*
X939Y2513D01*
X969Y2513D02*
X978Y2513D01*
X1093Y2513D02*
X1102Y2513D01*
X1225Y2513D02*
X1235Y2513D01*
X1249Y2513D02*
X1259Y2513D01*
X1361Y2513D02*
X1370Y2513D01*
X1401Y2513D02*
X1410Y2513D01*
X788Y2512D02*
X800Y2512D01*
X828Y2512D02*
X831Y2512D01*
X929Y2512D02*
X939Y2512D01*
X969Y2512D02*
X978Y2512D01*
X1093Y2512D02*
X1102Y2512D01*
X1225Y2512D02*
X1235Y2512D01*
X1248Y2512D02*
X1258Y2512D01*
X1361Y2512D02*
X1370Y2512D01*
X1401Y2512D02*
X1410Y2512D01*
X787Y2511D02*
X799Y2511D01*
X827Y2511D02*
X833Y2511D01*
X929Y2511D02*
X939Y2511D01*
X969Y2511D02*
X978Y2511D01*
X1093Y2511D02*
X1102Y2511D01*
X1226Y2511D02*
X1236Y2511D01*
X1248Y2511D02*
X1258Y2511D01*
X1361Y2511D02*
X1370Y2511D01*
X1401Y2511D02*
X1410Y2511D01*
X786Y2510D02*
X798Y2510D01*
X826Y2510D02*
X833Y2510D01*
X929Y2510D02*
X939Y2510D01*
X969Y2510D02*
X978Y2510D01*
X1093Y2510D02*
X1102Y2510D01*
X1226Y2510D02*
X1236Y2510D01*
X1247Y2510D02*
X1257Y2510D01*
X1361Y2510D02*
X1370Y2510D01*
X1401Y2510D02*
X1410Y2510D01*
X786Y2509D02*
X797Y2509D01*
X825Y2509D02*
X834Y2509D01*
X929Y2509D02*
X939Y2509D01*
X969Y2509D02*
X978Y2509D01*
X1093Y2509D02*
X1102Y2509D01*
X1227Y2509D02*
X1237Y2509D01*
X1247Y2509D02*
X1257Y2509D01*
X1361Y2509D02*
X1370Y2509D01*
X1401Y2509D02*
X1410Y2509D01*
X786Y2508D02*
X797Y2508D01*
X825Y2508D02*
X834Y2508D01*
X929Y2508D02*
X939Y2508D01*
X969Y2508D02*
X978Y2508D01*
X1093Y2508D02*
X1102Y2508D01*
X1227Y2508D02*
X1237Y2508D01*
X1246Y2508D02*
X1256Y2508D01*
X1361Y2508D02*
X1370Y2508D01*
X1401Y2508D02*
X1410Y2508D01*
X786Y2507D02*
X796Y2507D01*
X825Y2507D02*
X834Y2507D01*
X930Y2507D02*
X939Y2507D01*
X969Y2507D02*
X978Y2507D01*
X1093Y2507D02*
X1102Y2507D01*
X1228Y2507D02*
X1238Y2507D01*
X1246Y2507D02*
X1256Y2507D01*
X1361Y2507D02*
X1370Y2507D01*
X1401Y2507D02*
X1410Y2507D01*
X785Y2506D02*
X795Y2506D01*
X825Y2506D02*
X834Y2506D01*
X930Y2506D02*
X940Y2506D01*
X968Y2506D02*
X978Y2506D01*
X1093Y2506D02*
X1102Y2506D01*
X1228Y2506D02*
X1238Y2506D01*
X1245Y2506D02*
X1255Y2506D01*
X1361Y2506D02*
X1370Y2506D01*
X1401Y2506D02*
X1410Y2506D01*
X785Y2505D02*
X795Y2505D01*
X824Y2505D02*
X834Y2505D01*
X930Y2505D02*
X941Y2505D01*
X967Y2505D02*
X978Y2505D01*
X1093Y2505D02*
X1102Y2505D01*
X1229Y2505D02*
X1239Y2505D01*
X1244Y2505D02*
X1255Y2505D01*
X1361Y2505D02*
X1370Y2505D01*
X1401Y2505D02*
X1410Y2505D01*
X786Y2504D02*
X796Y2504D01*
X822Y2504D02*
X834Y2504D01*
X930Y2504D02*
X944Y2504D01*
X964Y2504D02*
X977Y2504D01*
X1093Y2504D02*
X1102Y2504D01*
X1229Y2504D02*
X1254Y2504D01*
X1361Y2504D02*
X1370Y2504D01*
X1401Y2504D02*
X1410Y2504D01*
X786Y2503D02*
X833Y2503D01*
X931Y2503D02*
X977Y2503D01*
X1093Y2503D02*
X1102Y2503D01*
X1230Y2503D02*
X1254Y2503D01*
X1361Y2503D02*
X1370Y2503D01*
X1401Y2503D02*
X1410Y2503D01*
X786Y2502D02*
X833Y2502D01*
X931Y2502D02*
X976Y2502D01*
X1093Y2502D02*
X1102Y2502D01*
X1230Y2502D02*
X1253Y2502D01*
X1361Y2502D02*
X1370Y2502D01*
X1401Y2502D02*
X1410Y2502D01*
X786Y2501D02*
X833Y2501D01*
X932Y2501D02*
X976Y2501D01*
X1093Y2501D02*
X1102Y2501D01*
X1231Y2501D02*
X1253Y2501D01*
X1361Y2501D02*
X1370Y2501D01*
X1401Y2501D02*
X1410Y2501D01*
X787Y2500D02*
X832Y2500D01*
X932Y2500D02*
X975Y2500D01*
X1093Y2500D02*
X1102Y2500D01*
X1231Y2500D02*
X1252Y2500D01*
X1361Y2500D02*
X1370Y2500D01*
X1401Y2500D02*
X1410Y2500D01*
X787Y2499D02*
X831Y2499D01*
X933Y2499D02*
X974Y2499D01*
X1093Y2499D02*
X1102Y2499D01*
X1232Y2499D02*
X1252Y2499D01*
X1361Y2499D02*
X1370Y2499D01*
X1401Y2499D02*
X1410Y2499D01*
X788Y2498D02*
X830Y2498D01*
X934Y2498D02*
X973Y2498D01*
X1093Y2498D02*
X1102Y2498D01*
X1233Y2498D02*
X1251Y2498D01*
X1361Y2498D02*
X1370Y2498D01*
X1401Y2498D02*
X1410Y2498D01*
X789Y2497D02*
X829Y2497D01*
X936Y2497D02*
X972Y2497D01*
X1094Y2497D02*
X1102Y2497D01*
X1234Y2497D02*
X1250Y2497D01*
X1362Y2497D02*
X1370Y2497D01*
X1401Y2497D02*
X1410Y2497D01*
X790Y2496D02*
X828Y2496D01*
X937Y2496D02*
X971Y2496D01*
X1094Y2496D02*
X1101Y2496D01*
X1235Y2496D02*
X1248Y2496D01*
X1362Y2496D02*
X1369Y2496D01*
X1402Y2496D02*
X1409Y2496D01*
X792Y2495D02*
X826Y2495D01*
X939Y2495D02*
X969Y2495D01*
X1095Y2495D02*
X1100Y2495D01*
X1237Y2495D02*
X1247Y2495D01*
X1363Y2495D02*
X1368Y2495D01*
X1403Y2495D02*
X1408Y2495D01*
X796Y2494D02*
X822Y2494D01*
X943Y2494D02*
X964Y2494D01*
X1098Y2494D02*
X1098Y2494D01*
X1241Y2494D02*
X1243Y2494D01*
X1366Y2494D02*
X1366Y2494D01*
X1406Y2494D02*
X1406Y2494D01*
X881Y2463D02*
X884Y2463D01*
X879Y2462D02*
X886Y2462D01*
X878Y2461D02*
X887Y2461D01*
X383Y2460D02*
X415Y2460D01*
X679Y2460D02*
X699Y2460D01*
X878Y2460D02*
X887Y2460D01*
X1112Y2460D02*
X1132Y2460D01*
X1265Y2460D02*
X1276Y2460D01*
X1326Y2460D02*
X1328Y2460D01*
X1546Y2460D02*
X1570Y2460D01*
X1711Y2460D02*
X1713Y2460D01*
X1731Y2460D02*
X1763Y2460D01*
X1779Y2460D02*
X1811Y2460D01*
X383Y2459D02*
X416Y2459D01*
X677Y2459D02*
X701Y2459D01*
X878Y2459D02*
X887Y2459D01*
X1110Y2459D02*
X1134Y2459D01*
X1264Y2459D02*
X1278Y2459D01*
X1325Y2459D02*
X1329Y2459D01*
X1544Y2459D02*
X1571Y2459D01*
X1710Y2459D02*
X1714Y2459D01*
X1731Y2459D02*
X1763Y2459D01*
X1779Y2459D02*
X1811Y2459D01*
X383Y2458D02*
X416Y2458D01*
X675Y2458D02*
X702Y2458D01*
X878Y2458D02*
X887Y2458D01*
X1108Y2458D02*
X1135Y2458D01*
X1263Y2458D02*
X1278Y2458D01*
X1324Y2458D02*
X1330Y2458D01*
X1542Y2458D02*
X1571Y2458D01*
X1709Y2458D02*
X1715Y2458D01*
X1731Y2458D02*
X1763Y2458D01*
X1779Y2458D02*
X1811Y2458D01*
X383Y2457D02*
X416Y2457D01*
X549Y2457D02*
X552Y2457D01*
X674Y2457D02*
X703Y2457D01*
X838Y2457D02*
X840Y2457D01*
X878Y2457D02*
X887Y2457D01*
X1107Y2457D02*
X1136Y2457D01*
X1263Y2457D02*
X1279Y2457D01*
X1324Y2457D02*
X1330Y2457D01*
X1416Y2457D02*
X1418Y2457D01*
X1541Y2457D02*
X1571Y2457D01*
X1709Y2457D02*
X1715Y2457D01*
X1731Y2457D02*
X1763Y2457D01*
X1779Y2457D02*
X1811Y2457D01*
X383Y2456D02*
X416Y2456D01*
X548Y2456D02*
X553Y2456D01*
X673Y2456D02*
X704Y2456D01*
X837Y2456D02*
X841Y2456D01*
X878Y2456D02*
X887Y2456D01*
X1107Y2456D02*
X1137Y2456D01*
X1263Y2456D02*
X1278Y2456D01*
X1324Y2456D02*
X1330Y2456D01*
X1415Y2456D02*
X1419Y2456D01*
X1540Y2456D02*
X1571Y2456D01*
X1709Y2456D02*
X1715Y2456D01*
X1731Y2456D02*
X1763Y2456D01*
X1779Y2456D02*
X1811Y2456D01*
X383Y2455D02*
X415Y2455D01*
X548Y2455D02*
X553Y2455D01*
X673Y2455D02*
X704Y2455D01*
X837Y2455D02*
X842Y2455D01*
X879Y2455D02*
X886Y2455D01*
X1106Y2455D02*
X1137Y2455D01*
X1263Y2455D02*
X1278Y2455D01*
X1324Y2455D02*
X1330Y2455D01*
X1414Y2455D02*
X1419Y2455D01*
X1540Y2455D02*
X1571Y2455D01*
X1709Y2455D02*
X1715Y2455D01*
X1731Y2455D02*
X1763Y2455D01*
X1779Y2455D02*
X1811Y2455D01*
X384Y2454D02*
X415Y2454D01*
X548Y2454D02*
X553Y2454D01*
X673Y2454D02*
X704Y2454D01*
X836Y2454D02*
X842Y2454D01*
X880Y2454D02*
X885Y2454D01*
X1106Y2454D02*
X1137Y2454D01*
X1263Y2454D02*
X1277Y2454D01*
X1324Y2454D02*
X1330Y2454D01*
X1414Y2454D02*
X1420Y2454D01*
X1539Y2454D02*
X1571Y2454D01*
X1709Y2454D02*
X1715Y2454D01*
X1731Y2454D02*
X1763Y2454D01*
X1779Y2454D02*
X1811Y2454D01*
X384Y2453D02*
X395Y2453D01*
X404Y2453D02*
X415Y2453D01*
X548Y2453D02*
X553Y2453D01*
X672Y2453D02*
X679Y2453D01*
X698Y2453D02*
X704Y2453D01*
X836Y2453D02*
X842Y2453D01*
X1105Y2453D02*
X1112Y2453D01*
X1132Y2453D02*
X1137Y2453D01*
X1263Y2453D02*
X1269Y2453D01*
X1324Y2453D02*
X1330Y2453D01*
X1414Y2453D02*
X1420Y2453D01*
X1539Y2453D02*
X1546Y2453D01*
X1565Y2453D02*
X1571Y2453D01*
X1709Y2453D02*
X1715Y2453D01*
X1731Y2453D02*
X1737Y2453D01*
X1744Y2453D02*
X1750Y2453D01*
X1757Y2453D02*
X1763Y2453D01*
X1779Y2453D02*
X1791Y2453D01*
X1800Y2453D02*
X1811Y2453D01*
X384Y2452D02*
X395Y2452D01*
X404Y2452D02*
X415Y2452D01*
X548Y2452D02*
X553Y2452D01*
X672Y2452D02*
X678Y2452D01*
X698Y2452D02*
X704Y2452D01*
X836Y2452D02*
X842Y2452D01*
X1105Y2452D02*
X1111Y2452D01*
X1131Y2452D02*
X1137Y2452D01*
X1263Y2452D02*
X1269Y2452D01*
X1324Y2452D02*
X1330Y2452D01*
X1414Y2452D02*
X1420Y2452D01*
X1538Y2452D02*
X1545Y2452D01*
X1565Y2452D02*
X1571Y2452D01*
X1709Y2452D02*
X1715Y2452D01*
X1731Y2452D02*
X1737Y2452D01*
X1744Y2452D02*
X1750Y2452D01*
X1757Y2452D02*
X1763Y2452D01*
X1780Y2452D02*
X1791Y2452D01*
X1800Y2452D02*
X1810Y2452D01*
X384Y2451D02*
X395Y2451D01*
X404Y2451D02*
X415Y2451D01*
X548Y2451D02*
X553Y2451D01*
X672Y2451D02*
X678Y2451D01*
X698Y2451D02*
X704Y2451D01*
X836Y2451D02*
X842Y2451D01*
X1105Y2451D02*
X1111Y2451D01*
X1131Y2451D02*
X1137Y2451D01*
X1263Y2451D02*
X1269Y2451D01*
X1324Y2451D02*
X1330Y2451D01*
X1414Y2451D02*
X1420Y2451D01*
X1538Y2451D02*
X1544Y2451D01*
X1565Y2451D02*
X1571Y2451D01*
X1709Y2451D02*
X1715Y2451D01*
X1731Y2451D02*
X1736Y2451D01*
X1744Y2451D02*
X1750Y2451D01*
X1757Y2451D02*
X1763Y2451D01*
X1780Y2451D02*
X1790Y2451D01*
X1800Y2451D02*
X1810Y2451D01*
X385Y2450D02*
X395Y2450D01*
X405Y2450D02*
X414Y2450D01*
X548Y2450D02*
X553Y2450D01*
X672Y2450D02*
X678Y2450D01*
X697Y2450D02*
X704Y2450D01*
X836Y2450D02*
X842Y2450D01*
X1105Y2450D02*
X1111Y2450D01*
X1130Y2450D02*
X1137Y2450D01*
X1263Y2450D02*
X1269Y2450D01*
X1324Y2450D02*
X1330Y2450D01*
X1414Y2450D02*
X1420Y2450D01*
X1538Y2450D02*
X1544Y2450D01*
X1565Y2450D02*
X1571Y2450D01*
X1709Y2450D02*
X1715Y2450D01*
X1731Y2450D02*
X1736Y2450D01*
X1744Y2450D02*
X1750Y2450D01*
X1758Y2450D02*
X1763Y2450D01*
X1780Y2450D02*
X1790Y2450D01*
X1800Y2450D02*
X1810Y2450D01*
X385Y2449D02*
X394Y2449D01*
X405Y2449D02*
X414Y2449D01*
X548Y2449D02*
X553Y2449D01*
X673Y2449D02*
X677Y2449D01*
X696Y2449D02*
X703Y2449D01*
X836Y2449D02*
X842Y2449D01*
X1106Y2449D02*
X1110Y2449D01*
X1129Y2449D02*
X1136Y2449D01*
X1263Y2449D02*
X1269Y2449D01*
X1324Y2449D02*
X1330Y2449D01*
X1414Y2449D02*
X1420Y2449D01*
X1538Y2449D02*
X1544Y2449D01*
X1565Y2449D02*
X1571Y2449D01*
X1709Y2449D02*
X1715Y2449D01*
X1732Y2449D02*
X1736Y2449D01*
X1744Y2449D02*
X1750Y2449D01*
X1758Y2449D02*
X1762Y2449D01*
X1780Y2449D02*
X1790Y2449D01*
X1800Y2449D02*
X1810Y2449D01*
X385Y2448D02*
X394Y2448D01*
X405Y2448D02*
X414Y2448D01*
X548Y2448D02*
X553Y2448D01*
X675Y2448D02*
X675Y2448D01*
X695Y2448D02*
X703Y2448D01*
X836Y2448D02*
X842Y2448D01*
X1108Y2448D02*
X1108Y2448D01*
X1128Y2448D02*
X1136Y2448D01*
X1263Y2448D02*
X1269Y2448D01*
X1324Y2448D02*
X1330Y2448D01*
X1414Y2448D02*
X1420Y2448D01*
X1538Y2448D02*
X1544Y2448D01*
X1565Y2448D02*
X1571Y2448D01*
X1709Y2448D02*
X1715Y2448D01*
X1733Y2448D02*
X1734Y2448D01*
X1744Y2448D02*
X1750Y2448D01*
X1760Y2448D02*
X1761Y2448D01*
X1781Y2448D02*
X1790Y2448D01*
X1801Y2448D02*
X1810Y2448D01*
X385Y2447D02*
X394Y2447D01*
X405Y2447D02*
X414Y2447D01*
X548Y2447D02*
X553Y2447D01*
X694Y2447D02*
X702Y2447D01*
X836Y2447D02*
X842Y2447D01*
X1128Y2447D02*
X1135Y2447D01*
X1263Y2447D02*
X1269Y2447D01*
X1324Y2447D02*
X1330Y2447D01*
X1414Y2447D02*
X1420Y2447D01*
X1538Y2447D02*
X1544Y2447D01*
X1565Y2447D02*
X1571Y2447D01*
X1709Y2447D02*
X1715Y2447D01*
X1744Y2447D02*
X1750Y2447D01*
X1781Y2447D02*
X1790Y2447D01*
X1801Y2447D02*
X1809Y2447D01*
X385Y2446D02*
X394Y2446D01*
X405Y2446D02*
X414Y2446D01*
X452Y2446D02*
X453Y2446D01*
X461Y2446D02*
X462Y2446D01*
X491Y2446D02*
X501Y2446D01*
X534Y2446D02*
X557Y2446D01*
X584Y2446D02*
X600Y2446D01*
X627Y2446D02*
X627Y2446D01*
X653Y2446D02*
X653Y2446D01*
X694Y2446D02*
X701Y2446D01*
X771Y2446D02*
X771Y2446D01*
X798Y2446D02*
X798Y2446D01*
X823Y2446D02*
X846Y2446D01*
X881Y2446D02*
X891Y2446D01*
X922Y2446D02*
X929Y2446D01*
X942Y2446D02*
X942Y2446D01*
X964Y2446D02*
X964Y2446D01*
X990Y2446D02*
X990Y2446D01*
X1012Y2446D02*
X1026Y2446D01*
X1068Y2446D02*
X1078Y2446D01*
X1127Y2446D02*
X1134Y2446D01*
X1212Y2446D02*
X1223Y2446D01*
X1263Y2446D02*
X1269Y2446D01*
X1309Y2446D02*
X1315Y2446D01*
X1324Y2446D02*
X1330Y2446D01*
X1356Y2446D02*
X1369Y2446D01*
X1400Y2446D02*
X1423Y2446D01*
X1451Y2446D02*
X1458Y2446D01*
X1471Y2446D02*
X1472Y2446D01*
X1501Y2446D02*
X1511Y2446D01*
X1538Y2446D02*
X1544Y2446D01*
X1565Y2446D02*
X1571Y2446D01*
X1646Y2446D02*
X1656Y2446D01*
X1692Y2446D02*
X1697Y2446D01*
X1709Y2446D02*
X1715Y2446D01*
X1744Y2446D02*
X1750Y2446D01*
X1781Y2446D02*
X1789Y2446D01*
X1801Y2446D02*
X1809Y2446D01*
X386Y2445D02*
X394Y2445D01*
X406Y2445D02*
X413Y2445D01*
X436Y2445D02*
X442Y2445D01*
X449Y2445D02*
X456Y2445D01*
X460Y2445D02*
X463Y2445D01*
X488Y2445D02*
X504Y2445D01*
X532Y2445D02*
X559Y2445D01*
X581Y2445D02*
X603Y2445D01*
X625Y2445D02*
X629Y2445D01*
X651Y2445D02*
X655Y2445D01*
X693Y2445D02*
X701Y2445D01*
X769Y2445D02*
X773Y2445D01*
X796Y2445D02*
X800Y2445D01*
X821Y2445D02*
X848Y2445D01*
X879Y2445D02*
X893Y2445D01*
X918Y2445D02*
X931Y2445D01*
X940Y2445D02*
X944Y2445D01*
X962Y2445D02*
X966Y2445D01*
X988Y2445D02*
X992Y2445D01*
X1010Y2445D02*
X1030Y2445D01*
X1065Y2445D02*
X1081Y2445D01*
X1126Y2445D02*
X1134Y2445D01*
X1209Y2445D02*
X1226Y2445D01*
X1263Y2445D02*
X1269Y2445D01*
X1306Y2445D02*
X1319Y2445D01*
X1324Y2445D02*
X1330Y2445D01*
X1352Y2445D02*
X1371Y2445D01*
X1398Y2445D02*
X1425Y2445D01*
X1448Y2445D02*
X1460Y2445D01*
X1470Y2445D02*
X1473Y2445D01*
X1498Y2445D02*
X1515Y2445D01*
X1538Y2445D02*
X1544Y2445D01*
X1565Y2445D02*
X1571Y2445D01*
X1642Y2445D02*
X1659Y2445D01*
X1689Y2445D02*
X1701Y2445D01*
X1709Y2445D02*
X1715Y2445D01*
X1744Y2445D02*
X1750Y2445D01*
X1781Y2445D02*
X1789Y2445D01*
X1801Y2445D02*
X1809Y2445D01*
X386Y2444D02*
X393Y2444D01*
X406Y2444D02*
X413Y2444D01*
X435Y2444D02*
X444Y2444D01*
X448Y2444D02*
X464Y2444D01*
X486Y2444D02*
X506Y2444D01*
X531Y2444D02*
X560Y2444D01*
X579Y2444D02*
X604Y2444D01*
X624Y2444D02*
X629Y2444D01*
X651Y2444D02*
X656Y2444D01*
X692Y2444D02*
X700Y2444D01*
X769Y2444D02*
X774Y2444D01*
X795Y2444D02*
X800Y2444D01*
X820Y2444D02*
X848Y2444D01*
X878Y2444D02*
X893Y2444D01*
X917Y2444D02*
X932Y2444D01*
X940Y2444D02*
X945Y2444D01*
X961Y2444D02*
X966Y2444D01*
X988Y2444D02*
X993Y2444D01*
X1009Y2444D02*
X1032Y2444D01*
X1063Y2444D02*
X1083Y2444D01*
X1125Y2444D02*
X1133Y2444D01*
X1208Y2444D02*
X1227Y2444D01*
X1263Y2444D02*
X1269Y2444D01*
X1304Y2444D02*
X1320Y2444D01*
X1324Y2444D02*
X1330Y2444D01*
X1351Y2444D02*
X1371Y2444D01*
X1398Y2444D02*
X1426Y2444D01*
X1446Y2444D02*
X1461Y2444D01*
X1469Y2444D02*
X1474Y2444D01*
X1497Y2444D02*
X1516Y2444D01*
X1538Y2444D02*
X1544Y2444D01*
X1565Y2444D02*
X1571Y2444D01*
X1641Y2444D02*
X1660Y2444D01*
X1687Y2444D02*
X1703Y2444D01*
X1709Y2444D02*
X1715Y2444D01*
X1744Y2444D02*
X1750Y2444D01*
X1781Y2444D02*
X1789Y2444D01*
X1801Y2444D02*
X1809Y2444D01*
X386Y2443D02*
X393Y2443D01*
X406Y2443D02*
X413Y2443D01*
X434Y2443D02*
X464Y2443D01*
X485Y2443D02*
X507Y2443D01*
X531Y2443D02*
X560Y2443D01*
X578Y2443D02*
X605Y2443D01*
X624Y2443D02*
X630Y2443D01*
X651Y2443D02*
X656Y2443D01*
X691Y2443D02*
X699Y2443D01*
X768Y2443D02*
X774Y2443D01*
X795Y2443D02*
X801Y2443D01*
X820Y2443D02*
X849Y2443D01*
X878Y2443D02*
X894Y2443D01*
X916Y2443D02*
X933Y2443D01*
X939Y2443D02*
X945Y2443D01*
X961Y2443D02*
X967Y2443D01*
X987Y2443D02*
X993Y2443D01*
X1009Y2443D02*
X1033Y2443D01*
X1062Y2443D02*
X1084Y2443D01*
X1124Y2443D02*
X1132Y2443D01*
X1207Y2443D02*
X1229Y2443D01*
X1263Y2443D02*
X1269Y2443D01*
X1303Y2443D02*
X1322Y2443D01*
X1324Y2443D02*
X1330Y2443D01*
X1350Y2443D02*
X1371Y2443D01*
X1397Y2443D02*
X1426Y2443D01*
X1445Y2443D02*
X1463Y2443D01*
X1469Y2443D02*
X1474Y2443D01*
X1495Y2443D02*
X1517Y2443D01*
X1538Y2443D02*
X1544Y2443D01*
X1565Y2443D02*
X1571Y2443D01*
X1640Y2443D02*
X1662Y2443D01*
X1686Y2443D02*
X1704Y2443D01*
X1709Y2443D02*
X1715Y2443D01*
X1744Y2443D02*
X1750Y2443D01*
X1782Y2443D02*
X1789Y2443D01*
X1802Y2443D02*
X1809Y2443D01*
X386Y2442D02*
X393Y2442D01*
X406Y2442D02*
X413Y2442D01*
X433Y2442D02*
X464Y2442D01*
X484Y2442D02*
X508Y2442D01*
X531Y2442D02*
X560Y2442D01*
X577Y2442D02*
X606Y2442D01*
X624Y2442D02*
X630Y2442D01*
X650Y2442D02*
X656Y2442D01*
X691Y2442D02*
X698Y2442D01*
X768Y2442D02*
X774Y2442D01*
X795Y2442D02*
X801Y2442D01*
X820Y2442D02*
X849Y2442D01*
X878Y2442D02*
X893Y2442D01*
X915Y2442D02*
X934Y2442D01*
X939Y2442D02*
X945Y2442D01*
X961Y2442D02*
X967Y2442D01*
X987Y2442D02*
X993Y2442D01*
X1009Y2442D02*
X1034Y2442D01*
X1061Y2442D02*
X1085Y2442D01*
X1124Y2442D02*
X1131Y2442D01*
X1205Y2442D02*
X1230Y2442D01*
X1263Y2442D02*
X1269Y2442D01*
X1302Y2442D02*
X1330Y2442D01*
X1349Y2442D02*
X1371Y2442D01*
X1397Y2442D02*
X1426Y2442D01*
X1444Y2442D02*
X1464Y2442D01*
X1469Y2442D02*
X1474Y2442D01*
X1494Y2442D02*
X1518Y2442D01*
X1538Y2442D02*
X1544Y2442D01*
X1565Y2442D02*
X1571Y2442D01*
X1639Y2442D02*
X1663Y2442D01*
X1686Y2442D02*
X1706Y2442D01*
X1709Y2442D02*
X1715Y2442D01*
X1744Y2442D02*
X1750Y2442D01*
X1782Y2442D02*
X1789Y2442D01*
X1802Y2442D02*
X1808Y2442D01*
X386Y2441D02*
X393Y2441D01*
X406Y2441D02*
X413Y2441D01*
X433Y2441D02*
X464Y2441D01*
X483Y2441D02*
X509Y2441D01*
X532Y2441D02*
X559Y2441D01*
X577Y2441D02*
X607Y2441D01*
X624Y2441D02*
X630Y2441D01*
X650Y2441D02*
X656Y2441D01*
X690Y2441D02*
X697Y2441D01*
X768Y2441D02*
X774Y2441D01*
X795Y2441D02*
X801Y2441D01*
X820Y2441D02*
X848Y2441D01*
X878Y2441D02*
X893Y2441D01*
X914Y2441D02*
X936Y2441D01*
X939Y2441D02*
X945Y2441D01*
X961Y2441D02*
X967Y2441D01*
X987Y2441D02*
X993Y2441D01*
X1009Y2441D02*
X1035Y2441D01*
X1060Y2441D02*
X1086Y2441D01*
X1123Y2441D02*
X1131Y2441D01*
X1204Y2441D02*
X1231Y2441D01*
X1263Y2441D02*
X1269Y2441D01*
X1301Y2441D02*
X1330Y2441D01*
X1348Y2441D02*
X1371Y2441D01*
X1398Y2441D02*
X1426Y2441D01*
X1443Y2441D02*
X1465Y2441D01*
X1469Y2441D02*
X1474Y2441D01*
X1493Y2441D02*
X1520Y2441D01*
X1538Y2441D02*
X1544Y2441D01*
X1565Y2441D02*
X1571Y2441D01*
X1637Y2441D02*
X1664Y2441D01*
X1685Y2441D02*
X1707Y2441D01*
X1709Y2441D02*
X1715Y2441D01*
X1744Y2441D02*
X1750Y2441D01*
X1782Y2441D02*
X1788Y2441D01*
X1802Y2441D02*
X1808Y2441D01*
X387Y2440D02*
X393Y2440D01*
X406Y2440D02*
X412Y2440D01*
X432Y2440D02*
X464Y2440D01*
X482Y2440D02*
X510Y2440D01*
X533Y2440D02*
X559Y2440D01*
X577Y2440D02*
X607Y2440D01*
X624Y2440D02*
X630Y2440D01*
X650Y2440D02*
X656Y2440D01*
X689Y2440D02*
X697Y2440D01*
X768Y2440D02*
X774Y2440D01*
X795Y2440D02*
X801Y2440D01*
X821Y2440D02*
X847Y2440D01*
X878Y2440D02*
X892Y2440D01*
X914Y2440D02*
X937Y2440D01*
X939Y2440D02*
X945Y2440D01*
X961Y2440D02*
X967Y2440D01*
X987Y2440D02*
X993Y2440D01*
X1010Y2440D02*
X1036Y2440D01*
X1059Y2440D02*
X1087Y2440D01*
X1122Y2440D02*
X1130Y2440D01*
X1203Y2440D02*
X1232Y2440D01*
X1263Y2440D02*
X1269Y2440D01*
X1300Y2440D02*
X1330Y2440D01*
X1347Y2440D02*
X1370Y2440D01*
X1399Y2440D02*
X1425Y2440D01*
X1443Y2440D02*
X1466Y2440D01*
X1469Y2440D02*
X1474Y2440D01*
X1492Y2440D02*
X1520Y2440D01*
X1538Y2440D02*
X1544Y2440D01*
X1565Y2440D02*
X1571Y2440D01*
X1637Y2440D02*
X1665Y2440D01*
X1684Y2440D02*
X1715Y2440D01*
X1744Y2440D02*
X1750Y2440D01*
X1782Y2440D02*
X1788Y2440D01*
X1802Y2440D02*
X1808Y2440D01*
X387Y2439D02*
X392Y2439D01*
X407Y2439D02*
X412Y2439D01*
X432Y2439D02*
X438Y2439D01*
X441Y2439D02*
X451Y2439D01*
X454Y2439D02*
X464Y2439D01*
X481Y2439D02*
X490Y2439D01*
X502Y2439D02*
X510Y2439D01*
X548Y2439D02*
X553Y2439D01*
X577Y2439D02*
X583Y2439D01*
X601Y2439D02*
X607Y2439D01*
X624Y2439D02*
X630Y2439D01*
X650Y2439D02*
X656Y2439D01*
X688Y2439D02*
X696Y2439D01*
X768Y2439D02*
X774Y2439D01*
X795Y2439D02*
X801Y2439D01*
X836Y2439D02*
X842Y2439D01*
X878Y2439D02*
X884Y2439D01*
X913Y2439D02*
X920Y2439D01*
X929Y2439D02*
X945Y2439D01*
X961Y2439D02*
X967Y2439D01*
X987Y2439D02*
X993Y2439D01*
X1028Y2439D02*
X1037Y2439D01*
X1058Y2439D02*
X1067Y2439D01*
X1079Y2439D02*
X1088Y2439D01*
X1121Y2439D02*
X1129Y2439D01*
X1203Y2439D02*
X1212Y2439D01*
X1224Y2439D02*
X1232Y2439D01*
X1263Y2439D02*
X1269Y2439D01*
X1299Y2439D02*
X1308Y2439D01*
X1317Y2439D02*
X1330Y2439D01*
X1347Y2439D02*
X1354Y2439D01*
X1414Y2439D02*
X1420Y2439D01*
X1443Y2439D02*
X1450Y2439D01*
X1458Y2439D02*
X1474Y2439D01*
X1492Y2439D02*
X1500Y2439D01*
X1512Y2439D02*
X1521Y2439D01*
X1538Y2439D02*
X1544Y2439D01*
X1565Y2439D02*
X1571Y2439D01*
X1636Y2439D02*
X1645Y2439D01*
X1657Y2439D02*
X1665Y2439D01*
X1684Y2439D02*
X1691Y2439D01*
X1699Y2439D02*
X1715Y2439D01*
X1744Y2439D02*
X1750Y2439D01*
X1782Y2439D02*
X1788Y2439D01*
X1802Y2439D02*
X1808Y2439D01*
X387Y2438D02*
X392Y2438D01*
X407Y2438D02*
X412Y2438D01*
X432Y2438D02*
X438Y2438D01*
X442Y2438D02*
X451Y2438D01*
X455Y2438D02*
X464Y2438D01*
X480Y2438D02*
X488Y2438D01*
X503Y2438D02*
X511Y2438D01*
X548Y2438D02*
X553Y2438D01*
X577Y2438D02*
X582Y2438D01*
X601Y2438D02*
X607Y2438D01*
X624Y2438D02*
X630Y2438D01*
X650Y2438D02*
X656Y2438D01*
X687Y2438D02*
X695Y2438D01*
X768Y2438D02*
X774Y2438D01*
X795Y2438D02*
X801Y2438D01*
X836Y2438D02*
X842Y2438D01*
X878Y2438D02*
X884Y2438D01*
X913Y2438D02*
X919Y2438D01*
X930Y2438D02*
X945Y2438D01*
X961Y2438D02*
X967Y2438D01*
X987Y2438D02*
X993Y2438D01*
X1029Y2438D02*
X1038Y2438D01*
X1058Y2438D02*
X1065Y2438D01*
X1081Y2438D02*
X1088Y2438D01*
X1121Y2438D02*
X1128Y2438D01*
X1202Y2438D02*
X1210Y2438D01*
X1225Y2438D02*
X1233Y2438D01*
X1263Y2438D02*
X1269Y2438D01*
X1299Y2438D02*
X1306Y2438D01*
X1318Y2438D02*
X1330Y2438D01*
X1347Y2438D02*
X1353Y2438D01*
X1414Y2438D02*
X1420Y2438D01*
X1442Y2438D02*
X1449Y2438D01*
X1459Y2438D02*
X1474Y2438D01*
X1491Y2438D02*
X1499Y2438D01*
X1514Y2438D02*
X1522Y2438D01*
X1538Y2438D02*
X1544Y2438D01*
X1565Y2438D02*
X1571Y2438D01*
X1635Y2438D02*
X1643Y2438D01*
X1658Y2438D02*
X1666Y2438D01*
X1684Y2438D02*
X1690Y2438D01*
X1700Y2438D02*
X1715Y2438D01*
X1744Y2438D02*
X1750Y2438D01*
X1783Y2438D02*
X1788Y2438D01*
X1803Y2438D02*
X1807Y2438D01*
X388Y2437D02*
X391Y2437D01*
X408Y2437D02*
X411Y2437D01*
X432Y2437D02*
X438Y2437D01*
X443Y2437D02*
X451Y2437D01*
X456Y2437D02*
X464Y2437D01*
X480Y2437D02*
X487Y2437D01*
X504Y2437D02*
X511Y2437D01*
X548Y2437D02*
X553Y2437D01*
X578Y2437D02*
X580Y2437D01*
X602Y2437D02*
X607Y2437D01*
X624Y2437D02*
X630Y2437D01*
X650Y2437D02*
X656Y2437D01*
X687Y2437D02*
X694Y2437D01*
X768Y2437D02*
X774Y2437D01*
X795Y2437D02*
X801Y2437D01*
X836Y2437D02*
X842Y2437D01*
X878Y2437D02*
X884Y2437D01*
X913Y2437D02*
X919Y2437D01*
X931Y2437D02*
X945Y2437D01*
X961Y2437D02*
X967Y2437D01*
X987Y2437D02*
X993Y2437D01*
X1030Y2437D02*
X1039Y2437D01*
X1058Y2437D02*
X1064Y2437D01*
X1082Y2437D02*
X1089Y2437D01*
X1120Y2437D02*
X1127Y2437D01*
X1202Y2437D02*
X1209Y2437D01*
X1226Y2437D02*
X1233Y2437D01*
X1263Y2437D02*
X1269Y2437D01*
X1298Y2437D02*
X1305Y2437D01*
X1319Y2437D02*
X1330Y2437D01*
X1347Y2437D02*
X1353Y2437D01*
X1414Y2437D02*
X1420Y2437D01*
X1442Y2437D02*
X1448Y2437D01*
X1460Y2437D02*
X1474Y2437D01*
X1491Y2437D02*
X1497Y2437D01*
X1515Y2437D02*
X1522Y2437D01*
X1538Y2437D02*
X1544Y2437D01*
X1565Y2437D02*
X1571Y2437D01*
X1635Y2437D02*
X1642Y2437D01*
X1659Y2437D02*
X1666Y2437D01*
X1684Y2437D02*
X1690Y2437D01*
X1702Y2437D02*
X1715Y2437D01*
X1744Y2437D02*
X1750Y2437D01*
X1784Y2437D02*
X1786Y2437D01*
X1804Y2437D02*
X1806Y2437D01*
X432Y2436D02*
X438Y2436D01*
X444Y2436D02*
X451Y2436D01*
X457Y2436D02*
X464Y2436D01*
X480Y2436D02*
X486Y2436D01*
X505Y2436D02*
X512Y2436D01*
X548Y2436D02*
X553Y2436D01*
X601Y2436D02*
X607Y2436D01*
X624Y2436D02*
X631Y2436D01*
X650Y2436D02*
X656Y2436D01*
X686Y2436D02*
X694Y2436D01*
X769Y2436D02*
X775Y2436D01*
X794Y2436D02*
X800Y2436D01*
X836Y2436D02*
X842Y2436D01*
X878Y2436D02*
X884Y2436D01*
X913Y2436D02*
X918Y2436D01*
X932Y2436D02*
X945Y2436D01*
X961Y2436D02*
X967Y2436D01*
X987Y2436D02*
X993Y2436D01*
X1032Y2436D02*
X1040Y2436D01*
X1057Y2436D02*
X1064Y2436D01*
X1083Y2436D02*
X1089Y2436D01*
X1119Y2436D02*
X1127Y2436D01*
X1202Y2436D02*
X1208Y2436D01*
X1227Y2436D02*
X1233Y2436D01*
X1263Y2436D02*
X1269Y2436D01*
X1298Y2436D02*
X1304Y2436D01*
X1320Y2436D02*
X1330Y2436D01*
X1347Y2436D02*
X1353Y2436D01*
X1414Y2436D02*
X1420Y2436D01*
X1442Y2436D02*
X1448Y2436D01*
X1461Y2436D02*
X1474Y2436D01*
X1490Y2436D02*
X1497Y2436D01*
X1516Y2436D02*
X1522Y2436D01*
X1539Y2436D02*
X1545Y2436D01*
X1565Y2436D02*
X1571Y2436D01*
X1635Y2436D02*
X1641Y2436D01*
X1660Y2436D02*
X1667Y2436D01*
X1684Y2436D02*
X1689Y2436D01*
X1704Y2436D02*
X1715Y2436D01*
X1744Y2436D02*
X1750Y2436D01*
X432Y2435D02*
X438Y2435D01*
X445Y2435D02*
X451Y2435D01*
X458Y2435D02*
X464Y2435D01*
X480Y2435D02*
X486Y2435D01*
X506Y2435D02*
X512Y2435D01*
X548Y2435D02*
X553Y2435D01*
X599Y2435D02*
X607Y2435D01*
X625Y2435D02*
X631Y2435D01*
X649Y2435D02*
X656Y2435D01*
X685Y2435D02*
X693Y2435D01*
X769Y2435D02*
X775Y2435D01*
X794Y2435D02*
X800Y2435D01*
X836Y2435D02*
X842Y2435D01*
X878Y2435D02*
X884Y2435D01*
X913Y2435D02*
X918Y2435D01*
X933Y2435D02*
X945Y2435D01*
X961Y2435D02*
X967Y2435D01*
X987Y2435D02*
X993Y2435D01*
X1033Y2435D02*
X1040Y2435D01*
X1057Y2435D02*
X1063Y2435D01*
X1083Y2435D02*
X1089Y2435D01*
X1118Y2435D02*
X1126Y2435D01*
X1202Y2435D02*
X1207Y2435D01*
X1228Y2435D02*
X1234Y2435D01*
X1263Y2435D02*
X1269Y2435D01*
X1298Y2435D02*
X1304Y2435D01*
X1321Y2435D02*
X1330Y2435D01*
X1347Y2435D02*
X1352Y2435D01*
X1414Y2435D02*
X1420Y2435D01*
X1442Y2435D02*
X1448Y2435D01*
X1463Y2435D02*
X1474Y2435D01*
X1490Y2435D02*
X1496Y2435D01*
X1517Y2435D02*
X1522Y2435D01*
X1539Y2435D02*
X1546Y2435D01*
X1565Y2435D02*
X1571Y2435D01*
X1635Y2435D02*
X1640Y2435D01*
X1661Y2435D02*
X1667Y2435D01*
X1683Y2435D02*
X1689Y2435D01*
X1705Y2435D02*
X1715Y2435D01*
X1744Y2435D02*
X1750Y2435D01*
X432Y2434D02*
X438Y2434D01*
X445Y2434D02*
X451Y2434D01*
X459Y2434D02*
X464Y2434D01*
X480Y2434D02*
X485Y2434D01*
X506Y2434D02*
X512Y2434D01*
X548Y2434D02*
X553Y2434D01*
X596Y2434D02*
X606Y2434D01*
X625Y2434D02*
X631Y2434D01*
X649Y2434D02*
X655Y2434D01*
X684Y2434D02*
X692Y2434D01*
X769Y2434D02*
X776Y2434D01*
X793Y2434D02*
X800Y2434D01*
X836Y2434D02*
X842Y2434D01*
X878Y2434D02*
X884Y2434D01*
X913Y2434D02*
X918Y2434D01*
X934Y2434D02*
X945Y2434D01*
X961Y2434D02*
X967Y2434D01*
X987Y2434D02*
X993Y2434D01*
X1034Y2434D02*
X1041Y2434D01*
X1057Y2434D02*
X1063Y2434D01*
X1084Y2434D02*
X1089Y2434D01*
X1117Y2434D02*
X1125Y2434D01*
X1201Y2434D02*
X1207Y2434D01*
X1228Y2434D02*
X1234Y2434D01*
X1263Y2434D02*
X1269Y2434D01*
X1298Y2434D02*
X1303Y2434D01*
X1323Y2434D02*
X1330Y2434D01*
X1347Y2434D02*
X1352Y2434D01*
X1414Y2434D02*
X1420Y2434D01*
X1442Y2434D02*
X1448Y2434D01*
X1464Y2434D02*
X1474Y2434D01*
X1490Y2434D02*
X1496Y2434D01*
X1517Y2434D02*
X1522Y2434D01*
X1539Y2434D02*
X1571Y2434D01*
X1635Y2434D02*
X1640Y2434D01*
X1661Y2434D02*
X1667Y2434D01*
X1683Y2434D02*
X1689Y2434D01*
X1707Y2434D02*
X1715Y2434D01*
X1744Y2434D02*
X1750Y2434D01*
X432Y2433D02*
X437Y2433D01*
X445Y2433D02*
X451Y2433D01*
X459Y2433D02*
X464Y2433D01*
X480Y2433D02*
X485Y2433D01*
X506Y2433D02*
X512Y2433D01*
X548Y2433D02*
X553Y2433D01*
X594Y2433D02*
X606Y2433D01*
X625Y2433D02*
X632Y2433D01*
X648Y2433D02*
X655Y2433D01*
X684Y2433D02*
X691Y2433D01*
X770Y2433D02*
X776Y2433D01*
X793Y2433D02*
X799Y2433D01*
X836Y2433D02*
X842Y2433D01*
X878Y2433D02*
X884Y2433D01*
X913Y2433D02*
X918Y2433D01*
X936Y2433D02*
X945Y2433D01*
X961Y2433D02*
X967Y2433D01*
X987Y2433D02*
X993Y2433D01*
X1035Y2433D02*
X1041Y2433D01*
X1057Y2433D02*
X1063Y2433D01*
X1084Y2433D02*
X1089Y2433D01*
X1117Y2433D02*
X1124Y2433D01*
X1201Y2433D02*
X1207Y2433D01*
X1228Y2433D02*
X1234Y2433D01*
X1263Y2433D02*
X1269Y2433D01*
X1298Y2433D02*
X1303Y2433D01*
X1324Y2433D02*
X1330Y2433D01*
X1347Y2433D02*
X1352Y2433D01*
X1414Y2433D02*
X1420Y2433D01*
X1442Y2433D02*
X1448Y2433D01*
X1465Y2433D02*
X1474Y2433D01*
X1490Y2433D02*
X1496Y2433D01*
X1517Y2433D02*
X1522Y2433D01*
X1540Y2433D02*
X1571Y2433D01*
X1635Y2433D02*
X1640Y2433D01*
X1661Y2433D02*
X1667Y2433D01*
X1683Y2433D02*
X1689Y2433D01*
X1708Y2433D02*
X1715Y2433D01*
X1744Y2433D02*
X1750Y2433D01*
X432Y2432D02*
X437Y2432D01*
X445Y2432D02*
X451Y2432D01*
X459Y2432D02*
X464Y2432D01*
X480Y2432D02*
X485Y2432D01*
X506Y2432D02*
X512Y2432D01*
X548Y2432D02*
X553Y2432D01*
X592Y2432D02*
X605Y2432D01*
X626Y2432D02*
X632Y2432D01*
X648Y2432D02*
X654Y2432D01*
X683Y2432D02*
X690Y2432D01*
X770Y2432D02*
X777Y2432D01*
X792Y2432D02*
X799Y2432D01*
X836Y2432D02*
X842Y2432D01*
X878Y2432D02*
X884Y2432D01*
X914Y2432D02*
X918Y2432D01*
X937Y2432D02*
X945Y2432D01*
X961Y2432D02*
X967Y2432D01*
X987Y2432D02*
X993Y2432D01*
X1035Y2432D02*
X1041Y2432D01*
X1057Y2432D02*
X1063Y2432D01*
X1084Y2432D02*
X1089Y2432D01*
X1116Y2432D02*
X1124Y2432D01*
X1201Y2432D02*
X1207Y2432D01*
X1228Y2432D02*
X1234Y2432D01*
X1263Y2432D02*
X1269Y2432D01*
X1298Y2432D02*
X1303Y2432D01*
X1324Y2432D02*
X1330Y2432D01*
X1347Y2432D02*
X1352Y2432D01*
X1414Y2432D02*
X1420Y2432D01*
X1443Y2432D02*
X1447Y2432D01*
X1466Y2432D02*
X1474Y2432D01*
X1490Y2432D02*
X1496Y2432D01*
X1517Y2432D02*
X1522Y2432D01*
X1540Y2432D02*
X1571Y2432D01*
X1635Y2432D02*
X1640Y2432D01*
X1661Y2432D02*
X1667Y2432D01*
X1683Y2432D02*
X1689Y2432D01*
X1709Y2432D02*
X1715Y2432D01*
X1744Y2432D02*
X1750Y2432D01*
X432Y2431D02*
X437Y2431D01*
X445Y2431D02*
X451Y2431D01*
X459Y2431D02*
X464Y2431D01*
X480Y2431D02*
X485Y2431D01*
X506Y2431D02*
X512Y2431D01*
X548Y2431D02*
X553Y2431D01*
X589Y2431D02*
X604Y2431D01*
X626Y2431D02*
X633Y2431D01*
X648Y2431D02*
X654Y2431D01*
X682Y2431D02*
X690Y2431D01*
X771Y2431D02*
X777Y2431D01*
X792Y2431D02*
X798Y2431D01*
X836Y2431D02*
X842Y2431D01*
X878Y2431D02*
X884Y2431D01*
X915Y2431D02*
X916Y2431D01*
X938Y2431D02*
X945Y2431D01*
X961Y2431D02*
X967Y2431D01*
X987Y2431D02*
X993Y2431D01*
X1035Y2431D02*
X1041Y2431D01*
X1057Y2431D02*
X1063Y2431D01*
X1084Y2431D02*
X1089Y2431D01*
X1115Y2431D02*
X1123Y2431D01*
X1201Y2431D02*
X1207Y2431D01*
X1228Y2431D02*
X1234Y2431D01*
X1263Y2431D02*
X1269Y2431D01*
X1298Y2431D02*
X1303Y2431D01*
X1324Y2431D02*
X1330Y2431D01*
X1346Y2431D02*
X1372Y2431D01*
X1414Y2431D02*
X1420Y2431D01*
X1445Y2431D02*
X1445Y2431D01*
X1467Y2431D02*
X1474Y2431D01*
X1490Y2431D02*
X1496Y2431D01*
X1517Y2431D02*
X1522Y2431D01*
X1541Y2431D02*
X1571Y2431D01*
X1635Y2431D02*
X1640Y2431D01*
X1661Y2431D02*
X1667Y2431D01*
X1683Y2431D02*
X1689Y2431D01*
X1709Y2431D02*
X1715Y2431D01*
X1744Y2431D02*
X1750Y2431D01*
X432Y2430D02*
X437Y2430D01*
X445Y2430D02*
X451Y2430D01*
X459Y2430D02*
X464Y2430D01*
X480Y2430D02*
X485Y2430D01*
X506Y2430D02*
X512Y2430D01*
X548Y2430D02*
X553Y2430D01*
X587Y2430D02*
X603Y2430D01*
X627Y2430D02*
X633Y2430D01*
X647Y2430D02*
X653Y2430D01*
X681Y2430D02*
X689Y2430D01*
X771Y2430D02*
X778Y2430D01*
X791Y2430D02*
X798Y2430D01*
X836Y2430D02*
X842Y2430D01*
X878Y2430D02*
X884Y2430D01*
X939Y2430D02*
X945Y2430D01*
X961Y2430D02*
X967Y2430D01*
X987Y2430D02*
X993Y2430D01*
X1035Y2430D02*
X1041Y2430D01*
X1057Y2430D02*
X1063Y2430D01*
X1084Y2430D02*
X1089Y2430D01*
X1114Y2430D02*
X1122Y2430D01*
X1201Y2430D02*
X1207Y2430D01*
X1228Y2430D02*
X1234Y2430D01*
X1263Y2430D02*
X1269Y2430D01*
X1298Y2430D02*
X1303Y2430D01*
X1324Y2430D02*
X1330Y2430D01*
X1346Y2430D02*
X1374Y2430D01*
X1414Y2430D02*
X1420Y2430D01*
X1468Y2430D02*
X1474Y2430D01*
X1490Y2430D02*
X1496Y2430D01*
X1517Y2430D02*
X1522Y2430D01*
X1543Y2430D02*
X1571Y2430D01*
X1635Y2430D02*
X1640Y2430D01*
X1661Y2430D02*
X1667Y2430D01*
X1683Y2430D02*
X1689Y2430D01*
X1709Y2430D02*
X1715Y2430D01*
X1744Y2430D02*
X1750Y2430D01*
X432Y2429D02*
X437Y2429D01*
X445Y2429D02*
X451Y2429D01*
X459Y2429D02*
X464Y2429D01*
X480Y2429D02*
X512Y2429D01*
X548Y2429D02*
X553Y2429D01*
X585Y2429D02*
X601Y2429D01*
X627Y2429D02*
X634Y2429D01*
X647Y2429D02*
X653Y2429D01*
X680Y2429D02*
X688Y2429D01*
X772Y2429D02*
X778Y2429D01*
X791Y2429D02*
X797Y2429D01*
X836Y2429D02*
X842Y2429D01*
X878Y2429D02*
X884Y2429D01*
X939Y2429D02*
X945Y2429D01*
X961Y2429D02*
X967Y2429D01*
X987Y2429D02*
X993Y2429D01*
X1035Y2429D02*
X1041Y2429D01*
X1057Y2429D02*
X1089Y2429D01*
X1114Y2429D02*
X1121Y2429D01*
X1201Y2429D02*
X1234Y2429D01*
X1263Y2429D02*
X1269Y2429D01*
X1298Y2429D02*
X1303Y2429D01*
X1324Y2429D02*
X1330Y2429D01*
X1346Y2429D02*
X1375Y2429D01*
X1414Y2429D02*
X1420Y2429D01*
X1469Y2429D02*
X1474Y2429D01*
X1490Y2429D02*
X1496Y2429D01*
X1517Y2429D02*
X1522Y2429D01*
X1544Y2429D02*
X1571Y2429D01*
X1635Y2429D02*
X1667Y2429D01*
X1683Y2429D02*
X1689Y2429D01*
X1709Y2429D02*
X1715Y2429D01*
X1744Y2429D02*
X1750Y2429D01*
X432Y2428D02*
X437Y2428D01*
X445Y2428D02*
X451Y2428D01*
X459Y2428D02*
X464Y2428D01*
X480Y2428D02*
X512Y2428D01*
X548Y2428D02*
X553Y2428D01*
X582Y2428D02*
X598Y2428D01*
X628Y2428D02*
X634Y2428D01*
X646Y2428D02*
X653Y2428D01*
X680Y2428D02*
X687Y2428D01*
X772Y2428D02*
X778Y2428D01*
X791Y2428D02*
X797Y2428D01*
X836Y2428D02*
X842Y2428D01*
X878Y2428D02*
X884Y2428D01*
X939Y2428D02*
X945Y2428D01*
X961Y2428D02*
X967Y2428D01*
X987Y2428D02*
X993Y2428D01*
X1035Y2428D02*
X1041Y2428D01*
X1057Y2428D02*
X1089Y2428D01*
X1113Y2428D02*
X1120Y2428D01*
X1201Y2428D02*
X1234Y2428D01*
X1263Y2428D02*
X1269Y2428D01*
X1298Y2428D02*
X1303Y2428D01*
X1324Y2428D02*
X1330Y2428D01*
X1346Y2428D02*
X1376Y2428D01*
X1414Y2428D02*
X1420Y2428D01*
X1469Y2428D02*
X1474Y2428D01*
X1490Y2428D02*
X1496Y2428D01*
X1517Y2428D02*
X1522Y2428D01*
X1549Y2428D02*
X1571Y2428D01*
X1635Y2428D02*
X1667Y2428D01*
X1683Y2428D02*
X1689Y2428D01*
X1709Y2428D02*
X1715Y2428D01*
X1744Y2428D02*
X1750Y2428D01*
X432Y2427D02*
X437Y2427D01*
X445Y2427D02*
X451Y2427D01*
X459Y2427D02*
X464Y2427D01*
X480Y2427D02*
X512Y2427D01*
X548Y2427D02*
X553Y2427D01*
X581Y2427D02*
X596Y2427D01*
X628Y2427D02*
X634Y2427D01*
X646Y2427D02*
X652Y2427D01*
X679Y2427D02*
X687Y2427D01*
X772Y2427D02*
X779Y2427D01*
X790Y2427D02*
X797Y2427D01*
X836Y2427D02*
X842Y2427D01*
X878Y2427D02*
X884Y2427D01*
X939Y2427D02*
X945Y2427D01*
X961Y2427D02*
X967Y2427D01*
X987Y2427D02*
X993Y2427D01*
X1035Y2427D02*
X1041Y2427D01*
X1057Y2427D02*
X1089Y2427D01*
X1112Y2427D02*
X1120Y2427D01*
X1201Y2427D02*
X1234Y2427D01*
X1263Y2427D02*
X1269Y2427D01*
X1298Y2427D02*
X1303Y2427D01*
X1324Y2427D02*
X1330Y2427D01*
X1346Y2427D02*
X1377Y2427D01*
X1414Y2427D02*
X1420Y2427D01*
X1469Y2427D02*
X1474Y2427D01*
X1490Y2427D02*
X1496Y2427D01*
X1517Y2427D02*
X1522Y2427D01*
X1565Y2427D02*
X1571Y2427D01*
X1635Y2427D02*
X1667Y2427D01*
X1683Y2427D02*
X1689Y2427D01*
X1709Y2427D02*
X1715Y2427D01*
X1744Y2427D02*
X1750Y2427D01*
X432Y2426D02*
X437Y2426D01*
X445Y2426D02*
X451Y2426D01*
X459Y2426D02*
X464Y2426D01*
X480Y2426D02*
X512Y2426D01*
X548Y2426D02*
X553Y2426D01*
X579Y2426D02*
X594Y2426D01*
X629Y2426D02*
X635Y2426D01*
X645Y2426D02*
X652Y2426D01*
X678Y2426D02*
X686Y2426D01*
X773Y2426D02*
X779Y2426D01*
X790Y2426D02*
X796Y2426D01*
X836Y2426D02*
X842Y2426D01*
X878Y2426D02*
X884Y2426D01*
X939Y2426D02*
X945Y2426D01*
X961Y2426D02*
X967Y2426D01*
X987Y2426D02*
X993Y2426D01*
X1035Y2426D02*
X1041Y2426D01*
X1057Y2426D02*
X1089Y2426D01*
X1111Y2426D02*
X1119Y2426D01*
X1201Y2426D02*
X1234Y2426D01*
X1263Y2426D02*
X1269Y2426D01*
X1298Y2426D02*
X1303Y2426D01*
X1324Y2426D02*
X1330Y2426D01*
X1346Y2426D02*
X1377Y2426D01*
X1414Y2426D02*
X1420Y2426D01*
X1469Y2426D02*
X1474Y2426D01*
X1490Y2426D02*
X1496Y2426D01*
X1517Y2426D02*
X1522Y2426D01*
X1565Y2426D02*
X1571Y2426D01*
X1635Y2426D02*
X1667Y2426D01*
X1683Y2426D02*
X1689Y2426D01*
X1709Y2426D02*
X1715Y2426D01*
X1744Y2426D02*
X1750Y2426D01*
X431Y2425D02*
X437Y2425D01*
X445Y2425D02*
X451Y2425D01*
X459Y2425D02*
X464Y2425D01*
X480Y2425D02*
X512Y2425D01*
X548Y2425D02*
X553Y2425D01*
X578Y2425D02*
X591Y2425D01*
X629Y2425D02*
X635Y2425D01*
X645Y2425D02*
X651Y2425D01*
X677Y2425D02*
X685Y2425D01*
X773Y2425D02*
X780Y2425D01*
X789Y2425D02*
X796Y2425D01*
X836Y2425D02*
X842Y2425D01*
X878Y2425D02*
X884Y2425D01*
X939Y2425D02*
X945Y2425D01*
X961Y2425D02*
X967Y2425D01*
X987Y2425D02*
X993Y2425D01*
X1035Y2425D02*
X1041Y2425D01*
X1057Y2425D02*
X1089Y2425D01*
X1110Y2425D02*
X1118Y2425D01*
X1202Y2425D02*
X1234Y2425D01*
X1263Y2425D02*
X1269Y2425D01*
X1298Y2425D02*
X1303Y2425D01*
X1324Y2425D02*
X1330Y2425D01*
X1346Y2425D02*
X1354Y2425D01*
X1370Y2425D02*
X1378Y2425D01*
X1414Y2425D02*
X1420Y2425D01*
X1469Y2425D02*
X1474Y2425D01*
X1490Y2425D02*
X1496Y2425D01*
X1517Y2425D02*
X1522Y2425D01*
X1565Y2425D02*
X1571Y2425D01*
X1635Y2425D02*
X1667Y2425D01*
X1683Y2425D02*
X1689Y2425D01*
X1709Y2425D02*
X1715Y2425D01*
X1744Y2425D02*
X1750Y2425D01*
X431Y2424D02*
X437Y2424D01*
X445Y2424D02*
X451Y2424D01*
X459Y2424D02*
X464Y2424D01*
X480Y2424D02*
X512Y2424D01*
X548Y2424D02*
X553Y2424D01*
X578Y2424D02*
X589Y2424D01*
X629Y2424D02*
X636Y2424D01*
X644Y2424D02*
X651Y2424D01*
X677Y2424D02*
X684Y2424D01*
X774Y2424D02*
X780Y2424D01*
X789Y2424D02*
X795Y2424D01*
X836Y2424D02*
X842Y2424D01*
X878Y2424D02*
X884Y2424D01*
X939Y2424D02*
X945Y2424D01*
X961Y2424D02*
X967Y2424D01*
X987Y2424D02*
X992Y2424D01*
X1035Y2424D02*
X1041Y2424D01*
X1058Y2424D02*
X1089Y2424D01*
X1110Y2424D02*
X1117Y2424D01*
X1202Y2424D02*
X1234Y2424D01*
X1263Y2424D02*
X1269Y2424D01*
X1298Y2424D02*
X1303Y2424D01*
X1324Y2424D02*
X1330Y2424D01*
X1346Y2424D02*
X1353Y2424D01*
X1371Y2424D02*
X1378Y2424D01*
X1414Y2424D02*
X1420Y2424D01*
X1469Y2424D02*
X1474Y2424D01*
X1490Y2424D02*
X1496Y2424D01*
X1517Y2424D02*
X1522Y2424D01*
X1565Y2424D02*
X1571Y2424D01*
X1635Y2424D02*
X1667Y2424D01*
X1683Y2424D02*
X1689Y2424D01*
X1709Y2424D02*
X1715Y2424D01*
X1744Y2424D02*
X1750Y2424D01*
X431Y2423D02*
X437Y2423D01*
X445Y2423D02*
X451Y2423D01*
X459Y2423D02*
X464Y2423D01*
X481Y2423D02*
X512Y2423D01*
X548Y2423D02*
X553Y2423D01*
X577Y2423D02*
X587Y2423D01*
X630Y2423D02*
X636Y2423D01*
X644Y2423D02*
X650Y2423D01*
X676Y2423D02*
X683Y2423D01*
X774Y2423D02*
X781Y2423D01*
X788Y2423D02*
X795Y2423D01*
X836Y2423D02*
X842Y2423D01*
X878Y2423D02*
X884Y2423D01*
X939Y2423D02*
X945Y2423D01*
X961Y2423D02*
X967Y2423D01*
X987Y2423D02*
X992Y2423D01*
X1035Y2423D02*
X1041Y2423D01*
X1059Y2423D02*
X1089Y2423D01*
X1109Y2423D02*
X1117Y2423D01*
X1203Y2423D02*
X1234Y2423D01*
X1263Y2423D02*
X1269Y2423D01*
X1298Y2423D02*
X1303Y2423D01*
X1324Y2423D02*
X1330Y2423D01*
X1346Y2423D02*
X1352Y2423D01*
X1372Y2423D02*
X1378Y2423D01*
X1414Y2423D02*
X1420Y2423D01*
X1469Y2423D02*
X1474Y2423D01*
X1490Y2423D02*
X1496Y2423D01*
X1517Y2423D02*
X1522Y2423D01*
X1565Y2423D02*
X1571Y2423D01*
X1636Y2423D02*
X1667Y2423D01*
X1683Y2423D02*
X1689Y2423D01*
X1709Y2423D02*
X1715Y2423D01*
X1744Y2423D02*
X1750Y2423D01*
X431Y2422D02*
X437Y2422D01*
X445Y2422D02*
X451Y2422D01*
X459Y2422D02*
X464Y2422D01*
X506Y2422D02*
X512Y2422D01*
X548Y2422D02*
X553Y2422D01*
X577Y2422D02*
X585Y2422D01*
X630Y2422D02*
X637Y2422D01*
X644Y2422D02*
X650Y2422D01*
X675Y2422D02*
X683Y2422D01*
X775Y2422D02*
X781Y2422D01*
X788Y2422D02*
X794Y2422D01*
X836Y2422D02*
X842Y2422D01*
X878Y2422D02*
X884Y2422D01*
X939Y2422D02*
X945Y2422D01*
X961Y2422D02*
X967Y2422D01*
X987Y2422D02*
X992Y2422D01*
X1035Y2422D02*
X1041Y2422D01*
X1083Y2422D02*
X1089Y2422D01*
X1108Y2422D02*
X1116Y2422D01*
X1228Y2422D02*
X1234Y2422D01*
X1263Y2422D02*
X1269Y2422D01*
X1298Y2422D02*
X1303Y2422D01*
X1324Y2422D02*
X1330Y2422D01*
X1346Y2422D02*
X1352Y2422D01*
X1372Y2422D02*
X1378Y2422D01*
X1414Y2422D02*
X1420Y2422D01*
X1469Y2422D02*
X1474Y2422D01*
X1490Y2422D02*
X1496Y2422D01*
X1517Y2422D02*
X1522Y2422D01*
X1565Y2422D02*
X1571Y2422D01*
X1661Y2422D02*
X1667Y2422D01*
X1683Y2422D02*
X1689Y2422D01*
X1709Y2422D02*
X1715Y2422D01*
X1744Y2422D02*
X1750Y2422D01*
X431Y2421D02*
X437Y2421D01*
X445Y2421D02*
X451Y2421D01*
X459Y2421D02*
X464Y2421D01*
X506Y2421D02*
X512Y2421D01*
X548Y2421D02*
X553Y2421D01*
X576Y2421D02*
X583Y2421D01*
X631Y2421D02*
X637Y2421D01*
X643Y2421D02*
X650Y2421D01*
X674Y2421D02*
X682Y2421D01*
X775Y2421D02*
X782Y2421D01*
X788Y2421D02*
X794Y2421D01*
X836Y2421D02*
X842Y2421D01*
X878Y2421D02*
X884Y2421D01*
X939Y2421D02*
X945Y2421D01*
X961Y2421D02*
X968Y2421D01*
X987Y2421D02*
X992Y2421D01*
X1035Y2421D02*
X1041Y2421D01*
X1084Y2421D02*
X1089Y2421D01*
X1107Y2421D02*
X1115Y2421D01*
X1228Y2421D02*
X1234Y2421D01*
X1263Y2421D02*
X1269Y2421D01*
X1298Y2421D02*
X1303Y2421D01*
X1323Y2421D02*
X1330Y2421D01*
X1346Y2421D02*
X1352Y2421D01*
X1372Y2421D02*
X1378Y2421D01*
X1414Y2421D02*
X1420Y2421D01*
X1469Y2421D02*
X1474Y2421D01*
X1490Y2421D02*
X1496Y2421D01*
X1517Y2421D02*
X1522Y2421D01*
X1565Y2421D02*
X1571Y2421D01*
X1661Y2421D02*
X1667Y2421D01*
X1683Y2421D02*
X1689Y2421D01*
X1709Y2421D02*
X1715Y2421D01*
X1744Y2421D02*
X1750Y2421D01*
X431Y2420D02*
X437Y2420D01*
X445Y2420D02*
X451Y2420D01*
X459Y2420D02*
X464Y2420D01*
X506Y2420D02*
X512Y2420D01*
X529Y2420D02*
X532Y2420D01*
X548Y2420D02*
X553Y2420D01*
X576Y2420D02*
X582Y2420D01*
X631Y2420D02*
X638Y2420D01*
X643Y2420D02*
X649Y2420D01*
X673Y2420D02*
X681Y2420D01*
X700Y2420D02*
X703Y2420D01*
X776Y2420D02*
X782Y2420D01*
X787Y2420D02*
X793Y2420D01*
X818Y2420D02*
X821Y2420D01*
X836Y2420D02*
X842Y2420D01*
X878Y2420D02*
X884Y2420D01*
X939Y2420D02*
X945Y2420D01*
X961Y2420D02*
X969Y2420D01*
X987Y2420D02*
X992Y2420D01*
X1034Y2420D02*
X1041Y2420D01*
X1084Y2420D02*
X1089Y2420D01*
X1107Y2420D02*
X1114Y2420D01*
X1133Y2420D02*
X1136Y2420D01*
X1228Y2420D02*
X1234Y2420D01*
X1263Y2420D02*
X1269Y2420D01*
X1298Y2420D02*
X1303Y2420D01*
X1322Y2420D02*
X1330Y2420D01*
X1346Y2420D02*
X1352Y2420D01*
X1372Y2420D02*
X1378Y2420D01*
X1396Y2420D02*
X1398Y2420D01*
X1414Y2420D02*
X1420Y2420D01*
X1469Y2420D02*
X1474Y2420D01*
X1490Y2420D02*
X1496Y2420D01*
X1517Y2420D02*
X1522Y2420D01*
X1565Y2420D02*
X1571Y2420D01*
X1661Y2420D02*
X1667Y2420D01*
X1683Y2420D02*
X1689Y2420D01*
X1709Y2420D02*
X1715Y2420D01*
X1744Y2420D02*
X1750Y2420D01*
X431Y2419D02*
X437Y2419D01*
X445Y2419D02*
X451Y2419D01*
X459Y2419D02*
X464Y2419D01*
X506Y2419D02*
X512Y2419D01*
X528Y2419D02*
X533Y2419D01*
X548Y2419D02*
X553Y2419D01*
X576Y2419D02*
X582Y2419D01*
X632Y2419D02*
X638Y2419D01*
X642Y2419D02*
X649Y2419D01*
X673Y2419D02*
X680Y2419D01*
X699Y2419D02*
X704Y2419D01*
X776Y2419D02*
X782Y2419D01*
X787Y2419D02*
X793Y2419D01*
X817Y2419D02*
X822Y2419D01*
X836Y2419D02*
X842Y2419D01*
X878Y2419D02*
X884Y2419D01*
X939Y2419D02*
X945Y2419D01*
X961Y2419D02*
X971Y2419D01*
X987Y2419D02*
X992Y2419D01*
X1032Y2419D02*
X1040Y2419D01*
X1083Y2419D02*
X1089Y2419D01*
X1106Y2419D02*
X1113Y2419D01*
X1132Y2419D02*
X1137Y2419D01*
X1228Y2419D02*
X1234Y2419D01*
X1263Y2419D02*
X1269Y2419D01*
X1298Y2419D02*
X1304Y2419D01*
X1321Y2419D02*
X1330Y2419D01*
X1346Y2419D02*
X1352Y2419D01*
X1372Y2419D02*
X1378Y2419D01*
X1395Y2419D02*
X1399Y2419D01*
X1414Y2419D02*
X1420Y2419D01*
X1469Y2419D02*
X1474Y2419D01*
X1490Y2419D02*
X1496Y2419D01*
X1516Y2419D02*
X1522Y2419D01*
X1565Y2419D02*
X1571Y2419D01*
X1661Y2419D02*
X1667Y2419D01*
X1683Y2419D02*
X1689Y2419D01*
X1709Y2419D02*
X1715Y2419D01*
X1744Y2419D02*
X1750Y2419D01*
X431Y2418D02*
X437Y2418D01*
X445Y2418D02*
X451Y2418D01*
X459Y2418D02*
X464Y2418D01*
X505Y2418D02*
X512Y2418D01*
X528Y2418D02*
X533Y2418D01*
X548Y2418D02*
X553Y2418D01*
X576Y2418D02*
X582Y2418D01*
X632Y2418D02*
X639Y2418D01*
X642Y2418D02*
X648Y2418D01*
X672Y2418D02*
X680Y2418D01*
X699Y2418D02*
X704Y2418D01*
X776Y2418D02*
X783Y2418D01*
X786Y2418D02*
X793Y2418D01*
X817Y2418D02*
X822Y2418D01*
X836Y2418D02*
X842Y2418D01*
X878Y2418D02*
X884Y2418D01*
X939Y2418D02*
X945Y2418D01*
X961Y2418D02*
X973Y2418D01*
X987Y2418D02*
X992Y2418D01*
X1031Y2418D02*
X1040Y2418D01*
X1083Y2418D02*
X1089Y2418D01*
X1106Y2418D02*
X1113Y2418D01*
X1132Y2418D02*
X1137Y2418D01*
X1227Y2418D02*
X1233Y2418D01*
X1263Y2418D02*
X1269Y2418D01*
X1298Y2418D02*
X1304Y2418D01*
X1320Y2418D02*
X1330Y2418D01*
X1346Y2418D02*
X1354Y2418D01*
X1372Y2418D02*
X1378Y2418D01*
X1394Y2418D02*
X1400Y2418D01*
X1414Y2418D02*
X1420Y2418D01*
X1469Y2418D02*
X1474Y2418D01*
X1490Y2418D02*
X1497Y2418D01*
X1516Y2418D02*
X1522Y2418D01*
X1565Y2418D02*
X1571Y2418D01*
X1660Y2418D02*
X1667Y2418D01*
X1683Y2418D02*
X1689Y2418D01*
X1709Y2418D02*
X1715Y2418D01*
X1744Y2418D02*
X1750Y2418D01*
X431Y2417D02*
X437Y2417D01*
X445Y2417D02*
X451Y2417D01*
X459Y2417D02*
X464Y2417D01*
X504Y2417D02*
X511Y2417D01*
X528Y2417D02*
X534Y2417D01*
X547Y2417D02*
X553Y2417D01*
X576Y2417D02*
X582Y2417D01*
X604Y2417D02*
X607Y2417D01*
X632Y2417D02*
X648Y2417D01*
X672Y2417D02*
X679Y2417D01*
X699Y2417D02*
X704Y2417D01*
X777Y2417D02*
X792Y2417D01*
X816Y2417D02*
X822Y2417D01*
X836Y2417D02*
X842Y2417D01*
X878Y2417D02*
X884Y2417D01*
X939Y2417D02*
X945Y2417D01*
X961Y2417D02*
X974Y2417D01*
X986Y2417D02*
X992Y2417D01*
X1030Y2417D02*
X1039Y2417D01*
X1082Y2417D02*
X1089Y2417D01*
X1105Y2417D02*
X1112Y2417D01*
X1132Y2417D02*
X1137Y2417D01*
X1226Y2417D02*
X1233Y2417D01*
X1263Y2417D02*
X1269Y2417D01*
X1298Y2417D02*
X1305Y2417D01*
X1319Y2417D02*
X1330Y2417D01*
X1346Y2417D02*
X1356Y2417D01*
X1372Y2417D02*
X1378Y2417D01*
X1394Y2417D02*
X1400Y2417D01*
X1414Y2417D02*
X1419Y2417D01*
X1469Y2417D02*
X1474Y2417D01*
X1491Y2417D02*
X1498Y2417D01*
X1515Y2417D02*
X1522Y2417D01*
X1565Y2417D02*
X1571Y2417D01*
X1659Y2417D02*
X1666Y2417D01*
X1683Y2417D02*
X1689Y2417D01*
X1709Y2417D02*
X1715Y2417D01*
X1744Y2417D02*
X1750Y2417D01*
X431Y2416D02*
X437Y2416D01*
X445Y2416D02*
X451Y2416D01*
X459Y2416D02*
X464Y2416D01*
X503Y2416D02*
X511Y2416D01*
X528Y2416D02*
X534Y2416D01*
X547Y2416D02*
X553Y2416D01*
X576Y2416D02*
X583Y2416D01*
X602Y2416D02*
X608Y2416D01*
X633Y2416D02*
X647Y2416D01*
X672Y2416D02*
X678Y2416D01*
X698Y2416D02*
X704Y2416D01*
X777Y2416D02*
X792Y2416D01*
X817Y2416D02*
X823Y2416D01*
X835Y2416D02*
X842Y2416D01*
X878Y2416D02*
X884Y2416D01*
X939Y2416D02*
X945Y2416D01*
X961Y2416D02*
X976Y2416D01*
X986Y2416D02*
X992Y2416D01*
X1029Y2416D02*
X1038Y2416D01*
X1080Y2416D02*
X1088Y2416D01*
X1105Y2416D02*
X1111Y2416D01*
X1131Y2416D02*
X1137Y2416D01*
X1225Y2416D02*
X1233Y2416D01*
X1263Y2416D02*
X1269Y2416D01*
X1299Y2416D02*
X1307Y2416D01*
X1318Y2416D02*
X1330Y2416D01*
X1346Y2416D02*
X1357Y2416D01*
X1371Y2416D02*
X1378Y2416D01*
X1394Y2416D02*
X1401Y2416D01*
X1413Y2416D02*
X1419Y2416D01*
X1469Y2416D02*
X1474Y2416D01*
X1491Y2416D02*
X1499Y2416D01*
X1514Y2416D02*
X1522Y2416D01*
X1565Y2416D02*
X1571Y2416D01*
X1658Y2416D02*
X1666Y2416D01*
X1683Y2416D02*
X1689Y2416D01*
X1709Y2416D02*
X1715Y2416D01*
X1744Y2416D02*
X1750Y2416D01*
X431Y2415D02*
X437Y2415D01*
X445Y2415D02*
X451Y2415D01*
X459Y2415D02*
X464Y2415D01*
X501Y2415D02*
X510Y2415D01*
X528Y2415D02*
X536Y2415D01*
X545Y2415D02*
X553Y2415D01*
X576Y2415D02*
X585Y2415D01*
X600Y2415D02*
X608Y2415D01*
X633Y2415D02*
X647Y2415D01*
X672Y2415D02*
X678Y2415D01*
X697Y2415D02*
X704Y2415D01*
X778Y2415D02*
X791Y2415D01*
X817Y2415D02*
X825Y2415D01*
X834Y2415D02*
X842Y2415D01*
X878Y2415D02*
X884Y2415D01*
X939Y2415D02*
X945Y2415D01*
X961Y2415D02*
X977Y2415D01*
X984Y2415D02*
X992Y2415D01*
X1027Y2415D02*
X1037Y2415D01*
X1078Y2415D02*
X1088Y2415D01*
X1105Y2415D02*
X1112Y2415D01*
X1130Y2415D02*
X1137Y2415D01*
X1223Y2415D02*
X1232Y2415D01*
X1263Y2415D02*
X1269Y2415D01*
X1299Y2415D02*
X1309Y2415D01*
X1316Y2415D02*
X1330Y2415D01*
X1346Y2415D02*
X1359Y2415D01*
X1370Y2415D02*
X1378Y2415D01*
X1394Y2415D02*
X1402Y2415D01*
X1411Y2415D02*
X1419Y2415D01*
X1469Y2415D02*
X1474Y2415D01*
X1492Y2415D02*
X1501Y2415D01*
X1512Y2415D02*
X1521Y2415D01*
X1565Y2415D02*
X1571Y2415D01*
X1656Y2415D02*
X1665Y2415D01*
X1683Y2415D02*
X1689Y2415D01*
X1709Y2415D02*
X1715Y2415D01*
X1744Y2415D02*
X1750Y2415D01*
X431Y2414D02*
X437Y2414D01*
X445Y2414D02*
X451Y2414D01*
X459Y2414D02*
X464Y2414D01*
X481Y2414D02*
X510Y2414D01*
X529Y2414D02*
X552Y2414D01*
X577Y2414D02*
X608Y2414D01*
X634Y2414D02*
X646Y2414D01*
X672Y2414D02*
X704Y2414D01*
X778Y2414D02*
X791Y2414D01*
X817Y2414D02*
X841Y2414D01*
X869Y2414D02*
X892Y2414D01*
X939Y2414D02*
X945Y2414D01*
X961Y2414D02*
X991Y2414D01*
X1010Y2414D02*
X1036Y2414D01*
X1058Y2414D02*
X1087Y2414D01*
X1105Y2414D02*
X1137Y2414D01*
X1203Y2414D02*
X1232Y2414D01*
X1254Y2414D02*
X1277Y2414D01*
X1300Y2414D02*
X1330Y2414D01*
X1346Y2414D02*
X1377Y2414D01*
X1395Y2414D02*
X1419Y2414D01*
X1469Y2414D02*
X1474Y2414D01*
X1493Y2414D02*
X1520Y2414D01*
X1565Y2414D02*
X1571Y2414D01*
X1636Y2414D02*
X1665Y2414D01*
X1683Y2414D02*
X1689Y2414D01*
X1709Y2414D02*
X1715Y2414D01*
X1744Y2414D02*
X1750Y2414D01*
X431Y2413D02*
X437Y2413D01*
X445Y2413D02*
X451Y2413D01*
X459Y2413D02*
X464Y2413D01*
X480Y2413D02*
X509Y2413D01*
X529Y2413D02*
X552Y2413D01*
X577Y2413D02*
X608Y2413D01*
X634Y2413D02*
X646Y2413D01*
X673Y2413D02*
X703Y2413D01*
X779Y2413D02*
X790Y2413D01*
X818Y2413D02*
X841Y2413D01*
X868Y2413D02*
X893Y2413D01*
X939Y2413D02*
X945Y2413D01*
X961Y2413D02*
X967Y2413D01*
X969Y2413D02*
X991Y2413D01*
X1009Y2413D02*
X1035Y2413D01*
X1057Y2413D02*
X1086Y2413D01*
X1106Y2413D02*
X1136Y2413D01*
X1202Y2413D02*
X1231Y2413D01*
X1253Y2413D02*
X1278Y2413D01*
X1301Y2413D02*
X1330Y2413D01*
X1346Y2413D02*
X1377Y2413D01*
X1395Y2413D02*
X1418Y2413D01*
X1469Y2413D02*
X1474Y2413D01*
X1493Y2413D02*
X1519Y2413D01*
X1565Y2413D02*
X1571Y2413D01*
X1635Y2413D02*
X1664Y2413D01*
X1683Y2413D02*
X1688Y2413D01*
X1709Y2413D02*
X1715Y2413D01*
X1744Y2413D02*
X1750Y2413D01*
X431Y2412D02*
X437Y2412D01*
X445Y2412D02*
X450Y2412D01*
X459Y2412D02*
X464Y2412D01*
X480Y2412D02*
X508Y2412D01*
X530Y2412D02*
X551Y2412D01*
X578Y2412D02*
X607Y2412D01*
X635Y2412D02*
X645Y2412D01*
X673Y2412D02*
X703Y2412D01*
X779Y2412D02*
X790Y2412D01*
X819Y2412D02*
X840Y2412D01*
X868Y2412D02*
X893Y2412D01*
X939Y2412D02*
X945Y2412D01*
X961Y2412D02*
X967Y2412D01*
X971Y2412D02*
X990Y2412D01*
X1009Y2412D02*
X1034Y2412D01*
X1057Y2412D02*
X1085Y2412D01*
X1106Y2412D02*
X1136Y2412D01*
X1202Y2412D02*
X1230Y2412D01*
X1253Y2412D02*
X1278Y2412D01*
X1302Y2412D02*
X1330Y2412D01*
X1346Y2412D02*
X1376Y2412D01*
X1396Y2412D02*
X1417Y2412D01*
X1469Y2412D02*
X1474Y2412D01*
X1494Y2412D02*
X1518Y2412D01*
X1565Y2412D02*
X1571Y2412D01*
X1635Y2412D02*
X1663Y2412D01*
X1683Y2412D02*
X1688Y2412D01*
X1709Y2412D02*
X1715Y2412D01*
X1744Y2412D02*
X1750Y2412D01*
X431Y2411D02*
X437Y2411D01*
X445Y2411D02*
X450Y2411D01*
X459Y2411D02*
X464Y2411D01*
X480Y2411D02*
X507Y2411D01*
X531Y2411D02*
X550Y2411D01*
X579Y2411D02*
X606Y2411D01*
X635Y2411D02*
X643Y2411D01*
X674Y2411D02*
X702Y2411D01*
X779Y2411D02*
X788Y2411D01*
X820Y2411D02*
X839Y2411D01*
X868Y2411D02*
X893Y2411D01*
X939Y2411D02*
X945Y2411D01*
X961Y2411D02*
X966Y2411D01*
X972Y2411D02*
X989Y2411D01*
X1009Y2411D02*
X1033Y2411D01*
X1057Y2411D02*
X1084Y2411D01*
X1107Y2411D02*
X1135Y2411D01*
X1202Y2411D02*
X1228Y2411D01*
X1253Y2411D02*
X1278Y2411D01*
X1303Y2411D02*
X1321Y2411D01*
X1324Y2411D02*
X1330Y2411D01*
X1346Y2411D02*
X1375Y2411D01*
X1397Y2411D02*
X1416Y2411D01*
X1469Y2411D02*
X1474Y2411D01*
X1496Y2411D02*
X1517Y2411D01*
X1565Y2411D02*
X1570Y2411D01*
X1635Y2411D02*
X1662Y2411D01*
X1683Y2411D02*
X1688Y2411D01*
X1709Y2411D02*
X1715Y2411D01*
X1744Y2411D02*
X1750Y2411D01*
X431Y2410D02*
X436Y2410D01*
X445Y2410D02*
X450Y2410D01*
X459Y2410D02*
X464Y2410D01*
X480Y2410D02*
X505Y2410D01*
X532Y2410D02*
X549Y2410D01*
X580Y2410D02*
X604Y2410D01*
X636Y2410D02*
X642Y2410D01*
X675Y2410D02*
X701Y2410D01*
X780Y2410D02*
X786Y2410D01*
X821Y2410D02*
X838Y2410D01*
X868Y2410D02*
X893Y2410D01*
X940Y2410D02*
X945Y2410D01*
X961Y2410D02*
X966Y2410D01*
X974Y2410D02*
X988Y2410D01*
X1009Y2410D02*
X1031Y2410D01*
X1057Y2410D02*
X1083Y2410D01*
X1108Y2410D02*
X1134Y2410D01*
X1202Y2410D02*
X1227Y2410D01*
X1253Y2410D02*
X1278Y2410D01*
X1304Y2410D02*
X1320Y2410D01*
X1325Y2410D02*
X1330Y2410D01*
X1346Y2410D02*
X1351Y2410D01*
X1355Y2410D02*
X1374Y2410D01*
X1398Y2410D02*
X1415Y2410D01*
X1469Y2410D02*
X1474Y2410D01*
X1497Y2410D02*
X1516Y2410D01*
X1565Y2410D02*
X1570Y2410D01*
X1635Y2410D02*
X1660Y2410D01*
X1683Y2410D02*
X1688Y2410D01*
X1710Y2410D02*
X1715Y2410D01*
X1745Y2410D02*
X1749Y2410D01*
X432Y2409D02*
X435Y2409D01*
X446Y2409D02*
X449Y2409D01*
X460Y2409D02*
X463Y2409D01*
X481Y2409D02*
X503Y2409D01*
X534Y2409D02*
X547Y2409D01*
X582Y2409D02*
X602Y2409D01*
X636Y2409D02*
X642Y2409D01*
X676Y2409D02*
X699Y2409D01*
X780Y2409D02*
X787Y2409D01*
X823Y2409D02*
X836Y2409D01*
X869Y2409D02*
X892Y2409D01*
X940Y2409D02*
X944Y2409D01*
X962Y2409D02*
X965Y2409D01*
X976Y2409D02*
X986Y2409D01*
X1010Y2409D02*
X1030Y2409D01*
X1058Y2409D02*
X1081Y2409D01*
X1109Y2409D02*
X1132Y2409D01*
X1203Y2409D02*
X1225Y2409D01*
X1254Y2409D02*
X1277Y2409D01*
X1306Y2409D02*
X1318Y2409D01*
X1325Y2409D02*
X1329Y2409D01*
X1347Y2409D02*
X1350Y2409D01*
X1357Y2409D02*
X1372Y2409D01*
X1400Y2409D02*
X1414Y2409D01*
X1470Y2409D02*
X1473Y2409D01*
X1499Y2409D02*
X1514Y2409D01*
X1566Y2409D02*
X1569Y2409D01*
X1636Y2409D02*
X1658Y2409D01*
X1684Y2409D02*
X1687Y2409D01*
X1710Y2409D02*
X1714Y2409D01*
X1745Y2409D02*
X1749Y2409D01*
X636Y2408D02*
X643Y2408D01*
X781Y2408D02*
X787Y2408D01*
X637Y2407D02*
X643Y2407D01*
X781Y2407D02*
X788Y2407D01*
X637Y2406D02*
X644Y2406D01*
X782Y2406D02*
X788Y2406D01*
X638Y2405D02*
X644Y2405D01*
X782Y2405D02*
X789Y2405D01*
X638Y2404D02*
X645Y2404D01*
X783Y2404D02*
X789Y2404D01*
X639Y2403D02*
X645Y2403D01*
X783Y2403D02*
X789Y2403D01*
X639Y2402D02*
X645Y2402D01*
X783Y2402D02*
X790Y2402D01*
X639Y2401D02*
X646Y2401D01*
X784Y2401D02*
X790Y2401D01*
X640Y2400D02*
X655Y2400D01*
X784Y2400D02*
X799Y2400D01*
X640Y2399D02*
X656Y2399D01*
X785Y2399D02*
X800Y2399D01*
X641Y2398D02*
X656Y2398D01*
X785Y2398D02*
X800Y2398D01*
X641Y2397D02*
X656Y2397D01*
X786Y2397D02*
X801Y2397D01*
X642Y2396D02*
X656Y2396D01*
X786Y2396D02*
X800Y2396D01*
X642Y2395D02*
X655Y2395D01*
X787Y2395D02*
X800Y2395D01*
X645Y2394D02*
X653Y2394D01*
X789Y2394D02*
X797Y2394D01*
X598Y209D02*
X639Y209D01*
X793Y209D02*
X835Y209D01*
X872Y209D02*
X899Y209D01*
X983Y209D02*
X1030Y209D01*
X592Y208D02*
X640Y208D01*
X788Y208D02*
X835Y208D01*
X869Y208D02*
X904Y208D01*
X978Y208D02*
X1031Y208D01*
X590Y207D02*
X640Y207D01*
X785Y207D02*
X835Y207D01*
X868Y207D02*
X907Y207D01*
X976Y207D02*
X1031Y207D01*
X588Y206D02*
X640Y206D01*
X783Y206D02*
X835Y206D01*
X868Y206D02*
X908Y206D01*
X974Y206D02*
X1031Y206D01*
X586Y205D02*
X640Y205D01*
X782Y205D02*
X835Y205D01*
X867Y205D02*
X910Y205D01*
X972Y205D02*
X1031Y205D01*
X585Y204D02*
X640Y204D01*
X780Y204D02*
X835Y204D01*
X866Y204D02*
X911Y204D01*
X971Y204D02*
X1031Y204D01*
X325Y203D02*
X328Y203D01*
X422Y203D02*
X426Y203D01*
X583Y203D02*
X640Y203D01*
X779Y203D02*
X835Y203D01*
X866Y203D02*
X912Y203D01*
X970Y203D02*
X1031Y203D01*
X323Y202D02*
X330Y202D01*
X421Y202D02*
X428Y202D01*
X582Y202D02*
X640Y202D01*
X778Y202D02*
X835Y202D01*
X866Y202D02*
X913Y202D01*
X969Y202D02*
X1031Y202D01*
X322Y201D02*
X331Y201D01*
X420Y201D02*
X429Y201D01*
X581Y201D02*
X640Y201D01*
X777Y201D02*
X835Y201D01*
X866Y201D02*
X914Y201D01*
X968Y201D02*
X1031Y201D01*
X321Y200D02*
X332Y200D01*
X419Y200D02*
X430Y200D01*
X580Y200D02*
X640Y200D01*
X776Y200D02*
X835Y200D01*
X867Y200D02*
X915Y200D01*
X968Y200D02*
X1031Y200D01*
X321Y199D02*
X332Y199D01*
X418Y199D02*
X430Y199D01*
X579Y199D02*
X640Y199D01*
X775Y199D02*
X835Y199D01*
X867Y199D02*
X915Y199D01*
X967Y199D02*
X1031Y199D01*
X320Y198D02*
X333Y198D01*
X418Y198D02*
X430Y198D01*
X579Y198D02*
X640Y198D01*
X774Y198D02*
X835Y198D01*
X868Y198D02*
X916Y198D01*
X966Y198D02*
X1031Y198D01*
X320Y197D02*
X333Y197D01*
X418Y197D02*
X430Y197D01*
X578Y197D02*
X640Y197D01*
X773Y197D02*
X835Y197D01*
X869Y197D02*
X916Y197D01*
X966Y197D02*
X1031Y197D01*
X320Y196D02*
X333Y196D01*
X418Y196D02*
X431Y196D01*
X577Y196D02*
X640Y196D01*
X773Y196D02*
X835Y196D01*
X870Y196D02*
X917Y196D01*
X965Y196D02*
X1031Y196D01*
X320Y195D02*
X333Y195D01*
X418Y195D02*
X431Y195D01*
X576Y195D02*
X596Y195D01*
X627Y195D02*
X640Y195D01*
X772Y195D02*
X792Y195D01*
X822Y195D02*
X835Y195D01*
X901Y195D02*
X917Y195D01*
X965Y195D02*
X981Y195D01*
X1018Y195D02*
X1031Y195D01*
X320Y194D02*
X333Y194D01*
X418Y194D02*
X431Y194D01*
X576Y194D02*
X593Y194D01*
X627Y194D02*
X640Y194D01*
X771Y194D02*
X789Y194D01*
X822Y194D02*
X835Y194D01*
X903Y194D02*
X918Y194D01*
X965Y194D02*
X980Y194D01*
X1018Y194D02*
X1031Y194D01*
X320Y193D02*
X333Y193D01*
X418Y193D02*
X431Y193D01*
X575Y193D02*
X592Y193D01*
X627Y193D02*
X640Y193D01*
X771Y193D02*
X787Y193D01*
X822Y193D02*
X835Y193D01*
X903Y193D02*
X918Y193D01*
X964Y193D02*
X979Y193D01*
X1018Y193D02*
X1031Y193D01*
X320Y192D02*
X333Y192D01*
X418Y192D02*
X431Y192D01*
X575Y192D02*
X591Y192D01*
X627Y192D02*
X640Y192D01*
X770Y192D02*
X786Y192D01*
X822Y192D02*
X835Y192D01*
X904Y192D02*
X919Y192D01*
X964Y192D02*
X978Y192D01*
X1018Y192D02*
X1031Y192D01*
X320Y191D02*
X333Y191D01*
X418Y191D02*
X431Y191D01*
X575Y191D02*
X589Y191D01*
X627Y191D02*
X640Y191D01*
X770Y191D02*
X785Y191D01*
X822Y191D02*
X835Y191D01*
X905Y191D02*
X919Y191D01*
X964Y191D02*
X977Y191D01*
X1018Y191D02*
X1031Y191D01*
X320Y190D02*
X333Y190D01*
X418Y190D02*
X431Y190D01*
X574Y190D02*
X589Y190D01*
X627Y190D02*
X640Y190D01*
X770Y190D02*
X784Y190D01*
X822Y190D02*
X835Y190D01*
X905Y190D02*
X920Y190D01*
X964Y190D02*
X977Y190D01*
X1018Y190D02*
X1031Y190D01*
X320Y189D02*
X333Y189D01*
X418Y189D02*
X431Y189D01*
X574Y189D02*
X588Y189D01*
X627Y189D02*
X640Y189D01*
X769Y189D02*
X783Y189D01*
X822Y189D02*
X835Y189D01*
X906Y189D02*
X920Y189D01*
X964Y189D02*
X977Y189D01*
X1018Y189D02*
X1031Y189D01*
X320Y188D02*
X333Y188D01*
X418Y188D02*
X431Y188D01*
X574Y188D02*
X587Y188D01*
X627Y188D02*
X640Y188D01*
X769Y188D02*
X783Y188D01*
X822Y188D02*
X835Y188D01*
X906Y188D02*
X921Y188D01*
X964Y188D02*
X977Y188D01*
X1018Y188D02*
X1031Y188D01*
X320Y187D02*
X333Y187D01*
X418Y187D02*
X431Y187D01*
X573Y187D02*
X587Y187D01*
X627Y187D02*
X640Y187D01*
X769Y187D02*
X782Y187D01*
X822Y187D02*
X835Y187D01*
X907Y187D02*
X921Y187D01*
X964Y187D02*
X977Y187D01*
X1018Y187D02*
X1031Y187D01*
X320Y186D02*
X333Y186D01*
X418Y186D02*
X431Y186D01*
X573Y186D02*
X586Y186D01*
X627Y186D02*
X640Y186D01*
X769Y186D02*
X782Y186D01*
X822Y186D02*
X835Y186D01*
X907Y186D02*
X922Y186D01*
X964Y186D02*
X977Y186D01*
X1018Y186D02*
X1031Y186D01*
X320Y185D02*
X333Y185D01*
X418Y185D02*
X431Y185D01*
X573Y185D02*
X586Y185D01*
X627Y185D02*
X640Y185D01*
X769Y185D02*
X782Y185D01*
X822Y185D02*
X835Y185D01*
X908Y185D02*
X922Y185D01*
X964Y185D02*
X977Y185D01*
X1018Y185D02*
X1031Y185D01*
X320Y184D02*
X333Y184D01*
X418Y184D02*
X431Y184D01*
X573Y184D02*
X586Y184D01*
X627Y184D02*
X640Y184D01*
X769Y184D02*
X781Y184D01*
X822Y184D02*
X835Y184D01*
X908Y184D02*
X923Y184D01*
X964Y184D02*
X977Y184D01*
X1018Y184D02*
X1031Y184D01*
X320Y183D02*
X333Y183D01*
X418Y183D02*
X431Y183D01*
X573Y183D02*
X586Y183D01*
X627Y183D02*
X640Y183D01*
X769Y183D02*
X781Y183D01*
X822Y183D02*
X835Y183D01*
X909Y183D02*
X923Y183D01*
X964Y183D02*
X977Y183D01*
X1018Y183D02*
X1031Y183D01*
X320Y182D02*
X333Y182D01*
X418Y182D02*
X431Y182D01*
X573Y182D02*
X586Y182D01*
X627Y182D02*
X640Y182D01*
X768Y182D02*
X781Y182D01*
X822Y182D02*
X835Y182D01*
X909Y182D02*
X924Y182D01*
X964Y182D02*
X977Y182D01*
X1018Y182D02*
X1031Y182D01*
X320Y181D02*
X333Y181D01*
X418Y181D02*
X431Y181D01*
X573Y181D02*
X586Y181D01*
X627Y181D02*
X640Y181D01*
X768Y181D02*
X781Y181D01*
X822Y181D02*
X835Y181D01*
X910Y181D02*
X924Y181D01*
X964Y181D02*
X977Y181D01*
X1018Y181D02*
X1031Y181D01*
X124Y180D02*
X130Y180D01*
X144Y180D02*
X147Y180D01*
X203Y180D02*
X227Y180D01*
X291Y180D02*
X341Y180D01*
X389Y180D02*
X439Y180D01*
X496Y180D02*
X520Y180D01*
X573Y180D02*
X586Y180D01*
X627Y180D02*
X640Y180D01*
X768Y180D02*
X781Y180D01*
X822Y180D02*
X835Y180D01*
X910Y180D02*
X925Y180D01*
X964Y180D02*
X977Y180D01*
X1018Y180D02*
X1031Y180D01*
X96Y179D02*
X106Y179D01*
X121Y179D02*
X133Y179D01*
X142Y179D02*
X149Y179D01*
X200Y179D02*
X230Y179D01*
X289Y179D02*
X343Y179D01*
X387Y179D02*
X441Y179D01*
X493Y179D02*
X524Y179D01*
X573Y179D02*
X586Y179D01*
X627Y179D02*
X640Y179D01*
X768Y179D02*
X781Y179D01*
X822Y179D02*
X835Y179D01*
X911Y179D02*
X925Y179D01*
X964Y179D02*
X977Y179D01*
X1018Y179D02*
X1031Y179D01*
X94Y178D02*
X108Y178D01*
X119Y178D02*
X135Y178D01*
X141Y178D02*
X150Y178D01*
X198Y178D02*
X233Y178D01*
X288Y178D02*
X344Y178D01*
X386Y178D02*
X442Y178D01*
X491Y178D02*
X526Y178D01*
X573Y178D02*
X586Y178D01*
X627Y178D02*
X640Y178D01*
X768Y178D02*
X781Y178D01*
X822Y178D02*
X835Y178D01*
X911Y178D02*
X926Y178D01*
X964Y178D02*
X977Y178D01*
X1018Y178D02*
X1031Y178D01*
X92Y177D02*
X109Y177D01*
X118Y177D02*
X136Y177D01*
X140Y177D02*
X151Y177D01*
X196Y177D02*
X234Y177D01*
X287Y177D02*
X345Y177D01*
X385Y177D02*
X443Y177D01*
X490Y177D02*
X528Y177D01*
X573Y177D02*
X586Y177D01*
X627Y177D02*
X640Y177D01*
X768Y177D02*
X781Y177D01*
X822Y177D02*
X835Y177D01*
X912Y177D02*
X926Y177D01*
X964Y177D02*
X977Y177D01*
X1018Y177D02*
X1031Y177D01*
X91Y176D02*
X111Y176D01*
X117Y176D02*
X138Y176D01*
X140Y176D02*
X151Y176D01*
X195Y176D02*
X236Y176D01*
X287Y176D02*
X346Y176D01*
X385Y176D02*
X443Y176D01*
X488Y176D02*
X529Y176D01*
X573Y176D02*
X586Y176D01*
X627Y176D02*
X640Y176D01*
X768Y176D02*
X781Y176D01*
X822Y176D02*
X835Y176D01*
X912Y176D02*
X927Y176D01*
X964Y176D02*
X977Y176D01*
X1018Y176D02*
X1031Y176D01*
X90Y175D02*
X112Y175D01*
X116Y175D02*
X152Y175D01*
X193Y175D02*
X237Y175D01*
X287Y175D02*
X346Y175D01*
X384Y175D02*
X444Y175D01*
X487Y175D02*
X530Y175D01*
X573Y175D02*
X586Y175D01*
X627Y175D02*
X640Y175D01*
X769Y175D02*
X781Y175D01*
X822Y175D02*
X835Y175D01*
X913Y175D02*
X927Y175D01*
X964Y175D02*
X977Y175D01*
X1018Y175D02*
X1031Y175D01*
X89Y174D02*
X152Y174D01*
X192Y174D02*
X238Y174D01*
X287Y174D02*
X346Y174D01*
X384Y174D02*
X444Y174D01*
X486Y174D02*
X531Y174D01*
X573Y174D02*
X586Y174D01*
X627Y174D02*
X640Y174D01*
X769Y174D02*
X781Y174D01*
X822Y174D02*
X835Y174D01*
X913Y174D02*
X928Y174D01*
X964Y174D02*
X977Y174D01*
X1018Y174D02*
X1031Y174D01*
X88Y173D02*
X152Y173D01*
X191Y173D02*
X239Y173D01*
X287Y173D02*
X346Y173D01*
X384Y173D02*
X444Y173D01*
X484Y173D02*
X532Y173D01*
X573Y173D02*
X586Y173D01*
X627Y173D02*
X640Y173D01*
X769Y173D02*
X782Y173D01*
X822Y173D02*
X835Y173D01*
X914Y173D02*
X928Y173D01*
X964Y173D02*
X977Y173D01*
X1018Y173D02*
X1031Y173D01*
X87Y172D02*
X152Y172D01*
X190Y172D02*
X240Y172D01*
X287Y172D02*
X346Y172D01*
X384Y172D02*
X444Y172D01*
X483Y172D02*
X534Y172D01*
X573Y172D02*
X586Y172D01*
X627Y172D02*
X640Y172D01*
X769Y172D02*
X782Y172D01*
X822Y172D02*
X835Y172D01*
X914Y172D02*
X929Y172D01*
X964Y172D02*
X977Y172D01*
X1018Y172D02*
X1031Y172D01*
X87Y171D02*
X152Y171D01*
X189Y171D02*
X241Y171D01*
X287Y171D02*
X346Y171D01*
X385Y171D02*
X444Y171D01*
X482Y171D02*
X535Y171D01*
X573Y171D02*
X587Y171D01*
X627Y171D02*
X640Y171D01*
X769Y171D02*
X783Y171D01*
X822Y171D02*
X835Y171D01*
X915Y171D02*
X929Y171D01*
X964Y171D02*
X977Y171D01*
X1018Y171D02*
X1031Y171D01*
X86Y170D02*
X152Y170D01*
X188Y170D02*
X243Y170D01*
X287Y170D02*
X345Y170D01*
X385Y170D02*
X443Y170D01*
X481Y170D02*
X536Y170D01*
X574Y170D02*
X587Y170D01*
X627Y170D02*
X640Y170D01*
X769Y170D02*
X783Y170D01*
X822Y170D02*
X835Y170D01*
X915Y170D02*
X930Y170D01*
X964Y170D02*
X977Y170D01*
X1018Y170D02*
X1031Y170D01*
X86Y169D02*
X152Y169D01*
X187Y169D02*
X243Y169D01*
X288Y169D02*
X345Y169D01*
X386Y169D02*
X442Y169D01*
X480Y169D02*
X537Y169D01*
X574Y169D02*
X588Y169D01*
X627Y169D02*
X640Y169D01*
X770Y169D02*
X784Y169D01*
X822Y169D02*
X835Y169D01*
X916Y169D02*
X930Y169D01*
X964Y169D02*
X977Y169D01*
X1018Y169D02*
X1031Y169D01*
X86Y168D02*
X152Y168D01*
X186Y168D02*
X244Y168D01*
X289Y168D02*
X344Y168D01*
X387Y168D02*
X441Y168D01*
X479Y168D02*
X538Y168D01*
X574Y168D02*
X589Y168D01*
X627Y168D02*
X640Y168D01*
X770Y168D02*
X785Y168D01*
X822Y168D02*
X835Y168D01*
X916Y168D02*
X930Y168D01*
X964Y168D02*
X977Y168D01*
X1018Y168D02*
X1031Y168D01*
X85Y167D02*
X152Y167D01*
X185Y167D02*
X245Y167D01*
X291Y167D02*
X342Y167D01*
X389Y167D02*
X439Y167D01*
X479Y167D02*
X538Y167D01*
X575Y167D02*
X590Y167D01*
X627Y167D02*
X640Y167D01*
X770Y167D02*
X785Y167D01*
X822Y167D02*
X835Y167D01*
X917Y167D02*
X931Y167D01*
X964Y167D02*
X977Y167D01*
X1018Y167D02*
X1031Y167D01*
X85Y166D02*
X98Y166D01*
X102Y166D02*
X125Y166D01*
X130Y166D02*
X152Y166D01*
X185Y166D02*
X203Y166D01*
X227Y166D02*
X245Y166D01*
X320Y166D02*
X333Y166D01*
X418Y166D02*
X431Y166D01*
X478Y166D02*
X497Y166D01*
X520Y166D02*
X539Y166D01*
X575Y166D02*
X591Y166D01*
X627Y166D02*
X640Y166D01*
X771Y166D02*
X787Y166D01*
X822Y166D02*
X835Y166D01*
X917Y166D02*
X931Y166D01*
X964Y166D02*
X977Y166D01*
X1018Y166D02*
X1031Y166D01*
X85Y165D02*
X98Y165D01*
X104Y165D02*
X124Y165D01*
X131Y165D02*
X152Y165D01*
X184Y165D02*
X201Y165D01*
X229Y165D02*
X246Y165D01*
X320Y165D02*
X333Y165D01*
X418Y165D02*
X431Y165D01*
X477Y165D02*
X495Y165D01*
X522Y165D02*
X539Y165D01*
X576Y165D02*
X593Y165D01*
X627Y165D02*
X640Y165D01*
X771Y165D02*
X788Y165D01*
X822Y165D02*
X835Y165D01*
X918Y165D02*
X932Y165D01*
X964Y165D02*
X977Y165D01*
X1018Y165D02*
X1031Y165D01*
X85Y164D02*
X98Y164D01*
X105Y164D02*
X124Y164D01*
X132Y164D02*
X152Y164D01*
X183Y164D02*
X200Y164D01*
X230Y164D02*
X246Y164D01*
X320Y164D02*
X333Y164D01*
X418Y164D02*
X431Y164D01*
X477Y164D02*
X493Y164D01*
X523Y164D02*
X540Y164D01*
X576Y164D02*
X594Y164D01*
X627Y164D02*
X640Y164D01*
X772Y164D02*
X790Y164D01*
X822Y164D02*
X835Y164D01*
X918Y164D02*
X932Y164D01*
X964Y164D02*
X977Y164D01*
X1018Y164D02*
X1031Y164D01*
X85Y163D02*
X98Y163D01*
X106Y163D02*
X124Y163D01*
X133Y163D02*
X152Y163D01*
X183Y163D02*
X199Y163D01*
X231Y163D02*
X247Y163D01*
X320Y163D02*
X333Y163D01*
X418Y163D02*
X431Y163D01*
X476Y163D02*
X492Y163D01*
X524Y163D02*
X540Y163D01*
X577Y163D02*
X640Y163D01*
X772Y163D02*
X835Y163D01*
X919Y163D02*
X932Y163D01*
X964Y163D02*
X977Y163D01*
X1018Y163D02*
X1031Y163D01*
X85Y162D02*
X98Y162D01*
X107Y162D02*
X124Y162D01*
X134Y162D02*
X152Y162D01*
X183Y162D02*
X198Y162D01*
X232Y162D02*
X247Y162D01*
X320Y162D02*
X333Y162D01*
X418Y162D02*
X431Y162D01*
X476Y162D02*
X491Y162D01*
X525Y162D02*
X541Y162D01*
X577Y162D02*
X640Y162D01*
X773Y162D02*
X835Y162D01*
X919Y162D02*
X932Y162D01*
X964Y162D02*
X977Y162D01*
X1018Y162D02*
X1031Y162D01*
X85Y161D02*
X98Y161D01*
X108Y161D02*
X124Y161D01*
X135Y161D02*
X152Y161D01*
X182Y161D02*
X197Y161D01*
X233Y161D02*
X248Y161D01*
X320Y161D02*
X333Y161D01*
X418Y161D02*
X431Y161D01*
X476Y161D02*
X490Y161D01*
X526Y161D02*
X541Y161D01*
X578Y161D02*
X640Y161D01*
X774Y161D02*
X835Y161D01*
X919Y161D02*
X932Y161D01*
X964Y161D02*
X978Y161D01*
X1018Y161D02*
X1031Y161D01*
X85Y160D02*
X98Y160D01*
X110Y160D02*
X124Y160D01*
X136Y160D02*
X152Y160D01*
X182Y160D02*
X196Y160D01*
X234Y160D02*
X248Y160D01*
X320Y160D02*
X333Y160D01*
X418Y160D02*
X431Y160D01*
X476Y160D02*
X489Y160D01*
X527Y160D02*
X541Y160D01*
X579Y160D02*
X640Y160D01*
X774Y160D02*
X835Y160D01*
X920Y160D02*
X933Y160D01*
X964Y160D02*
X978Y160D01*
X1018Y160D02*
X1031Y160D01*
X85Y159D02*
X97Y159D01*
X111Y159D02*
X124Y159D01*
X138Y159D02*
X152Y159D01*
X182Y159D02*
X195Y159D01*
X235Y159D02*
X248Y159D01*
X320Y159D02*
X333Y159D01*
X418Y159D02*
X431Y159D01*
X475Y159D02*
X489Y159D01*
X528Y159D02*
X541Y159D01*
X580Y159D02*
X640Y159D01*
X775Y159D02*
X835Y159D01*
X920Y159D02*
X933Y159D01*
X965Y159D02*
X979Y159D01*
X1018Y159D02*
X1031Y159D01*
X85Y158D02*
X97Y158D01*
X111Y158D02*
X124Y158D01*
X139Y158D02*
X152Y158D01*
X182Y158D02*
X195Y158D01*
X235Y158D02*
X248Y158D01*
X320Y158D02*
X333Y158D01*
X418Y158D02*
X431Y158D01*
X475Y158D02*
X488Y158D01*
X529Y158D02*
X542Y158D01*
X581Y158D02*
X640Y158D01*
X776Y158D02*
X835Y158D01*
X920Y158D02*
X933Y158D01*
X965Y158D02*
X981Y158D01*
X1018Y158D02*
X1031Y158D01*
X85Y157D02*
X97Y157D01*
X111Y157D02*
X124Y157D01*
X139Y157D02*
X152Y157D01*
X182Y157D02*
X195Y157D01*
X236Y157D02*
X248Y157D01*
X320Y157D02*
X333Y157D01*
X418Y157D02*
X431Y157D01*
X475Y157D02*
X488Y157D01*
X529Y157D02*
X542Y157D01*
X582Y157D02*
X640Y157D01*
X777Y157D02*
X835Y157D01*
X920Y157D02*
X933Y157D01*
X965Y157D02*
X1031Y157D01*
X85Y156D02*
X97Y156D01*
X111Y156D02*
X124Y156D01*
X139Y156D02*
X152Y156D01*
X182Y156D02*
X195Y156D01*
X236Y156D02*
X248Y156D01*
X320Y156D02*
X333Y156D01*
X418Y156D02*
X431Y156D01*
X475Y156D02*
X488Y156D01*
X529Y156D02*
X542Y156D01*
X582Y156D02*
X640Y156D01*
X778Y156D02*
X835Y156D01*
X920Y156D02*
X933Y156D01*
X966Y156D02*
X1031Y156D01*
X85Y155D02*
X97Y155D01*
X111Y155D02*
X124Y155D01*
X139Y155D02*
X152Y155D01*
X182Y155D02*
X194Y155D01*
X236Y155D02*
X248Y155D01*
X320Y155D02*
X333Y155D01*
X418Y155D02*
X431Y155D01*
X475Y155D02*
X488Y155D01*
X529Y155D02*
X542Y155D01*
X581Y155D02*
X640Y155D01*
X777Y155D02*
X835Y155D01*
X920Y155D02*
X933Y155D01*
X966Y155D02*
X1031Y155D01*
X85Y154D02*
X97Y154D01*
X111Y154D02*
X124Y154D01*
X139Y154D02*
X152Y154D01*
X182Y154D02*
X194Y154D01*
X236Y154D02*
X248Y154D01*
X320Y154D02*
X333Y154D01*
X418Y154D02*
X431Y154D01*
X475Y154D02*
X488Y154D01*
X529Y154D02*
X542Y154D01*
X580Y154D02*
X640Y154D01*
X776Y154D02*
X835Y154D01*
X920Y154D02*
X933Y154D01*
X967Y154D02*
X1031Y154D01*
X85Y153D02*
X97Y153D01*
X111Y153D02*
X124Y153D01*
X139Y153D02*
X152Y153D01*
X182Y153D02*
X194Y153D01*
X236Y153D02*
X248Y153D01*
X320Y153D02*
X333Y153D01*
X418Y153D02*
X431Y153D01*
X475Y153D02*
X488Y153D01*
X529Y153D02*
X542Y153D01*
X579Y153D02*
X640Y153D01*
X775Y153D02*
X835Y153D01*
X920Y153D02*
X933Y153D01*
X967Y153D02*
X1031Y153D01*
X85Y152D02*
X97Y152D01*
X111Y152D02*
X124Y152D01*
X139Y152D02*
X152Y152D01*
X182Y152D02*
X194Y152D01*
X236Y152D02*
X248Y152D01*
X320Y152D02*
X333Y152D01*
X418Y152D02*
X431Y152D01*
X475Y152D02*
X488Y152D01*
X529Y152D02*
X542Y152D01*
X578Y152D02*
X640Y152D01*
X774Y152D02*
X835Y152D01*
X920Y152D02*
X933Y152D01*
X968Y152D02*
X1031Y152D01*
X85Y151D02*
X97Y151D01*
X111Y151D02*
X124Y151D01*
X139Y151D02*
X152Y151D01*
X182Y151D02*
X194Y151D01*
X236Y151D02*
X248Y151D01*
X320Y151D02*
X333Y151D01*
X418Y151D02*
X431Y151D01*
X475Y151D02*
X488Y151D01*
X529Y151D02*
X542Y151D01*
X578Y151D02*
X640Y151D01*
X773Y151D02*
X835Y151D01*
X919Y151D02*
X932Y151D01*
X969Y151D02*
X1031Y151D01*
X85Y150D02*
X97Y150D01*
X111Y150D02*
X124Y150D01*
X139Y150D02*
X152Y150D01*
X182Y150D02*
X194Y150D01*
X236Y150D02*
X248Y150D01*
X320Y150D02*
X333Y150D01*
X418Y150D02*
X431Y150D01*
X475Y150D02*
X488Y150D01*
X529Y150D02*
X542Y150D01*
X577Y150D02*
X640Y150D01*
X773Y150D02*
X835Y150D01*
X919Y150D02*
X932Y150D01*
X970Y150D02*
X1031Y150D01*
X84Y149D02*
X97Y149D01*
X111Y149D02*
X124Y149D01*
X139Y149D02*
X152Y149D01*
X182Y149D02*
X194Y149D01*
X236Y149D02*
X248Y149D01*
X320Y149D02*
X333Y149D01*
X418Y149D02*
X431Y149D01*
X475Y149D02*
X488Y149D01*
X529Y149D02*
X542Y149D01*
X576Y149D02*
X596Y149D01*
X627Y149D02*
X640Y149D01*
X772Y149D02*
X792Y149D01*
X822Y149D02*
X835Y149D01*
X919Y149D02*
X932Y149D01*
X971Y149D02*
X1031Y149D01*
X84Y148D02*
X97Y148D01*
X111Y148D02*
X124Y148D01*
X139Y148D02*
X152Y148D01*
X182Y148D02*
X194Y148D01*
X236Y148D02*
X248Y148D01*
X320Y148D02*
X333Y148D01*
X418Y148D02*
X431Y148D01*
X475Y148D02*
X488Y148D01*
X529Y148D02*
X542Y148D01*
X576Y148D02*
X593Y148D01*
X627Y148D02*
X640Y148D01*
X771Y148D02*
X789Y148D01*
X822Y148D02*
X835Y148D01*
X918Y148D02*
X932Y148D01*
X972Y148D02*
X1031Y148D01*
X84Y147D02*
X97Y147D01*
X111Y147D02*
X124Y147D01*
X139Y147D02*
X152Y147D01*
X182Y147D02*
X194Y147D01*
X236Y147D02*
X248Y147D01*
X320Y147D02*
X333Y147D01*
X418Y147D02*
X431Y147D01*
X475Y147D02*
X488Y147D01*
X529Y147D02*
X542Y147D01*
X575Y147D02*
X592Y147D01*
X627Y147D02*
X640Y147D01*
X771Y147D02*
X787Y147D01*
X822Y147D02*
X835Y147D01*
X918Y147D02*
X931Y147D01*
X973Y147D02*
X1031Y147D01*
X84Y146D02*
X97Y146D01*
X111Y146D02*
X124Y146D01*
X139Y146D02*
X152Y146D01*
X182Y146D02*
X194Y146D01*
X236Y146D02*
X248Y146D01*
X320Y146D02*
X333Y146D01*
X418Y146D02*
X431Y146D01*
X475Y146D02*
X488Y146D01*
X529Y146D02*
X542Y146D01*
X575Y146D02*
X591Y146D01*
X627Y146D02*
X640Y146D01*
X770Y146D02*
X786Y146D01*
X822Y146D02*
X835Y146D01*
X917Y146D02*
X931Y146D01*
X975Y146D02*
X1031Y146D01*
X84Y145D02*
X97Y145D01*
X111Y145D02*
X124Y145D01*
X139Y145D02*
X152Y145D01*
X182Y145D02*
X194Y145D01*
X236Y145D02*
X248Y145D01*
X320Y145D02*
X333Y145D01*
X418Y145D02*
X431Y145D01*
X475Y145D02*
X488Y145D01*
X529Y145D02*
X542Y145D01*
X575Y145D02*
X589Y145D01*
X627Y145D02*
X640Y145D01*
X770Y145D02*
X785Y145D01*
X822Y145D02*
X835Y145D01*
X917Y145D02*
X931Y145D01*
X977Y145D02*
X1031Y145D01*
X84Y144D02*
X97Y144D01*
X111Y144D02*
X124Y144D01*
X139Y144D02*
X152Y144D01*
X182Y144D02*
X194Y144D01*
X236Y144D02*
X248Y144D01*
X320Y144D02*
X333Y144D01*
X418Y144D02*
X431Y144D01*
X475Y144D02*
X488Y144D01*
X529Y144D02*
X542Y144D01*
X574Y144D02*
X589Y144D01*
X627Y144D02*
X640Y144D01*
X770Y144D02*
X784Y144D01*
X822Y144D02*
X835Y144D01*
X916Y144D02*
X930Y144D01*
X980Y144D02*
X1031Y144D01*
X84Y143D02*
X97Y143D01*
X111Y143D02*
X124Y143D01*
X139Y143D02*
X152Y143D01*
X182Y143D02*
X194Y143D01*
X236Y143D02*
X248Y143D01*
X320Y143D02*
X333Y143D01*
X418Y143D02*
X431Y143D01*
X475Y143D02*
X488Y143D01*
X529Y143D02*
X542Y143D01*
X574Y143D02*
X588Y143D01*
X627Y143D02*
X640Y143D01*
X769Y143D02*
X783Y143D01*
X822Y143D02*
X835Y143D01*
X916Y143D02*
X930Y143D01*
X1018Y143D02*
X1031Y143D01*
X84Y142D02*
X97Y142D01*
X111Y142D02*
X124Y142D01*
X139Y142D02*
X152Y142D01*
X182Y142D02*
X194Y142D01*
X236Y142D02*
X248Y142D01*
X320Y142D02*
X333Y142D01*
X418Y142D02*
X431Y142D01*
X475Y142D02*
X488Y142D01*
X529Y142D02*
X542Y142D01*
X574Y142D02*
X587Y142D01*
X627Y142D02*
X640Y142D01*
X769Y142D02*
X783Y142D01*
X822Y142D02*
X835Y142D01*
X915Y142D02*
X930Y142D01*
X1018Y142D02*
X1031Y142D01*
X84Y141D02*
X97Y141D01*
X111Y141D02*
X124Y141D01*
X139Y141D02*
X152Y141D01*
X182Y141D02*
X194Y141D01*
X236Y141D02*
X248Y141D01*
X320Y141D02*
X333Y141D01*
X418Y141D02*
X431Y141D01*
X475Y141D02*
X488Y141D01*
X529Y141D02*
X542Y141D01*
X573Y141D02*
X587Y141D01*
X627Y141D02*
X640Y141D01*
X769Y141D02*
X782Y141D01*
X822Y141D02*
X835Y141D01*
X915Y141D02*
X929Y141D01*
X1018Y141D02*
X1031Y141D01*
X84Y140D02*
X97Y140D01*
X111Y140D02*
X124Y140D01*
X139Y140D02*
X152Y140D01*
X182Y140D02*
X194Y140D01*
X236Y140D02*
X248Y140D01*
X320Y140D02*
X333Y140D01*
X418Y140D02*
X431Y140D01*
X475Y140D02*
X488Y140D01*
X529Y140D02*
X542Y140D01*
X573Y140D02*
X586Y140D01*
X627Y140D02*
X640Y140D01*
X769Y140D02*
X782Y140D01*
X822Y140D02*
X835Y140D01*
X914Y140D02*
X929Y140D01*
X1018Y140D02*
X1031Y140D01*
X84Y139D02*
X97Y139D01*
X111Y139D02*
X124Y139D01*
X139Y139D02*
X152Y139D01*
X182Y139D02*
X194Y139D01*
X236Y139D02*
X248Y139D01*
X320Y139D02*
X333Y139D01*
X418Y139D02*
X431Y139D01*
X475Y139D02*
X488Y139D01*
X529Y139D02*
X542Y139D01*
X573Y139D02*
X586Y139D01*
X627Y139D02*
X640Y139D01*
X769Y139D02*
X782Y139D01*
X822Y139D02*
X835Y139D01*
X914Y139D02*
X928Y139D01*
X1018Y139D02*
X1031Y139D01*
X84Y138D02*
X97Y138D01*
X111Y138D02*
X124Y138D01*
X139Y138D02*
X152Y138D01*
X182Y138D02*
X194Y138D01*
X236Y138D02*
X248Y138D01*
X320Y138D02*
X333Y138D01*
X418Y138D02*
X431Y138D01*
X475Y138D02*
X488Y138D01*
X529Y138D02*
X542Y138D01*
X573Y138D02*
X586Y138D01*
X627Y138D02*
X640Y138D01*
X769Y138D02*
X781Y138D01*
X822Y138D02*
X835Y138D01*
X913Y138D02*
X928Y138D01*
X1018Y138D02*
X1031Y138D01*
X84Y137D02*
X97Y137D01*
X111Y137D02*
X124Y137D01*
X139Y137D02*
X152Y137D01*
X182Y137D02*
X194Y137D01*
X236Y137D02*
X248Y137D01*
X320Y137D02*
X333Y137D01*
X418Y137D02*
X431Y137D01*
X475Y137D02*
X488Y137D01*
X529Y137D02*
X542Y137D01*
X573Y137D02*
X586Y137D01*
X627Y137D02*
X640Y137D01*
X769Y137D02*
X781Y137D01*
X822Y137D02*
X835Y137D01*
X913Y137D02*
X927Y137D01*
X1018Y137D02*
X1031Y137D01*
X84Y136D02*
X97Y136D01*
X111Y136D02*
X124Y136D01*
X139Y136D02*
X152Y136D01*
X182Y136D02*
X194Y136D01*
X236Y136D02*
X248Y136D01*
X320Y136D02*
X333Y136D01*
X418Y136D02*
X431Y136D01*
X475Y136D02*
X488Y136D01*
X529Y136D02*
X542Y136D01*
X573Y136D02*
X586Y136D01*
X627Y136D02*
X640Y136D01*
X768Y136D02*
X781Y136D01*
X822Y136D02*
X835Y136D01*
X912Y136D02*
X927Y136D01*
X1018Y136D02*
X1031Y136D01*
X84Y135D02*
X97Y135D01*
X111Y135D02*
X124Y135D01*
X139Y135D02*
X152Y135D01*
X182Y135D02*
X194Y135D01*
X236Y135D02*
X248Y135D01*
X320Y135D02*
X333Y135D01*
X418Y135D02*
X431Y135D01*
X475Y135D02*
X488Y135D01*
X529Y135D02*
X542Y135D01*
X573Y135D02*
X586Y135D01*
X627Y135D02*
X640Y135D01*
X768Y135D02*
X781Y135D01*
X822Y135D02*
X835Y135D01*
X912Y135D02*
X926Y135D01*
X1018Y135D02*
X1031Y135D01*
X84Y134D02*
X97Y134D01*
X111Y134D02*
X124Y134D01*
X139Y134D02*
X152Y134D01*
X182Y134D02*
X194Y134D01*
X236Y134D02*
X248Y134D01*
X320Y134D02*
X333Y134D01*
X418Y134D02*
X431Y134D01*
X475Y134D02*
X488Y134D01*
X529Y134D02*
X542Y134D01*
X573Y134D02*
X586Y134D01*
X627Y134D02*
X640Y134D01*
X768Y134D02*
X781Y134D01*
X822Y134D02*
X835Y134D01*
X911Y134D02*
X926Y134D01*
X1018Y134D02*
X1031Y134D01*
X84Y133D02*
X97Y133D01*
X111Y133D02*
X124Y133D01*
X139Y133D02*
X152Y133D01*
X182Y133D02*
X194Y133D01*
X236Y133D02*
X248Y133D01*
X320Y133D02*
X333Y133D01*
X418Y133D02*
X431Y133D01*
X475Y133D02*
X488Y133D01*
X529Y133D02*
X542Y133D01*
X573Y133D02*
X586Y133D01*
X627Y133D02*
X640Y133D01*
X768Y133D02*
X781Y133D01*
X822Y133D02*
X835Y133D01*
X911Y133D02*
X925Y133D01*
X1018Y133D02*
X1031Y133D01*
X84Y132D02*
X97Y132D01*
X111Y132D02*
X124Y132D01*
X139Y132D02*
X152Y132D01*
X182Y132D02*
X194Y132D01*
X236Y132D02*
X248Y132D01*
X320Y132D02*
X333Y132D01*
X418Y132D02*
X431Y132D01*
X475Y132D02*
X488Y132D01*
X529Y132D02*
X542Y132D01*
X573Y132D02*
X586Y132D01*
X627Y132D02*
X640Y132D01*
X768Y132D02*
X781Y132D01*
X822Y132D02*
X835Y132D01*
X910Y132D02*
X925Y132D01*
X1018Y132D02*
X1031Y132D01*
X84Y131D02*
X97Y131D01*
X111Y131D02*
X124Y131D01*
X139Y131D02*
X152Y131D01*
X182Y131D02*
X194Y131D01*
X236Y131D02*
X248Y131D01*
X320Y131D02*
X333Y131D01*
X418Y131D02*
X431Y131D01*
X475Y131D02*
X488Y131D01*
X529Y131D02*
X542Y131D01*
X573Y131D02*
X586Y131D01*
X627Y131D02*
X640Y131D01*
X768Y131D02*
X781Y131D01*
X822Y131D02*
X835Y131D01*
X910Y131D02*
X924Y131D01*
X1018Y131D02*
X1031Y131D01*
X84Y130D02*
X96Y130D01*
X111Y130D02*
X124Y130D01*
X139Y130D02*
X152Y130D01*
X182Y130D02*
X194Y130D01*
X236Y130D02*
X248Y130D01*
X320Y130D02*
X333Y130D01*
X418Y130D02*
X431Y130D01*
X475Y130D02*
X488Y130D01*
X529Y130D02*
X542Y130D01*
X573Y130D02*
X586Y130D01*
X627Y130D02*
X640Y130D01*
X768Y130D02*
X781Y130D01*
X822Y130D02*
X835Y130D01*
X909Y130D02*
X924Y130D01*
X1018Y130D02*
X1031Y130D01*
X84Y129D02*
X96Y129D01*
X111Y129D02*
X124Y129D01*
X139Y129D02*
X152Y129D01*
X182Y129D02*
X194Y129D01*
X236Y129D02*
X248Y129D01*
X320Y129D02*
X333Y129D01*
X418Y129D02*
X431Y129D01*
X475Y129D02*
X488Y129D01*
X529Y129D02*
X542Y129D01*
X573Y129D02*
X586Y129D01*
X627Y129D02*
X640Y129D01*
X769Y129D02*
X781Y129D01*
X822Y129D02*
X835Y129D01*
X909Y129D02*
X923Y129D01*
X1018Y129D02*
X1031Y129D01*
X84Y128D02*
X96Y128D01*
X111Y128D02*
X124Y128D01*
X139Y128D02*
X152Y128D01*
X182Y128D02*
X194Y128D01*
X236Y128D02*
X248Y128D01*
X284Y128D02*
X288Y128D01*
X320Y128D02*
X333Y128D01*
X382Y128D02*
X386Y128D01*
X418Y128D02*
X431Y128D01*
X475Y128D02*
X488Y128D01*
X529Y128D02*
X542Y128D01*
X573Y128D02*
X586Y128D01*
X627Y128D02*
X640Y128D01*
X769Y128D02*
X781Y128D01*
X822Y128D02*
X835Y128D01*
X908Y128D02*
X923Y128D01*
X1018Y128D02*
X1031Y128D01*
X84Y127D02*
X96Y127D01*
X111Y127D02*
X124Y127D01*
X139Y127D02*
X152Y127D01*
X182Y127D02*
X195Y127D01*
X236Y127D02*
X248Y127D01*
X282Y127D02*
X289Y127D01*
X320Y127D02*
X333Y127D01*
X380Y127D02*
X387Y127D01*
X418Y127D02*
X431Y127D01*
X475Y127D02*
X488Y127D01*
X529Y127D02*
X542Y127D01*
X573Y127D02*
X586Y127D01*
X627Y127D02*
X640Y127D01*
X769Y127D02*
X782Y127D01*
X822Y127D02*
X835Y127D01*
X908Y127D02*
X922Y127D01*
X1018Y127D02*
X1031Y127D01*
X84Y126D02*
X96Y126D01*
X111Y126D02*
X124Y126D01*
X139Y126D02*
X152Y126D01*
X182Y126D02*
X195Y126D01*
X235Y126D02*
X248Y126D01*
X281Y126D02*
X290Y126D01*
X320Y126D02*
X333Y126D01*
X379Y126D02*
X388Y126D01*
X418Y126D02*
X431Y126D01*
X475Y126D02*
X488Y126D01*
X529Y126D02*
X542Y126D01*
X573Y126D02*
X586Y126D01*
X627Y126D02*
X640Y126D01*
X769Y126D02*
X782Y126D01*
X822Y126D02*
X835Y126D01*
X907Y126D02*
X922Y126D01*
X1018Y126D02*
X1031Y126D01*
X84Y125D02*
X96Y125D01*
X111Y125D02*
X124Y125D01*
X139Y125D02*
X152Y125D01*
X182Y125D02*
X195Y125D01*
X235Y125D02*
X248Y125D01*
X281Y125D02*
X291Y125D01*
X320Y125D02*
X333Y125D01*
X378Y125D02*
X389Y125D01*
X418Y125D02*
X431Y125D01*
X475Y125D02*
X488Y125D01*
X528Y125D02*
X542Y125D01*
X573Y125D02*
X587Y125D01*
X627Y125D02*
X640Y125D01*
X769Y125D02*
X782Y125D01*
X822Y125D02*
X835Y125D01*
X907Y125D02*
X921Y125D01*
X1018Y125D02*
X1031Y125D01*
X84Y124D02*
X96Y124D01*
X111Y124D02*
X124Y124D01*
X139Y124D02*
X152Y124D01*
X182Y124D02*
X196Y124D01*
X234Y124D02*
X248Y124D01*
X280Y124D02*
X292Y124D01*
X320Y124D02*
X333Y124D01*
X378Y124D02*
X389Y124D01*
X418Y124D02*
X431Y124D01*
X475Y124D02*
X489Y124D01*
X528Y124D02*
X541Y124D01*
X574Y124D02*
X587Y124D01*
X627Y124D02*
X640Y124D01*
X769Y124D02*
X783Y124D01*
X822Y124D02*
X835Y124D01*
X906Y124D02*
X921Y124D01*
X1018Y124D02*
X1031Y124D01*
X84Y123D02*
X96Y123D01*
X111Y123D02*
X124Y123D01*
X139Y123D02*
X152Y123D01*
X182Y123D02*
X197Y123D01*
X234Y123D02*
X248Y123D01*
X280Y123D02*
X292Y123D01*
X320Y123D02*
X333Y123D01*
X377Y123D02*
X390Y123D01*
X418Y123D02*
X430Y123D01*
X476Y123D02*
X490Y123D01*
X527Y123D02*
X541Y123D01*
X574Y123D02*
X588Y123D01*
X627Y123D02*
X640Y123D01*
X770Y123D02*
X784Y123D01*
X822Y123D02*
X835Y123D01*
X906Y123D02*
X920Y123D01*
X1018Y123D02*
X1031Y123D01*
X83Y122D02*
X96Y122D01*
X111Y122D02*
X124Y122D01*
X139Y122D02*
X152Y122D01*
X182Y122D02*
X198Y122D01*
X233Y122D02*
X248Y122D01*
X280Y122D02*
X292Y122D01*
X320Y122D02*
X333Y122D01*
X377Y122D02*
X390Y122D01*
X418Y122D02*
X430Y122D01*
X476Y122D02*
X491Y122D01*
X526Y122D02*
X541Y122D01*
X574Y122D02*
X589Y122D01*
X627Y122D02*
X640Y122D01*
X770Y122D02*
X784Y122D01*
X822Y122D02*
X835Y122D01*
X905Y122D02*
X920Y122D01*
X1018Y122D02*
X1031Y122D01*
X83Y121D02*
X96Y121D01*
X111Y121D02*
X124Y121D01*
X139Y121D02*
X152Y121D01*
X183Y121D02*
X199Y121D01*
X232Y121D02*
X247Y121D01*
X280Y121D02*
X293Y121D01*
X319Y121D02*
X332Y121D01*
X377Y121D02*
X391Y121D01*
X417Y121D02*
X430Y121D01*
X476Y121D02*
X492Y121D01*
X525Y121D02*
X541Y121D01*
X575Y121D02*
X590Y121D01*
X627Y121D02*
X640Y121D01*
X770Y121D02*
X785Y121D01*
X822Y121D02*
X835Y121D01*
X905Y121D02*
X919Y121D01*
X1018Y121D02*
X1031Y121D01*
X83Y120D02*
X96Y120D01*
X111Y120D02*
X124Y120D01*
X139Y120D02*
X152Y120D01*
X183Y120D02*
X200Y120D01*
X230Y120D02*
X247Y120D01*
X280Y120D02*
X294Y120D01*
X319Y120D02*
X332Y120D01*
X377Y120D02*
X391Y120D01*
X417Y120D02*
X430Y120D01*
X477Y120D02*
X493Y120D01*
X524Y120D02*
X540Y120D01*
X575Y120D02*
X591Y120D01*
X627Y120D02*
X640Y120D01*
X771Y120D02*
X786Y120D01*
X822Y120D02*
X835Y120D01*
X904Y120D02*
X919Y120D01*
X1018Y120D02*
X1031Y120D01*
X83Y119D02*
X96Y119D01*
X111Y119D02*
X124Y119D01*
X139Y119D02*
X152Y119D01*
X184Y119D02*
X201Y119D01*
X229Y119D02*
X247Y119D01*
X280Y119D02*
X294Y119D01*
X318Y119D02*
X332Y119D01*
X378Y119D02*
X392Y119D01*
X416Y119D02*
X430Y119D01*
X477Y119D02*
X494Y119D01*
X522Y119D02*
X540Y119D01*
X576Y119D02*
X592Y119D01*
X627Y119D02*
X640Y119D01*
X771Y119D02*
X788Y119D01*
X822Y119D02*
X835Y119D01*
X903Y119D02*
X918Y119D01*
X1018Y119D02*
X1031Y119D01*
X83Y118D02*
X96Y118D01*
X111Y118D02*
X124Y118D01*
X139Y118D02*
X152Y118D01*
X184Y118D02*
X202Y118D01*
X228Y118D02*
X246Y118D01*
X280Y118D02*
X296Y118D01*
X317Y118D02*
X332Y118D01*
X378Y118D02*
X393Y118D01*
X415Y118D02*
X430Y118D01*
X478Y118D02*
X496Y118D01*
X521Y118D02*
X539Y118D01*
X576Y118D02*
X594Y118D01*
X627Y118D02*
X640Y118D01*
X772Y118D02*
X790Y118D01*
X822Y118D02*
X835Y118D01*
X902Y118D02*
X918Y118D01*
X1018Y118D02*
X1031Y118D01*
X83Y117D02*
X96Y117D01*
X111Y117D02*
X124Y117D01*
X139Y117D02*
X152Y117D01*
X185Y117D02*
X205Y117D01*
X225Y117D02*
X245Y117D01*
X281Y117D02*
X298Y117D01*
X314Y117D02*
X332Y117D01*
X378Y117D02*
X396Y117D01*
X412Y117D02*
X429Y117D01*
X478Y117D02*
X499Y117D01*
X518Y117D02*
X539Y117D01*
X577Y117D02*
X598Y117D01*
X626Y117D02*
X640Y117D01*
X772Y117D02*
X794Y117D01*
X822Y117D02*
X835Y117D01*
X899Y117D02*
X917Y117D01*
X1018Y117D02*
X1031Y117D01*
X83Y116D02*
X96Y116D01*
X111Y116D02*
X124Y116D01*
X139Y116D02*
X152Y116D01*
X186Y116D02*
X245Y116D01*
X281Y116D02*
X331Y116D01*
X379Y116D02*
X429Y116D01*
X479Y116D02*
X538Y116D01*
X577Y116D02*
X640Y116D01*
X773Y116D02*
X835Y116D01*
X870Y116D02*
X916Y116D01*
X1018Y116D02*
X1031Y116D01*
X83Y115D02*
X96Y115D01*
X111Y115D02*
X124Y115D01*
X139Y115D02*
X152Y115D01*
X187Y115D02*
X244Y115D01*
X281Y115D02*
X331Y115D01*
X379Y115D02*
X429Y115D01*
X480Y115D02*
X537Y115D01*
X578Y115D02*
X640Y115D01*
X774Y115D02*
X835Y115D01*
X868Y115D02*
X916Y115D01*
X1018Y115D02*
X1031Y115D01*
X83Y114D02*
X96Y114D01*
X111Y114D02*
X124Y114D01*
X139Y114D02*
X152Y114D01*
X188Y114D02*
X243Y114D01*
X282Y114D02*
X330Y114D01*
X380Y114D02*
X428Y114D01*
X481Y114D02*
X536Y114D01*
X579Y114D02*
X640Y114D01*
X774Y114D02*
X835Y114D01*
X868Y114D02*
X915Y114D01*
X1018Y114D02*
X1031Y114D01*
X83Y113D02*
X96Y113D01*
X111Y113D02*
X124Y113D01*
X139Y113D02*
X152Y113D01*
X188Y113D02*
X242Y113D01*
X283Y113D02*
X330Y113D01*
X380Y113D02*
X427Y113D01*
X482Y113D02*
X535Y113D01*
X580Y113D02*
X640Y113D01*
X775Y113D02*
X835Y113D01*
X867Y113D02*
X915Y113D01*
X1018Y113D02*
X1031Y113D01*
X83Y112D02*
X96Y112D01*
X111Y112D02*
X124Y112D01*
X139Y112D02*
X152Y112D01*
X190Y112D02*
X241Y112D01*
X283Y112D02*
X329Y112D01*
X381Y112D02*
X427Y112D01*
X483Y112D02*
X534Y112D01*
X580Y112D02*
X640Y112D01*
X776Y112D02*
X835Y112D01*
X867Y112D02*
X914Y112D01*
X1018Y112D02*
X1031Y112D01*
X83Y111D02*
X96Y111D01*
X111Y111D02*
X124Y111D01*
X139Y111D02*
X152Y111D01*
X191Y111D02*
X240Y111D01*
X284Y111D02*
X328Y111D01*
X382Y111D02*
X426Y111D01*
X484Y111D02*
X533Y111D01*
X581Y111D02*
X640Y111D01*
X777Y111D02*
X835Y111D01*
X866Y111D02*
X913Y111D01*
X1018Y111D02*
X1031Y111D01*
X83Y110D02*
X96Y110D01*
X111Y110D02*
X124Y110D01*
X139Y110D02*
X152Y110D01*
X192Y110D02*
X239Y110D01*
X285Y110D02*
X327Y110D01*
X383Y110D02*
X425Y110D01*
X485Y110D02*
X532Y110D01*
X583Y110D02*
X640Y110D01*
X778Y110D02*
X835Y110D01*
X866Y110D02*
X913Y110D01*
X1018Y110D02*
X1031Y110D01*
X83Y109D02*
X96Y109D01*
X111Y109D02*
X124Y109D01*
X139Y109D02*
X152Y109D01*
X193Y109D02*
X237Y109D01*
X286Y109D02*
X326Y109D01*
X384Y109D02*
X424Y109D01*
X486Y109D02*
X531Y109D01*
X584Y109D02*
X640Y109D01*
X779Y109D02*
X835Y109D01*
X866Y109D02*
X912Y109D01*
X1018Y109D02*
X1031Y109D01*
X83Y108D02*
X95Y108D01*
X111Y108D02*
X123Y108D01*
X139Y108D02*
X151Y108D01*
X194Y108D02*
X236Y108D01*
X287Y108D02*
X325Y108D01*
X385Y108D02*
X423Y108D01*
X487Y108D02*
X530Y108D01*
X585Y108D02*
X640Y108D01*
X781Y108D02*
X835Y108D01*
X867Y108D02*
X910Y108D01*
X1018Y108D02*
X1030Y108D01*
X84Y107D02*
X95Y107D01*
X112Y107D02*
X123Y107D01*
X140Y107D02*
X151Y107D01*
X195Y107D02*
X235Y107D01*
X288Y107D02*
X324Y107D01*
X386Y107D02*
X422Y107D01*
X489Y107D02*
X528Y107D01*
X587Y107D02*
X640Y107D01*
X782Y107D02*
X835Y107D01*
X867Y107D02*
X909Y107D01*
X1019Y107D02*
X1030Y107D01*
X84Y106D02*
X94Y106D01*
X112Y106D02*
X122Y106D01*
X140Y106D02*
X150Y106D01*
X197Y106D02*
X233Y106D01*
X290Y106D02*
X323Y106D01*
X388Y106D02*
X420Y106D01*
X490Y106D02*
X527Y106D01*
X588Y106D02*
X640Y106D01*
X784Y106D02*
X835Y106D01*
X868Y106D02*
X908Y106D01*
X1019Y106D02*
X1029Y106D01*
X85Y105D02*
X93Y105D01*
X113Y105D02*
X121Y105D01*
X141Y105D02*
X149Y105D01*
X199Y105D02*
X231Y105D01*
X292Y105D02*
X321Y105D01*
X390Y105D02*
X419Y105D01*
X492Y105D02*
X525Y105D01*
X591Y105D02*
X640Y105D01*
X786Y105D02*
X835Y105D01*
X869Y105D02*
X906Y105D01*
X1020Y105D02*
X1028Y105D01*
X87Y104D02*
X92Y104D01*
X115Y104D02*
X120Y104D01*
X143Y104D02*
X148Y104D01*
X202Y104D02*
X228Y104D01*
X295Y104D02*
X318Y104D01*
X392Y104D02*
X416Y104D01*
X495Y104D02*
X522Y104D01*
X594Y104D02*
X640Y104D01*
X789Y104D02*
X835Y104D01*
X870Y104D02*
X903Y104D01*
X1022Y104D02*
X1027Y104D01*
D02*
G04 End of Copper0*
M02*