; NON-PLATED HOLES START AT T1
; THROUGH (PLATED) HOLES START AT T100
M48
INCH
T100C0.035000
T101C0.040000
T102C0.040639
T103C0.035433
T104C0.038000
T105C0.031497
%
T100
X020234Y010389
X020234Y014389
T101
X027234Y014389
X024234Y014389
X030234Y014389
X025234Y014389
X028234Y014389
X031234Y014389
X029234Y014389
X026234Y014389
T102
X013235Y020389
X007235Y021389
X010235Y020389
X006234Y020389
X014235Y020389
X005235Y021389
X012235Y020389
X013235Y021389
X022235Y020389
X007235Y020389
X015235Y021389
X009234Y021389
X020235Y021389
X021234Y020389
X022235Y021389
X008235Y020389
X006234Y021389
X005235Y020389
X009234Y020389
X017235Y021389
X019235Y020389
X003235Y020389
X010235Y021389
X020235Y020389
X004234Y021389
X016234Y021389
X017235Y020389
X011234Y021389
X015235Y020389
X018235Y021389
X003235Y021389
X016234Y020389
X008235Y021389
X012235Y021389
X019235Y021389
X018235Y020389
X011234Y020389
X004234Y020389
X014235Y021389
X021234Y021389
T103
X002234Y012389
X003234Y011389
X005234Y011389
X008234Y015389
X001234Y014389
X003234Y017389
X022234Y017389
X018234Y017389
X006234Y013389
T104
X008234Y007389
X008234Y006389
X008234Y008389
T105
X018234Y007389
X019219Y007389
T00
M30
